<?xml version="1.0" encoding="UTF-8"?>
<svg id="Layer_1" data-name="Layer 1" xmlns="http://www.w3.org/2000/svg" viewBox="0 0 51.2 57.6">
  <defs>
    <style>
      .cls-1 {
        fill: #fff;
        opacity: .54;
      }

      .cls-1, .cls-2, .cls-3, .cls-4 {
        stroke-width: 0px;
      }

      .cls-3 {
        fill: #231f20;
        opacity: .3;
      }

      .cls-4 {
        fill: #ffbd05;
      }
    </style>
  </defs>
  <polygon class="cls-4" points="22.4 3.2 28.8 3.2 28.8 6.4 32 6.4 32 9.6 35.2 9.6 35.2 12.8 38.4 12.8 38.4 22.4 41.6 22.4 41.6 32 44.8 32 44.8 35.2 48 35.2 48 41.6 41.6 41.6 41.6 44.8 35.2 44.8 35.2 48 16 48 16 44.8 9.6 44.8 9.6 41.6 3.2 41.6 3.2 35.2 6.4 35.2 6.4 32 9.6 32 9.6 22.4 12.8 22.4 12.8 12.8 16 12.8 16 9.6 19.2 9.6 19.2 6.4 22.4 6.4 22.4 3.2"/>
  <rect class="cls-2" y="35.2" width="3.2" height="6.4"/>
  <rect class="cls-2" x="6.4" y="22.4" width="3.2" height="9.6"/>
  <rect class="cls-2" x="3.2" y="41.6" width="6.4" height="3.2"/>
  <rect class="cls-2" x="9.6" y="44.8" width="6.4" height="3.2"/>
  <rect class="cls-2" x="3.2" y="32" width="3.2" height="3.2"/>
  <rect class="cls-2" x="12.8" y="9.6" width="3.2" height="3.2"/>
  <rect class="cls-2" x="16" y="6.4" width="3.2" height="3.2"/>
  <rect class="cls-2" x="19.2" y="3.2" width="3.2" height="3.2"/>
  <rect class="cls-2" x="9.6" y="12.8" width="3.2" height="9.6"/>
  <rect class="cls-2" x="48" y="35.2" width="3.2" height="6.4" transform="translate(99.2 76.8) rotate(-180)"/>
  <rect class="cls-2" x="41.6" y="22.4" width="3.2" height="9.6" transform="translate(86.4 54.4) rotate(-180)"/>
  <rect class="cls-2" x="41.6" y="41.6" width="6.4" height="3.2" transform="translate(89.6 86.4) rotate(-180)"/>
  <rect class="cls-2" x="35.2" y="44.8" width="6.4" height="3.2" transform="translate(76.8 92.8) rotate(-180)"/>
  <rect class="cls-3" x="35.2" y="41.6" width="6.4" height="3.2" transform="translate(76.8 86.4) rotate(-180)"/>
  <rect class="cls-2" x="44.8" y="32" width="3.2" height="3.2" transform="translate(92.8 67.2) rotate(-180)"/>
  <rect class="cls-2" x="35.2" y="9.6" width="3.2" height="3.2" transform="translate(73.6 22.4) rotate(-180)"/>
  <rect class="cls-2" x="32" y="6.4" width="3.2" height="3.2" transform="translate(67.2 16) rotate(-180)"/>
  <rect class="cls-2" x="28.8" y="3.2" width="3.2" height="3.2" transform="translate(60.8 9.6) rotate(-180)"/>
  <rect class="cls-2" x="38.4" y="12.8" width="3.2" height="9.6" transform="translate(80 35.2) rotate(-180)"/>
  <rect class="cls-2" x="22.4" y="54.4" width="6.4" height="3.2"/>
  <polygon class="cls-2" points="16 48 16 51.2 19.2 51.2 19.2 54.4 22.4 54.4 22.4 51.2 28.8 51.2 28.8 54.4 32 54.4 32 51.2 35.2 51.2 35.2 48 16 48"/>
  <rect class="cls-2" x="22.4" width="6.4" height="3.2"/>
  <rect class="cls-3" x="41.6" y="32" width="3.2" height="3.2" transform="translate(86.4 67.2) rotate(-180)"/>
  <rect class="cls-3" x="44.8" y="35.2" width="3.2" height="6.4" transform="translate(92.8 76.8) rotate(-180)"/>
  <rect class="cls-3" x="35.2" y="12.8" width="3.2" height="9.6" transform="translate(73.6 35.2) rotate(-180)"/>
  <rect class="cls-3" x="32" y="9.6" width="3.2" height="3.2" transform="translate(67.2 22.4) rotate(-180)"/>
  <rect class="cls-3" x="28.8" y="6.4" width="3.2" height="3.2" transform="translate(60.8 16) rotate(-180)"/>
  <rect class="cls-3" x="38.4" y="22.4" width="3.2" height="9.6" transform="translate(80 54.4) rotate(-180)"/>
  <rect class="cls-1" x="6.4" y="32" width="3.2" height="3.2"/>
  <rect class="cls-1" x="9.6" y="41.6" width="6.4" height="3.2"/>
  <rect class="cls-1" x="3.2" y="35.2" width="3.2" height="6.4"/>
  <rect class="cls-1" x="12.8" y="12.8" width="3.2" height="9.6"/>
  <rect class="cls-1" x="16" y="9.6" width="3.2" height="3.2"/>
  <rect class="cls-1" x="19.2" y="6.4" width="3.2" height="3.2"/>
  <rect class="cls-1" x="9.6" y="22.4" width="3.2" height="9.6"/>
  <rect class="cls-3" x="22.4" y="3.2" width="6.4" height="3.2"/>
  <rect class="cls-2" x="19.2" y="22.4" width="3.2" height="9.6"/>
  <rect class="cls-2" x="28.8" y="22.4" width="3.2" height="9.6"/>
  <rect class="cls-2" x="20.8" y="38.4" width="9.6" height="3.2"/>
  <rect class="cls-4" x="22.4" y="51.2" width="6.4" height="3.2"/>
</svg>