<?xml version="1.0" encoding="UTF-8"?>
<svg id="Layer_10" data-name="Layer 10" xmlns="http://www.w3.org/2000/svg" viewBox="0 0 89.6 92.8">
  <defs>
    <style>
      .cls-1, .cls-2, .cls-3, .cls-4, .cls-5, .cls-6, .cls-7, .cls-8, .cls-9, .cls-10 {
        stroke-width: 0px;
      }

      .cls-2 {
        fill: #231f20;
        opacity: .3;
      }

      .cls-3, .cls-10 {
        fill: #9e6c05;
      }

      .cls-4 {
        fill: #fff;
      }

      .cls-5 {
        fill: #ffdc05;
      }

      .cls-6 {
        fill: #ffbd05;
      }

      .cls-7 {
        fill: #ff0005;
      }

      .cls-8 {
        fill: #ecc4a2;
      }

      .cls-9 {
        fill: #00ffef;
      }

      .cls-10 {
        opacity: .29;
      }
    </style>
  </defs>
  <polygon class="cls-3" points="19.2 68.8 19.2 72 22.4 75.2 28.8 75.2 28.8 78.4 35.2 78.4 35.2 81.6 38.4 81.6 38.4 84.8 41.6 84.8 41.6 88 48 88 54.4 81.6 54.4 78.4 60.8 78.4 60.8 75.2 67.2 75.2 67.2 72 70.4 72 70.4 68.8 19.2 68.8"/>
  <polygon class="cls-6" points="65.6 12.8 61.74 16.66 60.8 24 54.4 24 54.4 20.8 46.4 12.8 48 11.2 48 8 44.8 8 41.6 8 41.6 11.2 43.2 12.8 35.2 20.8 35.2 24 28.8 24 27.2 16 24 12.8 22.4 14.4 22.4 36.8 28.8 36.8 28.8 40 44.8 40 60.8 40 60.8 36.8 67.2 36.8 67.2 14.4 65.6 12.8"/>
  <rect class="cls-10" x="48" y="17.6" width="3.2" height="6.4"/>
  <rect class="cls-10" x="51.2" y="24" width="3.2" height="3.2"/>
  <rect class="cls-10" x="57.6" y="36.8" width="3.2" height="3.2"/>
  <rect class="cls-5" x="25.6" y="24" width="3.2" height="3.2"/>
  <rect class="cls-5" x="28.8" y="27.2" width="6.4" height="3.2"/>
  <rect class="cls-5" x="22.4" y="14.4" width="3.2" height="9.6"/>
  <rect class="cls-10" x="60.8" y="24" width="3.2" height="3.2"/>
  <rect class="cls-10" x="64" y="14.4" width="3.2" height="9.6"/>
  <rect class="cls-10" x="41.6" y="14.4" width="6.4" height="3.2" transform="translate(89.6 32) rotate(-180)"/>
  <rect class="cls-5" x="38.4" y="17.6" width="3.2" height="6.4" transform="translate(80 41.6) rotate(-180)"/>
  <rect class="cls-5" x="35.2" y="24" width="3.2" height="3.2" transform="translate(73.6 51.2) rotate(-180)"/>
  <rect class="cls-5" x="28.8" y="36.8" width="3.2" height="3.2" transform="translate(60.8 76.8) rotate(-180)"/>
  <rect class="cls-5" x="32" y="33.6" width="12.8" height="3.2" transform="translate(76.8 70.4) rotate(-180)"/>
  <rect class="cls-10" x="44.8" y="33.6" width="12.8" height="3.2" transform="translate(102.4 70.4) rotate(-180)"/>
  <polygon class="cls-8" points="57.75 40 57.75 46.4 60.95 46.4 60.95 56 64.15 56 64.15 59.2 67.35 59.2 67.35 65.6 60.95 65.6 60.95 68.8 54.55 68.8 54.55 72 35.35 72 35.35 68.8 28.95 68.8 28.95 65.6 22.55 65.6 22.55 59.2 25.75 59.2 25.75 56 28.95 56 28.95 46.4 32.15 46.4 32.15 40 57.75 40"/>
  <polygon class="cls-3" points="28.8 56 28.8 62.4 35.2 62.4 35.2 59.2 54.4 59.2 54.4 62.4 60.8 62.4 60.8 56 64 56 64 59.2 67.2 59.2 67.2 65.6 60.8 65.6 60.8 68.8 54.4 68.8 54.4 72 35.2 72 35.2 68.8 28.8 68.8 28.8 65.6 22.4 65.6 22.4 59.2 25.6 59.2 25.6 56 28.8 56"/>
  <rect class="cls-1" x="19.2" y="59.2" width="3.2" height="6.4"/>
  <rect class="cls-1" x="25.6" y="46.4" width="3.2" height="9.6"/>
  <rect class="cls-2" x="28.8" y="46.4" width="3.2" height="9.6"/>
  <rect class="cls-1" x="22.4" y="65.6" width="6.4" height="3.2"/>
  <rect class="cls-1" x="28.8" y="68.8" width="6.4" height="3.2"/>
  <rect class="cls-6" x="22.4" y="68.8" width="6.4" height="3.2"/>
  <rect class="cls-6" x="28.8" y="72" width="6.4" height="3.2"/>
  <rect class="cls-1" x="35.2" y="72" width="19.2" height="3.2"/>
  <rect class="cls-1" x="38.4" y="75.2" width="3.2" height="3.2"/>
  <rect class="cls-6" x="35.2" y="75.2" width="3.2" height="3.2"/>
  <rect class="cls-6" x="38.4" y="78.4" width="3.2" height="3.2"/>
  <rect class="cls-6" x="19.2" y="65.6" width="3.2" height="3.2"/>
  <rect class="cls-6" x="22.4" y="75.2" width="6.4" height="3.2"/>
  <rect class="cls-6" x="28.8" y="78.4" width="6.4" height="3.2"/>
  <rect class="cls-6" x="35.2" y="81.6" width="3.2" height="3.2"/>
  <rect class="cls-6" x="38.4" y="84.8" width="3.2" height="3.2"/>
  <rect class="cls-6" x="19.2" y="72" width="3.2" height="3.2"/>
  <rect class="cls-6" x="60.8" y="75.2" width="6.4" height="3.2" transform="translate(128 153.6) rotate(-180)"/>
  <rect class="cls-6" x="54.4" y="78.4" width="6.4" height="3.2" transform="translate(115.2 160) rotate(-180)"/>
  <rect class="cls-6" x="51.2" y="81.6" width="3.2" height="3.2" transform="translate(105.6 166.4) rotate(-180)"/>
  <rect class="cls-6" x="48" y="84.8" width="3.2" height="3.2" transform="translate(99.2 172.8) rotate(-180)"/>
  <rect class="cls-6" x="67.2" y="72" width="3.2" height="3.2" transform="translate(137.6 147.2) rotate(-180)"/>
  <rect class="cls-6" x="60.8" y="68.8" width="6.4" height="3.2" transform="translate(128 140.8) rotate(-180)"/>
  <rect class="cls-6" x="54.4" y="72" width="6.4" height="3.2" transform="translate(115.2 147.2) rotate(-180)"/>
  <rect class="cls-6" x="51.2" y="75.2" width="3.2" height="3.2" transform="translate(105.6 153.6) rotate(-180)"/>
  <rect class="cls-6" x="48" y="78.4" width="3.2" height="3.2" transform="translate(99.2 160) rotate(-180)"/>
  <rect class="cls-6" x="67.2" y="65.6" width="3.2" height="3.2" transform="translate(137.6 134.4) rotate(-180)"/>
  <rect class="cls-1" x="22.4" y="56" width="3.2" height="3.2"/>
  <rect class="cls-4" x="36.8" y="46.4" width="3.2" height="3.2"/>
  <rect class="cls-4" x="49.6" y="46.4" width="3.2" height="3.2"/>
  <rect class="cls-1" x="32" y="36.8" width="25.6" height="3.2"/>
  <rect class="cls-1" x="22.4" y="36.8" width="6.4" height="3.2"/>
  <rect class="cls-1" x="19.2" y="14.4" width="3.2" height="22.4"/>
  <rect class="cls-1" x="41.6" y="11.2" width="6.4" height="3.2"/>
  <rect class="cls-1" x="41.6" y="4.8" width="6.4" height="3.2"/>
  <rect class="cls-9" x="41.6" y="8" width="6.4" height="3.2"/>
  <rect class="cls-1" x="25.6" y="14.4" width="3.2" height="9.6"/>
  <rect class="cls-1" x="28.8" y="24" width="6.4" height="3.2"/>
  <rect class="cls-1" x="35.2" y="17.6" width="3.2" height="6.4"/>
  <rect class="cls-1" x="60.8" y="14.4" width="3.2" height="9.6" transform="translate(124.8 38.4) rotate(-180)"/>
  <rect class="cls-1" x="54.4" y="24" width="6.4" height="3.2" transform="translate(115.2 51.2) rotate(-180)"/>
  <rect class="cls-10" x="54.4" y="27.2" width="6.4" height="3.2" transform="translate(115.2 57.6) rotate(-180)"/>
  <rect class="cls-10" x="60.8" y="33.6" width="6.4" height="3.2" transform="translate(128 70.4) rotate(-180)"/>
  <rect class="cls-5" x="22.4" y="33.6" width="6.4" height="3.2" transform="translate(51.2 70.4) rotate(-180)"/>
  <rect class="cls-1" x="51.2" y="17.6" width="3.2" height="6.4" transform="translate(105.6 41.6) rotate(-180)"/>
  <rect class="cls-1" x="38.4" y="14.4" width="3.2" height="3.2"/>
  <rect class="cls-1" x="38.4" y="8" width="3.2" height="3.2"/>
  <rect class="cls-1" x="48" y="8" width="3.2" height="3.2"/>
  <rect class="cls-1" x="22.4" y="11.2" width="3.2" height="3.2"/>
  <rect class="cls-1" x="60.8" y="36.8" width="6.4" height="3.2" transform="translate(128 76.8) rotate(-180)"/>
  <rect class="cls-1" x="67.2" y="14.4" width="3.2" height="22.4" transform="translate(137.6 51.2) rotate(-180)"/>
  <rect class="cls-1" x="48" y="14.4" width="3.2" height="3.2" transform="translate(99.2 32) rotate(-180)"/>
  <rect class="cls-1" x="64" y="11.2" width="3.2" height="3.2" transform="translate(131.2 25.6) rotate(-180)"/>
  <rect class="cls-1" x="28.8" y="40" width="3.2" height="6.4"/>
  <rect class="cls-2" x="32" y="40" width="3.2" height="6.4"/>
  <rect class="cls-1" x="67.2" y="59.2" width="3.2" height="6.4" transform="translate(137.6 124.8) rotate(-180)"/>
  <rect class="cls-1" x="60.8" y="46.4" width="3.2" height="9.6" transform="translate(124.8 102.4) rotate(-180)"/>
  <rect class="cls-1" x="60.8" y="65.6" width="6.4" height="3.2" transform="translate(128 134.4) rotate(-180)"/>
  <rect class="cls-1" x="54.4" y="68.8" width="6.4" height="3.2" transform="translate(115.2 140.8) rotate(-180)"/>
  <rect class="cls-1" x="64" y="56" width="3.2" height="3.2" transform="translate(131.2 115.2) rotate(-180)"/>
  <rect class="cls-1" x="57.6" y="40" width="3.2" height="6.4" transform="translate(118.4 86.4) rotate(-180)"/>
  <rect class="cls-1" x="41.6" y="78.4" width="6.4" height="3.2"/>
  <rect class="cls-6" x="41.6" y="81.6" width="6.4" height="3.2"/>
  <rect class="cls-1" x="48" y="75.2" width="3.2" height="3.2"/>
  <rect class="cls-2" x="60.8" y="56" width="3.2" height="3.2" transform="translate(124.8 115.2) rotate(-180)"/>
  <rect class="cls-2" x="64" y="59.2" width="3.2" height="6.4" transform="translate(131.2 124.8) rotate(-180)"/>
  <rect class="cls-2" x="54.4" y="40" width="3.2" height="6.4" transform="translate(112 86.4) rotate(-180)"/>
  <rect class="cls-2" x="57.6" y="46.4" width="3.2" height="9.6" transform="translate(118.4 102.4) rotate(-180)"/>
  <rect class="cls-1" x="36.8" y="49.6" width="3.2" height="6.4"/>
  <rect class="cls-1" x="49.6" y="49.6" width="3.2" height="6.4"/>
  <rect class="cls-1" x="41.6" y="62.4" width="6.4" height="3.2"/>
  <rect class="cls-7" x="41.6" y="75.2" width="6.4" height="3.2"/>
</svg>