<?xml version="1.0" encoding="UTF-8"?>
<svg id="Layer_11" data-name="Layer 11" xmlns="http://www.w3.org/2000/svg" viewBox="0 0 89.6 92.8">
  <defs>
    <style>
      .cls-1 {
        opacity: .54;
      }

      .cls-1, .cls-2, .cls-3, .cls-4, .cls-5, .cls-6, .cls-7, .cls-8 {
        stroke-width: 0px;
      }

      .cls-1, .cls-4 {
        fill: #fff;
      }

      .cls-3 {
        fill: #231f20;
        opacity: .3;
      }

      .cls-4 {
        opacity: .31;
      }

      .cls-5 {
        fill: #d1d3d4;
      }

      .cls-6 {
        fill: #dbc8b5;
      }

      .cls-7 {
        fill: #7f4e37;
      }

      .cls-8 {
        fill: #ffbd05;
      }
    </style>
  </defs>
  <polygon class="cls-5" points="48 12.8 51.2 12.8 67.2 28.8 67.2 38.4 57.6 48 54.4 48 54.4 38.4 60.8 32 48 19.2 48 12.8"/>
  <polygon class="cls-5" points="28.8 12.8 25.6 12.8 9.6 28.8 9.6 38.4 19.2 48 22.4 48 22.4 38.4 16 32 28.8 19.2 28.8 12.8"/>
  <polygon class="cls-7" points="35.2 35.2 41.6 35.2 41.6 32 44.8 32 44.8 35.2 48 35.2 48 38.4 51.2 38.4 51.2 48 54.4 48 54.4 57.6 57.6 57.6 57.6 60.8 60.8 60.8 60.8 67.2 54.4 67.2 54.4 70.4 48 70.4 48 73.6 28.8 73.6 28.8 70.4 22.4 70.4 22.4 67.2 16 67.2 16 60.8 19.2 60.8 19.2 57.6 22.4 57.6 22.4 48 25.6 48 25.6 38.4 28.8 38.4 28.8 35.2 32 35.2 32 32 35.2 32 35.2 35.2"/>
  <polygon class="cls-6" points="28.8 70.4 28.8 60.8 32 60.8 32 57.6 44.8 57.6 44.8 60.8 48 60.8 48 73.6 28.8 73.6 28.8 70.4"/>
  <rect class="cls-2" x="12.8" y="60.8" width="3.2" height="6.4"/>
  <rect class="cls-2" x="19.2" y="48" width="3.2" height="9.6"/>
  <rect class="cls-2" x="16" y="67.2" width="6.4" height="3.2"/>
  <rect class="cls-2" x="22.4" y="70.4" width="6.4" height="3.2"/>
  <rect class="cls-2" x="16" y="57.6" width="3.2" height="3.2"/>
  <rect class="cls-2" x="25.6" y="35.2" width="3.2" height="3.2"/>
  <rect class="cls-2" x="28.8" y="32" width="3.2" height="3.2"/>
  <rect class="cls-2" x="32" y="28.8" width="3.2" height="3.2"/>
  <rect class="cls-2" x="22.4" y="38.4" width="3.2" height="9.6"/>
  <rect class="cls-2" x="60.8" y="60.8" width="3.2" height="6.4" transform="translate(124.8 128) rotate(-180)"/>
  <rect class="cls-2" x="54.4" y="48" width="3.2" height="9.6" transform="translate(112 105.6) rotate(-180)"/>
  <rect class="cls-2" x="54.4" y="67.2" width="6.4" height="3.2" transform="translate(115.2 137.6) rotate(-180)"/>
  <rect class="cls-2" x="48" y="70.4" width="6.4" height="3.2" transform="translate(102.4 144) rotate(-180)"/>
  <rect class="cls-2" x="57.6" y="57.6" width="3.2" height="3.2" transform="translate(118.4 118.4) rotate(-180)"/>
  <rect class="cls-2" x="60.8" y="70.4" width="6.4" height="3.2" transform="translate(128 144) rotate(-180)"/>
  <rect class="cls-2" x="67.2" y="64" width="3.2" height="6.4" transform="translate(137.6 134.4) rotate(-180)"/>
  <rect class="cls-2" x="70.4" y="57.6" width="3.2" height="6.4" transform="translate(144 121.6) rotate(-180)"/>
  <rect class="cls-2" x="73.6" y="54.4" width="3.2" height="3.2" transform="translate(150.4 112) rotate(-180)"/>
  <rect class="cls-2" x="76.8" y="48" width="6.4" height="6.4" transform="translate(160 102.4) rotate(-180)"/>
  <rect class="cls-2" x="48" y="35.2" width="3.2" height="3.2" transform="translate(99.2 73.6) rotate(-180)"/>
  <rect class="cls-2" x="54.4" y="35.2" width="3.2" height="3.2" transform="translate(112 73.6) rotate(-180)"/>
  <rect class="cls-2" x="48" y="9.6" width="3.2" height="3.2" transform="translate(99.2 22.4) rotate(-180)"/>
  <rect class="cls-2" x="48" y="19.2" width="3.2" height="3.2" transform="translate(99.2 41.6) rotate(-180)"/>
  <rect class="cls-2" x="51.2" y="22.4" width="3.2" height="3.2" transform="translate(105.6 48) rotate(-180)"/>
  <rect class="cls-2" x="44.8" y="12.8" width="3.2" height="6.4" transform="translate(92.8 32) rotate(-180)"/>
  <rect class="cls-2" x="54.4" y="25.6" width="3.2" height="3.2" transform="translate(112 54.4) rotate(-180)"/>
  <rect class="cls-2" x="64" y="25.6" width="3.2" height="3.2" transform="translate(131.2 54.4) rotate(-180)"/>
  <rect class="cls-2" x="60.8" y="22.4" width="3.2" height="3.2" transform="translate(124.8 48) rotate(-180)"/>
  <rect class="cls-2" x="57.6" y="19.2" width="3.2" height="3.2" transform="translate(118.4 41.6) rotate(-180)"/>
  <rect class="cls-2" x="54.4" y="16" width="3.2" height="3.2" transform="translate(112 35.2) rotate(-180)"/>
  <rect class="cls-2" x="51.2" y="12.8" width="3.2" height="3.2" transform="translate(105.6 28.8) rotate(-180)"/>
  <rect class="cls-3" x="60.8" y="25.6" width="3.2" height="3.2" transform="translate(124.8 54.4) rotate(-180)"/>
  <rect class="cls-3" x="57.6" y="22.4" width="3.2" height="3.2" transform="translate(118.4 48) rotate(-180)"/>
  <rect class="cls-3" x="54.4" y="19.2" width="3.2" height="3.2" transform="translate(112 41.6) rotate(-180)"/>
  <rect class="cls-3" x="51.2" y="16" width="3.2" height="3.2" transform="translate(105.6 35.2) rotate(-180)"/>
  <rect class="cls-3" x="48" y="12.8" width="3.2" height="3.2" transform="translate(99.2 28.8) rotate(-180)"/>
  <rect class="cls-2" x="57.6" y="44.8" width="3.2" height="3.2" transform="translate(118.4 92.8) rotate(-180)"/>
  <rect class="cls-2" x="60.8" y="41.6" width="3.2" height="3.2" transform="translate(124.8 86.4) rotate(-180)"/>
  <rect class="cls-2" x="64" y="38.4" width="3.2" height="3.2" transform="translate(131.2 80) rotate(-180)"/>
  <rect class="cls-2" x="67.2" y="28.8" width="3.2" height="9.6" transform="translate(137.6 67.2) rotate(-180)"/>
  <rect class="cls-3" x="54.4" y="44.8" width="3.2" height="3.2" transform="translate(112 92.8) rotate(-180)"/>
  <rect class="cls-3" x="57.6" y="41.6" width="3.2" height="3.2" transform="translate(118.4 86.4) rotate(-180)"/>
  <rect class="cls-3" x="60.8" y="38.4" width="3.2" height="3.2" transform="translate(124.8 80) rotate(-180)"/>
  <rect class="cls-3" x="64" y="28.8" width="3.2" height="9.6" transform="translate(131.2 67.2) rotate(-180)"/>
  <rect class="cls-2" x="57.6" y="28.8" width="3.2" height="6.4" transform="translate(118.4 64) rotate(-180)"/>
  <rect class="cls-2" x="19.2" y="35.2" width="3.2" height="3.2"/>
  <rect class="cls-2" x="25.6" y="9.6" width="3.2" height="3.2"/>
  <rect class="cls-2" x="25.6" y="19.2" width="3.2" height="3.2"/>
  <rect class="cls-2" x="22.4" y="22.4" width="3.2" height="3.2"/>
  <rect class="cls-2" x="28.8" y="12.8" width="3.2" height="6.4"/>
  <rect class="cls-2" x="19.2" y="25.6" width="3.2" height="3.2"/>
  <rect class="cls-2" x="9.6" y="25.6" width="3.2" height="3.2"/>
  <rect class="cls-2" x="12.8" y="22.4" width="3.2" height="3.2"/>
  <rect class="cls-2" x="16" y="19.2" width="3.2" height="3.2"/>
  <rect class="cls-2" x="19.2" y="16" width="3.2" height="3.2"/>
  <rect class="cls-2" x="22.4" y="12.8" width="3.2" height="3.2"/>
  <rect class="cls-2" x="16" y="44.8" width="3.2" height="3.2"/>
  <rect class="cls-2" x="12.8" y="41.6" width="3.2" height="3.2"/>
  <rect class="cls-2" x="9.6" y="38.4" width="3.2" height="3.2"/>
  <rect class="cls-2" x="6.4" y="28.8" width="3.2" height="9.6"/>
  <rect class="cls-1" x="12.8" y="25.6" width="3.2" height="3.2"/>
  <rect class="cls-1" x="16" y="22.4" width="3.2" height="3.2"/>
  <rect class="cls-1" x="19.2" y="19.2" width="3.2" height="3.2"/>
  <rect class="cls-1" x="22.4" y="16" width="3.2" height="3.2"/>
  <rect class="cls-1" x="25.6" y="12.8" width="3.2" height="3.2"/>
  <rect class="cls-1" x="19.2" y="44.8" width="3.2" height="3.2"/>
  <rect class="cls-1" x="16" y="41.6" width="3.2" height="3.2"/>
  <rect class="cls-1" x="12.8" y="38.4" width="3.2" height="3.2"/>
  <rect class="cls-1" x="9.6" y="28.8" width="3.2" height="9.6"/>
  <rect class="cls-2" x="16" y="28.8" width="3.2" height="6.4"/>
  <rect class="cls-2" x="44.8" y="32" width="3.2" height="3.2" transform="translate(92.8 67.2) rotate(-180)"/>
  <rect class="cls-2" x="41.6" y="28.8" width="3.2" height="3.2" transform="translate(86.4 60.8) rotate(-180)"/>
  <rect class="cls-2" x="51.2" y="38.4" width="3.2" height="9.6" transform="translate(105.6 86.4) rotate(-180)"/>
  <rect class="cls-2" x="35.2" y="80" width="6.4" height="3.2"/>
  <polygon class="cls-2" points="28.8 73.6 28.8 76.8 32 76.8 32 80 35.2 80 35.2 76.8 41.6 76.8 41.6 80 44.8 80 44.8 76.8 48 76.8 48 73.6 28.8 73.6"/>
  <rect class="cls-3" x="54.4" y="57.6" width="3.2" height="3.2" transform="translate(112 118.4) rotate(-180)"/>
  <rect class="cls-3" x="57.6" y="60.8" width="3.2" height="6.4" transform="translate(118.4 128) rotate(-180)"/>
  <rect class="cls-3" x="48" y="38.4" width="3.2" height="9.6" transform="translate(99.2 86.4) rotate(-180)"/>
  <rect class="cls-3" x="44.8" y="35.2" width="3.2" height="3.2" transform="translate(92.8 73.6) rotate(-180)"/>
  <rect class="cls-3" x="41.6" y="32" width="3.2" height="3.2" transform="translate(86.4 67.2) rotate(-180)"/>
  <rect class="cls-3" x="51.2" y="48" width="3.2" height="9.6" transform="translate(105.6 105.6) rotate(-180)"/>
  <rect class="cls-4" x="19.2" y="57.6" width="3.2" height="3.2"/>
  <rect class="cls-4" x="16" y="60.8" width="3.2" height="6.4"/>
  <rect class="cls-4" x="25.6" y="38.4" width="3.2" height="9.6"/>
  <rect class="cls-4" x="28.8" y="35.2" width="3.2" height="3.2"/>
  <rect class="cls-4" x="32" y="32" width="3.2" height="3.2"/>
  <rect class="cls-4" x="22.4" y="48" width="3.2" height="9.6"/>
  <rect class="cls-2" x="35.2" y="32" width="6.4" height="3.2"/>
  <rect class="cls-2" x="28.79" y="48" width="4.81" height="3.2"/>
  <rect class="cls-2" x="33.6" y="48" width="3.2" height="6.4"/>
  <rect class="cls-2" x="43.2" y="48" width="4.84" height="3.2" transform="translate(91.24 99.2) rotate(-180)"/>
  <rect class="cls-2" x="40" y="48" width="3.2" height="6.4" transform="translate(83.2 102.4) rotate(-180)"/>
  <rect class="cls-2" x="35.2" y="57.6" width="6.4" height="3.2"/>
  <rect class="cls-2" x="32" y="64" width="12.8" height="3.2"/>
  <rect class="cls-8" x="35.2" y="76.8" width="6.4" height="3.2"/>
</svg>