<?xml version="1.0" encoding="UTF-8"?>
<svg id="Layer_12" data-name="Layer 12" xmlns="http://www.w3.org/2000/svg" viewBox="0 0 89.6 92.8">
  <defs>
    <style>
      .cls-1 {
        fill: #fff;
        opacity: .54;
      }

      .cls-1, .cls-2, .cls-3, .cls-4, .cls-5, .cls-6 {
        stroke-width: 0px;
      }

      .cls-3 {
        fill: #231f20;
        opacity: .3;
      }

      .cls-4 {
        fill: #a45d37;
      }

      .cls-5 {
        fill: #dbc8b5;
      }

      .cls-6 {
        fill: #ffbd05;
      }
    </style>
  </defs>
  <polygon class="cls-4" points="48 22.4 51.2 22.4 51.2 25.6 54.4 25.6 54.4 28.8 57.6 28.8 57.6 38.4 60.8 38.4 60.8 48 64 48 64 51.2 67.2 51.2 67.2 57.6 60.8 57.6 60.8 60.8 54.4 60.8 54.4 64 35.2 64 35.2 60.8 28.8 60.8 28.8 57.6 22.4 57.6 22.4 51.2 25.6 51.2 25.6 48 28.8 48 28.8 38.4 32 38.4 32 28.8 35.2 28.8 35.2 25.6 38.4 25.6 38.4 22.4 41.6 22.4 48 22.4"/>
  <polygon class="cls-5" points="35.2 60.8 32 60.8 32 54.4 35.2 54.4 35.2 51.2 38.4 51.2 38.4 44.8 51.2 44.8 51.2 51.2 54.4 51.2 54.4 54.4 57.6 54.4 57.6 60.8 54.4 60.8 54.4 64 35.2 64 35.2 60.8"/>
  <rect class="cls-2" x="19.2" y="51.2" width="3.2" height="6.4"/>
  <rect class="cls-2" x="25.6" y="38.4" width="3.2" height="9.6"/>
  <rect class="cls-2" x="22.4" y="57.6" width="6.4" height="3.2"/>
  <rect class="cls-2" x="28.8" y="60.8" width="6.4" height="3.2"/>
  <rect class="cls-2" x="22.4" y="48" width="3.2" height="3.2"/>
  <rect class="cls-2" x="32" y="25.6" width="3.2" height="3.2"/>
  <rect class="cls-2" x="35.2" y="22.4" width="3.2" height="3.2"/>
  <rect class="cls-2" x="38.4" y="19.2" width="3.2" height="3.2"/>
  <rect class="cls-2" x="28.8" y="28.8" width="3.2" height="9.6"/>
  <rect class="cls-2" x="67.2" y="51.2" width="3.2" height="6.4" transform="translate(137.6 108.8) rotate(-180)"/>
  <rect class="cls-2" x="60.8" y="38.4" width="3.2" height="9.6" transform="translate(124.8 86.4) rotate(-180)"/>
  <rect class="cls-2" x="60.8" y="57.6" width="6.4" height="3.2" transform="translate(128 118.4) rotate(-180)"/>
  <rect class="cls-2" x="54.4" y="60.8" width="6.4" height="3.2" transform="translate(115.2 124.8) rotate(-180)"/>
  <rect class="cls-2" x="64" y="48" width="3.2" height="3.2" transform="translate(131.2 99.2) rotate(-180)"/>
  <rect class="cls-2" x="54.4" y="25.6" width="3.2" height="3.2" transform="translate(112 54.4) rotate(-180)"/>
  <rect class="cls-2" x="60.8" y="25.6" width="6.4" height="3.2" transform="translate(128 54.4) rotate(-180)"/>
  <rect class="cls-2" x="64" y="35.2" width="3.2" height="3.2" transform="translate(131.2 73.6) rotate(-180)"/>
  <rect class="cls-2" x="67.2" y="28.8" width="3.2" height="6.4" transform="translate(137.6 64) rotate(-180)"/>
  <rect class="cls-2" x="22.4" y="25.6" width="6.4" height="3.2"/>
  <rect class="cls-2" x="22.4" y="35.2" width="3.2" height="3.2"/>
  <rect class="cls-2" x="19.2" y="28.8" width="3.2" height="6.4"/>
  <rect class="cls-1" x="25.6" y="35.2" width="3.2" height="3.2"/>
  <rect class="cls-2" x="51.2" y="22.4" width="3.2" height="3.2" transform="translate(105.6 48) rotate(-180)"/>
  <rect class="cls-2" x="48" y="19.2" width="3.2" height="3.2" transform="translate(99.2 41.6) rotate(-180)"/>
  <rect class="cls-2" x="57.6" y="28.8" width="3.2" height="9.6" transform="translate(118.4 67.2) rotate(-180)"/>
  <rect class="cls-2" x="41.6" y="70.4" width="6.4" height="3.2"/>
  <polygon class="cls-2" points="35.2 64 35.2 67.2 38.4 67.2 38.4 70.4 41.6 70.4 41.6 67.2 48 67.2 48 70.4 51.2 70.4 51.2 67.2 54.4 67.2 54.4 64 35.2 64"/>
  <rect class="cls-3" x="60.8" y="48" width="3.2" height="3.2" transform="translate(124.8 99.2) rotate(-180)"/>
  <rect class="cls-3" x="64" y="51.2" width="3.2" height="6.4" transform="translate(131.2 108.8) rotate(-180)"/>
  <rect class="cls-3" x="54.4" y="28.8" width="3.2" height="9.6" transform="translate(112 67.2) rotate(-180)"/>
  <rect class="cls-3" x="51.2" y="25.6" width="3.2" height="3.2" transform="translate(105.6 54.4) rotate(-180)"/>
  <rect class="cls-3" x="48" y="22.4" width="3.2" height="3.2" transform="translate(99.2 48) rotate(-180)"/>
  <rect class="cls-3" x="57.6" y="38.4" width="3.2" height="9.6" transform="translate(118.4 86.4) rotate(-180)"/>
  <rect class="cls-1" x="25.6" y="48" width="3.2" height="3.2"/>
  <rect class="cls-1" x="22.4" y="51.2" width="3.2" height="6.4"/>
  <rect class="cls-1" x="32" y="28.8" width="3.2" height="9.6"/>
  <rect class="cls-1" x="35.2" y="25.6" width="3.2" height="3.2"/>
  <rect class="cls-1" x="38.4" y="22.4" width="3.2" height="3.2"/>
  <rect class="cls-1" x="28.8" y="38.4" width="3.2" height="9.6"/>
  <rect class="cls-2" x="41.6" y="22.4" width="6.4" height="3.2"/>
  <rect class="cls-2" x="36.8" y="38.4" width="4.81" height="3.2"/>
  <rect class="cls-2" x="48" y="38.4" width="4.84" height="3.2" transform="translate(100.84 80) rotate(-180)"/>
  <rect class="cls-2" x="41.6" y="48" width="6.4" height="3.2"/>
  <rect class="cls-2" x="38.4" y="54.4" width="12.8" height="3.2"/>
  <rect class="cls-6" x="41.6" y="67.2" width="6.4" height="3.2"/>
  <polygon class="cls-4" points="60.8 28.8 67.2 28.8 67.2 35.2 64 35.2 64 38.4 60.8 38.4 60.8 28.8"/>
  <polygon class="cls-3" points="60.8 28.8 60.8 32 64 32 64 35.2 67.2 35.2 67.2 32 67.2 30.7 67.2 28.8 60.8 28.8"/>
  <polygon class="cls-4" points="28.8 28.8 22.4 28.8 22.4 35.2 25.6 35.2 25.6 38.4 28.8 38.4 28.8 28.8"/>
  <polygon class="cls-3" points="28.8 28.8 28.8 32 25.6 32 25.6 35.2 22.4 35.2 22.4 32 22.4 30.7 22.4 28.8 28.8 28.8"/>
</svg>