<?xml version="1.0" encoding="UTF-8"?>
<svg id="Layer_13" data-name="Layer 13" xmlns="http://www.w3.org/2000/svg" viewBox="0 0 89.6 92.8">
  <defs>
    <style>
      .cls-1 {
        fill: #fdddc4;
        opacity: .8;
      }

      .cls-1, .cls-2, .cls-3, .cls-4, .cls-5, .cls-6, .cls-7, .cls-8, .cls-9, .cls-10 {
        stroke-width: 0px;
      }

      .cls-2 {
        opacity: .41;
      }

      .cls-2, .cls-7 {
        fill: #6e463b;
      }

      .cls-3 {
        fill: #fff;
        opacity: .54;
      }

      .cls-5 {
        fill: #231f20;
        opacity: .3;
      }

      .cls-6 {
        fill: #f91d39;
      }

      .cls-8 {
        fill: #b01d39;
      }

      .cls-9 {
        fill: #ffc070;
      }

      .cls-10 {
        fill: #ff5405;
      }
    </style>
  </defs>
  <g>
    <polygon class="cls-9" points="41.6 32 48 32 48 35.2 51.2 35.2 51.2 38.4 54.4 38.4 54.4 41.6 57.6 41.6 57.6 51.2 60.8 51.2 60.8 60.8 64 60.8 64 64 67.2 64 67.2 70.4 60.8 70.4 60.8 73.6 54.4 73.6 54.4 76.8 35.2 76.8 35.2 73.6 28.8 73.6 28.8 70.4 22.4 70.4 22.4 64 25.6 64 25.6 60.8 28.8 60.8 28.8 51.2 32 51.2 32 41.6 35.2 41.6 35.2 38.4 38.4 38.4 38.4 35.2 41.6 35.2 41.6 32"/>
    <rect class="cls-4" x="19.2" y="64" width="3.2" height="6.4"/>
    <rect class="cls-4" x="25.6" y="51.2" width="3.2" height="9.6"/>
    <rect class="cls-4" x="22.4" y="70.4" width="6.4" height="3.2"/>
    <rect class="cls-4" x="28.8" y="73.6" width="6.4" height="3.2"/>
    <rect class="cls-4" x="22.4" y="60.8" width="3.2" height="3.2"/>
    <rect class="cls-4" x="32" y="38.4" width="3.2" height="3.2"/>
    <rect class="cls-4" x="35.2" y="35.2" width="3.2" height="3.2"/>
    <rect class="cls-4" x="38.4" y="32" width="3.2" height="3.2"/>
    <rect class="cls-4" x="28.8" y="41.6" width="3.2" height="9.6"/>
    <rect class="cls-4" x="67.2" y="64" width="3.2" height="6.4" transform="translate(137.6 134.4) rotate(-180)"/>
    <rect class="cls-4" x="60.8" y="51.2" width="3.2" height="9.6" transform="translate(124.8 112) rotate(-180)"/>
    <rect class="cls-4" x="60.8" y="70.4" width="6.4" height="3.2" transform="translate(128 144) rotate(-180)"/>
    <rect class="cls-4" x="54.4" y="73.6" width="6.4" height="3.2" transform="translate(115.2 150.4) rotate(-180)"/>
    <rect class="cls-4" x="64" y="60.8" width="3.2" height="3.2" transform="translate(131.2 124.8) rotate(-180)"/>
    <rect class="cls-4" x="54.4" y="38.4" width="3.2" height="3.2" transform="translate(112 80) rotate(-180)"/>
    <rect class="cls-4" x="51.2" y="35.2" width="3.2" height="3.2" transform="translate(105.6 73.6) rotate(-180)"/>
    <rect class="cls-4" x="48" y="32" width="3.2" height="3.2" transform="translate(99.2 67.2) rotate(-180)"/>
    <rect class="cls-4" x="57.6" y="41.6" width="3.2" height="9.6" transform="translate(118.4 92.8) rotate(-180)"/>
    <rect class="cls-4" x="41.6" y="83.2" width="6.4" height="3.2"/>
    <polygon class="cls-4" points="35.2 76.8 35.2 80 38.4 80 38.4 83.2 41.6 83.2 41.6 80 48 80 48 83.2 51.2 83.2 51.2 80 54.4 80 54.4 76.8 35.2 76.8"/>
    <rect class="cls-4" x="41.6" y="28.8" width="6.4" height="3.2"/>
    <rect class="cls-5" x="60.8" y="60.8" width="3.2" height="3.2" transform="translate(124.8 124.8) rotate(-180)"/>
    <rect class="cls-5" x="64" y="64" width="3.2" height="6.4" transform="translate(131.2 134.4) rotate(-180)"/>
    <rect class="cls-5" x="54.4" y="41.6" width="3.2" height="9.6" transform="translate(112 92.8) rotate(-180)"/>
    <rect class="cls-5" x="51.2" y="38.4" width="3.2" height="3.2" transform="translate(105.6 80) rotate(-180)"/>
    <rect class="cls-5" x="48" y="35.2" width="3.2" height="3.2" transform="translate(99.2 73.6) rotate(-180)"/>
    <rect class="cls-5" x="57.6" y="51.2" width="3.2" height="9.6" transform="translate(118.4 112) rotate(-180)"/>
    <rect class="cls-3" x="25.6" y="60.8" width="3.2" height="3.2"/>
    <rect class="cls-3" x="22.4" y="64" width="3.2" height="6.4"/>
    <rect class="cls-3" x="32" y="41.6" width="3.2" height="9.6"/>
    <rect class="cls-3" x="35.2" y="38.4" width="3.2" height="3.2"/>
    <rect class="cls-3" x="38.4" y="35.2" width="3.2" height="3.2"/>
    <rect class="cls-3" x="28.8" y="51.2" width="3.2" height="9.6"/>
    <rect class="cls-5" x="41.6" y="32" width="6.4" height="3.2"/>
    <rect class="cls-4" x="36.8" y="51.2" width="3.2" height="6.4"/>
    <rect class="cls-4" x="49.6" y="51.2" width="3.2" height="6.4"/>
    <rect class="cls-4" x="40" y="62.4" width="9.6" height="3.2"/>
    <rect class="cls-10" x="41.6" y="80" width="6.4" height="3.2"/>
  </g>
  <g>
    <polygon class="cls-9" points="25.6 48 64 48 67.2 38.4 70.4 35.2 73.6 28.8 73.6 22.4 70.4 16 64 9.6 25.6 9.6 19.2 16 16 22.4 16 28.8 19.2 35.2 25.6 44.8 25.6 48"/>
    <rect class="cls-7" x="25.6" y="6.4" width="38.4" height="3.2" transform="translate(89.6 16) rotate(180)"/>
    <rect class="cls-7" x="22.4" y="9.6" width="3.2" height="3.2"/>
    <rect class="cls-7" x="19.2" y="12.8" width="3.2" height="3.2"/>
    <rect class="cls-7" x="16" y="16" width="3.2" height="6.4"/>
    <rect class="cls-7" x="41.6" y="48" width="6.4" height="3.2"/>
    <rect class="cls-7" x="32" y="48" width="6.4" height="3.2"/>
    <rect class="cls-6" x="22.4" y="41.6" width="44.8" height="3.2"/>
    <rect class="cls-8" x="22.4" y="38.4" width="44.8" height="3.2"/>
    <rect class="cls-7" x="16" y="28.8" width="3.2" height="6.4"/>
    <rect class="cls-2" x="67.2" y="28.8" width="3.2" height="6.4" transform="translate(137.6 64) rotate(180)"/>
    <rect class="cls-2" x="70.4" y="22.4" width="3.2" height="6.4" transform="translate(144 51.2) rotate(180)"/>
    <rect class="cls-2" x="67.2" y="16" width="3.2" height="6.4" transform="translate(137.6 38.4) rotate(180)"/>
    <rect class="cls-7" x="12.8" y="22.4" width="3.2" height="6.4"/>
    <rect class="cls-7" x="64" y="9.6" width="3.2" height="3.2" transform="translate(131.2 22.4) rotate(180)"/>
    <rect class="cls-7" x="67.2" y="12.8" width="3.2" height="3.2" transform="translate(137.6 28.8) rotate(180)"/>
    <rect class="cls-7" x="70.4" y="16" width="3.2" height="6.4" transform="translate(144 38.4) rotate(180)"/>
    <rect class="cls-7" x="67.2" y="35.2" width="3.2" height="3.2" transform="translate(137.6 73.6) rotate(180)"/>
    <rect class="cls-7" x="22.4" y="44.8" width="3.2" height="3.2" transform="translate(48 92.8) rotate(180)"/>
    <rect class="cls-7" x="43.2" y="28.8" width="3.2" height="6.4" transform="translate(89.6 64) rotate(180)"/>
    <rect class="cls-7" x="46.4" y="25.6" width="3.2" height="3.2" transform="translate(96 54.4) rotate(180)"/>
    <rect class="cls-7" x="49.6" y="28.8" width="3.2" height="3.2" transform="translate(102.4 60.8) rotate(180)"/>
    <rect class="cls-7" x="40" y="25.6" width="3.2" height="3.2" transform="translate(83.2 54.4) rotate(180)"/>
    <rect class="cls-7" x="43.2" y="16.04" width="3.2" height="3.2" transform="translate(89.6 35.28) rotate(180)"/>
    <rect class="cls-7" x="36.8" y="28.8" width="3.2" height="3.2" transform="translate(76.8 60.8) rotate(180)"/>
    <rect class="cls-7" x="43.2" y="22.4" width="3.2" height="3.2" transform="translate(89.6 48) rotate(180)"/>
    <rect class="cls-2" x="64" y="12.8" width="3.2" height="3.2"/>
    <rect class="cls-2" x="60.8" y="9.6" width="3.2" height="3.2"/>
    <rect class="cls-2" x="64" y="35.2" width="3.2" height="3.2"/>
    <rect class="cls-1" x="19.2" y="28.8" width="3.2" height="6.4"/>
    <rect class="cls-1" x="16" y="22.4" width="3.2" height="6.4"/>
    <rect class="cls-1" x="19.2" y="16" width="3.2" height="6.4"/>
    <rect class="cls-1" x="22.4" y="12.8" width="3.2" height="3.2" transform="translate(48 28.8) rotate(180)"/>
    <rect class="cls-1" x="22.4" y="35.2" width="3.2" height="3.2" transform="translate(48 73.6) rotate(180)"/>
    <rect class="cls-1" x="25.6" y="9.6" width="17.6" height="3.2" transform="translate(68.8 22.4) rotate(-180)"/>
    <rect class="cls-7" x="46.4" y="19.2" width="3.2" height="3.2" transform="translate(96 41.6) rotate(180)"/>
    <rect class="cls-7" x="49.6" y="16" width="3.2" height="3.2" transform="translate(102.4 35.2) rotate(180)"/>
    <rect class="cls-7" x="40" y="19.2" width="3.2" height="3.2" transform="translate(83.2 41.6) rotate(180)"/>
    <rect class="cls-7" x="36.8" y="16.04" width="3.2" height="3.2" transform="translate(76.8 35.28) rotate(180)"/>
    <rect class="cls-7" x="51.2" y="48" width="6.4" height="3.2" transform="translate(108.8 99.2) rotate(-180)"/>
    <rect class="cls-7" x="19.2" y="48" width="51.2" height="3.2" transform="translate(89.6 99.2) rotate(-180)"/>
    <rect class="cls-7" x="64" y="44.8" width="3.2" height="3.2"/>
    <rect class="cls-1" x="25.6" y="44.8" width="14.4" height="3.2" transform="translate(65.6 92.8) rotate(-180)"/>
    <rect class="cls-2" x="52.8" y="44.8" width="11.2" height="3.2" transform="translate(116.8 92.8) rotate(-180)"/>
    <rect class="cls-7" x="70.4" y="28.8" width="3.2" height="6.4" transform="translate(144 64) rotate(180)"/>
    <rect class="cls-7" x="73.6" y="22.4" width="3.2" height="6.4" transform="translate(150.4 51.2) rotate(180)"/>
    <g>
      <rect class="cls-6" x="19.2" y="44.82" width="3.2" height="3.2"/>
      <rect class="cls-6" x="16" y="48" width="3.2" height="3.2"/>
      <rect class="cls-8" x="19.2" y="41.61" width="3.2" height="3.2"/>
      <rect class="cls-8" x="16" y="44.79" width="3.2" height="3.2"/>
      <rect class="cls-6" x="16" y="35.2" width="3.2" height="3.2"/>
      <rect class="cls-6" x="19.2" y="38.4" width="3.2" height="3.2"/>
      <rect class="cls-8" x="16" y="32" width="3.2" height="3.2"/>
      <rect class="cls-8" x="19.2" y="35.2" width="3.2" height="3.2"/>
    </g>
  </g>
</svg>