<?xml version="1.0" encoding="UTF-8"?>
<svg id="Layer_15" data-name="Layer 15" xmlns="http://www.w3.org/2000/svg" viewBox="0 0 89.6 92.8">
  <defs>
    <style>
      .cls-1 {
        opacity: .54;
      }

      .cls-1, .cls-2, .cls-3, .cls-4, .cls-5, .cls-6, .cls-7 {
        stroke-width: 0px;
      }

      .cls-1, .cls-6 {
        fill: #fff;
      }

      .cls-3 {
        fill: #231f20;
        opacity: .3;
      }

      .cls-4 {
        fill: #770800;
      }

      .cls-5 {
        fill: #ff7300;
      }

      .cls-7 {
        fill: #e6e7e8;
      }
    </style>
  </defs>
  <g>
    <polygon class="cls-2" points="22.4 59.2 22.4 62.4 22.4 65.6 28.8 65.6 28.8 68.8 35.2 68.8 35.2 72 38.4 72 38.4 75.2 41.6 75.2 41.6 78.4 48 78.4 48 75.2 51.2 75.2 51.2 72 54.4 72 54.4 68.8 60.8 68.8 60.8 65.6 67.2 65.6 67.2 62.4 67.2 59.2 22.4 59.2"/>
    <rect class="cls-4" x="22.4" y="59.2" width="6.4" height="3.2"/>
    <rect class="cls-4" x="28.8" y="62.4" width="6.4" height="3.2"/>
    <rect class="cls-4" x="35.2" y="65.6" width="3.2" height="3.2"/>
    <rect class="cls-4" x="38.4" y="68.8" width="3.2" height="3.2"/>
    <rect class="cls-4" x="60.8" y="59.2" width="6.4" height="3.2" transform="translate(128 121.6) rotate(-180)"/>
    <rect class="cls-4" x="54.4" y="62.4" width="6.4" height="3.2" transform="translate(115.2 128) rotate(-180)"/>
    <rect class="cls-4" x="51.2" y="65.6" width="3.2" height="3.2" transform="translate(105.6 134.4) rotate(-180)"/>
    <rect class="cls-4" x="48" y="68.8" width="3.2" height="3.2" transform="translate(99.2 140.8) rotate(-180)"/>
    <rect class="cls-4" x="41.6" y="72" width="6.4" height="3.2"/>
  </g>
  <g>
    <polygon class="cls-5" points="57.6 24 54.4 24 54.4 20.8 54.4 17.6 51.2 17.6 38.4 17.6 35.2 17.6 35.2 20.8 35.2 24 32 24 32 33.6 57.6 33.6 57.6 24"/>
    <polygon class="cls-5" points="64 49.6 64 43.2 60.8 43.2 60.8 33.6 57.6 33.6 57.6 43.2 32 43.2 32 33.6 28.8 33.6 28.8 43.2 25.6 43.2 25.6 49.6 22.4 49.6 22.4 56 28.8 56 28.8 59.2 35.2 59.2 35.2 62.4 54.4 62.4 54.4 59.2 60.8 59.2 60.8 56 67.2 56 67.2 49.6 64 49.6"/>
  </g>
  <rect class="cls-2" x="32" y="33.6" width="25.6" height="9.6"/>
  <polygon class="cls-4" points="32 27.2 57.6 27.2 57.6 24 54.4 24 54.4 17.6 35.2 17.6 35.2 24 32 24 32 27.2"/>
  <g>
    <rect class="cls-2" x="19.2" y="49.6" width="3.2" height="6.4"/>
    <rect class="cls-2" x="25.6" y="33.6" width="3.2" height="9.6"/>
    <rect class="cls-2" x="22.4" y="56" width="6.4" height="3.2"/>
    <rect class="cls-2" x="28.8" y="59.2" width="6.4" height="3.2"/>
    <rect class="cls-2" x="22.4" y="43.2" width="3.2" height="6.4"/>
    <rect class="cls-2" x="32" y="17.6" width="3.2" height="6.4"/>
    <rect class="cls-2" x="28.8" y="24" width="3.2" height="9.6"/>
    <rect class="cls-2" x="67.2" y="49.6" width="3.2" height="6.4" transform="translate(137.6 105.6) rotate(-180)"/>
    <rect class="cls-2" x="60.8" y="33.6" width="3.2" height="9.6" transform="translate(124.8 76.8) rotate(-180)"/>
    <rect class="cls-2" x="60.8" y="56" width="6.4" height="3.2" transform="translate(128 115.2) rotate(-180)"/>
    <rect class="cls-2" x="54.4" y="59.2" width="6.4" height="3.2" transform="translate(115.2 121.6) rotate(-180)"/>
    <rect class="cls-2" x="64" y="43.2" width="3.2" height="6.4" transform="translate(131.2 92.8) rotate(-180)"/>
    <rect class="cls-2" x="54.4" y="17.6" width="3.2" height="6.4" transform="translate(112 41.6) rotate(-180)"/>
    <rect class="cls-2" x="57.6" y="24" width="3.2" height="9.6" transform="translate(118.4 57.6) rotate(-180)"/>
    <rect class="cls-2" x="41.6" y="68.8" width="6.4" height="3.2"/>
    <polygon class="cls-2" points="35.2 62.4 35.2 65.6 38.4 65.6 38.4 68.8 41.6 68.8 41.6 65.6 48 65.6 48 68.8 51.2 68.8 51.2 65.6 54.4 65.6 54.4 62.4 35.2 62.4"/>
    <rect class="cls-2" x="35.2" y="14.4" width="19.2" height="3.2"/>
    <rect class="cls-3" x="60.8" y="43.2" width="3.2" height="6.4" transform="translate(124.8 92.8) rotate(-180)"/>
    <rect class="cls-3" x="64" y="49.6" width="3.2" height="6.4" transform="translate(131.2 105.6) rotate(-180)"/>
    <rect class="cls-3" x="54.4" y="24" width="3.2" height="9.6" transform="translate(112 57.6) rotate(-180)"/>
    <rect class="cls-3" x="51.2" y="17.6" width="3.2" height="6.4" transform="translate(105.6 41.6) rotate(-180)"/>
    <rect class="cls-3" x="57.6" y="33.6" width="3.2" height="9.6" transform="translate(118.4 76.8) rotate(-180)"/>
    <rect class="cls-1" x="25.6" y="43.2" width="3.2" height="3.2"/>
    <rect class="cls-1" x="22.4" y="49.6" width="3.2" height="6.4"/>
    <rect class="cls-1" x="32" y="24" width="3.2" height="9.6"/>
    <rect class="cls-1" x="28.8" y="33.6" width="3.2" height="9.6"/>
  </g>
  <rect class="cls-5" x="35.2" y="36.8" width="3.2" height="3.2"/>
  <rect class="cls-6" x="38.4" y="36.8" width="3.2" height="3.2"/>
  <rect class="cls-5" x="48" y="36.8" width="3.2" height="3.2"/>
  <rect class="cls-6" x="51.2" y="36.8" width="3.2" height="3.2"/>
  <rect class="cls-2" x="40" y="52.8" width="9.6" height="3.2"/>
  <rect class="cls-5" x="41.6" y="65.6" width="6.4" height="3.2"/>
  <polygon class="cls-4" points="67.2 24 67.2 20.8 64 20.8 64 17.6 67.2 17.6 67.2 14.4 64 14.4 60.8 14.4 60.8 17.6 60.8 20.8 57.6 20.8 57.6 24 60.8 24 64 24 64 27.2 64 30.4 67.2 30.4 67.2 27.2 70.4 27.2 70.4 24 67.2 24"/>
  <rect class="cls-7" x="41.6" y="20.8" width="6.4" height="3.2"/>
  <rect class="cls-3" x="60.8" y="20.8" width="3.2" height="3.2"/>
  <rect class="cls-3" x="64" y="24" width="3.2" height="3.2"/>
  <rect class="cls-3" x="60.8" y="14.4" width="3.2" height="3.2"/>
</svg>