<?xml version="1.0" encoding="UTF-8"?>
<svg id="Layer_16" data-name="Layer 16" xmlns="http://www.w3.org/2000/svg" viewBox="0 0 89.6 92.8">
  <defs>
    <style>
      .cls-1 {
        fill: #231f20;
        opacity: .2;
      }

      .cls-1, .cls-2, .cls-3, .cls-4, .cls-5, .cls-6, .cls-7, .cls-8, .cls-9 {
        stroke-width: 0px;
      }

      .cls-3 {
        fill: #fc0000;
      }

      .cls-4 {
        fill: #294417;
      }

      .cls-5 {
        fill: #558c00;
      }

      .cls-6 {
        fill: #86ae00;
      }

      .cls-7 {
        fill: #cae900;
      }

      .cls-8 {
        fill: #fff;
      }

      .cls-9 {
        fill: #e58c34;
      }
    </style>
  </defs>
  <polyline class="cls-6" points="51.2 35.2 54.4 35.2 54.4 38.4 57.6 38.4 57.6 48 60.8 48 60.8 57.6 64 57.6 64 60.8 67.2 60.8 67.2 67.2 60.8 67.2 60.8 70.4 54.4 70.4 54.4 73.6 35.2 73.6 35.2 70.4 28.8 70.4 28.8 67.2 22.4 67.2 22.4 60.8 25.6 60.8 25.6 57.6 28.8 57.6 28.8 48 32 48 32 38.4 35.2 38.4 35.2 35.2 38.4 35.2"/>
  <rect class="cls-2" x="25.6" y="48" width="3.2" height="9.6"/>
  <rect class="cls-2" x="22.4" y="67.2" width="6.4" height="3.2"/>
  <rect class="cls-2" x="28.8" y="70.4" width="6.4" height="3.2"/>
  <rect class="cls-2" x="22.4" y="57.6" width="3.2" height="3.2"/>
  <rect class="cls-2" x="32" y="35.2" width="3.2" height="6.4"/>
  <rect class="cls-2" x="28.8" y="41.6" width="3.2" height="6.4"/>
  <rect class="cls-2" x="67.2" y="60.8" width="3.2" height="6.4" transform="translate(137.6 128) rotate(-180)"/>
  <rect class="cls-2" x="19.2" y="60.8" width="3.2" height="6.4" transform="translate(41.6 128) rotate(-180)"/>
  <rect class="cls-2" x="60.8" y="48" width="3.2" height="9.6" transform="translate(124.8 105.6) rotate(-180)"/>
  <rect class="cls-2" x="60.8" y="67.2" width="6.4" height="3.2" transform="translate(128 137.6) rotate(-180)"/>
  <rect class="cls-2" x="54.4" y="70.4" width="6.4" height="3.2" transform="translate(115.2 144) rotate(-180)"/>
  <rect class="cls-2" x="64" y="57.6" width="3.2" height="3.2" transform="translate(131.2 118.4) rotate(-180)"/>
  <rect class="cls-2" x="54.4" y="35.2" width="3.2" height="6.4" transform="translate(112 76.8) rotate(-180)"/>
  <rect class="cls-2" x="35.2" y="32" width="19.2" height="3.2" transform="translate(89.6 67.2) rotate(-180)"/>
  <rect class="cls-2" x="57.6" y="41.6" width="3.2" height="6.4" transform="translate(118.4 89.6) rotate(-180)"/>
  <rect class="cls-2" x="41.6" y="80" width="6.4" height="3.2"/>
  <polygon class="cls-2" points="35.2 73.6 35.2 76.8 38.4 76.8 38.4 80 41.6 80 41.6 76.8 48 76.8 48 80 51.2 80 51.2 76.8 54.4 76.8 54.4 73.6 35.2 73.6"/>
  <rect class="cls-4" x="38.4" y="38.4" width="12.8" height="12.8"/>
  <rect class="cls-5" x="60.8" y="57.6" width="3.2" height="3.2" transform="translate(124.8 118.4) rotate(-180)"/>
  <rect class="cls-5" x="54.4" y="67.2" width="6.4" height="3.2" transform="translate(115.2 137.6) rotate(-180)"/>
  <rect class="cls-5" x="48" y="70.4" width="6.4" height="3.2" transform="translate(102.4 144) rotate(-180)"/>
  <rect class="cls-5" x="64" y="60.8" width="3.2" height="6.4" transform="translate(131.2 128) rotate(-180)"/>
  <rect class="cls-5" x="54.4" y="41.6" width="3.2" height="6.4" transform="translate(112 89.6) rotate(-180)"/>
  <polygon class="cls-5" points="52.09 35.28 52.09 35.2 38.4 35.2 38.4 38.4 51.2 38.4 51.2 41.68 54.4 41.68 54.4 35.28 52.09 35.28"/>
  <rect class="cls-5" x="57.6" y="48" width="3.2" height="9.6" transform="translate(118.4 105.6) rotate(-180)"/>
  <rect class="cls-7" x="25.6" y="57.6" width="3.2" height="3.2"/>
  <rect class="cls-7" x="22.4" y="60.8" width="3.2" height="6.4"/>
  <rect class="cls-7" x="32" y="41.6" width="3.2" height="6.4"/>
  <rect class="cls-7" x="35.2" y="35.28" width="3.2" height="6.4"/>
  <rect class="cls-7" x="28.8" y="48" width="3.2" height="9.6"/>
  <rect class="cls-8" x="35.2" y="54.4" width="6.4" height="6.4"/>
  <rect class="cls-8" x="48" y="54.4" width="6.4" height="6.4" transform="translate(102.4 115.2) rotate(-180)"/>
  <rect class="cls-2" x="41.6" y="64" width="6.4" height="3.2"/>
  <rect class="cls-7" x="41.6" y="76.8" width="6.4" height="3.2"/>
  <rect class="cls-4" x="35.2" y="41.6" width="19.2" height="6.4"/>
  <rect class="cls-9" x="43.2" y="9.6" width="3.2" height="35.2" transform="translate(89.6 54.4) rotate(-180)"/>
  <rect class="cls-3" x="59.2" y="12.8" width="3.2" height="3.2"/>
  <rect class="cls-3" x="46.4" y="9.6" width="3.2" height="12.8"/>
  <rect class="cls-3" x="46.4" y="9.6" width="3.2" height="16"/>
  <rect class="cls-3" x="49.6" y="9.6" width="3.2" height="12.8"/>
  <rect class="cls-1" x="49.6" y="9.6" width="3.2" height="12.8"/>
  <rect class="cls-3" x="56" y="12.8" width="3.2" height="6.4"/>
  <rect class="cls-1" x="56" y="12.8" width="3.2" height="6.4"/>
  <rect class="cls-3" x="52.8" y="9.6" width="3.2" height="9.6"/>
</svg>