<?xml version="1.0" encoding="UTF-8"?>
<svg id="Layer_18" data-name="Layer 18" xmlns="http://www.w3.org/2000/svg" viewBox="0 0 89.6 92.8">
  <defs>
    <style>
      .cls-1 {
        opacity: .15;
      }

      .cls-1, .cls-2, .cls-3, .cls-4, .cls-5, .cls-6, .cls-7 {
        stroke-width: 0px;
      }

      .cls-3 {
        fill: #9f554e;
      }

      .cls-4 {
        fill: #b9000a;
      }

      .cls-5 {
        fill: #ffafa4;
      }

      .cls-6 {
        fill: #fff;
      }

      .cls-7 {
        fill: #ff4f42;
      }
    </style>
  </defs>
  <polygon class="cls-6" points="64.02 56 64.02 52.8 64.02 14.4 60.84 14.4 60.84 11.2 57.66 11.2 57.66 14.4 54.44 14.4 54.44 36.8 51.22 36.8 51.22 40 44.82 40 38.42 40 38.42 36.8 35.21 36.8 35.21 14.4 31.99 14.4 31.99 11.2 28.81 11.2 28.81 14.4 25.62 14.4 25.62 46.4 25.62 52.8 25.62 56 22.4 56 22.4 68.8 28.82 68.8 28.82 72 35.22 72 35.22 75.2 44.82 75.2 54.42 75.2 54.42 72 60.82 72 60.82 68.8 67.25 68.8 67.25 56 64.02 56"/>
  <g>
    <rect class="cls-2" x="41.6" y="81.6" width="6.4" height="3.2"/>
    <polygon class="cls-2" points="35.2 75.2 35.2 78.4 38.4 78.4 38.4 81.6 41.6 81.6 41.6 78.4 48 78.4 48 81.6 51.2 81.6 51.2 78.4 54.4 78.4 54.4 75.2 35.2 75.2"/>
    <rect class="cls-2" x="38.38" y="36.8" width="12.85" height="3.2"/>
    <rect class="cls-2" x="22.4" y="68.8" width="6.4" height="3.2"/>
    <rect class="cls-2" x="28.8" y="72" width="6.4" height="3.2"/>
    <rect class="cls-2" x="19.18" y="56" width="3.2" height="12.8"/>
    <rect class="cls-2" x="32" y="36.8" width="3.2" height="3.2"/>
    <rect class="cls-2" x="25.6" y="46.4" width="3.2" height="6.4"/>
    <rect class="cls-2" x="22.4" y="52.8" width="3.2" height="3.2"/>
    <rect class="cls-2" x="35.2" y="14.4" width="3.2" height="22.4"/>
    <rect class="cls-2" x="22.4" y="14.4" width="3.2" height="32"/>
    <rect class="cls-2" x="28.78" y="8" width="3.22" height="3.2"/>
    <rect class="cls-2" x="25.56" y="11.2" width="3.22" height="3.2"/>
    <rect class="cls-2" x="31.96" y="11.2" width="3.22" height="3.2"/>
    <rect class="cls-2" x="28.8" y="40" width="3.2" height="6.4"/>
    <rect class="cls-2" x="60.8" y="68.8" width="6.4" height="3.2" transform="translate(128 140.8) rotate(-180)"/>
    <rect class="cls-2" x="54.4" y="72" width="6.4" height="3.2" transform="translate(115.2 147.2) rotate(-180)"/>
    <rect class="cls-2" x="67.22" y="55.99" width="3.2" height="12.81" transform="translate(137.65 124.79) rotate(-180)"/>
    <rect class="cls-2" x="54.4" y="36.8" width="3.2" height="3.2" transform="translate(112 76.8) rotate(-180)"/>
    <rect class="cls-2" x="60.8" y="46.4" width="3.2" height="6.4" transform="translate(124.8 99.2) rotate(-180)"/>
    <rect class="cls-2" x="64" y="52.8" width="3.2" height="3.2" transform="translate(131.2 108.8) rotate(-180)"/>
    <rect class="cls-2" x="51.2" y="14.4" width="3.2" height="22.4" transform="translate(105.6 51.2) rotate(-180)"/>
    <rect class="cls-2" x="64" y="14.4" width="3.2" height="32" transform="translate(131.2 60.8) rotate(-180)"/>
    <rect class="cls-2" x="57.6" y="8" width="3.22" height="3.2" transform="translate(118.42 19.2) rotate(-180)"/>
    <rect class="cls-2" x="60.81" y="11.2" width="3.22" height="3.2" transform="translate(124.85 25.6) rotate(-180)"/>
    <rect class="cls-2" x="54.41" y="11.2" width="3.22" height="3.2" transform="translate(112.05 25.6) rotate(-180)"/>
    <rect class="cls-2" x="57.6" y="40" width="3.2" height="6.4" transform="translate(118.4 86.4) rotate(-180)"/>
    <rect class="cls-1" x="64.01" y="55.99" width="3.2" height="12.81" transform="translate(131.22 124.79) rotate(-180)"/>
    <rect class="cls-1" x="51.19" y="36.8" width="3.2" height="3.2" transform="translate(105.58 76.8) rotate(-180)"/>
    <rect class="cls-1" x="35.2" y="36.8" width="3.2" height="3.2" transform="translate(73.6 76.8) rotate(-180)"/>
    <rect class="cls-1" x="57.59" y="46.4" width="3.2" height="6.4" transform="translate(118.38 99.2) rotate(-180)"/>
    <rect class="cls-1" x="60.79" y="52.8" width="3.2" height="3.2" transform="translate(124.78 108.8) rotate(-180)"/>
    <rect class="cls-1" x="54.39" y="40" width="3.2" height="6.4" transform="translate(111.98 86.4) rotate(-180)"/>
    <rect class="cls-1" x="22.39" y="55.99" width="3.2" height="12.81"/>
    <rect class="cls-1" x="28.81" y="46.4" width="3.2" height="6.4"/>
    <rect class="cls-1" x="25.61" y="52.8" width="3.2" height="3.2"/>
    <rect class="cls-1" x="32.01" y="40" width="3.2" height="6.4"/>
    <rect class="cls-1" x="60.79" y="17.56" width="3.2" height="28.84" transform="translate(124.78 63.96) rotate(-180)"/>
    <rect class="cls-1" x="25.58" y="17.56" width="3.2" height="28.84" transform="translate(54.35 63.96) rotate(-180)"/>
    <rect class="cls-7" x="57.62" y="17.6" width="3.2" height="22.4"/>
    <rect class="cls-7" x="28.8" y="17.6" width="3.2" height="22.4"/>
  </g>
  <rect class="cls-7" x="32" y="49.6" width="9.6" height="9.6"/>
  <rect class="cls-2" x="41.58" y="67.21" width="6.45" height="3.2"/>
  <rect class="cls-4" x="41.6" y="78.4" width="6.4" height="3.2"/>
  <rect class="cls-4" x="32" y="49.6" width="3.22" height="3.22"/>
  <rect class="cls-4" x="32" y="55.98" width="3.22" height="3.22"/>
  <rect class="cls-4" x="38.38" y="55.98" width="3.22" height="3.22"/>
  <rect class="cls-5" x="35.22" y="52.82" width="3.15" height="3.15"/>
  <rect class="cls-5" x="25.62" y="64.01" width="1.61" height="1.61"/>
  <rect class="cls-5" x="27.24" y="59.21" width="1.61" height="1.61"/>
  <rect class="cls-5" x="30.42" y="62.4" width="1.61" height="1.61"/>
  <rect class="cls-5" x="62.41" y="64.01" width="1.61" height="1.61" transform="translate(126.44 129.64) rotate(-180)"/>
  <rect class="cls-5" x="60.8" y="59.21" width="1.61" height="1.61" transform="translate(123.21 120.04) rotate(-180)"/>
  <rect class="cls-5" x="57.61" y="62.4" width="1.61" height="1.61" transform="translate(116.84 126.41) rotate(-180)"/>
  <rect class="cls-3" x="43.99" y="62.4" width="1.61" height="1.61" transform="translate(89.6 126.41) rotate(-180)"/>
  <rect class="cls-4" x="38.38" y="49.6" width="3.22" height="3.22"/>
  <rect class="cls-7" x="48" y="49.6" width="9.6" height="9.6" transform="translate(105.6 108.8) rotate(-180)"/>
  <rect class="cls-4" x="54.38" y="49.6" width="3.22" height="3.22" transform="translate(111.98 102.42) rotate(-180)"/>
  <rect class="cls-4" x="54.38" y="55.98" width="3.22" height="3.22" transform="translate(111.98 115.18) rotate(-180)"/>
  <rect class="cls-4" x="48" y="55.98" width="3.22" height="3.22" transform="translate(99.22 115.18) rotate(-180)"/>
  <rect class="cls-5" x="51.22" y="52.82" width="3.15" height="3.15" transform="translate(105.6 108.8) rotate(-180)"/>
  <rect class="cls-4" x="48" y="49.6" width="3.22" height="3.22" transform="translate(99.22 102.42) rotate(-180)"/>
</svg>