<?xml version="1.0" encoding="UTF-8"?>
<svg id="Layer_19" data-name="Layer 19" xmlns="http://www.w3.org/2000/svg" viewBox="0 0 89.6 105.6">
  <defs>
    <style>
      .cls-1 {
        opacity: .54;
      }

      .cls-1, .cls-2 {
        fill: #fff;
      }

      .cls-1, .cls-2, .cls-3, .cls-4, .cls-5, .cls-6 {
        stroke-width: 0px;
      }

      .cls-2 {
        opacity: .26;
      }

      .cls-4 {
        fill: #231f20;
        opacity: .3;
      }

      .cls-5 {
        fill: #acbd05;
      }

      .cls-6 {
        fill: #b47741;
      }
    </style>
  </defs>
  <polygon class="cls-5" points="35.2 3.2 54.4 3.2 54.4 6.4 60.8 6.4 60.8 9.6 67.2 9.6 67.2 12.8 70.4 12.8 70.4 19.2 73.6 19.2 73.6 25.6 76.8 25.6 76.8 32 80 32 80 38.4 76.8 38.4 76.8 44.8 70.4 44.8 70.4 48 64 48 64 51.2 60.8 51.2 60.8 54.4 54.4 54.4 54.4 51.2 51.2 51.2 51.2 48 48 48 41.6 48 38.4 48 38.4 51.2 35.2 51.2 35.2 54.4 28.8 54.4 25.6 51.2 19.2 48 12.8 44.8 9.6 38.4 9.6 32 12.8 32 12.8 25.6 16 25.6 16 19.2 19.2 19.2 19.2 12.8 22.4 12.8 22.4 9.6 28.8 9.6 28.8 6.4 35.2 6.4 35.2 3.2"/>
  <polygon class="cls-6" points="48 48 51.2 48 51.2 51.2 54.4 51.2 54.4 54.4 57.6 54.4 57.6 64 60.8 64 60.8 73.6 64 73.6 64 76.8 67.2 76.8 67.2 83.2 60.8 83.2 60.8 86.4 54.4 86.4 54.4 89.6 35.2 89.6 35.2 86.4 28.8 86.4 28.8 83.2 22.4 83.2 22.4 76.8 25.6 76.8 25.6 73.6 28.8 73.6 28.8 64 32 64 32 54.4 35.2 54.4 35.2 51.2 38.4 51.2 38.4 48 41.6 48 48 48"/>
  <rect class="cls-3" x="19.2" y="76.8" width="3.2" height="6.4"/>
  <rect class="cls-3" x="25.6" y="64" width="3.2" height="9.6"/>
  <rect class="cls-3" x="22.4" y="83.2" width="6.4" height="3.2"/>
  <rect class="cls-3" x="28.8" y="86.4" width="6.4" height="3.2"/>
  <rect class="cls-3" x="22.4" y="73.6" width="3.2" height="3.2"/>
  <rect class="cls-3" x="28.8" y="60.8" width="3.2" height="3.2"/>
  <rect class="cls-3" x="28.8" y="35.2" width="3.2" height="3.2"/>
  <rect class="cls-3" x="25.6" y="16" width="3.2" height="3.2"/>
  <rect class="cls-3" x="28.8" y="12.8" width="6.4" height="3.2"/>
  <rect class="cls-3" x="19.2" y="38.4" width="6.4" height="3.2"/>
  <rect class="cls-3" x="32" y="38.4" width="3.2" height="3.2"/>
  <rect class="cls-3" x="25.6" y="41.6" width="3.2" height="3.2"/>
  <rect class="cls-3" x="9.6" y="38.4" width="3.2" height="6.4"/>
  <rect class="cls-3" x="6.4" y="32" width="3.2" height="6.4"/>
  <rect class="cls-3" x="9.6" y="25.6" width="3.2" height="6.4"/>
  <rect class="cls-3" x="12.8" y="19.2" width="3.2" height="6.4"/>
  <rect class="cls-3" x="16" y="12.8" width="3.2" height="6.4"/>
  <rect class="cls-3" x="25.6" y="51.2" width="3.2" height="3.2"/>
  <rect class="cls-3" x="28.8" y="54.4" width="3.2" height="3.2"/>
  <rect class="cls-3" x="19.2" y="48" width="6.4" height="3.2"/>
  <rect class="cls-3" x="12.8" y="44.8" width="6.4" height="3.2"/>
  <rect class="cls-3" x="67.2" y="76.8" width="3.2" height="6.4" transform="translate(137.6 160) rotate(-180)"/>
  <rect class="cls-3" x="67.2" y="92.8" width="3.2" height="6.4" transform="translate(137.6 192) rotate(-180)"/>
  <rect class="cls-3" x="57.6" y="96" width="3.2" height="6.4" transform="translate(118.4 198.4) rotate(-180)"/>
  <rect class="cls-3" x="60.8" y="64" width="3.2" height="9.6" transform="translate(124.8 137.6) rotate(-180)"/>
  <rect class="cls-3" x="60.8" y="83.2" width="6.4" height="3.2" transform="translate(128 169.6) rotate(-180)"/>
  <rect class="cls-3" x="54.4" y="86.4" width="6.4" height="3.2" transform="translate(115.2 176) rotate(-180)"/>
  <rect class="cls-3" x="60.8" y="89.6" width="6.4" height="3.2" transform="translate(128 182.4) rotate(-180)"/>
  <rect class="cls-3" x="48" y="99.2" width="3.2" height="6.4" transform="translate(99.2 204.8) rotate(-180)"/>
  <rect class="cls-3" x="54.4" y="102.4" width="3.2" height="3.2" transform="translate(112 208) rotate(-180)"/>
  <rect class="cls-3" x="60.8" y="102.4" width="6.4" height="3.2" transform="translate(128 208) rotate(-180)"/>
  <rect class="cls-3" x="54.4" y="92.8" width="3.2" height="3.2" transform="translate(112 188.8) rotate(-180)"/>
  <rect class="cls-3" x="64" y="73.6" width="3.2" height="3.2" transform="translate(131.2 150.4) rotate(-180)"/>
  <rect class="cls-3" x="70.4" y="99.2" width="3.2" height="3.2" transform="translate(144 201.6) rotate(-180)"/>
  <rect class="cls-3" x="64" y="96" width="3.2" height="3.2" transform="translate(131.2 195.2) rotate(-180)"/>
  <rect class="cls-3" x="22.4" y="96" width="3.2" height="3.2" transform="translate(48 195.2) rotate(-180)"/>
  <rect class="cls-3" x="70.4" y="89.6" width="3.2" height="3.2" transform="translate(144 182.4) rotate(-180)"/>
  <rect class="cls-3" x="73.6" y="92.8" width="3.2" height="3.2" transform="translate(150.4 188.8) rotate(-180)"/>
  <rect class="cls-3" x="12.8" y="83.2" width="6.4" height="3.2" transform="translate(32 169.6) rotate(-180)"/>
  <rect class="cls-3" x="70.4" y="83.2" width="6.4" height="3.2" transform="translate(147.2 169.6) rotate(-180)"/>
  <rect class="cls-3" x="41.6" y="102.4" width="3.2" height="3.2" transform="translate(86.4 208) rotate(-180)"/>
  <rect class="cls-3" x="19.2" y="92.8" width="3.2" height="6.4"/>
  <rect class="cls-3" x="28.8" y="96" width="3.2" height="6.4"/>
  <rect class="cls-3" x="22.4" y="89.6" width="6.4" height="3.2"/>
  <rect class="cls-3" x="38.4" y="99.2" width="3.2" height="3.2"/>
  <rect class="cls-3" x="35.2" y="102.4" width="3.2" height="3.2"/>
  <rect class="cls-3" x="22.4" y="102.4" width="6.4" height="3.2"/>
  <rect class="cls-3" x="32" y="92.8" width="3.2" height="3.2"/>
  <rect class="cls-3" x="16" y="99.2" width="3.2" height="3.2"/>
  <rect class="cls-3" x="16" y="89.6" width="3.2" height="3.2"/>
  <rect class="cls-3" x="12.8" y="92.8" width="3.2" height="3.2"/>
  <rect class="cls-3" x="60.8" y="41.6" width="3.2" height="3.2" transform="translate(124.8 86.4) rotate(-180)"/>
  <rect class="cls-3" x="64" y="38.4" width="3.2" height="3.2" transform="translate(131.2 80) rotate(-180)"/>
  <rect class="cls-3" x="60.8" y="25.6" width="3.2" height="3.2" transform="translate(124.8 54.4) rotate(-180)"/>
  <rect class="cls-3" x="67.2" y="22.4" width="3.2" height="3.2" transform="translate(137.6 48) rotate(-180)"/>
  <rect class="cls-3" x="70.4" y="35.2" width="3.2" height="3.2" transform="translate(144 73.6) rotate(-180)"/>
  <rect class="cls-3" x="54.4" y="38.4" width="3.2" height="3.2" transform="translate(112 80) rotate(-180)"/>
  <rect class="cls-3" x="44.8" y="35.2" width="3.2" height="9.6" transform="translate(92.8 80) rotate(-180)"/>
  <rect class="cls-3" x="57.6" y="35.2" width="3.2" height="3.2" transform="translate(118.4 73.6) rotate(-180)"/>
  <rect class="cls-3" x="54.4" y="22.4" width="3.2" height="3.2" transform="translate(112 48) rotate(-180)"/>
  <rect class="cls-3" x="64" y="16" width="3.2" height="3.2" transform="translate(131.2 35.2) rotate(-180)"/>
  <rect class="cls-3" x="57.6" y="19.2" width="3.2" height="3.2" transform="translate(118.4 41.6) rotate(-180)"/>
  <rect class="cls-3" x="25.6" y="32" width="3.2" height="3.2" transform="translate(54.4 67.2) rotate(-180)"/>
  <rect class="cls-3" x="60.8" y="32" width="3.2" height="3.2" transform="translate(124.8 67.2) rotate(-180)"/>
  <rect class="cls-3" x="64" y="28.8" width="3.2" height="3.2" transform="translate(131.2 60.8) rotate(-180)"/>
  <rect class="cls-3" x="48" y="16" width="3.2" height="3.2" transform="translate(99.2 35.2) rotate(-180)"/>
  <rect class="cls-3" x="44.8" y="12.8" width="3.2" height="3.2" transform="translate(92.8 28.8) rotate(-180)"/>
  <rect class="cls-3" x="44.8" y="6.4" width="3.2" height="3.2" transform="translate(92.8 16) rotate(-180)"/>
  <rect class="cls-3" x="51.2" y="12.8" width="3.2" height="3.2" transform="translate(105.6 28.8) rotate(-180)"/>
  <rect class="cls-3" x="54.4" y="9.6" width="3.2" height="3.2" transform="translate(112 22.4) rotate(-180)"/>
  <rect class="cls-3" x="54.4" y="48" width="3.2" height="12.8" transform="translate(112 108.8) rotate(-180)"/>
  <rect class="cls-3" x="41.6" y="96" width="6.4" height="3.2"/>
  <polygon class="cls-3" points="35.2 89.6 35.2 92.8 38.4 92.8 38.4 96 41.6 96 41.6 92.8 48 92.8 48 96 51.2 96 51.2 92.8 54.4 92.8 54.4 89.6 35.2 89.6"/>
  <rect class="cls-3" x="35.2" y="25.6" width="3.2" height="6.4"/>
  <rect class="cls-3" x="41.6" y="25.6" width="3.2" height="3.2"/>
  <rect class="cls-3" x="16" y="32" width="3.2" height="3.2"/>
  <rect class="cls-3" x="19.2" y="28.8" width="3.2" height="3.2"/>
  <rect class="cls-3" x="22.4" y="25.6" width="3.2" height="3.2"/>
  <rect class="cls-3" x="19.2" y="22.4" width="3.2" height="3.2"/>
  <rect class="cls-3" x="35.2" y="9.6" width="3.2" height="3.2"/>
  <rect class="cls-3" x="41.6" y="32" width="3.2" height="3.2"/>
  <rect class="cls-3" x="51.2" y="28.8" width="3.2" height="3.2"/>
  <rect class="cls-3" x="48" y="25.6" width="3.2" height="3.2"/>
  <rect class="cls-3" x="32" y="22.4" width="3.2" height="3.2" transform="translate(67.2 48) rotate(-180)"/>
  <rect class="cls-3" x="35.2" y="19.2" width="3.2" height="3.2" transform="translate(73.6 41.6) rotate(-180)"/>
  <rect class="cls-2" x="32" y="19.2" width="3.2" height="3.2" transform="translate(67.2 41.6) rotate(-180)"/>
  <rect class="cls-2" x="32" y="32" width="3.2" height="3.2" transform="translate(67.2 67.2) rotate(-180)"/>
  <rect class="cls-4" x="60.8" y="35.2" width="3.2" height="3.2" transform="translate(124.8 73.6) rotate(-180)"/>
  <rect class="cls-4" x="51.2" y="48" width="3.2" height="3.2" transform="translate(105.6 99.2) rotate(-180)"/>
  <rect class="cls-4" x="38.4" y="41.6" width="3.2" height="3.2" transform="translate(80 86.4) rotate(-180)"/>
  <rect class="cls-4" x="64" y="22.4" width="3.2" height="3.2" transform="translate(131.2 48) rotate(-180)"/>
  <rect class="cls-4" x="54.4" y="28.8" width="3.2" height="3.2" transform="translate(112 60.8) rotate(-180)"/>
  <rect class="cls-4" x="48" y="38.4" width="3.2" height="3.2" transform="translate(99.2 80) rotate(-180)"/>
  <rect class="cls-4" x="64" y="41.6" width="3.2" height="3.2" transform="translate(131.2 86.4) rotate(-180)"/>
  <rect class="cls-4" x="67.2" y="28.8" width="3.2" height="3.2" transform="translate(137.6 60.8) rotate(-180)"/>
  <rect class="cls-4" x="54.4" y="19.2" width="3.2" height="3.2" transform="translate(112 41.6) rotate(-180)"/>
  <rect class="cls-4" x="48" y="12.8" width="3.2" height="3.2" transform="translate(99.2 28.8) rotate(-180)"/>
  <rect class="cls-4" x="48" y="22.4" width="3.2" height="3.2" transform="translate(99.2 48) rotate(-180)"/>
  <rect class="cls-2" x="44.8" y="16" width="3.2" height="3.2" transform="translate(92.8 35.2) rotate(-180)"/>
  <rect class="cls-2" x="41.6" y="22.4" width="3.2" height="3.2" transform="translate(86.4 48) rotate(-180)"/>
  <rect class="cls-2" x="35.2" y="12.8" width="3.2" height="3.2" transform="translate(73.6 28.8) rotate(-180)"/>
  <rect class="cls-2" x="41.6" y="35.2" width="3.2" height="3.2" transform="translate(86.4 73.6) rotate(-180)"/>
  <rect class="cls-2" x="35.2" y="48" width="3.2" height="3.2" transform="translate(73.6 99.2) rotate(-180)"/>
  <rect class="cls-2" x="22.4" y="32" width="3.2" height="3.2" transform="translate(48 67.2) rotate(-180)"/>
  <rect class="cls-2" x="22.4" y="41.6" width="3.2" height="3.2" transform="translate(48 86.4) rotate(-180)"/>
  <rect class="cls-2" x="19.2" y="25.6" width="3.2" height="3.2" transform="translate(41.6 54.4) rotate(-180)"/>
  <rect class="cls-2" x="25.6" y="19.2" width="3.2" height="3.2" transform="translate(54.4 41.6) rotate(-180)"/>
  <rect class="cls-3" x="41.6" y="19.2" width="3.2" height="3.2" transform="translate(86.4 41.6) rotate(-180)"/>
  <rect class="cls-3" x="19.2" y="9.6" width="3.2" height="3.2" transform="translate(41.6 22.4) rotate(-180)"/>
  <rect class="cls-3" x="22.4" y="6.4" width="6.4" height="3.2" transform="translate(51.2 16) rotate(-180)"/>
  <rect class="cls-3" x="28.8" y="3.2" width="6.4" height="3.2" transform="translate(64 9.6) rotate(-180)"/>
  <rect class="cls-3" x="76.8" y="38.4" width="3.2" height="6.4" transform="translate(156.8 83.2) rotate(-180)"/>
  <rect class="cls-3" x="80" y="32" width="3.2" height="6.4" transform="translate(163.2 70.4) rotate(-180)"/>
  <rect class="cls-3" x="76.8" y="25.6" width="3.2" height="6.4" transform="translate(156.8 57.6) rotate(-180)"/>
  <rect class="cls-3" x="73.6" y="19.2" width="3.2" height="6.4" transform="translate(150.4 44.8) rotate(-180)"/>
  <rect class="cls-3" x="70.4" y="12.8" width="3.2" height="6.4" transform="translate(144 32) rotate(-180)"/>
  <rect class="cls-4" x="76.8" y="32" width="3.2" height="6.4" transform="translate(156.8 70.4) rotate(-180)"/>
  <rect class="cls-4" x="73.6" y="38.4" width="3.2" height="6.4" transform="translate(150.4 83.2) rotate(-180)"/>
  <rect class="cls-4" x="73.6" y="25.6" width="3.2" height="6.4" transform="translate(150.4 57.6) rotate(-180)"/>
  <rect class="cls-4" x="70.4" y="19.2" width="3.2" height="6.4" transform="translate(144 44.8) rotate(-180)"/>
  <rect class="cls-4" x="67.2" y="12.8" width="3.2" height="6.4" transform="translate(137.6 32) rotate(-180)"/>
  <rect class="cls-3" x="60.8" y="51.2" width="3.2" height="3.2" transform="translate(124.8 105.6) rotate(-180)"/>
  <rect class="cls-3" x="57.6" y="54.4" width="3.2" height="3.2" transform="translate(118.4 112) rotate(-180)"/>
  <rect class="cls-3" x="57.6" y="60.8" width="3.2" height="3.2" transform="translate(118.4 124.8) rotate(-180)"/>
  <rect class="cls-3" x="64" y="48" width="6.4" height="3.2" transform="translate(134.4 99.2) rotate(-180)"/>
  <rect class="cls-3" x="70.4" y="44.8" width="6.4" height="3.2" transform="translate(147.2 92.8) rotate(-180)"/>
  <rect class="cls-3" x="67.2" y="9.6" width="3.2" height="3.2"/>
  <rect class="cls-3" x="60.8" y="6.4" width="6.4" height="3.2"/>
  <rect class="cls-3" x="54.4" y="3.2" width="6.4" height="3.2"/>
  <rect class="cls-3" x="35.2" y="0" width="19.2" height="3.2" transform="translate(89.6 3.2) rotate(-180)"/>
  <rect class="cls-4" x="60.8" y="9.6" width="6.4" height="3.2"/>
  <rect class="cls-4" x="54.4" y="6.4" width="6.4" height="3.2"/>
  <rect class="cls-1" x="9.6" y="32" width="3.2" height="6.4"/>
  <rect class="cls-1" x="12.8" y="38.4" width="3.2" height="6.4"/>
  <rect class="cls-1" x="12.8" y="25.6" width="3.2" height="6.4"/>
  <rect class="cls-1" x="16" y="19.2" width="3.2" height="6.4"/>
  <rect class="cls-1" x="19.2" y="12.8" width="3.2" height="6.4"/>
  <rect class="cls-1" x="22.4" y="9.6" width="6.4" height="3.2" transform="translate(51.2 22.4) rotate(-180)"/>
  <rect class="cls-1" x="28.8" y="6.4" width="6.4" height="3.2" transform="translate(64 16) rotate(-180)"/>
  <rect class="cls-4" x="35.2" y="3.2" width="19.2" height="3.2" transform="translate(89.6 9.6) rotate(-180)"/>
  <rect class="cls-4" x="60.8" y="73.6" width="3.2" height="3.2" transform="translate(124.8 150.4) rotate(-180)"/>
  <rect class="cls-4" x="54.4" y="60.8" width="3.2" height="3.2" transform="translate(112 124.8) rotate(-180)"/>
  <rect class="cls-4" x="64" y="76.8" width="3.2" height="6.4" transform="translate(131.2 160) rotate(-180)"/>
  <rect class="cls-4" x="51.2" y="51.2" width="3.2" height="9.6" transform="translate(105.6 112) rotate(-180)"/>
  <rect class="cls-4" x="57.6" y="64" width="3.2" height="9.6" transform="translate(118.4 137.6) rotate(-180)"/>
  <rect class="cls-1" x="25.6" y="73.6" width="3.2" height="3.2"/>
  <rect class="cls-1" x="22.4" y="76.8" width="3.2" height="6.4"/>
  <rect class="cls-1" x="32" y="54.4" width="3.2" height="9.6"/>
  <rect class="cls-1" x="35.2" y="51.2" width="3.2" height="9.6"/>
  <rect class="cls-1" x="28.8" y="64" width="3.2" height="9.6"/>
  <rect class="cls-3" x="36.8" y="64" width="3.2" height="9.6"/>
  <rect class="cls-3" x="49.6" y="64" width="3.2" height="9.6"/>
  <rect class="cls-3" x="40" y="80" width="9.6" height="3.2"/>
  <rect class="cls-5" x="41.6" y="92.8" width="6.4" height="3.2"/>
  <rect class="cls-3" x="32" y="48" width="3.2" height="12.8"/>
</svg>