<?xml version="1.0" encoding="UTF-8"?>
<svg id="Layer_2" data-name="Layer 2" xmlns="http://www.w3.org/2000/svg" viewBox="0 0 64 70.4">
  <defs>
    <style>
      .cls-1, .cls-2, .cls-3, .cls-4, .cls-5, .cls-6 {
        stroke-width: 0px;
      }

      .cls-2 {
        fill: #231f20;
      }

      .cls-2, .cls-3 {
        opacity: .3;
      }

      .cls-3, .cls-5 {
        fill: #fff;
      }

      .cls-4 {
        fill: #fa0505;
      }

      .cls-6 {
        fill: #00bf51;
      }
    </style>
  </defs>
  <polygon class="cls-5" points="28.8 16 35.2 16 35.2 19.2 38.4 19.2 38.4 22.4 41.6 22.4 41.6 25.6 44.8 25.6 44.8 35.2 48 35.2 48 44.8 51.2 44.8 51.2 48 54.4 48 54.4 54.4 48 54.4 48 57.6 41.6 57.6 41.6 60.8 22.4 60.8 22.4 57.6 16 57.6 16 54.4 9.6 54.4 9.6 48 12.8 48 12.8 44.8 16 44.8 16 35.2 19.2 35.2 19.2 25.6 22.4 25.6 22.4 22.4 25.6 22.4 25.6 19.2 28.8 19.2 28.8 16"/>
  <g>
    <polygon class="cls-4" points="25.6 3.2 38.4 3.2 38.4 6.4 41.6 6.4 41.6 9.6 48 9.6 48 12.8 51.2 12.8 51.2 16 54.4 16 54.4 22.4 57.6 22.4 57.6 28.8 60.8 28.8 60.8 35.2 57.6 35.2 57.6 41.6 54.4 41.6 54.4 44.8 51.2 44.8 51.2 35.2 48 35.2 48 32 44.8 32 44.8 25.6 41.6 25.6 41.6 22.4 38.4 22.4 38.4 25.6 35.2 25.6 35.2 22.4 28.8 22.4 28.8 25.6 25.6 25.6 25.6 22.4 22.4 22.4 22.4 25.6 19.2 25.6 19.2 32 16 32 16 35.2 12.8 35.2 12.8 44.8 9.6 44.8 9.6 41.6 6.4 41.6 6.4 35.2 3.2 35.2 3.2 28.8 6.4 28.8 6.4 22.4 9.6 22.4 9.6 16 12.8 16 12.8 12.8 16 12.8 16 9.6 22.4 9.6 22.4 6.4 25.6 6.4 25.6 3.2"/>
    <rect class="cls-2" x="51.2" y="41.6" width="3.2" height="3.2"/>
    <rect class="cls-1" x="6.4" y="48" width="3.2" height="6.4"/>
    <rect class="cls-1" x="12.8" y="35.2" width="3.2" height="9.6"/>
    <rect class="cls-1" x="9.6" y="54.4" width="6.4" height="3.2"/>
    <rect class="cls-1" x="16" y="57.6" width="6.4" height="3.2"/>
    <rect class="cls-1" x="9.6" y="44.8" width="3.2" height="3.2"/>
    <rect class="cls-1" x="6.4" y="41.6" width="3.2" height="3.2"/>
    <rect class="cls-1" x="6.4" y="16" width="3.2" height="6.4"/>
    <rect class="cls-1" x="9.6" y="12.8" width="3.2" height="3.2"/>
    <rect class="cls-1" x="3.2" y="22.4" width="3.2" height="6.4"/>
    <rect class="cls-1" y="28.8" width="3.2" height="6.4"/>
    <rect class="cls-1" x="3.2" y="35.2" width="3.2" height="6.4"/>
    <rect class="cls-1" x="24" y="48" width="3.2" height="3.2"/>
    <rect class="cls-4" x="17.6" y="48" width="3.2" height="3.2"/>
    <rect class="cls-4" x="43.2" y="48" width="3.2" height="3.2"/>
    <rect class="cls-1" x="36.8" y="48" width="3.2" height="3.2"/>
    <rect class="cls-1" x="19.2" y="25.6" width="3.2" height="6.4"/>
    <rect class="cls-1" x="22.4" y="22.4" width="3.2" height="3.2"/>
    <rect class="cls-1" x="25.6" y="25.6" width="3.2" height="3.2"/>
    <rect class="cls-1" x="28.8" y="22.4" width="6.4" height="3.2"/>
    <rect class="cls-1" x="35.2" y="25.6" width="3.2" height="3.2"/>
    <rect class="cls-1" x="12.8" y="9.6" width="3.2" height="3.2"/>
    <rect class="cls-1" x="22.4" y="3.2" width="3.2" height="3.2"/>
    <rect class="cls-1" x="16" y="6.4" width="6.4" height="3.2"/>
    <rect class="cls-1" x="54.4" y="41.6" width="3.2" height="3.2" transform="translate(112 86.4) rotate(-180)"/>
    <rect class="cls-1" x="54.4" y="16" width="3.2" height="6.4" transform="translate(112 38.4) rotate(-180)"/>
    <rect class="cls-1" x="51.2" y="12.8" width="3.2" height="3.2" transform="translate(105.6 28.8) rotate(-180)"/>
    <rect class="cls-1" x="57.6" y="22.4" width="3.2" height="6.4" transform="translate(118.4 51.2) rotate(-180)"/>
    <rect class="cls-1" x="60.8" y="28.8" width="3.2" height="6.4" transform="translate(124.8 64) rotate(-180)"/>
    <rect class="cls-1" x="57.6" y="35.2" width="3.2" height="6.4" transform="translate(118.4 76.8) rotate(-180)"/>
    <rect class="cls-2" x="51.2" y="16" width="3.2" height="6.4" transform="translate(105.6 38.4) rotate(-180)"/>
    <rect class="cls-2" x="54.4" y="22.4" width="3.2" height="6.4" transform="translate(112 51.2) rotate(-180)"/>
    <rect class="cls-2" x="57.6" y="28.8" width="3.2" height="6.4" transform="translate(118.4 64) rotate(-180)"/>
    <rect class="cls-2" x="54.4" y="35.2" width="3.2" height="6.4" transform="translate(112 76.8) rotate(-180)"/>
    <rect class="cls-1" x="48" y="9.6" width="3.2" height="3.2" transform="translate(99.2 22.4) rotate(-180)"/>
    <rect class="cls-1" x="38.4" y="3.2" width="3.2" height="3.2" transform="translate(80 9.6) rotate(-180)"/>
    <rect class="cls-1" x="41.6" y="6.4" width="6.4" height="3.2" transform="translate(89.6 16) rotate(-180)"/>
    <rect class="cls-2" x="48" y="12.8" width="3.2" height="3.2" transform="translate(99.2 28.8) rotate(-180)"/>
    <rect class="cls-2" x="35.2" y="22.4" width="3.2" height="3.2" transform="translate(73.6 48) rotate(-180)"/>
    <rect class="cls-2" x="41.6" y="22.4" width="3.2" height="3.2" transform="translate(86.4 48) rotate(-180)"/>
    <rect class="cls-2" x="48" y="22.37" width="3.2" height="3.2" transform="translate(99.2 47.93) rotate(-180)"/>
    <rect class="cls-2" x="38.4" y="19.2" width="3.2" height="3.2" transform="translate(80 41.6) rotate(-180)"/>
    <rect class="cls-2" x="41.6" y="16" width="3.2" height="3.2" transform="translate(86.4 35.2) rotate(-180)"/>
    <rect class="cls-2" x="30.4" y="12.8" width="3.2" height="3.2" transform="translate(64 28.8) rotate(-180)"/>
    <rect class="cls-3" x="27.2" y="9.6" width="3.2" height="3.2" transform="translate(57.6 22.4) rotate(-180)"/>
    <rect class="cls-2" x="38.4" y="12.8" width="3.2" height="3.2" transform="translate(80 28.8) rotate(-180)"/>
    <rect class="cls-2" x="51.2" y="28.8" width="3.2" height="3.2" transform="translate(105.6 60.8) rotate(-180)"/>
    <rect class="cls-2" x="48" y="32" width="3.2" height="3.2" transform="translate(99.2 67.2) rotate(-180)"/>
    <rect class="cls-2" x="44.8" y="25.6" width="3.2" height="6.4" transform="translate(92.8 57.6) rotate(-180)"/>
    <rect class="cls-2" x="25.6" y="22.4" width="3.2" height="3.2" transform="translate(54.4 48) rotate(-180)"/>
    <rect class="cls-2" x="28.8" y="19.2" width="6.4" height="3.2" transform="translate(64 41.6) rotate(-180)"/>
    <rect class="cls-2" x="41.6" y="9.6" width="6.4" height="3.2" transform="translate(89.6 22.4) rotate(-180)"/>
    <rect class="cls-2" x="38.4" y="6.4" width="3.2" height="3.2" transform="translate(80 16) rotate(-180)"/>
    <rect class="cls-3" x="9.6" y="41.6" width="3.2" height="3.2" transform="translate(22.4 86.4) rotate(-180)"/>
    <rect class="cls-3" x="9.6" y="16" width="3.2" height="6.4"/>
    <rect class="cls-3" x="6.4" y="22.4" width="3.2" height="6.4"/>
    <rect class="cls-3" x="3.2" y="28.8" width="3.2" height="6.4"/>
    <rect class="cls-3" x="6.4" y="35.2" width="3.2" height="6.4"/>
    <rect class="cls-3" x="12.8" y="32" width="3.2" height="3.2"/>
    <rect class="cls-3" x="19.2" y="22.4" width="3.2" height="3.2"/>
    <rect class="cls-3" x="22.4" y="19.2" width="3.2" height="3.2"/>
    <rect class="cls-3" x="9.6" y="28.8" width="3.2" height="3.2"/>
    <rect class="cls-3" x="12.8" y="22.4" width="3.2" height="3.2"/>
    <rect class="cls-3" x="16" y="16" width="3.2" height="3.2"/>
    <rect class="cls-3" x="16" y="25.6" width="3.2" height="6.4"/>
    <rect class="cls-3" x="12.8" y="12.8" width="3.2" height="3.2"/>
    <rect class="cls-3" x="16" y="9.6" width="6.4" height="3.2"/>
    <rect class="cls-3" x="22.4" y="6.4" width="3.2" height="3.2"/>
    <rect class="cls-2" x="25.6" y="3.2" width="12.8" height="3.2" transform="translate(64 9.6) rotate(-180)"/>
    <rect class="cls-1" x="25.6" width="12.8" height="3.2"/>
    <rect class="cls-1" x="16" y="32" width="3.2" height="3.2"/>
    <rect class="cls-1" x="48" y="35.2" width="3.2" height="9.6" transform="translate(99.2 80) rotate(-180)"/>
    <rect class="cls-1" x="41.6" y="25.6" width="3.2" height="6.4" transform="translate(86.4 57.6) rotate(-180)"/>
    <rect class="cls-1" x="38.4" y="22.4" width="3.2" height="3.2" transform="translate(80 48) rotate(-180)"/>
    <rect class="cls-1" x="44.8" y="32" width="3.2" height="3.2" transform="translate(92.8 67.2) rotate(-180)"/>
    <rect class="cls-1" x="54.4" y="48" width="3.2" height="6.4" transform="translate(112 102.4) rotate(-180)"/>
    <rect class="cls-1" x="48" y="54.4" width="6.4" height="3.2" transform="translate(102.4 112) rotate(-180)"/>
    <rect class="cls-1" x="41.6" y="57.6" width="6.4" height="3.2" transform="translate(89.6 118.4) rotate(-180)"/>
    <rect class="cls-1" x="51.2" y="44.8" width="3.2" height="3.2" transform="translate(105.6 92.8) rotate(-180)"/>
    <rect class="cls-1" x="28.8" y="67.2" width="6.4" height="3.2"/>
    <polygon class="cls-1" points="22.4 60.8 22.4 64 25.6 64 25.6 67.2 28.8 67.2 28.8 64 35.2 64 35.2 67.2 38.4 67.2 38.4 64 41.6 64 41.6 60.8 22.4 60.8"/>
    <rect class="cls-2" x="48" y="44.8" width="3.2" height="3.2" transform="translate(99.2 92.8) rotate(-180)"/>
    <rect class="cls-2" x="51.2" y="48" width="3.2" height="6.4" transform="translate(105.6 102.4) rotate(-180)"/>
    <rect class="cls-2" x="41.6" y="32" width="3.2" height="3.2" transform="translate(86.4 67.2) rotate(-180)"/>
    <rect class="cls-2" x="28.8" y="25.6" width="6.4" height="3.2" transform="translate(64 54.4) rotate(-180)"/>
    <rect class="cls-2" x="38.4" y="25.6" width="3.2" height="6.4" transform="translate(80 57.6) rotate(-180)"/>
    <rect class="cls-2" x="44.8" y="35.2" width="3.2" height="9.6" transform="translate(92.8 80) rotate(-180)"/>
  </g>
  <rect class="cls-1" x="24" y="35.2" width="3.2" height="6.4"/>
  <rect class="cls-1" x="36.8" y="35.2" width="3.2" height="6.4"/>
  <rect class="cls-1" x="27.2" y="51.2" width="9.6" height="3.2"/>
  <rect class="cls-4" x="27.2" y="41.6" width="9.6" height="6.4"/>
  <rect class="cls-6" x="28.8" y="64" width="6.4" height="3.2"/>
</svg>