<?xml version="1.0" encoding="UTF-8"?>
<svg id="Layer_20" data-name="Layer 20" xmlns="http://www.w3.org/2000/svg" viewBox="0 0 89.6 105.6">
  <defs>
    <style>
      .cls-1 {
        fill: #fff;
        opacity: .54;
      }

      .cls-1, .cls-2, .cls-3, .cls-4, .cls-5, .cls-6 {
        stroke-width: 0px;
      }

      .cls-2 {
        opacity: .51;
      }

      .cls-2, .cls-5 {
        fill: #d0344b;
      }

      .cls-4 {
        fill: #231f20;
        opacity: .3;
      }

      .cls-6 {
        fill: #ffbdc4;
      }
    </style>
  </defs>
  <polygon class="cls-6" points="41.6 27.2 48 27.2 48 30.4 51.2 30.4 51.2 33.6 54.4 33.6 54.4 36.8 57.6 36.8 57.6 46.4 60.8 46.4 60.8 56 64 56 64 59.2 67.2 59.2 67.2 65.6 60.8 65.6 60.8 68.8 54.4 68.8 54.4 72 35.2 72 35.2 68.8 28.8 68.8 28.8 65.6 22.4 65.6 22.4 59.2 25.6 59.2 25.6 56 28.8 56 28.8 46.4 32 46.4 32 36.8 35.2 36.8 35.2 33.6 38.4 33.6 38.4 30.4 41.6 30.4 41.6 27.2"/>
  <rect class="cls-3" x="19.2" y="59.2" width="3.2" height="6.4"/>
  <rect class="cls-3" x="25.6" y="46.4" width="3.2" height="9.6"/>
  <rect class="cls-3" x="22.4" y="65.6" width="6.4" height="3.2"/>
  <rect class="cls-3" x="28.8" y="68.8" width="6.4" height="3.2"/>
  <rect class="cls-3" x="22.4" y="56" width="3.2" height="3.2"/>
  <rect class="cls-3" x="32" y="33.6" width="3.2" height="3.2"/>
  <rect class="cls-3" x="35.2" y="30.4" width="3.2" height="3.2"/>
  <rect class="cls-3" x="38.4" y="27.2" width="3.2" height="3.2"/>
  <rect class="cls-3" x="28.8" y="36.8" width="3.2" height="9.6"/>
  <rect class="cls-3" x="67.2" y="59.2" width="3.2" height="6.4" transform="translate(137.6 124.8) rotate(-180)"/>
  <rect class="cls-3" x="60.8" y="46.4" width="3.2" height="9.6" transform="translate(124.8 102.4) rotate(-180)"/>
  <rect class="cls-3" x="60.8" y="65.6" width="6.4" height="3.2" transform="translate(128 134.4) rotate(-180)"/>
  <rect class="cls-3" x="54.4" y="68.8" width="6.4" height="3.2" transform="translate(115.2 140.8) rotate(-180)"/>
  <rect class="cls-3" x="64" y="56" width="3.2" height="3.2" transform="translate(131.2 115.2) rotate(-180)"/>
  <rect class="cls-3" x="54.4" y="33.6" width="3.2" height="3.2" transform="translate(112 70.4) rotate(-180)"/>
  <rect class="cls-3" x="54.4" y="27.22" width="3.2" height="3.2" transform="translate(112 57.64) rotate(-180)"/>
  <rect class="cls-3" x="64" y="27.22" width="6.4" height="3.2" transform="translate(134.4 57.64) rotate(-180)"/>
  <rect class="cls-3" x="70.4" y="30.4" width="3.2" height="3.2" transform="translate(144 64) rotate(-180)"/>
  <rect class="cls-3" x="73.6" y="33.6" width="3.2" height="3.2" transform="translate(150.4 70.4) rotate(-180)"/>
  <rect class="cls-3" x="73.6" y="43.2" width="3.2" height="3.2" transform="translate(150.4 89.6) rotate(-180)"/>
  <rect class="cls-3" x="64" y="43.2" width="6.4" height="3.2" transform="translate(134.4 89.6) rotate(-180)"/>
  <rect class="cls-3" x="70.4" y="46.4" width="3.2" height="3.2" transform="translate(144 96) rotate(-180)"/>
  <rect class="cls-3" x="76.8" y="36.8" width="3.2" height="6.4" transform="translate(156.8 80) rotate(-180)"/>
  <rect class="cls-3" x="57.6" y="24" width="6.4" height="3.2" transform="translate(121.6 51.2) rotate(-180)"/>
  <rect class="cls-3" x="51.2" y="30.4" width="3.2" height="3.2" transform="translate(105.6 64) rotate(-180)"/>
  <rect class="cls-3" x="48" y="27.2" width="3.2" height="3.2" transform="translate(99.2 57.6) rotate(-180)"/>
  <rect class="cls-3" x="57.6" y="36.8" width="3.2" height="9.6" transform="translate(118.4 83.2) rotate(-180)"/>
  <rect class="cls-3" x="41.6" y="78.4" width="6.4" height="3.2"/>
  <polygon class="cls-3" points="35.2 72 35.2 75.2 38.4 75.2 38.4 78.4 41.6 78.4 41.6 75.2 48 75.2 48 78.4 51.2 78.4 51.2 75.2 54.4 75.2 54.4 72 35.2 72"/>
  <rect class="cls-3" x="41.6" y="24" width="6.4" height="3.2"/>
  <rect class="cls-4" x="60.8" y="56" width="3.2" height="3.2" transform="translate(124.8 115.2) rotate(-180)"/>
  <rect class="cls-4" x="64" y="59.2" width="3.2" height="6.4" transform="translate(131.2 124.8) rotate(-180)"/>
  <rect class="cls-4" x="54.4" y="36.8" width="3.2" height="9.6" transform="translate(112 83.2) rotate(-180)"/>
  <rect class="cls-4" x="51.2" y="33.6" width="3.2" height="3.2" transform="translate(105.6 70.4) rotate(-180)"/>
  <rect class="cls-4" x="48" y="30.4" width="3.2" height="3.2" transform="translate(99.2 64) rotate(-180)"/>
  <rect class="cls-4" x="57.6" y="46.4" width="3.2" height="9.6" transform="translate(118.4 102.4) rotate(-180)"/>
  <rect class="cls-1" x="25.6" y="56" width="3.2" height="3.2"/>
  <rect class="cls-1" x="22.4" y="59.2" width="3.2" height="6.4"/>
  <rect class="cls-1" x="32" y="36.8" width="3.2" height="9.6"/>
  <rect class="cls-1" x="35.2" y="33.6" width="3.2" height="3.2"/>
  <rect class="cls-1" x="38.4" y="30.4" width="3.2" height="3.2"/>
  <rect class="cls-1" x="28.8" y="46.4" width="3.2" height="9.6"/>
  <rect class="cls-4" x="41.6" y="27.2" width="6.4" height="3.2"/>
  <rect class="cls-3" x="38.4" y="46.4" width="3.2" height="3.2"/>
  <rect class="cls-3" x="48" y="46.4" width="3.2" height="3.2"/>
  <rect class="cls-5" x="36.8" y="52.75" width="16" height="9.65"/>
  <rect class="cls-3" x="41.6" y="62.4" width="6.4" height="3.2"/>
  <rect class="cls-5" x="41.6" y="75.2" width="6.4" height="3.2"/>
  <rect class="cls-3" x="46.4" y="55.97" width="3.2" height="3.2"/>
  <rect class="cls-3" x="40" y="55.97" width="3.2" height="3.2"/>
  <polygon class="cls-6" points="54.4 33.6 54.4 30.4 57.6 30.42 57.6 27.2 64 27.2 64 30.42 70.4 30.4 70.4 33.6 73.6 33.6 73.6 36.8 76.8 36.8 76.8 43.2 73.6 43.2 73.6 46.4 70.4 46.4 70.4 43.2 64 43.2 64 46.4 60.8 46.4 60.8 36.8 57.6 36.8 57.6 33.6 54.4 33.6"/>
  <polygon class="cls-2" points="57.6 33.6 64 33.6 64 36.8 67.2 36.8 67.2 40 67.2 43.2 64 43.2 64 46.4 60.8 46.4 60.8 36.8 57.6 36.8 57.6 33.6"/>
  <rect class="cls-3" x="32" y="27.22" width="3.2" height="3.2"/>
  <rect class="cls-3" x="19.2" y="27.22" width="6.4" height="3.2"/>
  <rect class="cls-3" x="16" y="30.4" width="3.2" height="3.2"/>
  <rect class="cls-3" x="12.8" y="33.6" width="3.2" height="3.2"/>
  <rect class="cls-3" x="12.8" y="43.2" width="3.2" height="3.2"/>
  <rect class="cls-3" x="19.2" y="43.2" width="6.4" height="3.2"/>
  <rect class="cls-3" x="16" y="46.4" width="3.2" height="3.2"/>
  <rect class="cls-3" x="9.6" y="36.8" width="3.2" height="6.4"/>
  <rect class="cls-3" x="25.6" y="24" width="6.4" height="3.2"/>
  <polygon class="cls-6" points="35.2 33.6 35.2 30.4 32 30.42 32 27.2 25.6 27.2 25.6 30.42 19.2 30.4 19.2 33.6 16 33.6 16 36.8 12.8 36.8 12.8 43.2 16 43.2 16 46.4 19.2 46.4 19.2 43.2 25.6 43.2 25.6 46.4 28.8 46.4 28.8 36.8 32 36.8 32 33.6 35.2 33.6"/>
  <polygon class="cls-2" points="32 33.6 25.6 33.6 25.6 36.8 22.4 36.8 22.4 40 22.4 43.2 25.6 43.2 25.6 46.4 28.8 46.4 28.8 36.8 32 36.8 32 33.6"/>
  <rect class="cls-4" x="73.6" y="36.8" width="3.2" height="6.4" transform="translate(150.4 80) rotate(-180)"/>
  <rect class="cls-4" x="70.4" y="43.2" width="3.2" height="3.2" transform="translate(144 89.6) rotate(-180)"/>
  <rect class="cls-4" x="54.4" y="30.4" width="3.2" height="3.2" transform="translate(112 64) rotate(-180)"/>
  <rect class="cls-4" x="70.4" y="33.6" width="3.2" height="3.2" transform="translate(144 70.4) rotate(-180)"/>
  <rect class="cls-4" x="64" y="30.4" width="6.4" height="3.2" transform="translate(134.4 64) rotate(-180)"/>
  <rect class="cls-4" x="57.6" y="27.22" width="6.4" height="3.2" transform="translate(121.6 57.64) rotate(-180)"/>
  <rect class="cls-1" x="12.8" y="36.8" width="3.2" height="6.4"/>
  <rect class="cls-1" x="16" y="43.2" width="3.2" height="3.2"/>
  <rect class="cls-4" x="32" y="30.4" width="3.2" height="3.2"/>
  <rect class="cls-1" x="16" y="33.6" width="3.2" height="3.2"/>
  <rect class="cls-1" x="19.2" y="30.4" width="6.4" height="3.2"/>
  <rect class="cls-1" x="25.6" y="27.22" width="6.4" height="3.2"/>
</svg>