<?xml version="1.0" encoding="UTF-8"?>
<svg id="Layer_23" data-name="Layer 23" xmlns="http://www.w3.org/2000/svg" viewBox="0 0 102.4 105.6">
  <defs>
    <style>
      .cls-1 {
        opacity: .54;
      }

      .cls-1, .cls-2, .cls-3, .cls-4, .cls-5, .cls-6, .cls-7 {
        stroke-width: 0px;
      }

      .cls-1, .cls-7 {
        fill: #fff;
      }

      .cls-3 {
        fill: #231f20;
        opacity: .3;
      }

      .cls-4 {
        fill: #6da3af;
      }

      .cls-5 {
        fill: #c62828;
      }

      .cls-6 {
        fill: #b4c2c8;
      }
    </style>
  </defs>
  <polygon class="cls-6" points="48 33.6 54.4 33.6 57.6 33.6 57.6 36.8 60.8 36.8 60.8 40 64 40 64 43.2 67.2 43.2 67.2 52.8 67.2 62.4 70.4 62.4 70.4 65.6 73.6 65.6 73.6 72 67.2 72 67.2 75.2 60.8 75.2 60.8 78.4 41.6 78.4 41.6 75.2 35.2 75.2 35.2 72 28.8 72 28.8 65.6 32 65.6 32 62.4 35.2 62.4 35.2 52.8 35.2 43.2 38.4 43.2 38.4 40 41.6 40 41.6 36.8 44.8 36.8 44.8 33.6 48 33.6"/>
  <rect class="cls-2" x="25.6" y="65.6" width="3.2" height="6.4"/>
  <rect class="cls-2" x="32" y="43.2" width="3.2" height="19.2"/>
  <rect class="cls-2" x="28.8" y="72" width="6.4" height="3.2"/>
  <rect class="cls-2" x="35.2" y="75.2" width="6.4" height="3.2"/>
  <rect class="cls-2" x="28.8" y="62.4" width="3.2" height="3.2"/>
  <rect class="cls-2" x="25.6" y="43.2" width="3.2" height="19.2"/>
  <rect class="cls-2" x="28.8" y="33.6" width="3.2" height="9.6"/>
  <rect class="cls-2" x="35.2" y="40" width="3.2" height="3.2"/>
  <rect class="cls-2" x="38.4" y="36.8" width="3.2" height="3.2"/>
  <rect class="cls-2" x="41.6" y="33.6" width="3.2" height="3.2"/>
  <rect class="cls-2" x="73.6" y="65.6" width="3.2" height="6.4" transform="translate(150.4 137.6) rotate(-180)"/>
  <rect class="cls-2" x="67.2" y="43.2" width="3.2" height="19.2" transform="translate(137.6 105.6) rotate(-180)"/>
  <rect class="cls-2" x="67.2" y="72" width="6.4" height="3.2" transform="translate(140.8 147.2) rotate(-180)"/>
  <rect class="cls-2" x="60.8" y="75.2" width="6.4" height="3.2" transform="translate(128 153.6) rotate(-180)"/>
  <rect class="cls-2" x="70.4" y="62.4" width="3.2" height="3.2" transform="translate(144 128) rotate(-180)"/>
  <rect class="cls-2" x="64" y="40" width="3.2" height="3.2" transform="translate(131.2 83.2) rotate(-180)"/>
  <rect class="cls-2" x="60.8" y="36.8" width="3.2" height="3.2" transform="translate(124.8 76.8) rotate(-180)"/>
  <rect class="cls-2" x="57.6" y="33.6" width="3.2" height="3.2" transform="translate(118.4 70.4) rotate(-180)"/>
  <rect class="cls-2" x="48" y="84.8" width="6.4" height="3.2"/>
  <polygon class="cls-2" points="41.6 78.4 41.6 81.6 44.8 81.6 44.8 84.8 48 84.8 48 81.6 54.4 81.6 54.4 84.8 57.6 84.8 57.6 81.6 60.8 81.6 60.8 78.4 41.6 78.4"/>
  <rect class="cls-2" x="44.8" y="30.4" width="12.8" height="3.2"/>
  <rect class="cls-2" x="44.8" y="25.6" width="12.8" height="3.2" transform="translate(24 78.4) rotate(-90)"/>
  <rect class="cls-3" x="67.2" y="62.4" width="3.2" height="3.2" transform="translate(137.6 128) rotate(-180)"/>
  <rect class="cls-3" x="70.4" y="65.6" width="3.2" height="6.4" transform="translate(144 137.6) rotate(-180)"/>
  <rect class="cls-3" x="60.77" y="40" width="3.2" height="3.2" transform="translate(124.75 83.2) rotate(-180)"/>
  <rect class="cls-3" x="57.6" y="36.8" width="3.2" height="3.2" transform="translate(118.4 76.8) rotate(-180)"/>
  <rect class="cls-3" x="64" y="43.2" width="3.2" height="19.2" transform="translate(131.2 105.6) rotate(-180)"/>
  <rect class="cls-1" x="32" y="62.4" width="3.2" height="3.2"/>
  <rect class="cls-1" x="28.8" y="65.6" width="3.2" height="6.4"/>
  <rect class="cls-1" x="38.4" y="40" width="3.2" height="3.2"/>
  <rect class="cls-1" x="41.6" y="36.8" width="3.2" height="3.2"/>
  <rect class="cls-1" x="35.2" y="43.2" width="3.2" height="19.2"/>
  <rect class="cls-3" x="44.8" y="33.6" width="12.8" height="3.2"/>
  <rect class="cls-2" x="40" y="51.2" width="8" height="8"/>
  <rect class="cls-2" x="54.4" y="51.2" width="8" height="8"/>
  <rect class="cls-4" x="56.8" y="53.6" width="3.2" height="3.2"/>
  <rect class="cls-5" x="49.6" y="17.6" width="3.2" height="3.2"/>
  <rect class="cls-4" x="42.4" y="53.6" width="3.2" height="3.2"/>
  <rect class="cls-7" x="40" y="62.4" width="22.4" height="9.6"/>
  <rect class="cls-5" x="48" y="81.6" width="6.4" height="3.2"/>
  <rect class="cls-4" x="43.2" y="62.4" width="3.2" height="9.6"/>
  <rect class="cls-4" x="49.6" y="62.4" width="3.2" height="9.6"/>
  <rect class="cls-4" x="56" y="62.4" width="3.2" height="9.6"/>
  <rect class="cls-5" x="28.8" y="43.2" width="3.2" height="19.2"/>
  <rect class="cls-2" x="73.6" y="43.2" width="3.2" height="19.2" transform="translate(150.4 105.6) rotate(-180)"/>
  <rect class="cls-2" x="70.4" y="33.6" width="3.2" height="9.6" transform="translate(144 76.8) rotate(-180)"/>
  <rect class="cls-5" x="70.4" y="43.2" width="3.2" height="19.2" transform="translate(144 105.6) rotate(-180)"/>
  <rect class="cls-1" x="28.8" y="43.2" width="3.2" height="3.2"/>
  <rect class="cls-3" x="70.4" y="43.2" width="3.2" height="3.2"/>
</svg>