<?xml version="1.0" encoding="UTF-8"?>
<svg id="Layer_24" data-name="Layer 24" xmlns="http://www.w3.org/2000/svg" viewBox="0 0 102.4 105.6">
  <defs>
    <style>
      .cls-1 {
        opacity: .25;
      }

      .cls-1, .cls-2, .cls-3, .cls-4 {
        stroke-width: 0px;
      }

      .cls-3 {
        fill: #81634d;
      }

      .cls-4 {
        fill: #e6e7e8;
      }
    </style>
  </defs>
  <polygon class="cls-4" points="56 43.2 56 40 59.2 40 62.4 40 62.4 49.6 65.6 49.6 65.6 59.2 68.8 59.2 68.8 62.4 72 62.4 72 68.8 65.6 68.8 65.6 72 59.2 72 59.2 75.2 40 75.2 40 72 33.6 72 33.6 68.8 27.2 68.8 27.2 62.4 30.4 62.4 30.4 59.2 33.6 59.2 33.6 49.6 36.8 49.6 36.8 40 40 40 43.2 40 43.2 43.2 56 43.2"/>
  <rect class="cls-2" x="24" y="62.4" width="3.2" height="6.4"/>
  <rect class="cls-2" x="30.4" y="49.6" width="3.2" height="9.6"/>
  <rect class="cls-2" x="27.2" y="68.8" width="6.4" height="3.2"/>
  <rect class="cls-2" x="33.6" y="72" width="6.4" height="3.2"/>
  <rect class="cls-2" x="27.2" y="59.2" width="3.2" height="3.2"/>
  <rect class="cls-2" x="36.8" y="36.8" width="3.2" height="3.2"/>
  <rect class="cls-2" x="40" y="33.6" width="3.2" height="3.2"/>
  <rect class="cls-2" x="56" y="33.6" width="3.2" height="3.2"/>
  <rect class="cls-2" x="33.6" y="40" width="3.2" height="9.6"/>
  <rect class="cls-2" x="72" y="62.4" width="3.2" height="6.4" transform="translate(147.2 131.2) rotate(-180)"/>
  <rect class="cls-2" x="65.6" y="49.6" width="3.2" height="9.6" transform="translate(134.4 108.8) rotate(-180)"/>
  <rect class="cls-2" x="65.6" y="68.8" width="6.4" height="3.2" transform="translate(137.6 140.8) rotate(-180)"/>
  <rect class="cls-2" x="59.2" y="72" width="6.4" height="3.2" transform="translate(124.8 147.2) rotate(-180)"/>
  <rect class="cls-2" x="68.8" y="59.2" width="3.2" height="3.2" transform="translate(140.8 121.6) rotate(-180)"/>
  <rect class="cls-2" x="59.2" y="36.8" width="3.2" height="3.2" transform="translate(121.6 76.8) rotate(-180)"/>
  <rect class="cls-2" x="72" y="40" width="3.2" height="3.2" transform="translate(147.2 83.2) rotate(-180)"/>
  <rect class="cls-2" x="72" y="52.8" width="3.2" height="6.4" transform="translate(147.2 112) rotate(-180)"/>
  <rect class="cls-2" x="75.2" y="43.2" width="3.2" height="9.6" transform="translate(153.6 96) rotate(-180)"/>
  <rect class="cls-2" x="62.4" y="40" width="3.2" height="9.6" transform="translate(128 89.6) rotate(-180)"/>
  <rect class="cls-2" x="41.6" y="20.8" width="3.2" height="9.6" transform="translate(86.4 51.2) rotate(-180)"/>
  <rect class="cls-2" x="48.05" y="20.8" width="3.2" height="9.6" transform="translate(99.31 51.2) rotate(-180)"/>
  <rect class="cls-2" x="54.56" y="20.8" width="3.2" height="9.6" transform="translate(112.32 51.2) rotate(-180)"/>
  <rect class="cls-2" x="46.4" y="81.6" width="6.4" height="3.2"/>
  <polygon class="cls-2" points="40 75.2 40 78.4 43.2 78.4 43.2 81.6 46.4 81.6 46.4 78.4 52.8 78.4 52.8 81.6 56 81.6 56 78.4 59.2 78.4 59.2 75.2 40 75.2"/>
  <g>
    <polygon class="cls-2" points="59.89 49.6 58.4 49.6 56 49.6 53.6 49.6 51.2 49.6 49.71 49.6 48.8 49.6 48.8 62.4 51.2 62.4 51.2 52 53.6 52 53.6 62.4 56 62.4 56 52 58.4 52 58.4 62.4 60.8 62.4 60.8 49.6 59.89 49.6"/>
    <polygon class="cls-2" points="39.6 49.6 38.4 49.6 38.4 62.4 39.6 62.4 40.8 62.4 44 62.4 46.4 62.4 46.4 60 46.4 56 46.4 53.6 42.4 53.6 42.4 56 44 56 44 60 40.8 60 40.8 52 46.4 52 46.4 49.6 40.8 49.6 39.6 49.6"/>
  </g>
  <rect class="cls-2" x="43.2" y="65.6" width="12.8" height="3.2"/>
  <rect class="cls-3" x="46.4" y="78.4" width="6.4" height="3.2"/>
  <polygon class="cls-3" points="40 36.8 43.2 36.8 43.2 33.6 56 33.6 56 36.8 59.2 36.8 59.2 40 56 40 56 43.2 43.2 43.2 43.2 40 40 40 40 36.8"/>
  <rect class="cls-2" x="43.2" y="33.6" width="12.8" height="3.2"/>
  <polygon class="cls-2" points="56 40 43.2 40 40 40 40 43.2 43.2 43.2 56 43.2 59.2 43.2 59.2 40 56 40"/>
  <polygon class="cls-1" points="57.61 36.8 51.24 36.8 49.65 36.8 49.65 40 51.24 40 57.61 40 59.2 40 59.2 36.8 57.61 36.8"/>
  <rect class="cls-2" x="65.6" y="36.8" width="6.4" height="3.2"/>
</svg>