<?xml version="1.0" encoding="UTF-8"?>
<svg id="Layer_25" data-name="Layer 25" xmlns="http://www.w3.org/2000/svg" viewBox="0 0 102.4 105.6">
  <defs>
    <style>
      .cls-1 {
        opacity: .54;
      }

      .cls-1, .cls-2, .cls-3, .cls-4, .cls-5, .cls-6 {
        stroke-width: 0px;
      }

      .cls-1, .cls-5 {
        fill: #fff;
      }

      .cls-7 {
        opacity: .5;
      }

      .cls-3 {
        fill: #231f20;
        opacity: .3;
      }

      .cls-4 {
        fill: #ff7a05;
      }

      .cls-6 {
        fill: #ffbd05;
      }
    </style>
  </defs>
  <polygon class="cls-5" points="70.4 43.2 70.4 46.4 67.2 46.4 67.2 49.6 70.4 52.8 70.4 56 76.8 56 76.8 59.2 70.4 59.2 70.4 62.4 76.8 68.8 80 68.8 83.2 62.4 83.2 59.2 86.4 52.8 86.4 49.6 89.6 43.2 89.6 40 76.8 40 70.4 43.2"/>
  <polygon class="cls-5" points="32 43.2 32 46.4 35.2 46.4 35.2 49.6 32 52.8 32 56 25.6 56 25.6 59.2 32 59.2 32 62.4 25.6 68.8 22.4 68.8 19.2 62.4 19.2 59.2 16 52.8 16 49.6 12.8 43.2 12.8 40 25.6 40 32 43.2"/>
  <polygon class="cls-4" points="48 33.6 54.4 33.6 54.4 36.8 57.6 36.8 57.6 40 60.8 40 60.8 43.2 64 43.2 64 52.8 67.2 52.8 67.2 62.4 70.4 62.4 70.4 65.6 73.6 65.6 73.6 72 67.2 72 67.2 75.2 60.8 75.2 60.8 78.4 41.6 78.4 41.6 75.2 35.2 75.2 35.2 72 28.8 72 28.8 65.6 32 65.6 32 62.4 35.2 62.4 35.2 52.8 38.4 52.8 38.4 43.2 41.6 43.2 41.6 40 44.8 40 44.8 36.8 48 36.8 48 33.6"/>
  <rect class="cls-2" x="25.6" y="65.6" width="3.2" height="6.4"/>
  <rect class="cls-2" x="32" y="52.8" width="3.2" height="9.6"/>
  <rect class="cls-2" x="28.8" y="72" width="6.4" height="3.2"/>
  <rect class="cls-2" x="35.2" y="75.2" width="6.4" height="3.2"/>
  <rect class="cls-2" x="28.8" y="62.4" width="3.2" height="3.2"/>
  <rect class="cls-2" x="38.4" y="40" width="3.2" height="3.2"/>
  <rect class="cls-2" x="41.6" y="36.8" width="3.2" height="3.2"/>
  <rect class="cls-2" x="44.8" y="33.6" width="3.2" height="3.2"/>
  <rect class="cls-2" x="35.2" y="43.2" width="3.2" height="9.6"/>
  <rect class="cls-2" x="73.6" y="65.6" width="3.2" height="6.4" transform="translate(150.4 137.6) rotate(-180)"/>
  <rect class="cls-2" x="67.2" y="52.8" width="3.2" height="9.6" transform="translate(137.6 115.2) rotate(-180)"/>
  <rect class="cls-2" x="67.2" y="72" width="6.4" height="3.2" transform="translate(140.8 147.2) rotate(-180)"/>
  <rect class="cls-2" x="60.8" y="75.2" width="6.4" height="3.2" transform="translate(128 153.6) rotate(-180)"/>
  <rect class="cls-2" x="70.4" y="62.4" width="3.2" height="3.2" transform="translate(144 128) rotate(-180)"/>
  <rect class="cls-2" x="60.8" y="40" width="3.2" height="3.2" transform="translate(124.8 83.2) rotate(-180)"/>
  <rect class="cls-2" x="57.6" y="36.8" width="3.2" height="3.2" transform="translate(118.4 76.8) rotate(-180)"/>
  <rect class="cls-2" x="54.4" y="33.6" width="3.2" height="3.2" transform="translate(112 70.4) rotate(-180)"/>
  <rect class="cls-2" x="64" y="43.2" width="3.2" height="9.6" transform="translate(131.2 96) rotate(-180)"/>
  <rect class="cls-2" x="48" y="84.8" width="6.4" height="3.2"/>
  <polygon class="cls-2" points="41.6 78.4 41.6 81.6 44.8 81.6 44.8 84.8 48 84.8 48 81.6 54.4 81.6 54.4 84.8 57.6 84.8 57.6 81.6 60.8 81.6 60.8 78.4 41.6 78.4"/>
  <rect class="cls-2" x="48" y="30.4" width="6.4" height="3.2"/>
  <rect class="cls-3" x="67.2" y="62.4" width="3.2" height="3.2" transform="translate(137.6 128) rotate(-180)"/>
  <rect class="cls-3" x="70.4" y="65.6" width="3.2" height="6.4" transform="translate(144 137.6) rotate(-180)"/>
  <rect class="cls-3" x="60.8" y="43.2" width="3.2" height="9.6" transform="translate(124.8 96) rotate(-180)"/>
  <rect class="cls-3" x="57.6" y="40" width="3.2" height="3.2" transform="translate(118.4 83.2) rotate(-180)"/>
  <rect class="cls-3" x="54.4" y="36.8" width="3.2" height="3.2" transform="translate(112 76.8) rotate(-180)"/>
  <rect class="cls-3" x="64" y="52.8" width="3.2" height="9.6" transform="translate(131.2 115.2) rotate(-180)"/>
  <rect class="cls-1" x="32" y="62.4" width="3.2" height="3.2"/>
  <rect class="cls-1" x="28.8" y="65.6" width="3.2" height="6.4"/>
  <rect class="cls-1" x="38.4" y="43.2" width="3.2" height="9.6"/>
  <rect class="cls-1" x="41.6" y="40" width="3.2" height="3.2"/>
  <rect class="cls-1" x="44.8" y="36.8" width="3.2" height="3.2"/>
  <rect class="cls-1" x="35.2" y="52.8" width="3.2" height="9.6"/>
  <rect class="cls-3" x="48" y="33.6" width="6.4" height="3.2"/>
  <rect class="cls-2" x="40" y="56" width="3.2" height="6.4"/>
  <rect class="cls-2" x="46.4" y="56" width="3.2" height="6.4"/>
  <rect class="cls-2" x="43.2" y="52.8" width="3.2" height="3.2" transform="translate(-9.6 99.2) rotate(-90)"/>
  <rect class="cls-2" x="52.8" y="56" width="3.2" height="6.4"/>
  <rect class="cls-2" x="59.2" y="56" width="3.2" height="6.4"/>
  <rect class="cls-2" x="56" y="52.8" width="3.2" height="3.2" transform="translate(3.2 112) rotate(-90)"/>
  <rect class="cls-2" x="44.8" y="68.8" width="12.8" height="3.2"/>
  <rect class="cls-6" x="48" y="81.6" width="6.4" height="3.2"/>
  <rect class="cls-6" x="38.4" y="20.8" width="3.2" height="3.2"/>
  <rect class="cls-6" x="60.8" y="20.8" width="3.2" height="3.2" transform="translate(124.8 44.8) rotate(-180)"/>
  <rect class="cls-6" x="41.6" y="17.6" width="19.2" height="3.2"/>
  <rect class="cls-6" x="41.6" y="24" width="19.2" height="3.2"/>
  <g>
    <rect class="cls-2" x="64" y="43.2" width="6.4" height="3.2"/>
    <rect class="cls-2" x="70.4" y="40" width="6.4" height="3.2"/>
    <rect class="cls-2" x="67.2" y="49.6" width="6.4" height="3.2"/>
    <rect class="cls-2" x="73.6" y="46.4" width="6.4" height="3.2"/>
    <polygon class="cls-2" points="92.8 36.8 89.6 36.8 83.2 36.8 76.8 36.8 76.8 40 83.2 40 89.6 40 89.6 43.2 80 43.2 80 46.4 86.4 46.4 86.4 49.6 86.4 49.6 83.2 49.6 83.2 52.8 76.8 52.8 76.8 56 83.2 56 83.2 59.2 80 59.2 80 62.4 73.6 62.4 73.6 65.6 80 65.6 80 68.8 83.2 68.8 83.2 62.4 86.4 62.4 86.4 59.2 86.4 59.2 86.4 52.8 89.6 52.8 89.6 52.8 89.6 46.4 92.8 46.4 92.8 40 92.8 36.8"/>
    <rect class="cls-2" x="69.17" y="56" width="7.63" height="3.2"/>
    <rect class="cls-2" x="76.8" y="68.8" width="3.2" height="3.2"/>
  </g>
  <g>
    <rect class="cls-2" x="32" y="43.2" width="6.4" height="3.2"/>
    <rect class="cls-2" x="25.6" y="40" width="6.4" height="3.2"/>
    <rect class="cls-2" x="28.8" y="49.6" width="6.4" height="3.2"/>
    <rect class="cls-2" x="22.4" y="46.4" width="6.4" height="3.2"/>
    <polygon class="cls-2" points="9.6 36.8 12.8 36.8 19.2 36.8 25.6 36.8 25.6 40 19.2 40 12.8 40 12.8 43.2 22.4 43.2 22.4 46.4 16 46.4 16 49.6 16 49.6 19.2 49.6 19.2 52.8 25.6 52.8 25.6 56 19.2 56 19.2 59.2 22.4 59.2 22.4 62.4 28.8 62.4 28.8 65.6 22.4 65.6 22.4 68.8 19.2 68.8 19.2 62.4 16 62.4 16 59.2 16 59.2 16 52.8 12.8 52.8 12.8 52.8 12.8 46.4 9.6 46.4 9.6 40 9.6 36.8"/>
    <rect class="cls-2" x="25.6" y="56" width="7.29" height="3.2"/>
    <rect class="cls-2" x="22.4" y="68.8" width="3.2" height="3.2"/>
  </g>
  <g class="cls-7">
    <rect class="cls-3" x="86.4" y="40" width="3.2" height="3.2"/>
    <rect class="cls-3" x="83.2" y="46.4" width="3.2" height="3.2"/>
    <rect class="cls-3" x="80" y="56" width="3.2" height="3.2"/>
    <rect class="cls-3" x="73.6" y="59.2" width="3.2" height="3.2"/>
    <rect class="cls-3" x="80" y="40" width="3.2" height="3.2"/>
    <rect class="cls-3" x="76.8" y="49.6" width="3.2" height="3.2"/>
    <rect class="cls-3" x="67.2" y="46.4" width="3.2" height="3.2"/>
    <rect class="cls-3" x="73.6" y="43.2" width="3.2" height="3.2"/>
    <rect class="cls-3" x="70.4" y="52.8" width="3.2" height="3.2"/>
    <rect class="cls-3" x="12.8" y="40" width="3.2" height="3.2" transform="translate(28.8 83.2) rotate(-180)"/>
    <rect class="cls-3" x="16" y="46.4" width="3.2" height="3.2" transform="translate(35.2 96) rotate(-180)"/>
    <rect class="cls-3" x="19.2" y="56" width="3.2" height="3.2" transform="translate(41.6 115.2) rotate(-180)"/>
    <rect class="cls-3" x="25.6" y="59.2" width="3.2" height="3.2" transform="translate(54.4 121.6) rotate(-180)"/>
    <rect class="cls-3" x="19.2" y="40" width="3.2" height="3.2" transform="translate(41.6 83.2) rotate(-180)"/>
    <rect class="cls-3" x="22.4" y="49.6" width="3.2" height="3.2" transform="translate(48 102.4) rotate(-180)"/>
    <rect class="cls-3" x="32" y="46.4" width="3.2" height="3.2" transform="translate(67.2 96) rotate(-180)"/>
    <rect class="cls-3" x="25.6" y="43.2" width="3.2" height="3.2" transform="translate(54.4 89.6) rotate(-180)"/>
    <rect class="cls-3" x="28.8" y="52.8" width="3.2" height="3.2" transform="translate(60.8 108.8) rotate(-180)"/>
  </g>
</svg>