<?xml version="1.0" encoding="UTF-8"?>
<svg id="Layer_26" data-name="Layer 26" xmlns="http://www.w3.org/2000/svg" viewBox="0 0 102.4 105.6">
  <defs>
    <style>
      .cls-1 {
        opacity: .22;
      }

      .cls-1, .cls-2 {
        fill: #fff;
      }

      .cls-1, .cls-2, .cls-3, .cls-4, .cls-5, .cls-6, .cls-7, .cls-8, .cls-9, .cls-10 {
        stroke-width: 0px;
      }

      .cls-2 {
        opacity: .54;
      }

      .cls-4 {
        fill: #231f20;
        opacity: .3;
      }

      .cls-5 {
        fill: #71b300;
      }

      .cls-6 {
        fill: #54a9c9;
      }

      .cls-7 {
        fill: #214c5d;
      }

      .cls-8 {
        fill: #cc2100;
      }

      .cls-9 {
        fill: #ffe6e8;
      }

      .cls-10 {
        fill: #ff5405;
      }
    </style>
  </defs>
  <polygon class="cls-9" points="64 40 67.2 40 67.2 43.2 64 43.2 64 56 67.2 56 67.2 65.6 70.4 65.6 70.4 68.8 73.6 68.8 73.6 75.2 67.2 75.2 67.2 78.4 60.8 78.4 60.8 81.6 41.6 81.6 41.6 78.4 35.2 78.4 35.2 75.2 28.8 75.2 28.8 68.8 32 68.8 32 65.6 35.2 65.6 35.2 56 38.4 56 38.4 46.4 35.2 43.2 35.2 40 48 27.2 54.4 27.2 64 36.8 64 40"/>
  <rect class="cls-6" x="44.8" y="43.2" width="12.8" height="19.2"/>
  <polygon class="cls-8" points="22.4 46.4 22.4 43.2 48 17.6 54.4 17.6 80 43.2 80 46.4 73.6 46.4 54.4 27.2 48 27.2 28.8 46.4 22.4 46.4"/>
  <rect class="cls-3" x="25.6" y="68.8" width="3.2" height="6.4"/>
  <rect class="cls-3" x="32" y="56" width="3.2" height="9.6"/>
  <rect class="cls-3" x="28.8" y="75.2" width="6.4" height="3.2"/>
  <rect class="cls-3" x="35.2" y="78.4" width="6.4" height="3.2"/>
  <rect class="cls-3" x="28.8" y="65.6" width="3.2" height="3.2"/>
  <rect class="cls-3" x="22.4" y="46.4" width="6.4" height="3.2"/>
  <rect class="cls-3" x="28.8" y="43.2" width="3.2" height="3.2"/>
  <rect class="cls-3" x="19.2" y="43.2" width="3.2" height="3.2"/>
  <rect class="cls-3" x="22.4" y="40" width="3.2" height="3.2"/>
  <rect class="cls-3" x="32" y="40" width="3.2" height="3.2"/>
  <rect class="cls-3" x="35.2" y="36.8" width="3.2" height="3.2"/>
  <rect class="cls-3" x="25.6" y="36.8" width="3.2" height="3.2"/>
  <rect class="cls-3" x="28.8" y="33.6" width="3.2" height="3.2"/>
  <rect class="cls-3" x="38.4" y="33.6" width="3.2" height="3.2"/>
  <rect class="cls-3" x="41.6" y="30.4" width="3.2" height="3.2"/>
  <rect class="cls-3" x="32" y="30.4" width="3.2" height="3.2"/>
  <rect class="cls-3" x="35.2" y="27.2" width="3.2" height="3.2"/>
  <rect class="cls-3" x="44.8" y="27.2" width="3.2" height="3.2"/>
  <rect class="cls-3" x="38.4" y="24" width="3.2" height="3.2"/>
  <rect class="cls-3" x="41.6" y="20.8" width="3.2" height="3.2"/>
  <rect class="cls-3" x="44.8" y="17.6" width="3.2" height="3.2"/>
  <rect class="cls-3" x="73.6" y="46.4" width="6.4" height="3.2" transform="translate(153.6 96) rotate(-180)"/>
  <rect class="cls-3" x="70.4" y="43.2" width="3.2" height="3.2" transform="translate(144 89.6) rotate(-180)"/>
  <rect class="cls-3" x="80" y="43.2" width="3.2" height="3.2" transform="translate(163.2 89.6) rotate(-180)"/>
  <rect class="cls-3" x="76.8" y="40" width="3.2" height="3.2" transform="translate(156.8 83.2) rotate(-180)"/>
  <rect class="cls-3" x="67.2" y="40" width="3.2" height="3.2" transform="translate(137.6 83.2) rotate(-180)"/>
  <rect class="cls-3" x="64" y="36.8" width="3.2" height="3.2" transform="translate(131.2 76.8) rotate(-180)"/>
  <rect class="cls-3" x="73.6" y="36.8" width="3.2" height="3.2" transform="translate(150.4 76.8) rotate(-180)"/>
  <rect class="cls-3" x="70.4" y="33.6" width="3.2" height="3.2" transform="translate(144 70.4) rotate(-180)"/>
  <rect class="cls-3" x="60.8" y="33.6" width="3.2" height="3.2" transform="translate(124.8 70.4) rotate(-180)"/>
  <rect class="cls-3" x="57.6" y="30.4" width="3.2" height="3.2" transform="translate(118.4 64) rotate(-180)"/>
  <rect class="cls-3" x="67.2" y="30.4" width="3.2" height="3.2" transform="translate(137.6 64) rotate(-180)"/>
  <rect class="cls-3" x="64" y="27.2" width="3.2" height="3.2" transform="translate(131.2 57.6) rotate(-180)"/>
  <rect class="cls-3" x="54.4" y="27.2" width="3.2" height="3.2" transform="translate(112 57.6) rotate(-180)"/>
  <polygon class="cls-3" points="51.2 24 48 24 48 27.2 51.2 27.2 54.4 27.2 54.4 24 51.2 24"/>
  <rect class="cls-3" x="60.8" y="24" width="3.2" height="3.2" transform="translate(124.8 51.2) rotate(-180)"/>
  <rect class="cls-3" x="57.6" y="20.8" width="3.2" height="3.2" transform="translate(118.4 44.8) rotate(-180)"/>
  <rect class="cls-3" x="54.4" y="17.6" width="3.2" height="3.2" transform="translate(112 38.4) rotate(-180)"/>
  <polygon class="cls-3" points="51.2 14.4 48 14.4 48 17.6 51.2 17.6 54.4 17.6 54.4 14.4 51.2 14.4"/>
  <rect class="cls-3" x="35.2" y="43.2" width="3.2" height="12.8"/>
  <rect class="cls-3" x="73.6" y="68.8" width="3.2" height="6.4" transform="translate(150.4 144) rotate(-180)"/>
  <rect class="cls-3" x="67.2" y="56" width="3.2" height="9.6" transform="translate(137.6 121.6) rotate(-180)"/>
  <rect class="cls-3" x="67.2" y="75.2" width="6.4" height="3.2" transform="translate(140.8 153.6) rotate(-180)"/>
  <rect class="cls-3" x="60.8" y="78.4" width="6.4" height="3.2" transform="translate(128 160) rotate(-180)"/>
  <rect class="cls-3" x="73.6" y="78.4" width="6.4" height="3.2" transform="translate(153.6 160) rotate(-180)"/>
  <rect class="cls-3" x="60.8" y="84.8" width="19.2" height="3.2" transform="translate(140.8 172.8) rotate(-180)"/>
  <rect class="cls-3" x="70.4" y="65.6" width="3.2" height="3.2" transform="translate(144 134.4) rotate(-180)"/>
  <rect class="cls-3" x="80" y="81.6" width="3.2" height="3.2" transform="translate(163.2 166.4) rotate(-180)"/>
  <rect class="cls-3" x="22.4" y="78.4" width="6.4" height="3.2"/>
  <rect class="cls-3" x="22.4" y="84.8" width="19.2" height="3.2"/>
  <rect class="cls-3" x="19.2" y="81.6" width="3.2" height="3.2"/>
  <rect class="cls-3" x="64" y="43.2" width="3.2" height="12.8" transform="translate(131.2 99.2) rotate(-180)"/>
  <rect class="cls-3" x="48" y="88" width="6.4" height="3.2"/>
  <polygon class="cls-3" points="41.6 81.6 41.6 84.8 44.8 84.8 44.8 88 48 88 48 84.8 54.4 84.8 54.4 88 57.6 88 57.6 84.8 60.8 84.8 60.8 81.6 41.6 81.6"/>
  <rect class="cls-4" x="67.2" y="65.6" width="3.2" height="3.2" transform="translate(137.6 134.4) rotate(-180)"/>
  <rect class="cls-4" x="57.6" y="62.4" width="3.2" height="3.2" transform="translate(118.4 128) rotate(-180)"/>
  <rect class="cls-4" x="41.6" y="62.4" width="3.2" height="3.2" transform="translate(86.4 128) rotate(-180)"/>
  <rect class="cls-4" x="44.8" y="65.6" width="12.8" height="3.2" transform="translate(102.4 134.4) rotate(-180)"/>
  <rect class="cls-4" x="64" y="40" width="3.2" height="3.2" transform="translate(131.2 83.2) rotate(-180)"/>
  <rect class="cls-4" x="60.8" y="36.8" width="3.2" height="3.2" transform="translate(124.8 76.8) rotate(-180)"/>
  <rect class="cls-4" x="57.6" y="33.6" width="3.2" height="3.2" transform="translate(118.4 70.4) rotate(-180)"/>
  <rect class="cls-4" x="54.4" y="30.4" width="3.2" height="3.2" transform="translate(112 64) rotate(-180)"/>
  <rect class="cls-4" x="48" y="27.2" width="6.4" height="3.2" transform="translate(102.4 57.6) rotate(-180)"/>
  <rect class="cls-4" x="70.4" y="68.8" width="3.2" height="6.4" transform="translate(144 144) rotate(-180)"/>
  <rect class="cls-4" x="60.8" y="43.2" width="3.2" height="12.8" transform="translate(124.8 99.2) rotate(-180)"/>
  <rect class="cls-4" x="64" y="56" width="3.2" height="9.6" transform="translate(131.2 121.6) rotate(-180)"/>
  <rect class="cls-2" x="32" y="65.6" width="3.2" height="3.2"/>
  <rect class="cls-2" x="44.8" y="43.2" width="4.8" height="3.2"/>
  <rect class="cls-2" x="52.8" y="43.2" width="4.8" height="3.2"/>
  <rect class="cls-2" x="44.8" y="54.4" width="4.8" height="3.2"/>
  <rect class="cls-2" x="52.8" y="54.4" width="4.8" height="3.2"/>
  <rect class="cls-1" x="76.8" y="43.2" width="3.2" height="3.2"/>
  <rect class="cls-1" x="73.6" y="40" width="3.2" height="3.2"/>
  <rect class="cls-1" x="70.4" y="36.8" width="3.2" height="3.2"/>
  <rect class="cls-1" x="67.2" y="33.6" width="3.2" height="3.2"/>
  <rect class="cls-1" x="64" y="30.4" width="3.2" height="3.2"/>
  <rect class="cls-1" x="60.8" y="27.2" width="3.2" height="3.2"/>
  <rect class="cls-1" x="57.6" y="24" width="3.2" height="3.2"/>
  <rect class="cls-1" x="54.4" y="20.8" width="3.2" height="3.2"/>
  <rect class="cls-1" x="44.8" y="20.8" width="3.2" height="3.2"/>
  <rect class="cls-1" x="41.6" y="24" width="3.2" height="3.2"/>
  <rect class="cls-1" x="38.4" y="27.2" width="3.2" height="3.2"/>
  <rect class="cls-1" x="35.2" y="30.4" width="3.2" height="3.2"/>
  <rect class="cls-1" x="32" y="33.6" width="3.2" height="3.2"/>
  <rect class="cls-1" x="28.8" y="36.8" width="3.2" height="3.2"/>
  <rect class="cls-1" x="25.6" y="40" width="3.2" height="3.2"/>
  <rect class="cls-1" x="22.4" y="43.2" width="3.2" height="3.2"/>
  <rect class="cls-1" x="48" y="17.6" width="6.4" height="3.2"/>
  <rect class="cls-4" x="35.2" y="40" width="3.2" height="3.2"/>
  <rect class="cls-4" x="38.4" y="36.8" width="3.2" height="3.2"/>
  <rect class="cls-4" x="41.6" y="33.6" width="3.2" height="3.2"/>
  <rect class="cls-4" x="44.8" y="30.4" width="3.2" height="3.2"/>
  <rect class="cls-2" x="28.8" y="68.8" width="3.2" height="6.4"/>
  <rect class="cls-2" x="38.4" y="43.2" width="3.2" height="12.8"/>
  <rect class="cls-2" x="35.2" y="56" width="3.2" height="9.6"/>
  <rect class="cls-7" x="41.6" y="43.2" width="3.2" height="19.2"/>
  <rect class="cls-7" x="57.6" y="43.2" width="3.2" height="19.2"/>
  <rect class="cls-7" x="44.8" y="72" width="12.8" height="3.2"/>
  <rect class="cls-7" x="44.8" y="40" width="12.8" height="3.2"/>
  <rect class="cls-7" x="44.8" y="62.4" width="12.8" height="3.2"/>
  <rect class="cls-7" x="43.2" y="51.2" width="16" height="3.2"/>
  <rect class="cls-7" x="41.6" y="51.2" width="19.2" height="3.2" transform="translate(-1.6 104) rotate(-90)"/>
  <rect class="cls-10" x="48" y="84.8" width="6.4" height="3.2"/>
  <polygon class="cls-5" points="22.4 81.6 22.4 84.8 41.6 84.8 41.6 81.6 35.2 81.6 35.2 78.4 28.8 78.4 28.8 81.6 22.4 81.6"/>
  <polygon class="cls-5" points="60.8 81.6 60.8 84.8 80 84.8 80 81.6 73.6 81.6 73.6 78.4 67.2 78.4 67.2 81.6 60.8 81.6"/>
</svg>