<?xml version="1.0" encoding="UTF-8"?>
<svg id="Layer_27" data-name="Layer 27" xmlns="http://www.w3.org/2000/svg" viewBox="0 0 102.4 105.6">
  <defs>
    <style>
      .cls-1, .cls-2, .cls-3, .cls-4, .cls-5, .cls-6, .cls-7, .cls-8, .cls-9, .cls-10, .cls-11, .cls-12, .cls-13 {
        stroke-width: 0px;
      }

      .cls-2 {
        opacity: .3;
      }

      .cls-2, .cls-8 {
        fill: #fff;
      }

      .cls-3 {
        fill: #7a67be;
      }

      .cls-4 {
        fill: #869bb7;
      }

      .cls-5 {
        fill: #ff8d00;
      }

      .cls-6 {
        fill: #fde18e;
      }

      .cls-7 {
        fill: #febc40;
      }

      .cls-9 {
        fill: #fff0be;
      }

      .cls-10 {
        fill: #fc6c00;
      }

      .cls-11 {
        fill: #ffbb40;
      }

      .cls-12 {
        fill: #eaeff0;
      }

      .cls-13 {
        fill: #ff5405;
      }
    </style>
  </defs>
  <polygon class="cls-3" points="41.6 60.8 41.6 64 38.4 64 38.4 67.2 35.2 67.2 35.2 73.6 32 73.6 32 76.8 28.8 76.8 28.8 83.2 35.2 83.2 35.2 86.4 41.6 86.4 41.6 89.6 60.8 89.6 60.8 86.4 67.2 86.4 67.2 83.2 73.6 83.2 73.6 76.8 70.4 76.8 70.4 73.6 67.2 73.6 67.2 67.2 64 67.2 64 64 60.76 64 60.8 60.8 41.6 60.8"/>
  <rect class="cls-1" x="25.6" y="76.8" width="3.2" height="6.4"/>
  <rect class="cls-1" x="32" y="67.2" width="3.2" height="6.4"/>
  <rect class="cls-1" x="28.8" y="83.2" width="6.4" height="3.2"/>
  <rect class="cls-1" x="35.2" y="86.4" width="6.4" height="3.2"/>
  <rect class="cls-1" x="41.6" y="89.6" width="19.2" height="3.2"/>
  <rect class="cls-4" x="41.64" y="60.8" width="19.12" height="3.2"/>
  <rect class="cls-4" x="44.8" y="54.4" width="12.8" height="3.2"/>
  <rect class="cls-1" x="44.78" y="64" width="12.84" height="3.2"/>
  <rect class="cls-1" x="44.8" y="92.8" width="3.2" height="3.2"/>
  <rect class="cls-1" x="28.8" y="73.6" width="3.2" height="3.2"/>
  <rect class="cls-5" x="32" y="35.2" width="3.2" height="9.6"/>
  <rect class="cls-10" x="32" y="25.6" width="3.2" height="9.6"/>
  <rect class="cls-1" x="73.6" y="76.8" width="3.2" height="6.4" transform="translate(150.4 160) rotate(-180)"/>
  <rect class="cls-1" x="67.2" y="67.2" width="3.2" height="6.4" transform="translate(137.6 140.8) rotate(-180)"/>
  <rect class="cls-1" x="67.2" y="83.2" width="6.4" height="3.2" transform="translate(140.8 169.6) rotate(-180)"/>
  <rect class="cls-1" x="60.8" y="86.4" width="6.4" height="3.2" transform="translate(128 176) rotate(-180)"/>
  <rect class="cls-1" x="70.4" y="73.6" width="3.2" height="3.2" transform="translate(144 150.4) rotate(-180)"/>
  <rect class="cls-1" x="64" y="64" width="3.2" height="3.2" transform="translate(131.2 131.2) rotate(-180)"/>
  <rect class="cls-1" x="35.2" y="64" width="3.2" height="3.2" transform="translate(73.6 131.2) rotate(-180)"/>
  <rect class="cls-10" x="38.4" y="48" width="3.2" height="3.2" transform="translate(80 99.2) rotate(-180)"/>
  <rect class="cls-11" x="35.2" y="54.4" width="3.2" height="3.2" transform="translate(73.6 112) rotate(-180)"/>
  <rect class="cls-10" x="35.2" y="44.8" width="3.2" height="3.2" transform="translate(73.6 92.8) rotate(-180)"/>
  <rect class="cls-11" x="28.8" y="48" width="3.2" height="3.2" transform="translate(60.8 99.2) rotate(-180)"/>
  <rect class="cls-11" x="25.6" y="41.6" width="3.2" height="3.2" transform="translate(54.4 86.4) rotate(-180)"/>
  <rect class="cls-11" x="25.6" y="35.2" width="3.2" height="3.2" transform="translate(54.4 73.6) rotate(-180)"/>
  <rect class="cls-11" x="25.6" y="28.8" width="3.2" height="3.2" transform="translate(54.4 60.8) rotate(-180)"/>
  <rect class="cls-11" x="25.6" y="19.2" width="3.2" height="3.2" transform="translate(54.4 41.6) rotate(-180)"/>
  <rect class="cls-11" x="32" y="16" width="3.2" height="3.2" transform="translate(67.2 35.2) rotate(-180)"/>
  <rect class="cls-11" x="64" y="54.4" width="3.2" height="3.2"/>
  <rect class="cls-12" x="54.4" y="60.8" width="3.2" height="3.2"/>
  <rect class="cls-12" x="54.4" y="54.4" width="3.2" height="3.2"/>
  <rect class="cls-6" x="67.2" y="57.6" width="3.2" height="3.2"/>
  <rect class="cls-11" x="70.4" y="48" width="3.2" height="3.2"/>
  <rect class="cls-6" x="73.6" y="51.2" width="3.2" height="3.2"/>
  <rect class="cls-11" x="73.6" y="41.6" width="3.2" height="3.2"/>
  <rect class="cls-6" x="76.8" y="44.8" width="3.2" height="3.2"/>
  <rect class="cls-11" x="73.6" y="35.2" width="3.2" height="3.2"/>
  <rect class="cls-11" x="73.6" y="28.8" width="3.2" height="3.2"/>
  <rect class="cls-6" x="76.8" y="25.6" width="3.2" height="3.2"/>
  <rect class="cls-6" x="76.8" y="35.2" width="3.2" height="3.2"/>
  <rect class="cls-6" x="76.8" y="16" width="3.2" height="3.2"/>
  <rect class="cls-11" x="73.6" y="19.2" width="3.2" height="3.2"/>
  <rect class="cls-6" x="70.4" y="12.8" width="3.2" height="3.2"/>
  <rect class="cls-6" x="32" y="57.6" width="3.2" height="3.2" transform="translate(67.2 118.4) rotate(-180)"/>
  <rect class="cls-6" x="25.6" y="51.2" width="3.2" height="3.2" transform="translate(54.4 105.6) rotate(-180)"/>
  <rect class="cls-6" x="22.4" y="44.8" width="3.2" height="3.2" transform="translate(48 92.8) rotate(-180)"/>
  <rect class="cls-6" x="22.4" y="25.6" width="3.2" height="3.2" transform="translate(48 54.4) rotate(-180)"/>
  <rect class="cls-6" x="22.4" y="35.2" width="3.2" height="3.2" transform="translate(48 73.6) rotate(-180)"/>
  <rect class="cls-6" x="22.4" y="16" width="3.2" height="3.2" transform="translate(48 35.2) rotate(-180)"/>
  <rect class="cls-6" x="28.8" y="12.8" width="3.2" height="3.2" transform="translate(60.8 28.8) rotate(-180)"/>
  <rect class="cls-11" x="38.4" y="9.6" width="3.2" height="3.2" transform="translate(80 22.4) rotate(-180)"/>
  <rect class="cls-6" x="35.2" y="6.4" width="3.2" height="3.2" transform="translate(73.6 16) rotate(-180)"/>
  <rect class="cls-11" x="49.6" y="9.6" width="3.2" height="3.2" transform="translate(102.4 22.4) rotate(-180)"/>
  <rect class="cls-6" x="46.4" y="6.4" width="3.2" height="3.2" transform="translate(96 16) rotate(-180)"/>
  <rect class="cls-6" x="52.8" y="6.4" width="3.2" height="3.2" transform="translate(108.8 16) rotate(-180)"/>
  <rect class="cls-6" x="64" y="6.4" width="3.2" height="3.2" transform="translate(131.2 16) rotate(-180)"/>
  <rect class="cls-11" x="60.8" y="9.6" width="3.2" height="3.2" transform="translate(124.8 22.4) rotate(-180)"/>
  <rect class="cls-6" x="38.4" y="44.8" width="3.2" height="3.2" transform="translate(80 92.8) rotate(-180)"/>
  <rect class="cls-6" x="41.6" y="48" width="19.2" height="3.2" transform="translate(102.4 99.2) rotate(-180)"/>
  <rect class="cls-5" x="60.8" y="48" width="3.2" height="3.2"/>
  <rect class="cls-1" x="49.6" y="67.2" width="3.2" height="3.2"/>
  <rect class="cls-1" x="44.8" y="80" width="3.2" height="3.2"/>
  <rect class="cls-1" x="54.4" y="80" width="3.2" height="3.2"/>
  <rect class="cls-5" x="64" y="44.8" width="3.2" height="3.2"/>
  <rect class="cls-5" x="35.2" y="22.4" width="3.2" height="3.2" transform="translate(73.6 48) rotate(-180)"/>
  <rect class="cls-5" x="38.4" y="19.2" width="3.2" height="3.2" transform="translate(80 41.6) rotate(-180)"/>
  <rect class="cls-5" x="67.2" y="25.6" width="3.2" height="9.6" transform="translate(137.6 60.8) rotate(-180)"/>
  <rect class="cls-10" x="67.2" y="35.2" width="3.2" height="9.6" transform="translate(137.6 80) rotate(-180)"/>
  <rect class="cls-10" x="64" y="22.4" width="3.2" height="3.2"/>
  <rect class="cls-10" x="60.8" y="19.2" width="3.2" height="3.2"/>
  <rect class="cls-5" x="41.6" y="16" width="19.2" height="3.2" transform="translate(102.4 35.2) rotate(-180)"/>
  <path class="cls-1" d="m60.8,60.8v-9.6h-19.2v9.6h-3.2v3.2h6.4v-3.2h12.82v3.2h6.38v-3.2h-3.2Zm-16-3.2v-3.2h12.8v3.2h-12.8Z"/>
  <rect class="cls-1" x="48" y="96" width="6.4" height="3.2"/>
  <rect class="cls-1" x="54.4" y="92.8" width="3.2" height="3.2"/>
  <rect class="cls-2" x="67.2" y="73.6" width="3.2" height="3.2" transform="translate(137.6 150.4) rotate(-180)"/>
  <rect class="cls-2" x="57.6" y="64" width="6.4" height="3.2" transform="translate(121.6 131.2) rotate(-180)"/>
  <rect class="cls-2" x="70.4" y="76.8" width="3.2" height="6.4" transform="translate(144 160) rotate(-180)"/>
  <rect class="cls-2" x="64" y="67.2" width="3.2" height="6.4" transform="translate(131.2 140.8) rotate(-180)"/>
  <rect class="cls-2" x="32" y="73.6" width="3.2" height="3.2"/>
  <rect class="cls-2" x="38.4" y="64" width="6.4" height="3.2"/>
  <rect class="cls-2" x="28.8" y="76.8" width="3.2" height="6.4"/>
  <rect class="cls-2" x="35.2" y="67.2" width="3.2" height="6.4"/>
  <polygon class="cls-7" points="41.6 19.2 60.8 19.2 60.8 22.4 64 22.4 64 25.6 67.2 25.6 67.2 44.8 64 44.8 64 48 41.6 48 41.6 44.8 38.4 44.8 38.4 22.4 41.6 22.4 41.6 19.2"/>
  <rect class="cls-6" x="47.98" y="22.4" width="3.2" height="3.2" transform="translate(99.16 48) rotate(-180)"/>
  <rect class="cls-6" x="60.8" y="35.16" width="3.2" height="3.2" transform="translate(124.8 73.52) rotate(-180)"/>
  <rect class="cls-6" x="51.18" y="19.2" width="3.2" height="3.2" transform="translate(105.56 41.6) rotate(-180)"/>
  <rect class="cls-6" x="64" y="31.96" width="3.2" height="3.2" transform="translate(131.2 67.12) rotate(-180)"/>
  <rect class="cls-6" x="44.78" y="25.6" width="3.2" height="12.8" transform="translate(92.76 64) rotate(-180)"/>
  <rect class="cls-6" x="47.96" y="38.4" width="12.8" height="3.2" transform="translate(108.72 80) rotate(-180)"/>
  <polygon class="cls-6" points="60.8 19.2 60.8 22.4 64 22.4 64 25.6 67.2 25.6 67.2 31.96 64 31.96 64 35.16 60.8 35.16 60.8 38.4 47.96 38.4 47.98 25.6 51.18 25.6 51.18 22.4 54.38 22.4 54.38 19.2 60.8 19.2"/>
  <rect class="cls-1" x="41.6" y="70.4" width="3.2" height="6.4"/>
  <rect class="cls-1" x="57.6" y="70.4" width="3.2" height="6.4"/>
  <rect class="cls-1" x="48" y="76.8" width="6.4" height="3.2"/>
  <rect class="cls-11" x="48" y="80.01" width="6.4" height="3.2"/>
  <rect class="cls-1" x="48" y="83.2" width="6.4" height="3.2"/>
  <rect class="cls-13" x="48" y="92.8" width="6.4" height="3.2"/>
  <rect class="cls-6" x="35.2" y="25.6" width="3.2" height="19.2"/>
  <rect class="cls-9" x="47.96" y="28.8" width="16" height="3.2"/>
  <rect class="cls-9" x="47.96" y="28.8" width="16" height="3.2" transform="translate(25.56 86.36) rotate(-90)"/>
  <rect class="cls-9" x="51.2" y="25.6" width="9.56" height="9.56"/>
  <rect class="cls-11" x="67.2" y="16" width="3.2" height="3.2"/>
  <rect class="cls-11" x="57.6" y="22.4" width="3.2" height="3.2"/>
  <rect class="cls-9" x="51.18" y="19.2" width="3.2" height="3.2"/>
  <rect class="cls-9" x="51.2" y="38.4" width="3.2" height="3.2"/>
  <rect class="cls-5" x="44.78" y="38.4" width="3.2" height="3.2"/>
  <rect class="cls-5" x="54.36" y="41.6" width="3.2" height="3.2"/>
  <rect class="cls-5" x="41.6" y="32" width="3.2" height="3.2"/>
  <rect class="cls-5" x="38.4" y="28.8" width="3.2" height="3.2"/>
  <rect class="cls-5" x="44.78" y="22.4" width="3.2" height="3.2"/>
  <rect class="cls-9" x="57.6" y="38.4" width="3.2" height="3.2"/>
  <rect class="cls-9" x="64" y="31.96" width="3.2" height="3.2"/>
  <rect class="cls-9" x="44.78" y="41.6" width="3.2" height="3.2"/>
  <rect class="cls-9" x="60.8" y="44.8" width="3.2" height="3.2"/>
  <rect class="cls-9" x="38.4" y="35.2" width="3.2" height="3.2"/>
  <rect class="cls-9" x="41.6" y="22.4" width="3.2" height="3.2"/>
  <rect class="cls-9" x="44.78" y="31.96" width="3.2" height="3.2"/>
  <rect class="cls-11" x="60.78" y="25.6" width="3.2" height="3.2"/>
  <rect class="cls-8" x="51.22" y="28.8" width="9.54" height="3.2"/>
  <rect class="cls-8" x="51.22" y="28.8" width="9.54" height="3.2" transform="translate(25.59 86.39) rotate(-90)"/>
</svg>