<?xml version="1.0" encoding="UTF-8"?>
<svg id="Layer_28" data-name="Layer 28" xmlns="http://www.w3.org/2000/svg" viewBox="0 0 102.4 105.6">
  <defs>
    <style>
      .cls-1 {
        opacity: .54;
      }

      .cls-1, .cls-2, .cls-3, .cls-4, .cls-5, .cls-6, .cls-7, .cls-8, .cls-9 {
        stroke-width: 0px;
      }

      .cls-1, .cls-4 {
        fill: #fff;
      }

      .cls-10 {
        opacity: .59;
      }

      .cls-3 {
        fill: #c17216;
      }

      .cls-5 {
        fill: #fffab1;
      }

      .cls-6 {
        fill: #f0a372;
      }

      .cls-7 {
        fill: #ffa700;
      }

      .cls-8 {
        fill: #ffd6b2;
      }

      .cls-9 {
        fill: #00c95b;
      }
    </style>
  </defs>
  <polygon class="cls-8" points="48 40 54.4 40 54.4 43.2 57.6 43.2 57.6 46.4 60.8 46.4 60.8 49.6 64 49.6 64 59.2 67.2 59.2 67.2 68.8 70.4 68.8 70.4 72 73.6 72 73.6 78.4 67.2 78.4 67.2 81.6 60.8 81.6 60.8 84.8 41.6 84.8 41.6 81.6 35.2 81.6 35.2 78.4 28.8 78.4 28.8 72 32 72 32 68.8 35.2 68.8 35.2 59.2 38.4 59.2 38.4 49.6 41.6 49.6 41.6 46.4 44.8 46.4 44.8 43.2 48 43.2 48 40"/>
  <rect class="cls-4" x="38.4" y="65.6" width="9.6" height="3.2" transform="translate(86.4 134.4) rotate(180)"/>
  <polygon class="cls-7" points="32 68.8 28.8 68.8 25.6 62.4 22.4 59.2 19.2 52.8 19.2 43.2 22.4 33.6 25.6 33.6 28.8 40 28.8 33.6 32 20.8 35.2 20.8 38.4 27.2 41.6 27.2 44.8 20.8 48 14.4 54.4 14.4 64 33.6 64 27.2 67.2 20.8 70.4 20.8 73.6 33.6 80 33.6 83.2 43.2 83.2 52.8 80 52.8 80 59.2 76.8 62.4 73.6 68.8 70.4 68.8 70.4 59.2 67.2 59.2 67.2 49.6 64 49.6 64 46.4 60.8 46.4 60.8 43.2 54.4 43.2 54.4 46.4 51.2 46.4 51.2 43.2 48 43.2 48 46.4 41.6 52.8 41.6 49.6 38.4 49.6 38.4 59.2 35.2 59.2 35.2 68.8 32 68.8"/>
  <rect class="cls-2" x="25.6" y="72" width="3.2" height="6.4"/>
  <rect class="cls-2" x="32" y="59.2" width="3.2" height="9.6"/>
  <rect class="cls-2" x="28.8" y="78.4" width="6.4" height="3.2"/>
  <rect class="cls-2" x="35.2" y="81.6" width="6.4" height="3.2"/>
  <rect class="cls-2" x="28.8" y="68.8" width="3.2" height="3.2"/>
  <rect class="cls-2" x="25.6" y="62.4" width="3.2" height="6.4"/>
  <rect class="cls-2" x="19.2" y="52.8" width="3.2" height="6.4"/>
  <rect class="cls-2" x="16" y="43.2" width="3.2" height="9.6"/>
  <rect class="cls-2" x="19.2" y="33.6" width="3.2" height="9.6"/>
  <rect class="cls-2" x="38.4" y="46.4" width="3.2" height="3.2"/>
  <rect class="cls-2" x="22.4" y="30.4" width="3.2" height="3.2"/>
  <rect class="cls-2" x="28.8" y="20.8" width="3.2" height="12.8"/>
  <rect class="cls-2" x="28.8" y="40" width="3.2" height="3.2"/>
  <rect class="cls-2" x="22.4" y="59.2" width="3.2" height="3.2"/>
  <rect class="cls-2" x="38.4" y="27.2" width="3.2" height="6.4"/>
  <rect class="cls-2" x="41.6" y="20.8" width="3.2" height="6.4"/>
  <rect class="cls-2" x="44.8" y="14.4" width="3.2" height="6.4"/>
  <rect class="cls-2" x="32" y="17.6" width="3.2" height="3.2"/>
  <rect class="cls-2" x="48" y="11.2" width="6.4" height="3.2"/>
  <rect class="cls-2" x="35.2" y="20.8" width="3.2" height="6.4"/>
  <rect class="cls-2" x="25.6" y="33.6" width="3.2" height="6.4"/>
  <rect class="cls-2" x="73.6" y="62.4" width="3.2" height="6.4" transform="translate(150.4 131.2) rotate(-180)"/>
  <rect class="cls-2" x="80" y="52.8" width="3.2" height="6.4" transform="translate(163.2 112) rotate(-180)"/>
  <rect class="cls-2" x="83.2" y="43.2" width="3.2" height="9.6" transform="translate(169.6 96) rotate(-180)"/>
  <rect class="cls-2" x="80" y="33.6" width="3.2" height="9.6" transform="translate(163.2 76.8) rotate(-180)"/>
  <rect class="cls-2" x="76.8" y="30.4" width="3.2" height="3.2" transform="translate(156.8 64) rotate(-180)"/>
  <rect class="cls-2" x="70.4" y="20.8" width="3.2" height="12.8" transform="translate(144 54.4) rotate(-180)"/>
  <rect class="cls-2" x="70.4" y="40" width="3.2" height="3.2" transform="translate(144 83.2) rotate(-180)"/>
  <rect class="cls-2" x="76.8" y="59.2" width="3.2" height="3.2" transform="translate(156.8 121.6) rotate(-180)"/>
  <rect class="cls-2" x="60.8" y="27.2" width="3.2" height="6.4" transform="translate(124.8 60.8) rotate(-180)"/>
  <rect class="cls-2" x="57.6" y="20.8" width="3.2" height="6.4" transform="translate(118.4 48) rotate(-180)"/>
  <rect class="cls-2" x="54.4" y="14.4" width="3.2" height="6.4" transform="translate(112 35.2) rotate(-180)"/>
  <rect class="cls-2" x="67.2" y="17.6" width="3.2" height="3.2" transform="translate(137.6 38.4) rotate(-180)"/>
  <rect class="cls-2" x="64" y="20.8" width="3.2" height="6.4" transform="translate(131.2 48) rotate(-180)"/>
  <rect class="cls-2" x="73.6" y="33.6" width="3.2" height="6.4" transform="translate(150.4 73.6) rotate(-180)"/>
  <rect class="cls-2" x="41.6" y="49.6" width="3.2" height="3.2"/>
  <rect class="cls-9" x="41.6" y="65.6" width="3.2" height="3.2"/>
  <rect class="cls-4" x="54.4" y="65.6" width="9.6" height="3.2" transform="translate(118.4 134.4) rotate(180)"/>
  <rect class="cls-2" x="44.8" y="46.4" width="3.2" height="3.2"/>
  <rect class="cls-2" x="51.2" y="46.4" width="3.2" height="3.2"/>
  <rect class="cls-2" x="48" y="43.2" width="3.2" height="3.2"/>
  <rect class="cls-2" x="54.4" y="49.6" width="3.2" height="3.2"/>
  <rect class="cls-2" x="35.2" y="49.6" width="3.2" height="9.6"/>
  <rect class="cls-2" x="73.6" y="72" width="3.2" height="6.4" transform="translate(150.4 150.4) rotate(-180)"/>
  <rect class="cls-2" x="67.2" y="59.2" width="3.2" height="9.6" transform="translate(137.6 128) rotate(-180)"/>
  <rect class="cls-2" x="67.2" y="78.4" width="6.4" height="3.2" transform="translate(140.8 160) rotate(-180)"/>
  <rect class="cls-2" x="60.8" y="81.6" width="6.4" height="3.2" transform="translate(128 166.4) rotate(-180)"/>
  <rect class="cls-2" x="70.4" y="68.8" width="3.2" height="3.2" transform="translate(144 140.8) rotate(-180)"/>
  <rect class="cls-2" x="60.8" y="46.4" width="3.2" height="3.2" transform="translate(124.8 96) rotate(-180)"/>
  <rect class="cls-2" x="54.4" y="43.2" width="6.4" height="3.2" transform="translate(115.2 89.6) rotate(-180)"/>
  <rect class="cls-2" x="64" y="49.6" width="3.2" height="9.6" transform="translate(131.2 108.8) rotate(-180)"/>
  <rect class="cls-2" x="48" y="91.2" width="6.4" height="3.2"/>
  <polygon class="cls-2" points="41.6 84.8 41.6 88 44.8 88 44.8 91.2 48 91.2 48 88 54.4 88 54.4 91.2 57.6 91.2 57.6 88 60.8 88 60.8 84.8 41.6 84.8"/>
  <rect class="cls-6" x="67.2" y="68.8" width="3.2" height="3.2" transform="translate(137.6 140.8) rotate(-180)"/>
  <rect class="cls-6" x="54.4" y="46.4" width="6.4" height="3.2" transform="translate(115.2 96) rotate(-180)"/>
  <rect class="cls-6" x="51.2" y="49.6" width="3.2" height="3.2" transform="translate(105.6 102.4) rotate(-180)"/>
  <rect class="cls-6" x="54.4" y="52.8" width="3.2" height="3.2" transform="translate(112 108.8) rotate(-180)"/>
  <rect class="cls-6" x="48" y="46.4" width="3.2" height="3.2" transform="translate(99.2 96) rotate(-180)"/>
  <rect class="cls-6" x="70.4" y="72" width="3.2" height="6.4" transform="translate(144 150.4) rotate(-180)"/>
  <rect class="cls-6" x="60.8" y="49.6" width="3.2" height="9.6" transform="translate(124.8 108.8) rotate(-180)"/>
  <rect class="cls-6" x="64" y="59.2" width="3.2" height="9.6" transform="translate(131.2 128) rotate(-180)"/>
  <rect class="cls-3" x="80" y="43.2" width="3.2" height="9.6" transform="translate(163.2 96) rotate(-180)"/>
  <rect class="cls-3" x="76.8" y="52.8" width="3.2" height="6.4" transform="translate(156.8 112) rotate(-180)"/>
  <rect class="cls-3" x="70.4" y="62.4" width="3.2" height="6.4" transform="translate(144 131.2) rotate(-180)"/>
  <rect class="cls-3" x="73.6" y="59.2" width="3.2" height="3.2" transform="translate(150.4 121.6) rotate(-180)"/>
  <rect class="cls-3" x="19.2" y="43.2" width="3.2" height="9.6"/>
  <rect class="cls-3" x="22.4" y="52.8" width="3.2" height="6.4"/>
  <rect class="cls-3" x="28.8" y="62.4" width="3.2" height="6.4"/>
  <rect class="cls-3" x="25.6" y="59.2" width="3.2" height="3.2"/>
  <g class="cls-10">
    <rect class="cls-5" x="70.4" y="33.6" width="3.2" height="6.4" transform="translate(144 73.6) rotate(-180)"/>
    <rect class="cls-5" x="57.6" y="27.2" width="3.2" height="6.4" transform="translate(118.4 60.8) rotate(-180)"/>
    <rect class="cls-5" x="64" y="27.2" width="3.2" height="6.4" transform="translate(131.2 60.8) rotate(-180)"/>
    <rect class="cls-5" x="67.2" y="20.8" width="3.2" height="6.4" transform="translate(137.6 48) rotate(-180)"/>
    <rect class="cls-5" x="54.4" y="20.8" width="3.2" height="6.4" transform="translate(112 48) rotate(-180)"/>
    <rect class="cls-5" x="73.6" y="40" width="3.2" height="3.2" transform="translate(150.4 83.2) rotate(-180)"/>
    <rect class="cls-5" x="32" y="40" width="3.2" height="3.2" transform="translate(67.2 83.2) rotate(-180)"/>
    <rect class="cls-5" x="48" y="14.4" width="6.4" height="3.2" transform="translate(102.4 32) rotate(-180)"/>
    <rect class="cls-5" x="54.4" y="40" width="6.4" height="3.2" transform="translate(115.2 83.2) rotate(-180)"/>
    <rect class="cls-5" x="70.4" y="43.2" width="3.2" height="3.2" transform="translate(144 89.6) rotate(-180)"/>
    <rect class="cls-5" x="67.2" y="40" width="3.2" height="3.2" transform="translate(137.6 83.2) rotate(-180)"/>
    <rect class="cls-5" x="60.8" y="33.6" width="3.2" height="3.2" transform="translate(124.8 70.4) rotate(-180)"/>
    <rect class="cls-5" x="76.8" y="33.6" width="3.2" height="6.4" transform="translate(156.8 73.6) rotate(-180)"/>
    <rect class="cls-5" x="28.8" y="33.6" width="3.2" height="6.4"/>
    <rect class="cls-5" x="41.6" y="27.2" width="3.2" height="6.4"/>
    <rect class="cls-5" x="35.2" y="27.2" width="3.2" height="6.4"/>
    <rect class="cls-5" x="32" y="20.8" width="3.2" height="6.4"/>
    <rect class="cls-5" x="44.8" y="20.8" width="3.2" height="6.4"/>
    <rect class="cls-5" x="25.6" y="40" width="3.2" height="3.2"/>
    <rect class="cls-5" x="28.8" y="43.2" width="3.2" height="3.2"/>
    <rect class="cls-5" x="25.6" y="52.8" width="3.2" height="6.4"/>
    <rect class="cls-5" x="38.4" y="33.6" width="3.2" height="3.2"/>
    <rect class="cls-5" x="41.6" y="36.8" width="3.2" height="3.2"/>
    <rect class="cls-5" x="44.8" y="33.6" width="3.2" height="3.2"/>
    <rect class="cls-5" x="54.4" y="33.6" width="3.2" height="3.2"/>
    <rect class="cls-5" x="41.6" y="46.4" width="3.2" height="3.2"/>
    <rect class="cls-5" x="35.2" y="46.4" width="3.2" height="3.2"/>
    <rect class="cls-5" x="22.4" y="49.6" width="3.2" height="3.2"/>
    <rect class="cls-5" x="73.6" y="52.8" width="3.2" height="6.4" transform="translate(150.4 112) rotate(180)"/>
    <rect class="cls-5" x="76.8" y="49.6" width="3.2" height="3.2" transform="translate(156.8 102.4) rotate(-180)"/>
    <rect class="cls-5" x="38.4" y="43.2" width="3.2" height="3.2"/>
    <rect class="cls-5" x="32" y="49.6" width="3.2" height="9.6"/>
    <rect class="cls-5" x="44.8" y="43.2" width="3.2" height="3.2"/>
    <rect class="cls-5" x="51.2" y="43.2" width="3.2" height="3.2"/>
    <rect class="cls-5" x="60.8" y="43.2" width="3.2" height="3.2"/>
    <rect class="cls-5" x="64" y="46.4" width="3.2" height="3.2"/>
    <rect class="cls-5" x="67.2" y="49.6" width="3.2" height="9.6"/>
    <rect class="cls-5" x="48" y="40" width="3.2" height="3.2"/>
    <rect class="cls-5" x="22.4" y="33.6" width="3.2" height="6.4"/>
  </g>
  <rect class="cls-1" x="32" y="68.8" width="3.2" height="3.2"/>
  <rect class="cls-1" x="28.8" y="72" width="3.2" height="6.4"/>
  <rect class="cls-1" x="38.4" y="49.6" width="3.2" height="9.6"/>
  <rect class="cls-1" x="35.2" y="59.2" width="3.2" height="9.6"/>
  <rect class="cls-2" x="38.4" y="62.4" width="9.6" height="3.2"/>
  <rect class="cls-9" x="57.6" y="65.6" width="3.2" height="3.2" transform="translate(118.4 134.4) rotate(-180)"/>
  <rect class="cls-2" x="54.4" y="62.4" width="9.6" height="3.2" transform="translate(118.4 128) rotate(-180)"/>
  <rect class="cls-2" x="44.8" y="75.2" width="12.8" height="3.2"/>
  <rect class="cls-7" x="48" y="88" width="6.4" height="3.2"/>
</svg>