<?xml version="1.0" encoding="UTF-8"?>
<svg id="Layer_29" data-name="Layer 29" xmlns="http://www.w3.org/2000/svg" viewBox="0 0 102.4 105.6">
  <defs>
    <style>
      .cls-1 {
        opacity: .4;
      }

      .cls-1, .cls-2, .cls-3, .cls-4, .cls-5, .cls-6, .cls-7, .cls-8 {
        stroke-width: 0px;
      }

      .cls-1, .cls-8 {
        fill: #fff;
      }

      .cls-2 {
        opacity: .15;
      }

      .cls-2, .cls-4 {
        fill: #231f20;
      }

      .cls-4 {
        opacity: .3;
      }

      .cls-5 {
        fill: #d1d3d4;
      }

      .cls-6 {
        fill: #92816f;
      }

      .cls-7 {
        fill: #926142;
      }
    </style>
  </defs>
  <polygon class="cls-6" points="44.8 32 44.8 28.8 38.4 25.6 28.8 25.6 22.4 28.8 22.4 44.8 25.6 48 32 51.2 35.2 51.2 35.2 41.6 38.4 41.6 38.4 35.2 41.6 35.2 44.8 32"/>
  <polygon class="cls-7" points="41.6 32 35.2 32 35.2 35.2 32 35.2 32 44.8 35.2 44.8 35.2 41.6 38.4 41.6 38.4 35.2 41.6 35.2 41.6 32"/>
  <rect class="cls-4" x="32" y="41.6" width="3.2" height="9.6"/>
  <rect class="cls-4" x="41.6" y="28.8" width="3.2" height="3.2"/>
  <rect class="cls-4" x="38.4" y="32" width="3.2" height="3.2"/>
  <rect class="cls-4" x="35.2" y="35.2" width="3.2" height="6.4"/>
  <rect class="cls-1" x="28.8" y="25.6" width="9.6" height="3.2" transform="translate(67.2 54.4) rotate(-180)"/>
  <polygon class="cls-1" points="28.8 28.8 22.4 28.8 22.4 31.38 22.4 32 22.4 44.8 25.6 44.8 25.6 32 28.8 32 28.8 28.8"/>
  <rect class="cls-1" x="25.6" y="44.8" width="6.4" height="3.2" transform="translate(57.6 92.8) rotate(-180)"/>
  <polygon class="cls-6" points="57.6 32 57.6 28.8 64 25.6 73.6 25.6 80 28.8 80 44.8 76.8 48 70.4 51.2 67.2 51.2 67.2 41.6 64 41.6 64 35.2 60.8 35.2 57.6 32"/>
  <polygon class="cls-7" points="60.8 32 67.2 32 67.2 35.2 70.4 35.2 70.4 44.8 67.2 44.8 67.2 41.6 64 41.6 64 35.2 60.8 35.2 60.8 32"/>
  <polygon class="cls-6" points="48 28.8 54.4 28.8 54.4 32 57.6 32 57.6 35.2 60.8 35.2 60.8 38.4 64 38.4 64 48 67.2 48 67.2 57.6 70.4 57.6 70.4 60.8 73.6 60.8 73.6 67.2 67.2 67.2 67.2 70.4 60.8 70.4 60.8 73.6 41.6 73.6 41.6 70.4 35.2 70.4 35.2 67.2 28.8 67.2 28.8 60.8 32 60.8 32 57.6 35.2 57.6 35.2 48 38.4 48 38.4 38.4 41.6 38.4 41.6 35.2 44.8 35.2 44.8 32 48 32 48 28.8"/>
  <rect class="cls-3" x="25.6" y="60.8" width="3.2" height="6.4"/>
  <rect class="cls-3" x="32" y="51.2" width="3.2" height="6.4"/>
  <rect class="cls-3" x="28.8" y="67.2" width="6.4" height="3.2"/>
  <rect class="cls-3" x="35.2" y="70.4" width="6.4" height="3.2"/>
  <rect class="cls-3" x="28.8" y="57.6" width="3.2" height="3.2"/>
  <rect class="cls-3" x="38.4" y="35.2" width="3.2" height="6.4"/>
  <rect class="cls-3" x="41.6" y="32" width="3.2" height="3.2"/>
  <rect class="cls-3" x="44.8" y="28.8" width="3.2" height="3.2"/>
  <rect class="cls-3" x="35.2" y="41.6" width="3.2" height="9.6"/>
  <rect class="cls-3" x="73.6" y="60.8" width="3.2" height="6.4" transform="translate(150.4 128) rotate(-180)"/>
  <rect class="cls-3" x="67.2" y="51.2" width="3.2" height="6.4" transform="translate(137.6 108.8) rotate(-180)"/>
  <rect class="cls-3" x="67.2" y="67.2" width="6.4" height="3.2" transform="translate(140.8 137.6) rotate(-180)"/>
  <rect class="cls-3" x="60.8" y="70.4" width="6.4" height="3.2" transform="translate(128 144) rotate(-180)"/>
  <rect class="cls-3" x="67.2" y="73.6" width="12.8" height="3.2" transform="translate(147.2 150.4) rotate(-180)"/>
  <rect class="cls-3" x="70.4" y="57.6" width="3.2" height="3.2" transform="translate(144 118.4) rotate(-180)"/>
  <rect class="cls-3" x="60.8" y="35.2" width="3.2" height="6.4" transform="translate(124.8 76.8) rotate(-180)"/>
  <rect class="cls-3" x="57.6" y="32" width="3.2" height="3.2" transform="translate(118.4 67.2) rotate(-180)"/>
  <rect class="cls-3" x="57.6" y="25.6" width="6.4" height="3.2" transform="translate(121.6 54.4) rotate(-180)"/>
  <rect class="cls-3" x="76.8" y="44.8" width="3.2" height="3.2" transform="translate(156.8 92.8) rotate(-180)"/>
  <rect class="cls-3" x="76.8" y="54.4" width="3.2" height="3.2" transform="translate(156.8 112) rotate(-180)"/>
  <rect class="cls-3" x="70.4" y="48" width="6.4" height="3.2" transform="translate(147.2 99.2) rotate(-180)"/>
  <rect class="cls-3" x="80" y="28.8" width="3.2" height="16" transform="translate(163.2 73.6) rotate(-180)"/>
  <rect class="cls-3" x="80" y="57.6" width="3.2" height="16" transform="translate(163.2 131.2) rotate(-180)"/>
  <rect class="cls-3" x="64" y="22.4" width="9.6" height="3.2" transform="translate(137.6 48) rotate(-180)"/>
  <rect class="cls-3" x="73.6" y="25.6" width="6.4" height="3.2" transform="translate(153.6 54.4) rotate(-180)"/>
  <rect class="cls-3" x="38.4" y="25.6" width="6.4" height="3.2"/>
  <rect class="cls-3" x="22.4" y="44.8" width="3.2" height="3.2"/>
  <rect class="cls-3" x="25.6" y="48" width="6.4" height="3.2"/>
  <rect class="cls-3" x="19.2" y="28.8" width="3.2" height="16"/>
  <rect class="cls-3" x="28.8" y="22.4" width="9.6" height="3.2"/>
  <rect class="cls-3" x="22.4" y="25.6" width="6.4" height="3.2"/>
  <rect class="cls-3" x="54.4" y="28.8" width="3.2" height="3.2" transform="translate(112 60.8) rotate(-180)"/>
  <rect class="cls-3" x="64" y="41.6" width="3.2" height="9.6" transform="translate(131.2 92.8) rotate(-180)"/>
  <rect class="cls-3" x="48" y="80" width="6.4" height="3.2"/>
  <polygon class="cls-3" points="41.6 73.6 41.6 76.8 44.8 76.8 44.8 80 48 80 48 76.8 54.4 76.8 54.4 80 57.6 80 57.6 76.8 60.8 76.8 60.8 73.6 41.6 73.6"/>
  <rect class="cls-3" x="48" y="25.6" width="6.4" height="3.2"/>
  <rect class="cls-4" x="67.2" y="57.6" width="3.2" height="3.2" transform="translate(137.6 118.4) rotate(-180)"/>
  <rect class="cls-2" x="44.8" y="64" width="3.2" height="3.2" transform="translate(92.8 131.2) rotate(-180)"/>
  <rect class="cls-2" x="54.4" y="64" width="3.2" height="3.2" transform="translate(112 131.2) rotate(-180)"/>
  <rect class="cls-4" x="70.4" y="60.8" width="3.2" height="6.4" transform="translate(144 128) rotate(-180)"/>
  <rect class="cls-4" x="60.8" y="41.6" width="3.2" height="9.6" transform="translate(124.8 92.8) rotate(-180)"/>
  <rect class="cls-4" x="57.6" y="35.2" width="3.2" height="6.4" transform="translate(118.4 76.8) rotate(-180)"/>
  <rect class="cls-4" x="54.4" y="32" width="3.2" height="3.2" transform="translate(112 67.2) rotate(-180)"/>
  <rect class="cls-4" x="57.6" y="28.8" width="3.2" height="3.2" transform="translate(118.4 60.8) rotate(-180)"/>
  <rect class="cls-4" x="60.8" y="32" width="3.2" height="3.2" transform="translate(124.8 67.2) rotate(-180)"/>
  <rect class="cls-4" x="64" y="35.2" width="3.2" height="6.4" transform="translate(131.2 76.8) rotate(-180)"/>
  <rect class="cls-4" x="64" y="51.2" width="3.2" height="6.4" transform="translate(131.2 108.8) rotate(-180)"/>
  <rect class="cls-1" x="32" y="57.6" width="3.2" height="3.2"/>
  <rect class="cls-1" x="28.8" y="60.8" width="3.2" height="6.4"/>
  <rect class="cls-1" x="38.4" y="41.6" width="3.2" height="9.6"/>
  <rect class="cls-1" x="41.6" y="35.2" width="3.2" height="6.4"/>
  <rect class="cls-1" x="44.8" y="32" width="3.2" height="3.2"/>
  <rect class="cls-4" x="64" y="25.6" width="9.6" height="3.2"/>
  <polygon class="cls-4" points="73.6 28.8 73.6 32 76.8 32 76.8 44.8 80 44.8 80 32 80 31.38 80 28.8 73.6 28.8"/>
  <polygon class="cls-4" points="70.4 44.8 70.4 41.6 67.2 41.6 67.2 51.2 70.4 51.2 70.4 48 76.8 48 76.8 44.8 70.4 44.8"/>
  <rect class="cls-1" x="35.2" y="51.2" width="3.2" height="6.4"/>
  <rect class="cls-4" x="48" y="28.8" width="6.4" height="3.2"/>
  <rect class="cls-3" x="54.4" y="51.2" width="3.2" height="3.2"/>
  <rect class="cls-3" x="44.8" y="51.2" width="3.2" height="3.2"/>
  <rect class="cls-3" x="44.8" y="60.8" width="12.8" height="3.2"/>
  <rect class="cls-7" x="48" y="76.8" width="6.4" height="3.2"/>
  <rect class="cls-8" x="48" y="64" width="3.2" height="4.8"/>
  <rect class="cls-5" x="51.2" y="64" width="3.2" height="4.8"/>
</svg>