<?xml version="1.0" encoding="UTF-8"?>
<svg id="Layer_3" data-name="Layer 3" xmlns="http://www.w3.org/2000/svg" viewBox="0 0 86.34 76.71">
  <defs>
    <style>
      .cls-1 {
        fill: #231f20;
        opacity: .4;
      }

      .cls-1, .cls-2, .cls-3, .cls-4, .cls-5, .cls-6, .cls-7 {
        stroke-width: 0px;
      }

      .cls-3 {
        fill: #51b2f7;
      }

      .cls-4 {
        fill: #51ebf7;
      }

      .cls-5 {
        fill: #0ab7f7;
      }

      .cls-6 {
        fill: #225dff;
      }

      .cls-7 {
        fill: #fff;
      }
    </style>
  </defs>
  <rect class="cls-4" x="3.16" y="38.31" width="79.94" height="3.2"/>
  <rect class="cls-5" x="6.34" y="41.51" width="80" height="3.2"/>
  <rect class="cls-4" x="3.16" y="44.71" width="79.94" height="3.2"/>
  <rect class="cls-4" x="6.32" y="51.11" width="76.76" height="3.2"/>
  <rect class="cls-4" x="6.36" y="57.51" width="70.38" height="3.2"/>
  <rect class="cls-4" x="12.65" y="63.91" width="57.68" height="3.2"/>
  <rect class="cls-4" x="22.25" y="70.31" width="38.44" height="3.2"/>
  <rect class="cls-5" y="47.91" width="79.92" height="3.2"/>
  <rect class="cls-5" x="3.16" y="54.31" width="76.76" height="3.2"/>
  <rect class="cls-5" x="9.52" y="60.71" width="63.94" height="3.2"/>
  <rect class="cls-5" x="15.85" y="67.11" width="48.08" height="3.2"/>
  <rect class="cls-5" x="28.7" y="73.51" width="25.6" height="3.2"/>
  <g>
    <polygon class="cls-6" points="76.65 22.31 76.65 25.51 73.45 25.51 73.45 28.71 70.25 28.71 70.25 25.51 67.05 25.51 67.05 22.31 63.85 22.31 63.85 28.71 67.05 28.71 67.05 31.91 70.25 31.91 70.25 35.11 67.05 35.11 67.05 38.31 60.65 38.31 60.65 35.11 54.25 35.11 54.25 31.91 51.05 31.91 51.05 25.51 47.85 25.51 47.85 22.31 44.65 22.31 44.65 25.51 41.45 25.51 35.05 25.51 31.85 25.51 31.85 22.31 28.65 22.31 28.65 25.51 25.45 25.51 25.45 35.11 22.25 35.11 22.25 41.51 19.05 41.51 19.05 47.91 15.85 47.91 15.85 54.31 22.25 54.31 22.25 57.51 28.65 57.51 28.65 60.71 47.85 60.71 47.85 57.51 54.25 57.51 54.25 54.31 60.65 54.31 60.65 47.91 63.85 47.91 63.85 44.71 67.05 44.71 67.05 41.51 70.25 41.51 70.25 38.31 73.45 38.31 73.45 35.11 76.65 35.11 76.65 28.71 79.85 28.71 79.85 22.31 76.65 22.31"/>
    <polygon class="cls-1" points="79.85 22.31 79.85 28.71 76.65 28.71 76.65 35.11 73.45 35.11 73.45 38.31 70.25 38.31 70.25 41.51 67.05 41.51 67.05 44.71 63.85 44.71 63.85 47.91 60.65 47.91 60.65 54.31 57.45 54.31 57.45 47.91 54.25 47.91 54.25 41.51 51.05 41.51 51.05 31.91 54.25 31.91 54.25 35.11 60.65 35.11 60.65 38.31 67.05 38.31 67.05 35.11 70.25 35.11 70.25 31.91 67.05 31.91 67.05 28.71 63.85 28.71 63.85 22.31 67.05 22.31 67.05 25.51 70.25 25.51 70.25 28.71 73.45 28.71 73.45 25.51 76.65 25.51 76.65 22.31 79.85 22.31"/>
    <polygon class="cls-7" points="22.25 54.31 22.25 51.11 54.25 51.11 54.25 57.51 47.85 57.51 47.85 60.71 28.65 60.71 28.65 57.51 22.25 57.51 22.25 54.31"/>
    <g>
      <rect class="cls-2" x="12.65" y="47.91" width="3.2" height="6.4"/>
      <rect class="cls-2" x="22.25" y="51.11" width="3.2" height="3.2"/>
      <rect class="cls-2" x="51.05" y="51.11" width="3.2" height="3.2"/>
      <rect class="cls-2" x="19.05" y="35.11" width="3.2" height="6.4"/>
      <rect class="cls-2" x="15.85" y="54.31" width="6.4" height="3.2"/>
      <rect class="cls-2" x="22.25" y="57.51" width="6.4" height="3.2"/>
      <rect class="cls-2" x="15.85" y="41.51" width="3.2" height="6.4"/>
      <rect class="cls-2" x="25.45" y="22.31" width="9.6" height="3.2"/>
      <rect class="cls-2" x="22.25" y="25.51" width="3.2" height="9.6"/>
      <rect class="cls-2" x="60.65" y="47.91" width="3.2" height="6.4" transform="translate(124.51 102.21) rotate(-180)"/>
      <rect class="cls-2" x="54.25" y="54.31" width="6.4" height="3.2" transform="translate(114.91 111.81) rotate(-180)"/>
      <rect class="cls-2" x="47.85" y="57.51" width="6.4" height="3.2" transform="translate(102.11 118.21) rotate(-180)"/>
      <rect class="cls-2" x="54.25" y="31.91" width="6.4" height="3.2" transform="translate(114.91 67.01) rotate(-180)"/>
      <rect class="cls-2" x="63.85" y="44.71" width="3.2" height="3.2" transform="translate(130.91 92.61) rotate(-180)"/>
      <rect class="cls-2" x="60.65" y="35.11" width="6.4" height="3.2" transform="translate(127.71 73.41) rotate(-180)"/>
      <rect class="cls-2" x="67.05" y="41.51" width="3.2" height="3.2" transform="translate(137.31 86.21) rotate(-180)"/>
      <rect class="cls-2" x="67.05" y="31.91" width="3.2" height="3.2" transform="translate(137.31 67.01) rotate(-180)"/>
      <rect class="cls-2" x="70.25" y="25.51" width="3.2" height="3.2" transform="translate(143.71 54.21) rotate(-180)"/>
      <rect class="cls-2" x="73.45" y="22.31" width="3.2" height="3.2" transform="translate(150.11 47.81) rotate(-180)"/>
      <rect class="cls-2" x="76.65" y="19.11" width="3.2" height="3.2" transform="translate(156.51 41.41) rotate(-180)"/>
      <rect class="cls-2" x="70.25" y="38.31" width="3.2" height="3.2" transform="translate(143.71 79.81) rotate(-180)"/>
      <rect class="cls-2" x="73.45" y="35.11" width="3.2" height="3.2" transform="translate(150.11 73.41) rotate(-180)"/>
      <rect class="cls-2" x="76.65" y="28.71" width="3.2" height="6.4" transform="translate(156.51 63.81) rotate(-180)"/>
      <rect class="cls-2" x="79.85" y="22.31" width="3.2" height="6.4" transform="translate(162.91 51.01) rotate(-180)"/>
      <rect class="cls-2" x="63.85" y="28.71" width="3.2" height="3.2" transform="translate(130.91 60.61) rotate(-180)"/>
      <rect class="cls-2" x="67.05" y="22.31" width="3.2" height="3.2" transform="translate(137.31 47.81) rotate(-180)"/>
      <rect class="cls-2" x="63.85" y="19.11" width="3.2" height="3.2" transform="translate(130.91 41.41) rotate(-180)"/>
      <rect class="cls-2" x="60.65" y="22.31" width="3.2" height="6.4" transform="translate(124.51 51.01) rotate(-180)"/>
      <rect class="cls-2" x="41.45" y="22.31" width="9.6" height="3.2" transform="translate(92.51 47.81) rotate(-180)"/>
      <rect class="cls-2" x="51.05" y="25.51" width="3.2" height="6.4" transform="translate(105.31 57.41) rotate(-180)"/>
      <rect class="cls-2" x="35.05" y="67.11" width="6.4" height="3.2"/>
      <polygon class="cls-2" points="28.65 60.71 28.65 63.91 31.85 63.91 31.85 67.11 35.05 67.11 35.05 63.91 41.45 63.91 41.45 67.11 44.65 67.11 44.65 63.91 47.85 63.91 47.85 60.71 28.65 60.71"/>
      <rect class="cls-2" x="35.05" y="25.51" width="6.4" height="3.2"/>
      <rect class="cls-1" x="41.45" y="25.51" width="9.6" height="3.2" transform="translate(92.51 54.21) rotate(-180)"/>
      <rect class="cls-1" x="25.45" y="25.51" width="9.6" height="3.2"/>
    </g>
    <rect class="cls-2" x="23.85" y="35.11" width="9.6" height="3.2" transform="translate(-8.05 65.36) rotate(-90)"/>
    <rect class="cls-7" x="27.05" y="35.11" width="9.6" height="3.2" transform="translate(-4.85 68.56) rotate(-90)"/>
    <rect class="cls-7" x="43.05" y="35.11" width="9.6" height="3.2" transform="translate(11.15 84.56) rotate(-90)"/>
    <rect class="cls-2" x="39.85" y="35.11" width="9.6" height="3.2" transform="translate(7.95 81.36) rotate(-90)"/>
    <rect class="cls-2" x="25.45" y="47.91" width="25.6" height="3.2"/>
    <rect class="cls-4" x="35.05" y="63.91" width="6.4" height="3.2"/>
    <rect class="cls-1" x="35.05" y="28.71" width="6.4" height="3.2"/>
    <rect class="cls-4" x="35.05" y="12.71" width="3.2" height="12.8"/>
    <rect class="cls-3" x="38.25" y="12.71" width="3.2" height="12.8"/>
    <rect class="cls-3" x="30.25" y="9.51" width="4.8" height="3.2"/>
    <rect class="cls-3" x="30.25" y="3.11" width="4.8" height="3.2"/>
    <rect class="cls-4" x="41.47" y="3.11" width="4.8" height="3.2"/>
    <rect class="cls-4" x="41.45" y="9.51" width="4.83" height="3.2"/>
    <rect class="cls-3" x="27.05" y="12.71" width="3.2" height="3.2"/>
    <rect class="cls-3" x="23.85" y="15.91" width="3.2" height="3.2"/>
    <rect class="cls-3" x="27.05" y="6.31" width="3.2" height="3.2"/>
    <rect class="cls-3" x="23.85" y="9.51" width="3.2" height="3.2"/>
    <rect class="cls-4" x="49.45" y="9.51" width="3.2" height="3.2" transform="translate(102.11 22.21) rotate(-180)"/>
    <rect class="cls-4" x="46.25" y="6.31" width="3.2" height="3.2"/>
    <rect class="cls-4" x="46.25" y="12.71" width="3.2" height="3.2"/>
    <rect class="cls-4" x="49.45" y="15.91" width="3.2" height="3.2"/>
    <rect class="cls-3" x="35.05" y="6.31" width="3.2" height="3.2"/>
    <rect class="cls-4" x="38.25" y="6.31" width="3.2" height="3.2"/>
    <rect class="cls-3" x="35.05" width="3.2" height="3.2"/>
    <rect class="cls-4" x="38.25" width="3.2" height="3.2"/>
  </g>
</svg>