<?xml version="1.0" encoding="UTF-8"?>
<svg id="Layer_31" data-name="Layer 31" xmlns="http://www.w3.org/2000/svg" viewBox="0 0 102.4 105.6">
  <defs>
    <style>
      .cls-1, .cls-2 {
        opacity: .15;
      }

      .cls-1, .cls-3, .cls-4, .cls-5, .cls-6, .cls-7, .cls-8 {
        stroke-width: 0px;
      }

      .cls-1, .cls-4 {
        fill: #231f20;
      }

      .cls-5 {
        fill: #da511e;
      }

      .cls-6 {
        fill: #fdaa15;
      }

      .cls-7 {
        fill: orange;
      }

      .cls-8 {
        fill: #ffdf4c;
      }
    </style>
  </defs>
  <polygon class="cls-7" points="86.4 43.2 86.4 33.6 83.2 30.4 80 24 76.8 24 70.4 17.6 60.84 14.4 54.4 14.4 48 14.4 41.56 14.4 32 17.6 25.6 24 22.4 24 19.2 30.4 16 33.6 16 43.2 12.8 43.2 12.8 62.4 15.96 65.6 16 72 22.36 78.4 22.4 81.6 28.8 81.6 28.8 84.8 32 84.8 31.96 88 41.56 88 41.56 91.2 48 91.2 54.4 91.2 60.84 91.2 60.84 88 70.44 88 70.4 84.8 73.6 84.8 73.6 81.6 80 81.6 80.04 78.4 86.4 72 86.44 65.6 89.6 62.4 89.6 43.2 86.4 43.2"/>
  <polygon class="cls-6" points="48 27.2 54.4 27.2 54.4 30.4 57.6 30.4 57.6 33.6 60.8 33.6 60.8 36.8 64 36.8 64 46.4 67.2 46.4 67.2 56 70.4 56 70.4 59.2 73.6 59.2 73.6 65.6 67.2 65.6 67.2 68.8 60.8 68.8 60.8 72 41.6 72 41.6 68.8 35.2 68.8 35.2 65.6 28.8 65.6 28.8 59.2 32 59.2 32 56 35.2 56 35.2 46.4 38.4 46.4 38.4 36.8 41.6 36.8 41.6 33.6 44.8 33.6 44.8 30.4 48 30.4 48 27.2"/>
  <rect class="cls-1" x="60.8" y="65.6" width="6.4" height="3.2" transform="translate(128 134.4) rotate(-180)"/>
  <rect class="cls-1" x="67.2" y="56" width="3.2" height="3.2" transform="translate(137.6 115.2) rotate(-180)"/>
  <polygon class="cls-1" points="73.6 62.4 73.6 59.2 70.4 59.2 70.4 62.4 67.24 62.4 67.24 65.6 70.4 65.6 73.6 65.6 73.64 65.6 73.64 62.4 73.6 62.4"/>
  <rect class="cls-1" x="60.8" y="36.8" width="3.2" height="9.6" transform="translate(124.8 83.2) rotate(-180)"/>
  <rect class="cls-1" x="57.6" y="33.6" width="3.2" height="3.2" transform="translate(118.4 70.4) rotate(-180)"/>
  <rect class="cls-1" x="54.4" y="30.4" width="3.2" height="3.2" transform="translate(112 64) rotate(-180)"/>
  <rect class="cls-1" x="64" y="46.4" width="3.2" height="9.6" transform="translate(131.2 102.4) rotate(-180)"/>
  <rect class="cls-8" x="32" y="56" width="3.2" height="3.2"/>
  <rect class="cls-8" x="35.2" y="65.6" width="6.4" height="3.2"/>
  <polygon class="cls-8" points="32 62.4 32 59.2 28.8 59.2 28.8 62.4 28.8 65.6 32 65.6 35.2 65.6 35.2 62.4 32 62.4"/>
  <rect class="cls-8" x="38.4" y="36.8" width="3.2" height="9.6"/>
  <rect class="cls-8" x="41.6" y="33.6" width="3.2" height="3.2"/>
  <rect class="cls-8" x="44.8" y="30.4" width="3.2" height="3.2"/>
  <rect class="cls-8" x="35.2" y="46.4" width="3.2" height="9.6"/>
  <rect class="cls-8" x="48" y="27.2" width="6.4" height="3.2"/>
  <rect class="cls-1" x="41.6" y="68.8" width="19.2" height="3.2"/>
  <rect class="cls-3" x="44.8" y="46.4" width="3.2" height="6.4"/>
  <rect class="cls-3" x="54.45" y="46.4" width="3.2" height="6.4"/>
  <rect class="cls-3" x="48" y="59.2" width="6.4" height="3.2"/>
  <rect class="cls-3" x="41.6" y="11.2" width="19.2" height="3.2"/>
  <rect class="cls-3" x="60.84" y="14.4" width="9.6" height="3.2"/>
  <rect class="cls-3" x="70.4" y="17.6" width="3.2" height="3.2"/>
  <rect class="cls-3" x="83.2" y="30.4" width="3.2" height="3.2"/>
  <rect class="cls-3" x="86.4" y="33.6" width="3.2" height="9.6"/>
  <rect class="cls-3" x="89.6" y="43.2" width="3.2" height="19.2"/>
  <rect class="cls-3" x="9.6" y="43.2" width="3.2" height="19.2"/>
  <rect class="cls-3" x="31.96" y="14.4" width="9.6" height="3.2" transform="translate(73.52 32) rotate(-180)"/>
  <rect class="cls-3" x="22.4" y="20.8" width="6.4" height="3.2" transform="translate(51.2 44.8) rotate(-180)"/>
  <rect class="cls-3" x="28.8" y="17.6" width="3.2" height="3.2" transform="translate(60.8 38.4) rotate(-180)"/>
  <rect class="cls-3" x="16" y="30.4" width="3.2" height="3.2" transform="translate(35.2 64) rotate(-180)"/>
  <rect class="cls-3" x="19.2" y="24" width="3.2" height="6.4" transform="translate(41.6 54.4) rotate(-180)"/>
  <rect class="cls-3" x="73.6" y="20.8" width="6.4" height="3.2"/>
  <rect class="cls-3" x="80" y="24" width="3.2" height="6.4"/>
  <rect class="cls-3" x="22.4" y="81.6" width="6.4" height="3.2" transform="translate(51.2 166.4) rotate(180)"/>
  <rect class="cls-3" x="19.2" y="75.2" width="3.2" height="6.4" transform="translate(41.6 156.8) rotate(180)"/>
  <rect class="cls-3" x="73.6" y="81.6" width="6.4" height="3.2"/>
  <rect class="cls-3" x="80" y="75.2" width="3.2" height="6.4"/>
  <rect class="cls-3" x="12.8" y="33.6" width="3.2" height="9.6" transform="translate(28.8 76.8) rotate(-180)"/>
  <rect class="cls-3" x="41.6" y="91.2" width="19.2" height="3.2"/>
  <rect class="cls-3" x="70.4" y="84.8" width="3.2" height="3.2"/>
  <rect class="cls-3" x="83.2" y="72" width="3.2" height="3.2"/>
  <rect class="cls-3" x="86.4" y="62.4" width="3.2" height="9.6"/>
  <rect class="cls-5" x="86.44" y="43.2" width="3.2" height="19.2"/>
  <polygon class="cls-5" points="76.84 75.2 76.84 78.4 73.6 78.4 73.6 81.6 76.84 81.6 80 81.6 80.04 81.6 80.04 75.2 76.84 75.2"/>
  <rect class="cls-5" x="80.04" y="72" width="3.2" height="3.2"/>
  <rect class="cls-5" x="70.4" y="81.6" width="3.2" height="3.2"/>
  <rect class="cls-5" x="60.8" y="84.8" width="9.64" height="3.2"/>
  <rect class="cls-5" x="41.58" y="88" width="19.26" height="3.2"/>
  <rect class="cls-5" x="83.24" y="62.4" width="3.2" height="9.6"/>
  <rect class="cls-5" x="83.24" y="33.6" width="3.2" height="9.6"/>
  <rect class="cls-3" x="31.96" y="88" width="9.6" height="3.2" transform="translate(73.52 179.2) rotate(180)"/>
  <rect class="cls-3" x="60.84" y="88" width="9.6" height="3.2" transform="translate(131.28 179.2) rotate(180)"/>
  <rect class="cls-3" x="28.8" y="84.8" width="3.2" height="3.2" transform="translate(60.8 172.8) rotate(180)"/>
  <rect class="cls-3" x="16" y="72" width="3.2" height="3.2" transform="translate(35.2 147.2) rotate(180)"/>
  <rect class="cls-3" x="12.8" y="62.4" width="3.2" height="9.6" transform="translate(28.8 134.4) rotate(180)"/>
  <g>
    <rect class="cls-5" x="25.6" y="59.2" width="3.2" height="6.4"/>
    <rect class="cls-5" x="32" y="46.4" width="3.2" height="9.6"/>
    <rect class="cls-5" x="28.8" y="65.6" width="6.4" height="3.2"/>
    <rect class="cls-5" x="35.2" y="68.8" width="6.4" height="3.2"/>
    <rect class="cls-5" x="28.8" y="56" width="3.2" height="3.2"/>
    <rect class="cls-5" x="38.4" y="33.6" width="3.2" height="3.2"/>
    <rect class="cls-5" x="41.6" y="30.4" width="3.2" height="3.2"/>
    <rect class="cls-5" x="44.8" y="27.2" width="3.2" height="3.2"/>
    <rect class="cls-5" x="35.2" y="36.8" width="3.2" height="9.6"/>
    <rect class="cls-5" x="73.6" y="59.2" width="3.2" height="6.4" transform="translate(150.4 124.8) rotate(-180)"/>
    <rect class="cls-5" x="67.2" y="46.4" width="3.2" height="9.6" transform="translate(137.6 102.4) rotate(-180)"/>
    <rect class="cls-5" x="67.2" y="65.6" width="6.4" height="3.2" transform="translate(140.8 134.4) rotate(-180)"/>
    <rect class="cls-5" x="60.8" y="68.8" width="6.4" height="3.2" transform="translate(128 140.8) rotate(-180)"/>
    <rect class="cls-5" x="70.4" y="56" width="3.2" height="3.2" transform="translate(144 115.2) rotate(-180)"/>
    <rect class="cls-5" x="60.8" y="33.6" width="3.2" height="3.2" transform="translate(124.8 70.4) rotate(-180)"/>
    <rect class="cls-5" x="57.6" y="30.4" width="3.2" height="3.2" transform="translate(118.4 64) rotate(-180)"/>
    <rect class="cls-5" x="54.4" y="27.2" width="3.2" height="3.2" transform="translate(112 57.6) rotate(-180)"/>
    <rect class="cls-5" x="64" y="36.8" width="3.2" height="9.6" transform="translate(131.2 83.2) rotate(-180)"/>
    <rect class="cls-5" x="48" y="78.4" width="6.4" height="3.2"/>
    <polygon class="cls-5" points="41.6 72 41.6 75.2 44.8 75.2 44.8 78.4 48 78.4 48 75.2 54.4 75.2 54.4 78.4 57.6 78.4 57.6 75.2 60.8 75.2 60.8 72 41.6 72"/>
    <rect class="cls-5" x="48" y="24" width="6.4" height="3.2"/>
  </g>
  <rect class="cls-8" x="80" y="30.4" width="3.2" height="3.2"/>
  <rect class="cls-8" x="70.4" y="20.8" width="3.2" height="3.2"/>
  <rect class="cls-8" x="60.84" y="17.6" width="9.56" height="3.2"/>
  <rect class="cls-8" x="41.56" y="14.4" width="19.28" height="3.2"/>
  <polygon class="cls-8" points="76.8 24 73.6 24 73.6 27.2 76.8 27.2 76.8 30.4 80 30.4 80 27.2 80 24 76.8 24"/>
  <rect class="cls-8" x="19.2" y="30.4" width="3.2" height="3.2" transform="translate(41.6 64) rotate(-180)"/>
  <rect class="cls-8" x="28.8" y="20.8" width="3.2" height="3.2" transform="translate(60.8 44.8) rotate(-180)"/>
  <rect class="cls-8" x="32" y="17.6" width="9.56" height="3.2" transform="translate(73.56 38.4) rotate(-180)"/>
  <polygon class="cls-8" points="25.6 24 28.8 24 28.8 27.2 25.6 27.2 25.6 30.4 22.4 30.4 22.4 27.2 22.4 24 25.6 24"/>
  <rect class="cls-8" x="19.2" y="72" width="3.2" height="3.2" transform="translate(41.6 147.2) rotate(180)"/>
  <rect class="cls-8" x="16" y="33.6" width="3.2" height="9.6" transform="translate(35.2 76.8) rotate(180)"/>
  <rect class="cls-8" x="16" y="62.4" width="3.2" height="9.6" transform="translate(35.2 134.4) rotate(180)"/>
  <rect class="cls-8" x="12.8" y="43.2" width="3.2" height="19.2" transform="translate(28.8 105.6) rotate(180)"/>
  <rect class="cls-8" x="28.8" y="81.6" width="3.2" height="3.2" transform="translate(60.8 166.4) rotate(180)"/>
  <rect class="cls-8" x="32" y="84.8" width="9.56" height="3.2" transform="translate(73.56 172.8) rotate(180)"/>
  <polygon class="cls-8" points="25.6 81.6 28.8 81.6 28.8 78.4 25.6 78.4 25.6 75.2 22.4 75.2 22.4 78.4 22.4 81.6 25.6 81.6"/>
  <rect class="cls-8" x="48" y="75.2" width="6.4" height="3.2"/>
  <g class="cls-2">
    <rect class="cls-4" x="35.2" y="33.6" width="3.2" height="3.2"/>
    <rect class="cls-4" x="25.6" y="56" width="3.2" height="3.2"/>
    <rect class="cls-4" x="41.6" y="75.2" width="3.2" height="3.2"/>
    <rect class="cls-4" x="25.6" y="65.6" width="3.2" height="3.2"/>
    <rect class="cls-4" x="44.8" y="78.4" width="3.2" height="3.2"/>
    <rect class="cls-4" x="28.8" y="68.8" width="6.4" height="3.2"/>
    <rect class="cls-4" x="35.2" y="72" width="6.4" height="3.2"/>
    <rect class="cls-4" x="38.4" y="30.4" width="3.2" height="3.2"/>
    <rect class="cls-4" x="41.6" y="27.2" width="3.2" height="3.2"/>
    <rect class="cls-4" x="32" y="36.8" width="3.2" height="9.6"/>
    <rect class="cls-4" x="28.8" y="46.4" width="3.2" height="9.6"/>
    <rect class="cls-4" x="22.4" y="59.2" width="3.2" height="6.4"/>
    <rect class="cls-4" x="44.8" y="24" width="3.2" height="3.2"/>
  </g>
</svg>