<?xml version="1.0" encoding="UTF-8"?>
<svg id="Layer_32" data-name="Layer 32" xmlns="http://www.w3.org/2000/svg" viewBox="0 0 102.4 105.6">
  <defs>
    <style>
      .cls-1 {
        opacity: .54;
      }

      .cls-1, .cls-2, .cls-3, .cls-4, .cls-5, .cls-6, .cls-7, .cls-8, .cls-9, .cls-10 {
        stroke-width: 0px;
      }

      .cls-1, .cls-6 {
        fill: #fff;
      }

      .cls-3 {
        fill: #231f20;
        opacity: .3;
      }

      .cls-4 {
        fill: #3557ac;
      }

      .cls-5 {
        fill: #ff8f00;
      }

      .cls-7 {
        fill: #faed00;
      }

      .cls-8 {
        fill: #ff0012;
      }

      .cls-9 {
        fill: #00b0e6;
      }

      .cls-10 {
        fill: #00983c;
      }
    </style>
  </defs>
  <polygon class="cls-6" points="44.8 38.4 57.6 38.4 64 44.8 67.2 54.4 70.4 64 73.6 67.2 73.6 73.6 67.2 76.8 60.8 80 41.6 80 35.2 76.8 28.8 73.6 28.8 67.2 32 64 35.2 54.4 38.4 44.8 44.8 38.4"/>
  <rect class="cls-4" x="35.2" y="41.6" width="3.2" height="3.2"/>
  <rect class="cls-4" x="41.6" y="35.2" width="3.2" height="3.2"/>
  <rect class="cls-4" x="38.4" y="38.4" width="3.2" height="3.2"/>
  <rect class="cls-4" x="44.8" y="32" width="12.8" height="3.2"/>
  <rect class="cls-4" x="32" y="44.8" width="3.2" height="3.2"/>
  <rect class="cls-9" x="32" y="41.6" width="3.2" height="3.2"/>
  <rect class="cls-9" x="38.4" y="35.2" width="3.2" height="3.2"/>
  <rect class="cls-9" x="41.6" y="32" width="3.2" height="3.2"/>
  <rect class="cls-9" x="44.8" y="28.8" width="12.8" height="3.2"/>
  <rect class="cls-10" x="44.8" y="25.6" width="12.8" height="3.2"/>
  <rect class="cls-7" x="44.8" y="22.4" width="12.8" height="3.2"/>
  <rect class="cls-5" x="44.8" y="19.2" width="12.8" height="3.2"/>
  <rect class="cls-8" x="44.8" y="16" width="12.8" height="3.2"/>
  <rect class="cls-9" x="35.2" y="38.4" width="3.2" height="3.2"/>
  <rect class="cls-10" x="32" y="38.4" width="3.2" height="3.2"/>
  <rect class="cls-10" x="38.4" y="32" width="3.2" height="3.2"/>
  <rect class="cls-10" x="41.6" y="28.8" width="3.2" height="3.2"/>
  <rect class="cls-10" x="35.2" y="35.2" width="3.2" height="3.2"/>
  <rect class="cls-7" x="32" y="35.2" width="3.2" height="3.2"/>
  <rect class="cls-7" x="38.4" y="28.8" width="3.2" height="3.2"/>
  <rect class="cls-7" x="41.6" y="25.6" width="3.2" height="3.2"/>
  <rect class="cls-7" x="35.2" y="32" width="3.2" height="3.2"/>
  <rect class="cls-5" x="32" y="32" width="3.2" height="3.2"/>
  <rect class="cls-5" x="38.4" y="25.6" width="3.2" height="3.2"/>
  <rect class="cls-5" x="41.6" y="22.4" width="3.2" height="3.2"/>
  <rect class="cls-5" x="35.2" y="28.8" width="3.2" height="3.2"/>
  <rect class="cls-8" x="32" y="28.8" width="3.2" height="3.2"/>
  <rect class="cls-8" x="38.4" y="22.4" width="3.2" height="3.2"/>
  <rect class="cls-8" x="41.6" y="19.2" width="3.2" height="3.2"/>
  <rect class="cls-8" x="35.2" y="25.6" width="3.2" height="3.2"/>
  <rect class="cls-10" x="28.8" y="41.6" width="3.2" height="3.2"/>
  <rect class="cls-7" x="28.8" y="38.4" width="3.2" height="3.2"/>
  <rect class="cls-5" x="28.8" y="35.2" width="3.2" height="3.2"/>
  <rect class="cls-8" x="28.8" y="32" width="3.2" height="3.2"/>
  <rect class="cls-7" x="25.6" y="41.6" width="3.2" height="3.2"/>
  <rect class="cls-5" x="25.6" y="38.4" width="3.2" height="3.2"/>
  <rect class="cls-8" x="25.6" y="35.2" width="3.2" height="3.2"/>
  <rect class="cls-9" x="28.8" y="44.8" width="3.2" height="3.2"/>
  <rect class="cls-10" x="25.6" y="44.8" width="3.2" height="3.2"/>
  <rect class="cls-4" x="64" y="41.6" width="3.2" height="3.2" transform="translate(131.2 86.4) rotate(-180)"/>
  <rect class="cls-4" x="57.6" y="35.2" width="3.2" height="3.2" transform="translate(118.4 73.6) rotate(-180)"/>
  <rect class="cls-4" x="60.8" y="38.4" width="3.2" height="3.2" transform="translate(124.8 80) rotate(-180)"/>
  <rect class="cls-4" x="67.2" y="44.8" width="3.2" height="3.2" transform="translate(137.6 92.8) rotate(-180)"/>
  <rect class="cls-9" x="67.2" y="41.6" width="3.2" height="3.2" transform="translate(137.6 86.4) rotate(-180)"/>
  <rect class="cls-9" x="60.8" y="35.2" width="3.2" height="3.2" transform="translate(124.8 73.6) rotate(-180)"/>
  <rect class="cls-9" x="57.6" y="32" width="3.2" height="3.2" transform="translate(118.4 67.2) rotate(-180)"/>
  <rect class="cls-9" x="64" y="38.4" width="3.2" height="3.2" transform="translate(131.2 80) rotate(-180)"/>
  <rect class="cls-10" x="67.2" y="38.4" width="3.2" height="3.2" transform="translate(137.6 80) rotate(-180)"/>
  <rect class="cls-10" x="60.8" y="32" width="3.2" height="3.2" transform="translate(124.8 67.2) rotate(-180)"/>
  <rect class="cls-10" x="57.6" y="28.8" width="3.2" height="3.2" transform="translate(118.4 60.8) rotate(-180)"/>
  <rect class="cls-10" x="64" y="35.2" width="3.2" height="3.2" transform="translate(131.2 73.6) rotate(-180)"/>
  <rect class="cls-7" x="67.2" y="35.2" width="3.2" height="3.2" transform="translate(137.6 73.6) rotate(-180)"/>
  <rect class="cls-7" x="60.8" y="28.8" width="3.2" height="3.2" transform="translate(124.8 60.8) rotate(-180)"/>
  <rect class="cls-7" x="57.6" y="25.6" width="3.2" height="3.2" transform="translate(118.4 54.4) rotate(-180)"/>
  <rect class="cls-7" x="64" y="32" width="3.2" height="3.2" transform="translate(131.2 67.2) rotate(-180)"/>
  <rect class="cls-5" x="67.2" y="32" width="3.2" height="3.2" transform="translate(137.6 67.2) rotate(-180)"/>
  <rect class="cls-5" x="60.8" y="25.6" width="3.2" height="3.2" transform="translate(124.8 54.4) rotate(-180)"/>
  <rect class="cls-5" x="57.6" y="22.4" width="3.2" height="3.2" transform="translate(118.4 48) rotate(-180)"/>
  <rect class="cls-5" x="64" y="28.8" width="3.2" height="3.2" transform="translate(131.2 60.8) rotate(-180)"/>
  <rect class="cls-8" x="67.2" y="28.8" width="3.2" height="3.2" transform="translate(137.6 60.8) rotate(-180)"/>
  <rect class="cls-8" x="60.8" y="22.4" width="3.2" height="3.2" transform="translate(124.8 48) rotate(-180)"/>
  <rect class="cls-8" x="57.6" y="19.2" width="3.2" height="3.2" transform="translate(118.4 41.6) rotate(-180)"/>
  <rect class="cls-8" x="64" y="25.6" width="3.2" height="3.2" transform="translate(131.2 54.4) rotate(-180)"/>
  <rect class="cls-10" x="70.4" y="41.6" width="3.2" height="3.2" transform="translate(144 86.4) rotate(-180)"/>
  <rect class="cls-7" x="70.4" y="38.4" width="3.2" height="3.2" transform="translate(144 80) rotate(-180)"/>
  <rect class="cls-5" x="70.4" y="35.2" width="3.2" height="3.2" transform="translate(144 73.6) rotate(-180)"/>
  <rect class="cls-8" x="70.4" y="32" width="3.2" height="3.2" transform="translate(144 67.2) rotate(-180)"/>
  <rect class="cls-7" x="73.6" y="41.6" width="3.2" height="6.4" transform="translate(150.4 89.6) rotate(-180)"/>
  <rect class="cls-5" x="73.6" y="38.4" width="3.2" height="3.2" transform="translate(150.4 80) rotate(-180)"/>
  <rect class="cls-8" x="73.6" y="35.2" width="3.2" height="3.2" transform="translate(150.4 73.6) rotate(-180)"/>
  <rect class="cls-9" x="70.4" y="44.8" width="3.2" height="3.2" transform="translate(144 92.8) rotate(-180)"/>
  <g>
    <rect class="cls-2" x="25.6" y="67.2" width="3.2" height="6.4"/>
    <rect class="cls-2" x="32" y="54.4" width="3.2" height="9.6"/>
    <rect class="cls-2" x="28.8" y="73.6" width="6.4" height="3.2"/>
    <rect class="cls-2" x="35.2" y="76.8" width="6.4" height="3.2"/>
    <rect class="cls-2" x="28.8" y="64" width="3.2" height="3.2"/>
    <rect class="cls-2" x="38.4" y="41.6" width="3.2" height="3.2"/>
    <rect class="cls-2" x="41.6" y="38.4" width="3.2" height="3.2"/>
    <rect class="cls-2" x="44.8" y="35.2" width="12.8" height="3.2"/>
    <rect class="cls-2" x="35.2" y="44.8" width="3.2" height="9.6"/>
    <rect class="cls-2" x="73.6" y="67.2" width="3.2" height="6.4" transform="translate(150.4 140.8) rotate(-180)"/>
    <rect class="cls-2" x="67.2" y="54.4" width="3.2" height="9.6" transform="translate(137.6 118.4) rotate(-180)"/>
    <rect class="cls-2" x="67.2" y="73.6" width="6.4" height="3.2" transform="translate(140.8 150.4) rotate(-180)"/>
    <rect class="cls-2" x="60.8" y="76.8" width="6.4" height="3.2" transform="translate(128 156.8) rotate(-180)"/>
    <rect class="cls-2" x="70.4" y="64" width="3.2" height="3.2" transform="translate(144 131.2) rotate(-180)"/>
    <rect class="cls-2" x="60.8" y="41.6" width="3.2" height="3.2" transform="translate(124.8 86.4) rotate(-180)"/>
    <rect class="cls-2" x="57.6" y="38.4" width="3.2" height="3.2" transform="translate(118.4 80) rotate(-180)"/>
    <rect class="cls-2" x="64" y="44.8" width="3.2" height="9.6" transform="translate(131.2 99.2) rotate(-180)"/>
    <rect class="cls-2" x="48" y="86.4" width="6.4" height="3.2"/>
    <rect class="cls-6" x="48" y="83.2" width="6.4" height="3.2"/>
    <polygon class="cls-2" points="41.6 80 41.6 83.2 44.8 83.2 44.8 86.4 48 86.4 48 83.2 54.4 83.2 54.4 86.4 57.6 86.4 57.6 83.2 60.8 83.2 60.8 80 41.6 80"/>
  </g>
  <rect class="cls-3" x="67.2" y="64" width="3.2" height="3.2" transform="translate(137.6 131.2) rotate(-180)"/>
  <rect class="cls-3" x="70.4" y="67.2" width="3.2" height="6.4" transform="translate(144 140.8) rotate(-180)"/>
  <rect class="cls-3" x="60.8" y="44.8" width="3.2" height="9.6" transform="translate(124.8 99.2) rotate(-180)"/>
  <rect class="cls-3" x="57.6" y="41.6" width="3.2" height="3.2" transform="translate(118.4 86.4) rotate(-180)"/>
  <rect class="cls-3" x="54.4" y="38.4" width="3.2" height="3.2" transform="translate(112 80) rotate(-180)"/>
  <rect class="cls-3" x="64" y="54.4" width="3.2" height="9.6" transform="translate(131.2 118.4) rotate(-180)"/>
  <rect class="cls-1" x="32" y="64" width="3.2" height="3.2"/>
  <rect class="cls-1" x="28.8" y="67.2" width="3.2" height="6.4"/>
  <rect class="cls-1" x="38.4" y="44.8" width="3.2" height="9.6"/>
  <rect class="cls-1" x="41.6" y="41.6" width="3.2" height="3.2"/>
  <rect class="cls-1" x="44.8" y="38.4" width="3.2" height="3.2"/>
  <rect class="cls-1" x="35.2" y="54.4" width="3.2" height="9.6"/>
  <rect class="cls-2" x="43.2" y="56.8" width="3.2" height="4.8"/>
  <rect class="cls-2" x="56" y="56.8" width="3.2" height="4.8"/>
  <rect class="cls-2" x="46.4" y="68" width="9.6" height="3.2"/>
</svg>