<?xml version="1.0" encoding="UTF-8"?>
<svg id="Layer_35" data-name="Layer 35" xmlns="http://www.w3.org/2000/svg" viewBox="0 0 102.4 105.6">
  <defs>
    <style>
      .cls-1 {
        opacity: .25;
      }

      .cls-1, .cls-2, .cls-3, .cls-4, .cls-5, .cls-6 {
        stroke-width: 0px;
      }

      .cls-1, .cls-2, .cls-5 {
        fill: #fff;
      }

      .cls-2 {
        opacity: .54;
      }

      .cls-4 {
        fill: #231f20;
        opacity: .3;
      }

      .cls-6 {
        fill: #ff2905;
      }
    </style>
  </defs>
  <polygon class="cls-6" points="67.2 30.4 73.6 30.4 75.2 32 76.8 30.4 83.2 30.4 86.4 33.6 86.4 40 76.8 49.6 73.6 49.6 64 40 64 33.6 67.2 30.4"/>
  <polygon class="cls-6" points="19.2 30.4 25.6 30.4 27.2 32 28.8 30.4 35.2 30.4 38.4 33.6 38.4 40 28.8 49.6 25.6 49.6 16 40 16 33.6 19.2 30.4"/>
  <polygon class="cls-6" points="41.6 16 48 16 49.6 17.6 51.2 16 60.8 16 64 19.2 64 25.6 54.4 35.2 48 35.2 38.4 25.6 38.4 19.2 41.6 16"/>
  <polygon class="cls-6" points="48 38.4 54.4 38.4 54.4 41.6 57.6 41.6 57.6 44.8 60.8 44.8 60.8 48 64 48 64 57.6 67.2 57.6 67.2 67.2 70.4 67.2 70.4 70.4 73.6 70.4 73.6 76.8 67.2 76.8 67.2 80 60.8 80 60.8 83.2 41.6 83.2 41.6 80 35.2 80 35.2 76.8 28.8 76.8 28.8 70.4 32 70.4 32 67.2 35.2 67.2 35.2 57.6 38.4 57.6 38.4 48 41.6 48 41.6 44.8 44.8 44.8 44.8 41.6 48 41.6 48 38.4"/>
  <rect class="cls-3" x="25.6" y="70.4" width="3.2" height="6.4"/>
  <rect class="cls-3" x="32" y="57.6" width="3.2" height="9.6"/>
  <rect class="cls-3" x="28.8" y="76.8" width="6.4" height="3.2"/>
  <rect class="cls-3" x="35.2" y="80" width="6.4" height="3.2"/>
  <rect class="cls-3" x="28.8" y="67.2" width="3.2" height="3.2"/>
  <rect class="cls-3" x="38.4" y="44.8" width="3.2" height="3.2"/>
  <rect class="cls-3" x="41.6" y="41.6" width="3.2" height="3.2"/>
  <rect class="cls-3" x="44.8" y="38.4" width="3.2" height="3.2"/>
  <rect class="cls-3" x="35.2" y="48" width="3.2" height="9.6"/>
  <rect class="cls-3" x="73.6" y="70.4" width="3.2" height="6.4" transform="translate(150.4 147.2) rotate(-180)"/>
  <rect class="cls-3" x="67.2" y="57.6" width="3.2" height="9.6" transform="translate(137.6 124.8) rotate(-180)"/>
  <rect class="cls-3" x="67.2" y="76.8" width="6.4" height="3.2" transform="translate(140.8 156.8) rotate(-180)"/>
  <rect class="cls-3" x="60.8" y="80" width="6.4" height="3.2" transform="translate(128 163.2) rotate(-180)"/>
  <rect class="cls-3" x="70.4" y="67.2" width="3.2" height="3.2" transform="translate(144 137.6) rotate(-180)"/>
  <rect class="cls-3" x="73.6" y="49.6" width="3.2" height="17.6" transform="translate(150.4 116.8) rotate(-180)"/>
  <rect class="cls-3" x="60.8" y="44.8" width="3.2" height="3.2" transform="translate(124.8 92.8) rotate(-180)"/>
  <rect class="cls-3" x="57.6" y="41.6" width="3.2" height="3.2" transform="translate(118.4 86.4) rotate(-180)"/>
  <rect class="cls-3" x="54.4" y="38.4" width="3.2" height="3.2" transform="translate(112 80) rotate(-180)"/>
  <rect class="cls-3" x="44.8" y="32" width="3.2" height="3.2" transform="translate(92.8 67.2) rotate(-180)"/>
  <rect class="cls-3" x="41.6" y="28.8" width="3.2" height="3.2" transform="translate(86.4 60.8) rotate(-180)"/>
  <rect class="cls-3" x="48" y="16" width="6.4" height="3.2" transform="translate(102.4 35.2) rotate(-180)"/>
  <rect class="cls-3" x="41.6" y="12.8" width="6.4" height="3.2" transform="translate(89.6 28.8) rotate(-180)"/>
  <rect class="cls-3" x="38.4" y="25.6" width="3.2" height="3.2" transform="translate(80 54.4) rotate(-180)"/>
  <rect class="cls-3" x="38.4" y="16" width="3.2" height="3.2" transform="translate(80 35.2) rotate(-180)"/>
  <rect class="cls-3" x="35.2" y="19.2" width="3.2" height="6.4" transform="translate(73.6 44.8) rotate(-180)"/>
  <rect class="cls-3" x="54.4" y="32" width="3.2" height="3.2"/>
  <rect class="cls-3" x="57.6" y="28.8" width="3.2" height="3.2"/>
  <rect class="cls-3" x="54.4" y="12.8" width="6.4" height="3.2"/>
  <rect class="cls-3" x="60.8" y="25.6" width="3.2" height="3.2"/>
  <rect class="cls-3" x="60.8" y="16" width="3.2" height="3.2"/>
  <rect class="cls-3" x="64" y="19.2" width="3.2" height="6.4"/>
  <rect class="cls-3" x="64" y="48" width="3.2" height="9.6" transform="translate(131.2 105.6) rotate(-180)"/>
  <rect class="cls-3" x="48" y="89.6" width="6.4" height="3.2"/>
  <polygon class="cls-3" points="41.6 83.2 41.6 86.4 44.8 86.4 44.8 89.6 48 89.6 48 86.4 54.4 86.4 54.4 89.6 57.6 89.6 57.6 86.4 60.8 86.4 60.8 83.2 41.6 83.2"/>
  <rect class="cls-3" x="48" y="35.2" width="6.4" height="3.2"/>
  <rect class="cls-3" x="70.4" y="46.4" width="3.2" height="3.2" transform="translate(144 96) rotate(-180)"/>
  <rect class="cls-3" x="67.2" y="43.2" width="3.2" height="3.2" transform="translate(137.6 89.6) rotate(-180)"/>
  <rect class="cls-3" x="73.6" y="30.4" width="3.2" height="3.2" transform="translate(150.4 64) rotate(-180)"/>
  <rect class="cls-3" x="67.2" y="27.2" width="6.4" height="3.2" transform="translate(140.8 57.6) rotate(-180)"/>
  <rect class="cls-3" x="64" y="40" width="3.2" height="3.2" transform="translate(131.2 83.2) rotate(-180)"/>
  <rect class="cls-3" x="64" y="30.4" width="3.2" height="3.2" transform="translate(131.2 64) rotate(-180)"/>
  <rect class="cls-3" x="60.8" y="33.6" width="3.2" height="6.4" transform="translate(124.8 73.6) rotate(-180)"/>
  <rect class="cls-3" x="76.8" y="46.4" width="3.2" height="3.2"/>
  <rect class="cls-3" x="80" y="43.2" width="3.2" height="3.2"/>
  <rect class="cls-3" x="76.8" y="27.2" width="6.4" height="3.2"/>
  <rect class="cls-3" x="83.2" y="40" width="3.2" height="3.2"/>
  <rect class="cls-3" x="83.2" y="30.4" width="3.2" height="3.2"/>
  <rect class="cls-3" x="86.4" y="33.6" width="3.2" height="6.4"/>
  <rect class="cls-3" x="25.6" y="49.6" width="3.2" height="17.6"/>
  <rect class="cls-3" x="25.6" y="30.4" width="3.2" height="3.2"/>
  <rect class="cls-3" x="22.4" y="46.4" width="3.2" height="3.2" transform="translate(48 96) rotate(-180)"/>
  <rect class="cls-3" x="19.2" y="43.2" width="3.2" height="3.2" transform="translate(41.6 89.6) rotate(-180)"/>
  <rect class="cls-3" x="19.2" y="27.2" width="6.4" height="3.2" transform="translate(44.8 57.6) rotate(-180)"/>
  <rect class="cls-3" x="16" y="40" width="3.2" height="3.2" transform="translate(35.2 83.2) rotate(-180)"/>
  <rect class="cls-3" x="16" y="30.4" width="3.2" height="3.2" transform="translate(35.2 64) rotate(-180)"/>
  <rect class="cls-3" x="12.8" y="33.6" width="3.2" height="6.4" transform="translate(28.8 73.6) rotate(-180)"/>
  <rect class="cls-3" x="28.8" y="46.4" width="3.2" height="3.2"/>
  <rect class="cls-3" x="32" y="43.2" width="3.2" height="3.2"/>
  <rect class="cls-3" x="28.8" y="27.2" width="6.4" height="3.2"/>
  <rect class="cls-3" x="35.2" y="40" width="3.2" height="3.2"/>
  <rect class="cls-3" x="35.2" y="30.4" width="3.2" height="3.2"/>
  <rect class="cls-3" x="38.4" y="33.6" width="3.2" height="6.4"/>
  <rect class="cls-4" x="67.2" y="67.2" width="3.2" height="3.2" transform="translate(137.6 137.6) rotate(-180)"/>
  <rect class="cls-4" x="73.6" y="46.4" width="3.2" height="3.2" transform="translate(150.4 96) rotate(-180)"/>
  <rect class="cls-4" x="76.8" y="43.2" width="3.2" height="3.2" transform="translate(156.8 89.6) rotate(-180)"/>
  <rect class="cls-4" x="80" y="40" width="3.2" height="3.2" transform="translate(163.2 83.2) rotate(-180)"/>
  <rect class="cls-4" x="73.6" y="33.6" width="3.2" height="3.2" transform="translate(150.4 70.4) rotate(-180)"/>
  <rect class="cls-4" x="76.8" y="30.4" width="6.4" height="3.2" transform="translate(160 64) rotate(-180)"/>
  <rect class="cls-4" x="83.2" y="33.6" width="3.2" height="6.4" transform="translate(169.6 73.6) rotate(-180)"/>
  <rect class="cls-4" x="54.4" y="28.8" width="3.2" height="3.2" transform="translate(112 60.8) rotate(-180)"/>
  <rect class="cls-4" x="57.6" y="25.6" width="3.2" height="3.2" transform="translate(118.4 54.4) rotate(-180)"/>
  <rect class="cls-4" x="48" y="19.2" width="6.4" height="3.2" transform="translate(102.4 41.6) rotate(-180)"/>
  <rect class="cls-4" x="48" y="32" width="6.4" height="3.2" transform="translate(102.4 67.2) rotate(-180)"/>
  <rect class="cls-4" x="54.4" y="16" width="6.4" height="3.2" transform="translate(115.2 35.2) rotate(-180)"/>
  <rect class="cls-4" x="60.8" y="19.2" width="3.2" height="6.4" transform="translate(124.8 44.8) rotate(-180)"/>
  <rect class="cls-1" x="70.4" y="43.2" width="3.2" height="3.2"/>
  <rect class="cls-1" x="67.2" y="40" width="3.2" height="3.2"/>
  <rect class="cls-1" x="67.2" y="30.4" width="6.4" height="3.2"/>
  <rect class="cls-1" x="64" y="33.6" width="3.2" height="6.4"/>
  <rect class="cls-4" x="28.8" y="43.2" width="3.2" height="3.2" transform="translate(60.8 89.6) rotate(-180)"/>
  <rect class="cls-4" x="25.6" y="46.4" width="3.2" height="3.2" transform="translate(54.4 96) rotate(-180)"/>
  <rect class="cls-4" x="32" y="40" width="3.2" height="3.2" transform="translate(67.2 83.2) rotate(-180)"/>
  <rect class="cls-4" x="25.6" y="33.6" width="3.2" height="3.2" transform="translate(54.4 70.4) rotate(-180)"/>
  <rect class="cls-4" x="28.8" y="30.4" width="6.4" height="3.2" transform="translate(64 64) rotate(-180)"/>
  <rect class="cls-4" x="35.2" y="33.6" width="3.2" height="6.4" transform="translate(73.6 73.6) rotate(-180)"/>
  <rect class="cls-1" x="22.4" y="43.2" width="3.2" height="3.2"/>
  <rect class="cls-1" x="19.2" y="40" width="3.2" height="3.2"/>
  <rect class="cls-1" x="19.2" y="30.4" width="6.4" height="3.2"/>
  <rect class="cls-1" x="16" y="33.6" width="3.2" height="6.4"/>
  <rect class="cls-1" x="44.85" y="28.8" width="3.2" height="3.2"/>
  <rect class="cls-1" x="41.65" y="25.6" width="3.2" height="3.2"/>
  <rect class="cls-1" x="41.65" y="16" width="6.4" height="3.2"/>
  <rect class="cls-1" x="38.45" y="19.2" width="3.2" height="6.4"/>
  <rect class="cls-5" x="19.2" y="33.6" width="3.2" height="6.4"/>
  <rect class="cls-5" x="67.2" y="33.6" width="3.2" height="6.4"/>
  <rect class="cls-5" x="41.65" y="19.2" width="3.2" height="6.4"/>
  <rect class="cls-4" x="70.4" y="70.4" width="3.2" height="6.4" transform="translate(144 147.2) rotate(-180)"/>
  <rect class="cls-4" x="60.8" y="48" width="3.2" height="9.6" transform="translate(124.8 105.6) rotate(-180)"/>
  <rect class="cls-4" x="57.6" y="44.8" width="3.2" height="3.2" transform="translate(118.4 92.8) rotate(-180)"/>
  <rect class="cls-4" x="54.4" y="41.6" width="3.2" height="3.2" transform="translate(112 86.4) rotate(-180)"/>
  <rect class="cls-4" x="64" y="57.6" width="3.2" height="9.6" transform="translate(131.2 124.8) rotate(-180)"/>
  <rect class="cls-2" x="32" y="67.2" width="3.2" height="3.2"/>
  <rect class="cls-2" x="28.8" y="70.4" width="3.2" height="6.4"/>
  <rect class="cls-2" x="38.4" y="48" width="3.2" height="9.6"/>
  <rect class="cls-2" x="41.6" y="44.8" width="3.2" height="3.2"/>
  <rect class="cls-2" x="44.8" y="41.6" width="3.2" height="3.2"/>
  <rect class="cls-2" x="35.2" y="57.6" width="3.2" height="9.6"/>
  <rect class="cls-4" x="48" y="38.4" width="6.4" height="3.2"/>
  <rect class="cls-3" x="44.8" y="57.6" width="3.2" height="6.4"/>
  <rect class="cls-3" x="54.4" y="57.6" width="3.2" height="6.42"/>
  <rect class="cls-3" x="44.8" y="70.4" width="3.2" height="3.2"/>
  <rect class="cls-3" x="48" y="73.6" width="6.4" height="3.2"/>
  <rect class="cls-3" x="54.4" y="70.4" width="3.2" height="3.2"/>
  <rect class="cls-6" x="48" y="86.4" width="6.4" height="3.2"/>
</svg>