<?xml version="1.0" encoding="UTF-8"?>
<svg id="Layer_36" data-name="Layer 36" xmlns="http://www.w3.org/2000/svg" viewBox="0 0 120 120">
  <defs>
    <style>
      .cls-1 {
        fill: #fff;
        opacity: .54;
      }

      .cls-1, .cls-2, .cls-3, .cls-4, .cls-5, .cls-6, .cls-7 {
        stroke-width: 0px;
      }

      .cls-3 {
        opacity: .3;
      }

      .cls-3, .cls-4 {
        fill: #231f20;
      }

      .cls-5 {
        fill: #171719;
      }

      .cls-6 {
        fill: #ffbd05;
      }

      .cls-7 {
        fill: #f1be9b;
      }
    </style>
  </defs>
  <polygon class="cls-7" points="56.77 23.25 63.17 23.25 63.17 26.45 66.37 26.45 66.37 23.25 69.57 23.25 69.57 26.45 72.77 26.45 72.77 71.2 75.97 71.2 75.97 80.8 79.17 80.8 79.17 84 82.37 84 82.37 90.4 75.97 90.4 75.97 93.6 69.57 93.6 69.57 96.8 50.37 96.8 50.37 93.6 43.97 93.6 43.97 90.4 37.57 90.4 37.57 84 40.77 84 40.77 80.8 43.97 80.8 43.97 71.2 47.17 71.2 47.17 26.45 50.37 26.45 50.37 23.25 53.57 23.25 53.57 26.45 56.77 26.45 56.77 23.25"/>
  <polygon class="cls-4" points="34.43 84 37.57 84 40.77 80.8 43.97 74.4 44.03 71.2 47.23 71.2 72.83 71.2 75.97 71.2 76.29 77.86 82.37 84 85.63 84 85.63 68 82.43 68 82.43 26.45 79.23 26.45 79.23 23.31 76.03 20.05 72.51 16.54 66.43 16.8 66.43 13.6 53.63 13.6 53.63 16.8 47.23 16.8 44.03 20.05 43.97 23.2 40.83 23.31 37.63 26.45 34.43 68 34.43 84"/>
  <rect class="cls-6" x="34.37" y="84" width="3.2" height="6.4"/>
  <rect class="cls-2" x="40.77" y="74.4" width="3.2" height="6.4"/>
  <rect class="cls-6" x="37.57" y="90.4" width="6.4" height="3.2"/>
  <rect class="cls-6" x="43.97" y="93.6" width="6.4" height="3.2"/>
  <rect class="cls-2" x="37.57" y="80.8" width="3.2" height="3.2"/>
  <rect class="cls-6" x="82.37" y="84" width="3.2" height="6.4" transform="translate(167.93 174.4) rotate(-180)"/>
  <rect class="cls-2" x="75.97" y="74.4" width="3.2" height="6.4" transform="translate(155.13 155.2) rotate(-180)"/>
  <rect class="cls-6" x="75.97" y="90.4" width="6.4" height="3.2" transform="translate(158.33 184) rotate(-180)"/>
  <rect class="cls-6" x="69.57" y="93.6" width="6.4" height="3.2" transform="translate(145.53 190.4) rotate(-180)"/>
  <rect class="cls-2" x="79.17" y="80.8" width="3.2" height="3.2" transform="translate(161.53 164.8) rotate(-180)"/>
  <rect class="cls-6" x="56.77" y="103.2" width="6.4" height="3.2"/>
  <polygon class="cls-6" points="50.37 96.8 50.37 100 53.57 100 53.57 103.2 56.77 103.2 56.77 100 63.17 100 63.17 103.2 66.37 103.2 66.37 100 69.57 100 69.57 96.8 50.37 96.8"/>
  <rect class="cls-3" x="75.97" y="80.8" width="3.2" height="3.2" transform="translate(155.13 164.8) rotate(-180)"/>
  <rect class="cls-3" x="79.17" y="84" width="3.2" height="6.4" transform="translate(161.53 174.4) rotate(-180)"/>
  <rect class="cls-3" x="72.77" y="71.2" width="3.2" height="9.6" transform="translate(148.73 152) rotate(-180)"/>
  <rect class="cls-1" x="40.77" y="80.8" width="3.2" height="3.2"/>
  <rect class="cls-1" x="37.57" y="84" width="3.2" height="6.4"/>
  <rect class="cls-1" x="43.97" y="71.2" width="3.2" height="9.6"/>
  <rect class="cls-3" x="56.77" y="23.25" width="6.4" height="3.2"/>
  <rect class="cls-2" x="51.97" y="74.4" width="3.2" height="6.4"/>
  <rect class="cls-2" x="64.77" y="74.4" width="3.2" height="6.4"/>
  <rect class="cls-2" x="55.17" y="87.2" width="9.6" height="3.2"/>
  <rect class="cls-4" x="56.77" y="100" width="6.4" height="3.2"/>
  <rect class="cls-2" x="43.97" y="71.2" width="3.2" height="3.2"/>
  <rect class="cls-2" x="47.17" y="13.6" width="25.67" height="3.2"/>
  <rect class="cls-2" x="85.57" y="68" width="3.2" height="16" transform="translate(174.33 152) rotate(-180)"/>
  <rect class="cls-2" x="43.97" y="16.8" width="3.2" height="3.2" transform="translate(91.13 36.8) rotate(-180)"/>
  <rect class="cls-2" x="31.23" y="68" width="3.2" height="16"/>
  <rect class="cls-2" x="34.43" y="26.45" width="3.2" height="41.55"/>
  <rect class="cls-2" x="37.57" y="23.25" width="3.2" height="3.2"/>
  <rect class="cls-2" x="40.77" y="20" width="3.2" height="3.25"/>
  <rect class="cls-2" x="72.77" y="71.2" width="3.2" height="3.2" transform="translate(148.73 145.6) rotate(-180)"/>
  <rect class="cls-2" x="47.17" y="68" width="25.6" height="3.2"/>
  <rect class="cls-3" x="47.17" y="71.2" width="25.6" height="3.2"/>
  <rect class="cls-5" x="34.43" y="68" width="3.2" height="3.2"/>
  <rect class="cls-5" x="43.97" y="68" width="3.2" height="3.2"/>
  <rect class="cls-5" x="72.77" y="68" width="3.2" height="3.2"/>
  <rect class="cls-5" x="79.23" y="26.45" width="3.2" height="11.67"/>
  <rect class="cls-5" x="58.37" y="51.2" width="3.2" height="3.2"/>
  <rect class="cls-5" x="79.17" y="57.6" width="3.2" height="3.2"/>
  <rect class="cls-5" x="70.71" y="36.52" width="3.2" height="3.2"/>
  <rect class="cls-5" x="45.57" y="43.22" width="3.2" height="3.2"/>
  <rect class="cls-5" x="74.37" y="48" width="3.2" height="3.2"/>
  <rect class="cls-5" x="37.57" y="40.34" width="3.2" height="3.2"/>
  <rect class="cls-5" x="53.57" y="64.8" width="3.2" height="3.2"/>
  <rect class="cls-5" x="59.97" y="26.45" width="3.2" height="3.2"/>
  <rect class="cls-5" x="82.37" y="68" width="3.2" height="3.2"/>
  <rect class="cls-5" x="75.97" y="71.2" width="3.2" height="3.2"/>
  <rect class="cls-5" x="79.17" y="74.4" width="3.2" height="6.4"/>
  <rect class="cls-5" x="82.37" y="80.8" width="3.2" height="3.2"/>
  <rect class="cls-5" x="37.57" y="26.45" width="3.2" height="3.2"/>
  <rect class="cls-5" x="40.77" y="23.23" width="3.2" height="3.2"/>
  <rect class="cls-5" x="43.97" y="20" width="3.2" height="3.2"/>
  <rect class="cls-5" x="47.17" y="16.8" width="3.2" height="3.2"/>
  <polygon class="cls-2" points="76.03 20 72.83 20 72.83 16.8 76.1 16.8 76.03 20"/>
  <rect class="cls-2" x="82.37" y="26.45" width="3.2" height="41.55" transform="translate(167.93 94.45) rotate(-180)"/>
  <rect class="cls-2" x="79.23" y="23.25" width="3.2" height="3.2" transform="translate(161.67 49.71) rotate(-180)"/>
  <rect class="cls-2" x="76.03" y="20" width="3.2" height="3.25" transform="translate(155.27 43.25) rotate(-180)"/>
  <rect class="cls-5" x="79.17" y="26.45" width="3.2" height="3.2" transform="translate(161.53 56.11) rotate(-180)"/>
  <rect class="cls-5" x="75.97" y="23.23" width="3.2" height="3.2" transform="translate(155.13 49.65) rotate(-180)"/>
  <rect class="cls-5" x="72.83" y="20" width="3.2" height="3.2" transform="translate(148.87 43.2) rotate(-180)"/>
  <rect class="cls-5" x="69.63" y="16.8" width="3.2" height="3.2" transform="translate(142.47 36.8) rotate(-180)"/>
  <rect class="cls-5" x="58.37" y="36.52" width="3.2" height="3.2"/>
  <rect class="cls-5" x="65.91" y="47.2" width="3.2" height="3.2"/>
  <rect class="cls-5" x="69.11" y="31.25" width="3.2" height="3.2"/>
  <rect class="cls-5" x="63.17" y="60" width="3.2" height="3.2"/>
  <rect class="cls-5" x="71.23" y="57.6" width="3.2" height="3.2"/>
  <rect class="cls-5" x="50.05" y="26.83" width="3.2" height="3.2"/>
  <rect class="cls-5" x="40.83" y="29.65" width="3.2" height="3.2"/>
  <rect class="cls-5" x="61.57" y="20.05" width="3.2" height="3.2"/>
  <rect class="cls-5" x="46.85" y="37.14" width="3.2" height="3.2"/>
  <rect class="cls-5" x="37.57" y="49.6" width="3.2" height="3.2"/>
  <rect class="cls-5" x="48.45" y="52.8" width="3.2" height="3.2"/>
  <rect class="cls-5" x="41.58" y="57.6" width="3.2" height="3.2"/>
  <rect class="cls-5" x="40.77" y="71.2" width="3.2" height="3.2"/>
  <rect class="cls-5" x="34.43" y="80.8" width="3.2" height="3.2"/>
  <rect class="cls-5" x="37.57" y="74.4" width="3.2" height="6.4"/>
</svg>