<?xml version="1.0" encoding="UTF-8"?>
<svg id="Layer_37" data-name="Layer 37" xmlns="http://www.w3.org/2000/svg" viewBox="0 0 102.4 105.6">
  <defs>
    <style>
      .cls-1 {
        fill: #fff;
        opacity: .54;
      }

      .cls-1, .cls-2, .cls-3, .cls-4, .cls-5, .cls-6, .cls-7 {
        stroke-width: 0px;
      }

      .cls-3 {
        fill: #231f20;
        opacity: .3;
      }

      .cls-4 {
        fill: #516ab8;
      }

      .cls-5 {
        fill: #6c96f3;
      }

      .cls-6 {
        fill: #e6000f;
      }

      .cls-7 {
        fill: #ffbd05;
      }
    </style>
  </defs>
  <polygon class="cls-7" points="48 27.2 54.4 27.2 54.4 30.4 57.6 30.4 57.6 33.6 60.8 33.6 60.8 36.8 64 36.8 64 46.4 67.2 46.4 67.2 56 70.4 56 70.4 59.2 73.6 59.2 73.6 65.6 67.2 65.6 67.2 68.8 60.8 68.8 60.8 72 41.6 72 41.6 68.8 35.2 68.8 35.2 65.6 28.8 65.6 28.8 59.2 32 59.2 32 56 35.2 56 35.2 46.4 38.4 46.4 38.4 36.8 41.6 36.8 41.6 33.6 44.8 33.6 44.8 30.4 48 30.4 48 27.2"/>
  <rect class="cls-2" x="25.6" y="59.2" width="3.2" height="6.4"/>
  <rect class="cls-2" x="32" y="46.4" width="3.2" height="9.6"/>
  <rect class="cls-2" x="28.8" y="65.6" width="6.4" height="3.2"/>
  <rect class="cls-2" x="35.2" y="68.8" width="6.4" height="3.2"/>
  <rect class="cls-2" x="28.8" y="56" width="3.2" height="3.2"/>
  <rect class="cls-2" x="38.4" y="33.6" width="3.2" height="3.2"/>
  <rect class="cls-2" x="41.6" y="30.4" width="3.2" height="3.2"/>
  <rect class="cls-2" x="44.8" y="27.2" width="3.2" height="3.2"/>
  <rect class="cls-2" x="35.2" y="33.6" width="3.2" height="12.8"/>
  <rect class="cls-2" x="73.6" y="59.2" width="3.2" height="6.4" transform="translate(150.4 124.8) rotate(-180)"/>
  <rect class="cls-2" x="67.2" y="46.4" width="3.2" height="9.6" transform="translate(137.6 102.4) rotate(-180)"/>
  <rect class="cls-2" x="67.2" y="65.6" width="6.4" height="3.2" transform="translate(140.8 134.4) rotate(-180)"/>
  <rect class="cls-2" x="60.8" y="68.8" width="6.4" height="3.2" transform="translate(128 140.8) rotate(-180)"/>
  <rect class="cls-2" x="70.4" y="56" width="3.2" height="3.2" transform="translate(144 115.2) rotate(-180)"/>
  <rect class="cls-2" x="60.8" y="33.6" width="3.2" height="3.2" transform="translate(124.8 70.4) rotate(-180)"/>
  <rect class="cls-2" x="57.6" y="30.4" width="3.2" height="3.2" transform="translate(118.4 64) rotate(-180)"/>
  <rect class="cls-2" x="54.4" y="27.2" width="3.2" height="3.2" transform="translate(112 57.6) rotate(-180)"/>
  <rect class="cls-2" x="64" y="36.8" width="3.2" height="9.6" transform="translate(131.2 83.2) rotate(-180)"/>
  <rect class="cls-2" x="48" y="78.4" width="6.4" height="3.2"/>
  <polygon class="cls-2" points="41.6 72 41.6 75.2 44.8 75.2 44.8 78.4 48 78.4 48 75.2 54.4 75.2 54.4 78.4 57.6 78.4 57.6 75.2 60.8 75.2 60.8 72 41.6 72"/>
  <polygon class="cls-6" points="54.4 49.6 54.4 52.8 51.2 52.8 51.2 56 48 56 48 59.2 44.8 59.2 44.8 62.4 41.6 62.4 41.6 65.6 38.4 65.6 38.4 68.8 35.2 68.8 35.2 65.6 32 65.6 32 62.4 35.2 62.4 35.2 59.2 38.4 59.2 38.4 56 41.6 56 41.6 52.8 38.4 52.8 38.4 49.6 38.4 46.4 41.6 46.4 41.6 43.2 44.8 43.2 44.8 40 48 40 48 36.8 51.2 36.8 51.2 33.6 54.4 33.6 54.4 30.4 57.6 30.4 57.6 33.6 60.8 33.6 60.8 36.8 57.6 36.8 57.6 40 54.4 40 51.2 43.2 51.2 46.4 57.6 46.4 57.6 49.6 54.4 49.6"/>
  <rect class="cls-2" x="48" y="24" width="6.4" height="3.2"/>
  <rect class="cls-3" x="67.2" y="56" width="3.2" height="3.2" transform="translate(137.6 115.2) rotate(-180)"/>
  <rect class="cls-3" x="70.4" y="59.2" width="3.2" height="6.4" transform="translate(144 124.8) rotate(-180)"/>
  <rect class="cls-3" x="60.8" y="36.8" width="3.2" height="9.6" transform="translate(124.8 83.2) rotate(-180)"/>
  <rect class="cls-3" x="57.6" y="33.6" width="3.2" height="3.2" transform="translate(118.4 70.4) rotate(-180)"/>
  <rect class="cls-3" x="54.4" y="30.4" width="3.2" height="3.2" transform="translate(112 64) rotate(-180)"/>
  <rect class="cls-3" x="64" y="46.4" width="3.2" height="9.6" transform="translate(131.2 102.4) rotate(-180)"/>
  <rect class="cls-1" x="32" y="56" width="3.2" height="3.2"/>
  <rect class="cls-1" x="28.8" y="59.2" width="3.2" height="6.4"/>
  <rect class="cls-1" x="38.4" y="36.8" width="3.2" height="9.6"/>
  <rect class="cls-1" x="41.6" y="33.6" width="3.2" height="3.2"/>
  <rect class="cls-1" x="44.8" y="30.4" width="3.2" height="3.2"/>
  <rect class="cls-1" x="35.2" y="46.4" width="3.2" height="9.6"/>
  <rect class="cls-3" x="48" y="27.2" width="6.4" height="3.2"/>
  <rect class="cls-2" x="44.8" y="46.4" width="3.2" height="6.4"/>
  <rect class="cls-2" x="38.4" y="30.4" width="3.2" height="3.2"/>
  <rect class="cls-2" x="41.6" y="27.2" width="3.2" height="3.2"/>
  <rect class="cls-2" x="44.8" y="24" width="3.2" height="3.2"/>
  <rect class="cls-2" x="54.4" y="24" width="3.2" height="3.2"/>
  <rect class="cls-2" x="57.6" y="27.2" width="3.2" height="3.2"/>
  <rect class="cls-2" x="60.8" y="30.4" width="3.2" height="3.2"/>
  <rect class="cls-2" x="54.4" y="46.4" width="3.2" height="6.4"/>
  <rect class="cls-2" x="46.4" y="62.4" width="9.6" height="3.2"/>
  <rect class="cls-5" x="48" y="75.2" width="6.4" height="3.2"/>
  <polygon class="cls-5" points="41.6 36.8 44.8 36.8 44.8 40 48 40 48 43.2 51.2 43.2 51.2 46.4 54.4 46.4 60.8 46.4 60.8 49.6 67.2 49.6 67.2 40 67.2 36.8 64 36.8 64 33.6 60.8 33.6 60.8 30.4 57.6 30.4 57.6 27.2 54.4 27.2 54.4 24 48 24 48 27.2 44.8 27.2 44.8 30.4 41.6 30.4 41.6 33.6 38.4 33.6 38.4 36.8 41.6 36.8"/>
  <rect class="cls-3" x="64" y="36.8" width="3.2" height="3.2" transform="translate(131.2 76.8) rotate(-180)"/>
  <rect class="cls-4" x="60.8" y="33.6" width="3.2" height="3.2" transform="translate(124.8 70.4) rotate(-180)"/>
  <rect class="cls-4" x="57.6" y="30.4" width="3.2" height="3.2" transform="translate(118.4 64) rotate(-180)"/>
  <rect class="cls-4" x="54.4" y="27.2" width="3.2" height="3.2" transform="translate(112 57.6) rotate(-180)"/>
  <rect class="cls-4" x="54.4" y="36.8" width="3.2" height="3.2" transform="translate(112 76.8) rotate(-180)"/>
  <rect class="cls-4" x="57.6" y="40" width="3.2" height="3.2" transform="translate(118.4 83.2) rotate(-180)"/>
  <rect class="cls-4" x="60.8" y="43.2" width="3.2" height="3.2" transform="translate(124.8 89.6) rotate(-180)"/>
  <rect class="cls-4" x="64" y="46.4" width="3.2" height="3.2" transform="translate(131.2 96) rotate(-180)"/>
  <rect class="cls-4" x="51.2" y="33.6" width="3.2" height="3.2" transform="translate(105.6 70.4) rotate(-180)"/>
  <rect class="cls-4" x="48" y="30.4" width="3.2" height="3.2" transform="translate(99.2 64) rotate(-180)"/>
  <rect class="cls-4" x="44.8" y="27.2" width="3.2" height="3.2" transform="translate(92.8 57.6) rotate(-180)"/>
  <rect class="cls-4" x="48" y="40" width="3.2" height="3.2" transform="translate(99.2 83.2) rotate(-180)"/>
  <rect class="cls-4" x="51.2" y="43.2" width="3.2" height="3.2" transform="translate(105.6 89.6) rotate(-180)"/>
  <rect class="cls-4" x="44.8" y="36.8" width="3.2" height="3.2" transform="translate(92.8 76.8) rotate(-180)"/>
  <rect class="cls-4" x="41.6" y="33.6" width="3.2" height="3.2" transform="translate(86.4 70.4) rotate(-180)"/>
  <rect class="cls-4" x="48" y="24" width="6.4" height="3.2" transform="translate(102.4 51.2) rotate(-180)"/>
  <rect class="cls-2" x="64" y="33.6" width="3.2" height="12.8"/>
  <rect class="cls-2" x="44.8" y="24" width="12.8" height="3.2"/>
</svg>