<?xml version="1.0" encoding="UTF-8"?>
<svg id="Layer_39" data-name="Layer 39" xmlns="http://www.w3.org/2000/svg" viewBox="0 0 102.4 105.6">
  <defs>
    <style>
      .cls-1 {
        opacity: .54;
      }

      .cls-1, .cls-2, .cls-3, .cls-4, .cls-5, .cls-6, .cls-7, .cls-8 {
        stroke-width: 0px;
      }

      .cls-1, .cls-5 {
        fill: #fff;
      }

      .cls-3 {
        fill: #231f20;
        opacity: .3;
      }

      .cls-4 {
        fill: #df0000;
      }

      .cls-6 {
        fill: #ffe7ac;
      }

      .cls-7 {
        fill: #fe7944;
      }

      .cls-8 {
        fill: #ff002a;
      }
    </style>
  </defs>
  <rect class="cls-6" x="35.2" y="68.8" width="32" height="9.6"/>
  <polygon class="cls-7" points="54.4 30.4 57.6 30.4 57.6 33.6 60.8 33.6 60.8 36.8 64 36.8 64 46.4 67.2 46.4 67.2 56 70.4 56 70.4 59.2 73.6 59.2 73.6 65.6 67.2 65.6 67.2 68.8 60.8 68.8 60.8 72 41.6 72 41.6 68.8 35.2 68.8 35.2 65.6 28.8 65.6 28.8 59.2 32 59.2 32 56 35.2 56 35.2 46.4 38.4 46.4 38.4 36.8 41.6 36.8 41.6 33.6 44.8 33.6 44.8 30.4 48 30.4 54.4 30.4"/>
  <rect class="cls-2" x="25.6" y="59.2" width="3.2" height="6.4"/>
  <rect class="cls-2" x="32" y="33.6" width="3.2" height="22.4"/>
  <rect class="cls-2" x="28.8" y="65.6" width="6.4" height="3.2"/>
  <rect class="cls-2" x="35.2" y="68.8" width="6.4" height="3.2"/>
  <rect class="cls-2" x="28.8" y="56" width="3.2" height="3.2"/>
  <rect class="cls-2" x="35.2" y="30.4" width="3.2" height="3.2"/>
  <rect class="cls-2" x="38.4" y="27.2" width="3.2" height="3.2"/>
  <rect class="cls-2" x="73.6" y="59.2" width="3.2" height="6.4" transform="translate(150.4 124.8) rotate(-180)"/>
  <rect class="cls-2" x="67.2" y="33.6" width="3.2" height="22.4" transform="translate(137.6 89.6) rotate(-180)"/>
  <rect class="cls-2" x="67.2" y="65.6" width="6.4" height="3.2" transform="translate(140.8 134.4) rotate(-180)"/>
  <rect class="cls-2" x="60.8" y="68.8" width="6.4" height="3.2" transform="translate(128 140.8) rotate(-180)"/>
  <rect class="cls-2" x="70.4" y="56" width="3.2" height="3.2" transform="translate(144 115.2) rotate(-180)"/>
  <rect class="cls-2" x="64" y="30.4" width="3.2" height="3.2" transform="translate(131.2 64) rotate(-180)"/>
  <rect class="cls-2" x="60.8" y="27.2" width="3.2" height="3.2" transform="translate(124.8 57.6) rotate(-180)"/>
  <rect class="cls-2" x="48" y="78.4" width="6.4" height="3.2"/>
  <polygon class="cls-2" points="41.6 72 41.6 75.2 44.8 75.2 44.8 78.4 48 78.4 48 75.2 54.4 75.2 54.4 78.4 57.6 78.4 57.6 75.2 60.8 75.2 60.8 72 41.6 72"/>
  <rect class="cls-2" x="41.6" y="24" width="19.2" height="3.2"/>
  <rect class="cls-3" x="67.2" y="56" width="3.2" height="3.2" transform="translate(137.6 115.2) rotate(-180)"/>
  <rect class="cls-3" x="70.4" y="59.2" width="3.2" height="6.4" transform="translate(144 124.8) rotate(-180)"/>
  <rect class="cls-3" x="60.8" y="36.8" width="3.2" height="9.6" transform="translate(124.8 83.2) rotate(-180)"/>
  <rect class="cls-3" x="57.6" y="33.6" width="3.2" height="3.2" transform="translate(118.4 70.4) rotate(-180)"/>
  <rect class="cls-3" x="54.4" y="30.4" width="3.2" height="3.2" transform="translate(112 64) rotate(-180)"/>
  <rect class="cls-3" x="64" y="46.4" width="3.2" height="9.6" transform="translate(131.2 102.4) rotate(-180)"/>
  <rect class="cls-1" x="32" y="56" width="3.2" height="3.2"/>
  <rect class="cls-1" x="28.8" y="59.2" width="3.2" height="6.4"/>
  <rect class="cls-1" x="38.4" y="36.8" width="3.2" height="9.6"/>
  <rect class="cls-1" x="41.6" y="33.6" width="3.2" height="3.2"/>
  <rect class="cls-1" x="44.8" y="30.4" width="3.2" height="3.2"/>
  <rect class="cls-1" x="35.2" y="46.4" width="3.2" height="9.6"/>
  <rect class="cls-2" x="44.8" y="59.2" width="12.8" height="3.2"/>
  <rect class="cls-6" x="44.8" y="56" width="12.8" height="3.2"/>
  <rect class="cls-6" x="38.4" y="62.4" width="9.6" height="3.2" transform="translate(107.2 20.8) rotate(90)"/>
  <rect class="cls-6" x="54.4" y="62.4" width="9.6" height="3.2" transform="translate(123.2 4.8) rotate(90)"/>
  <rect class="cls-4" x="48" y="75.2" width="6.4" height="3.2"/>
  <rect class="cls-2" x="41.6" y="49.6" width="3.2" height="3.2"/>
  <rect class="cls-5" x="44.8" y="49.6" width="3.2" height="3.2"/>
  <rect class="cls-5" x="38.4" y="49.6" width="3.2" height="3.2"/>
  <rect class="cls-2" x="57.6" y="49.6" width="3.2" height="3.2"/>
  <rect class="cls-5" x="54.4" y="49.6" width="3.2" height="3.2"/>
  <rect class="cls-5" x="60.8" y="49.6" width="3.2" height="3.2"/>
  <polygon class="cls-4" points="35.2 49.6 67.2 49.6 67.2 33.6 64 33.6 64 30.4 60.8 30.4 60.8 27.2 41.6 27.2 41.6 30.4 38.4 30.4 38.4 33.6 35.2 33.6 35.2 49.6"/>
  <rect class="cls-8" x="35.2" y="46.4" width="6.4" height="3.2"/>
  <rect class="cls-8" x="48" y="46.4" width="3.2" height="3.2"/>
  <rect class="cls-8" x="35.2" y="40" width="9.6" height="3.2"/>
  <rect class="cls-8" x="57.6" y="36.8" width="3.2" height="3.2"/>
  <rect class="cls-8" x="51.2" y="43.2" width="6.4" height="3.2"/>
  <rect class="cls-8" x="48" y="36.8" width="6.4" height="3.2"/>
  <rect class="cls-8" x="60.8" y="33.6" width="6.4" height="3.2"/>
  <rect class="cls-8" x="38.4" y="33.6" width="6.4" height="3.2"/>
  <rect class="cls-8" x="41.6" y="27.2" width="6.4" height="3.2"/>
  <rect class="cls-8" x="48" y="30.4" width="6.4" height="3.2"/>
  <rect class="cls-8" x="60.8" y="46.4" width="3.2" height="3.2"/>
  <rect class="cls-8" x="64" y="40" width="3.2" height="3.2"/>
  <rect class="cls-8" x="57.6" y="27.2" width="3.2" height="3.2"/>
</svg>