<?xml version="1.0" encoding="UTF-8"?>
<svg id="Layer_40" data-name="Layer 40" xmlns="http://www.w3.org/2000/svg" viewBox="0 0 102.4 105.6">
  <defs>
    <style>
      .cls-1 {
        opacity: .15;
      }

      .cls-1, .cls-2, .cls-3, .cls-4, .cls-5 {
        stroke-width: 0px;
      }

      .cls-1, .cls-3 {
        fill: #231f20;
      }

      .cls-3 {
        opacity: .3;
      }

      .cls-4 {
        fill: #cfff95;
      }

      .cls-5 {
        fill: #00d391;
      }
    </style>
  </defs>
  <polygon class="cls-5" points="64 25.6 70.4 32 73.6 38.4 73.6 44.8 70.4 51.2 67.2 51.2 67.2 60.8 70.4 60.8 70.4 64 73.6 64 73.6 70.4 67.2 70.4 67.2 73.6 60.8 73.6 60.8 76.8 41.6 76.8 41.6 73.6 35.2 73.6 35.2 70.4 28.8 70.4 28.8 64 32 64 32 60.8 35.2 60.8 35.2 51.2 32 51.2 28.8 44.8 28.8 38.4 32 32 38.4 25.6 44.8 22.4 57.6 22.4 64 25.6"/>
  <rect class="cls-2" x="25.6" y="64" width="3.2" height="6.4"/>
  <rect class="cls-2" x="32" y="57.6" width="3.2" height="3.2"/>
  <rect class="cls-2" x="35.2" y="54.4" width="3.2" height="3.2"/>
  <rect class="cls-2" x="32" y="51.2" width="3.2" height="3.2"/>
  <rect class="cls-2" x="28.8" y="70.4" width="6.4" height="3.2"/>
  <rect class="cls-2" x="35.2" y="73.6" width="6.4" height="3.2"/>
  <rect class="cls-2" x="28.8" y="60.8" width="3.2" height="3.2"/>
  <polygon class="cls-2" points="67.2 41.59 67.2 38.39 59.2 38.39 59.2 41.61 56 41.61 56 44.81 52.8 44.81 52.8 48.01 52.8 54.41 52.8 57.61 57.6 57.61 57.6 54.41 60.8 54.41 60.8 51.21 64 51.21 64 48.01 67.2 48.01 67.2 41.59 67.2 41.59"/>
  <polygon class="cls-2" points="35.2 41.59 35.2 38.39 43.2 38.39 43.2 41.61 46.4 41.61 46.4 44.81 49.6 44.81 49.6 48.01 49.6 54.41 49.6 57.61 44.8 57.61 44.8 54.41 41.6 54.41 41.6 51.21 38.4 51.21 38.4 48.01 35.2 48.01 35.2 41.59 35.2 41.59"/>
  <rect class="cls-2" x="25.6" y="38.4" width="3.2" height="6.4"/>
  <rect class="cls-2" x="28.8" y="32" width="3.2" height="6.4"/>
  <rect class="cls-2" x="35.2" y="25.6" width="3.2" height="3.2"/>
  <rect class="cls-2" x="38.4" y="22.4" width="6.4" height="3.2"/>
  <rect class="cls-2" x="44.8" y="19.2" width="12.8" height="3.2"/>
  <rect class="cls-2" x="28.8" y="44.8" width="3.2" height="6.4"/>
  <rect class="cls-2" x="73.6" y="38.4" width="3.2" height="6.4" transform="translate(150.4 83.2) rotate(-180)"/>
  <rect class="cls-2" x="70.4" y="32" width="3.2" height="6.4" transform="translate(144 70.4) rotate(-180)"/>
  <rect class="cls-2" x="67.2" y="28.8" width="3.2" height="3.2" transform="translate(137.6 60.8) rotate(-180)"/>
  <rect class="cls-2" x="32" y="28.8" width="3.2" height="3.2" transform="translate(67.2 60.8) rotate(-180)"/>
  <rect class="cls-2" x="64" y="25.6" width="3.2" height="3.2" transform="translate(131.2 54.4) rotate(-180)"/>
  <rect class="cls-2" x="57.6" y="22.4" width="6.4" height="3.2" transform="translate(121.6 48) rotate(-180)"/>
  <rect class="cls-2" x="70.4" y="44.8" width="3.2" height="6.4" transform="translate(144 96) rotate(-180)"/>
  <rect class="cls-2" x="73.6" y="64" width="3.2" height="6.4" transform="translate(150.4 134.4) rotate(-180)"/>
  <rect class="cls-2" x="67.2" y="57.6" width="3.2" height="3.2" transform="translate(137.6 118.4) rotate(-180)"/>
  <rect class="cls-2" x="64" y="54.4" width="3.2" height="3.2" transform="translate(131.2 112) rotate(-180)"/>
  <rect class="cls-2" x="67.2" y="51.2" width="3.2" height="3.2" transform="translate(137.6 105.6) rotate(-180)"/>
  <rect class="cls-2" x="67.2" y="70.4" width="6.4" height="3.2" transform="translate(140.8 144) rotate(-180)"/>
  <rect class="cls-2" x="60.8" y="73.6" width="6.4" height="3.2" transform="translate(128 150.4) rotate(-180)"/>
  <rect class="cls-2" x="70.4" y="60.8" width="3.2" height="3.2" transform="translate(144 124.8) rotate(-180)"/>
  <rect class="cls-2" x="48" y="83.2" width="6.4" height="3.2"/>
  <polygon class="cls-2" points="41.6 76.8 41.6 80 44.8 80 44.8 83.2 48 83.2 48 80 54.4 80 54.4 83.2 57.6 83.2 57.6 80 60.8 80 60.8 76.8 41.6 76.8"/>
  <rect class="cls-3" x="67.2" y="60.8" width="3.2" height="3.2" transform="translate(137.6 124.8) rotate(-180)"/>
  <rect class="cls-3" x="70.4" y="64" width="3.2" height="6.4" transform="translate(144 134.4) rotate(-180)"/>
  <rect class="cls-4" x="49.6" y="44.81" width="3.2" height="12.8" transform="translate(102.4 102.42) rotate(-180)"/>
  <rect class="cls-3" x="64" y="28.8" width="3.2" height="3.2" transform="translate(131.2 60.8) rotate(-180)"/>
  <rect class="cls-3" x="52.8" y="41.61" width="3.2" height="3.2" transform="translate(108.8 86.42) rotate(-180)"/>
  <rect class="cls-3" x="41.6" y="67.2" width="19.2" height="3.2" transform="translate(102.4 137.6) rotate(-180)"/>
  <rect class="cls-3" x="64" y="51.21" width="3.2" height="3.2" transform="translate(131.2 105.62) rotate(-180)"/>
  <rect class="cls-3" x="60.8" y="54.41" width="3.2" height="3.2" transform="translate(124.8 112.02) rotate(-180)"/>
  <rect class="cls-3" x="67.2" y="32" width="3.2" height="6.39" transform="translate(137.6 70.39) rotate(-180)"/>
  <rect class="cls-3" x="70.4" y="38.41" width="3.2" height="6.39" transform="translate(144 83.22) rotate(-180)"/>
  <rect class="cls-3" x="67.2" y="44.8" width="3.2" height="6.39" transform="translate(137.6 96) rotate(-180)"/>
  <rect class="cls-3" x="57.6" y="25.6" width="6.4" height="3.2" transform="translate(121.6 54.4) rotate(-180)"/>
  <rect class="cls-1" x="54.4" y="32" width="6.4" height="3.2" transform="translate(115.2 67.2) rotate(-180)"/>
  <rect class="cls-1" x="43.2" y="35.19" width="6.4" height="3.2" transform="translate(92.8 73.58) rotate(-180)"/>
  <rect class="cls-3" x="64" y="57.6" width="3.2" height="3.2" transform="translate(131.2 118.4) rotate(-180)"/>
  <rect class="cls-4" x="32" y="60.8" width="3.2" height="3.2"/>
  <rect class="cls-4" x="35.2" y="57.6" width="3.2" height="3.2"/>
  <rect class="cls-4" x="35.23" y="28.8" width="3.2" height="3.2"/>
  <rect class="cls-4" x="38.4" y="25.6" width="6.4" height="3.2"/>
  <rect class="cls-4" x="38.4" y="54.4" width="3.2" height="3.2"/>
  <rect class="cls-4" x="35.2" y="51.2" width="3.2" height="3.2"/>
  <rect class="cls-4" x="32" y="44.81" width="3.2" height="6.39"/>
  <rect class="cls-4" x="28.8" y="38.41" width="3.2" height="6.39"/>
  <rect class="cls-4" x="32" y="32" width="3.2" height="6.39"/>
  <rect class="cls-4" x="28.8" y="64" width="3.2" height="6.4"/>
  <rect class="cls-3" x="44.8" y="22.4" width="12.8" height="3.2"/>
  <rect class="cls-1" x="41.6" y="28.8" width="12.8" height="3.2"/>
  <rect class="cls-2" x="41.6" y="64" width="19.2" height="3.2"/>
  <rect class="cls-4" x="48" y="80" width="6.4" height="3.2"/>
</svg>