<?xml version="1.0" encoding="UTF-8"?>
<svg id="Layer_41" data-name="Layer 41" xmlns="http://www.w3.org/2000/svg" viewBox="0 0 120 120">
  <defs>
    <style>
      .cls-1 {
        fill: #fff;
        opacity: .54;
      }

      .cls-1, .cls-2, .cls-3, .cls-4, .cls-5 {
        stroke-width: 0px;
      }

      .cls-2 {
        fill: #231f20;
        opacity: .3;
      }

      .cls-3 {
        fill: #f91d39;
      }

      .cls-4 {
        fill: #6e463b;
      }

      .cls-5 {
        fill: #ffc070;
      }
    </style>
  </defs>
  <g>
    <polygon class="cls-5" points="55.2 18.4 64.8 18.4 64.8 24.8 68 28 68 34.4 64.8 37.6 55.2 37.6 52 34.4 52 28 55.2 24.8 55.2 18.4"/>
    <rect class="cls-4" x="52" y="18.4" width="3.2" height="3.2" transform="translate(107.2 40) rotate(-180)"/>
    <rect class="cls-4" x="52" y="24.8" width="3.2" height="3.2" transform="translate(107.2 52.8) rotate(-180)"/>
    <rect class="cls-4" x="52" y="34.4" width="3.2" height="3.2" transform="translate(107.2 72) rotate(-180)"/>
    <rect class="cls-4" x="55.2" y="37.6" width="9.6" height="3.2" transform="translate(120 78.4) rotate(-180)"/>
    <rect class="cls-4" x="48.8" y="28" width="3.2" height="6.4" transform="translate(100.8 62.4) rotate(-180)"/>
    <rect class="cls-4" x="64.8" y="24.8" width="3.2" height="3.2"/>
    <rect class="cls-4" x="64.8" y="34.4" width="3.2" height="3.2"/>
    <rect class="cls-4" x="68" y="28" width="3.2" height="6.4"/>
    <rect class="cls-4" x="58.4" y="18.4" width="3.2" height="3.2" transform="translate(120 40) rotate(-180)"/>
    <rect class="cls-3" x="55.2" y="21.6" width="9.6" height="3.2" transform="translate(120 46.4) rotate(-180)"/>
    <rect class="cls-4" x="64.8" y="18.4" width="3.2" height="3.2" transform="translate(132.8 40) rotate(-180)"/>
  </g>
  <polygon class="cls-5" points="56.8 47.2 63.2 47.2 63.2 50.4 66.4 50.4 66.4 53.6 69.6 53.6 69.6 56.8 72.8 56.8 72.8 66.4 76 66.4 76 76 79.2 76 79.2 79.2 82.4 79.2 82.4 85.6 76 85.6 76 88.8 69.6 88.8 69.6 92 50.4 92 50.4 88.8 44 88.8 44 85.6 37.6 85.6 37.6 79.2 40.8 79.2 40.8 76 44 76 44 66.4 47.2 66.4 47.2 56.8 50.4 56.8 50.4 53.6 53.6 53.6 53.6 50.4 56.8 50.4 56.8 47.2"/>
  <rect class="cls-4" x="34.4" y="79.2" width="3.2" height="6.4"/>
  <rect class="cls-4" x="40.8" y="66.4" width="3.2" height="9.6"/>
  <rect class="cls-4" x="37.6" y="85.6" width="6.4" height="3.2"/>
  <rect class="cls-4" x="44" y="88.8" width="6.4" height="3.2"/>
  <rect class="cls-4" x="37.6" y="76" width="3.2" height="3.2"/>
  <rect class="cls-4" x="47.2" y="53.6" width="3.2" height="3.2"/>
  <rect class="cls-4" x="50.4" y="50.4" width="3.2" height="3.2"/>
  <rect class="cls-4" x="53.6" y="47.2" width="3.2" height="3.2"/>
  <rect class="cls-4" x="44" y="56.8" width="3.2" height="9.6"/>
  <rect class="cls-4" x="82.4" y="79.2" width="3.2" height="6.4" transform="translate(168 164.8) rotate(-180)"/>
  <rect class="cls-4" x="76" y="66.4" width="3.2" height="9.6" transform="translate(155.2 142.4) rotate(-180)"/>
  <rect class="cls-4" x="76" y="85.6" width="6.4" height="3.2" transform="translate(158.4 174.4) rotate(-180)"/>
  <rect class="cls-4" x="69.6" y="88.8" width="6.4" height="3.2" transform="translate(145.6 180.8) rotate(-180)"/>
  <rect class="cls-4" x="79.2" y="76" width="3.2" height="3.2" transform="translate(161.6 155.2) rotate(-180)"/>
  <rect class="cls-4" x="69.6" y="53.6" width="3.2" height="3.2" transform="translate(142.4 110.4) rotate(-180)"/>
  <g>
    <polygon class="cls-5" points="92 60 101.6 60 101.6 66.4 104.8 69.6 104.8 76 101.6 79.2 92 79.2 88.8 76 88.8 69.6 92 66.4 92 60"/>
    <rect class="cls-4" x="88.8" y="60" width="3.2" height="3.2" transform="translate(180.8 123.2) rotate(-180)"/>
    <rect class="cls-4" x="88.8" y="66.4" width="3.2" height="3.2" transform="translate(180.8 136) rotate(-180)"/>
    <rect class="cls-4" x="88.8" y="76" width="3.2" height="3.2" transform="translate(180.8 155.2) rotate(-180)"/>
    <rect class="cls-4" x="92" y="79.2" width="9.6" height="3.2" transform="translate(193.6 161.6) rotate(-180)"/>
    <rect class="cls-4" x="85.6" y="69.6" width="3.2" height="6.4" transform="translate(174.4 145.6) rotate(-180)"/>
    <rect class="cls-4" x="101.6" y="66.4" width="3.2" height="3.2"/>
    <rect class="cls-4" x="101.6" y="76" width="3.2" height="3.2"/>
    <rect class="cls-4" x="104.8" y="69.6" width="3.2" height="6.4"/>
    <rect class="cls-4" x="95.2" y="60" width="3.2" height="3.2" transform="translate(193.6 123.2) rotate(-180)"/>
    <rect class="cls-3" x="92" y="63.2" width="9.6" height="3.2" transform="translate(193.6 129.6) rotate(-180)"/>
    <rect class="cls-4" x="101.6" y="60" width="3.2" height="3.2" transform="translate(206.4 123.2) rotate(-180)"/>
  </g>
  <g>
    <polygon class="cls-5" points="79.2 34.4 88.8 34.4 88.8 40.8 92 44 92 50.4 88.8 53.6 79.2 53.6 76 50.4 76 44 79.2 40.8 79.2 34.4"/>
    <rect class="cls-4" x="76" y="34.4" width="3.2" height="3.2" transform="translate(155.2 72) rotate(-180)"/>
    <rect class="cls-4" x="76" y="40.8" width="3.2" height="3.2" transform="translate(155.2 84.8) rotate(-180)"/>
    <rect class="cls-4" x="76" y="50.4" width="3.2" height="3.2" transform="translate(155.2 104) rotate(-180)"/>
    <rect class="cls-4" x="79.2" y="53.6" width="9.6" height="3.2" transform="translate(168 110.4) rotate(-180)"/>
    <rect class="cls-4" x="72.8" y="44" width="3.2" height="6.4" transform="translate(148.8 94.4) rotate(-180)"/>
    <rect class="cls-4" x="88.8" y="40.8" width="3.2" height="3.2"/>
    <rect class="cls-4" x="88.8" y="50.4" width="3.2" height="3.2"/>
    <rect class="cls-4" x="92" y="44" width="3.2" height="6.4"/>
    <rect class="cls-4" x="82.4" y="34.4" width="3.2" height="3.2" transform="translate(168 72) rotate(-180)"/>
    <rect class="cls-3" x="79.2" y="37.6" width="9.6" height="3.2" transform="translate(168 78.4) rotate(-180)"/>
    <rect class="cls-4" x="88.8" y="34.4" width="3.2" height="3.2" transform="translate(180.8 72) rotate(-180)"/>
  </g>
  <g>
    <polygon class="cls-5" points="31.2 34.4 40.8 34.4 40.8 40.8 44 44 44 50.4 40.8 53.6 31.2 53.6 28 50.4 28 44 31.2 40.8 31.2 34.4"/>
    <rect class="cls-4" x="28" y="34.4" width="3.2" height="3.2" transform="translate(59.2 72) rotate(-180)"/>
    <rect class="cls-4" x="28" y="40.8" width="3.2" height="3.2" transform="translate(59.2 84.8) rotate(-180)"/>
    <rect class="cls-4" x="28" y="50.4" width="3.2" height="3.2" transform="translate(59.2 104) rotate(-180)"/>
    <rect class="cls-4" x="31.2" y="53.6" width="9.6" height="3.2" transform="translate(72 110.4) rotate(-180)"/>
    <rect class="cls-4" x="24.8" y="44" width="3.2" height="6.4" transform="translate(52.8 94.4) rotate(-180)"/>
    <rect class="cls-4" x="40.8" y="40.8" width="3.2" height="3.2"/>
    <rect class="cls-4" x="40.8" y="50.4" width="3.2" height="3.2"/>
    <rect class="cls-4" x="44" y="44" width="3.2" height="6.4"/>
    <rect class="cls-4" x="34.4" y="34.4" width="3.2" height="3.2" transform="translate(72 72) rotate(-180)"/>
    <rect class="cls-3" x="31.2" y="37.6" width="9.6" height="3.2" transform="translate(72 78.4) rotate(-180)"/>
    <rect class="cls-4" x="40.8" y="34.4" width="3.2" height="3.2" transform="translate(84.8 72) rotate(-180)"/>
  </g>
  <rect class="cls-3" x="47.2" y="56.8" width="25.6" height="3.2" transform="translate(120 116.8) rotate(-180)"/>
  <g>
    <polygon class="cls-5" points="18.4 60 28 60 28 66.4 31.2 69.6 31.2 76 28 79.2 18.4 79.2 15.2 76 15.2 69.6 18.4 66.4 18.4 60"/>
    <rect class="cls-4" x="15.2" y="60" width="3.2" height="3.2" transform="translate(33.6 123.2) rotate(-180)"/>
    <rect class="cls-4" x="15.2" y="66.4" width="3.2" height="3.2" transform="translate(33.6 136) rotate(-180)"/>
    <rect class="cls-4" x="15.2" y="76" width="3.2" height="3.2" transform="translate(33.6 155.2) rotate(-180)"/>
    <rect class="cls-4" x="18.4" y="79.2" width="9.6" height="3.2" transform="translate(46.4 161.6) rotate(-180)"/>
    <rect class="cls-4" x="12" y="69.6" width="3.2" height="6.4" transform="translate(27.2 145.6) rotate(-180)"/>
    <rect class="cls-4" x="28" y="66.4" width="3.2" height="3.2"/>
    <rect class="cls-4" x="28" y="76" width="3.2" height="3.2"/>
    <rect class="cls-4" x="31.2" y="69.6" width="3.2" height="6.4"/>
    <rect class="cls-4" x="21.6" y="60" width="3.2" height="3.2" transform="translate(46.4 123.2) rotate(-180)"/>
    <rect class="cls-3" x="18.4" y="63.2" width="9.6" height="3.2" transform="translate(46.4 129.6) rotate(-180)"/>
    <rect class="cls-4" x="28" y="60" width="3.2" height="3.2" transform="translate(59.2 123.2) rotate(-180)"/>
  </g>
  <rect class="cls-4" x="66.4" y="50.4" width="3.2" height="3.2" transform="translate(136 104) rotate(-180)"/>
  <rect class="cls-4" x="63.2" y="47.2" width="3.2" height="3.2" transform="translate(129.6 97.6) rotate(-180)"/>
  <rect class="cls-4" x="72.8" y="56.8" width="3.2" height="9.6" transform="translate(148.8 123.2) rotate(-180)"/>
  <rect class="cls-4" x="56.8" y="98.4" width="6.4" height="3.2"/>
  <polygon class="cls-4" points="50.4 92 50.4 95.2 53.6 95.2 53.6 98.4 56.8 98.4 56.8 95.2 63.2 95.2 63.2 98.4 66.4 98.4 66.4 95.2 69.6 95.2 69.6 92 50.4 92"/>
  <rect class="cls-4" x="56.8" y="44" width="6.4" height="3.2"/>
  <rect class="cls-2" x="76" y="76" width="3.2" height="3.2" transform="translate(155.2 155.2) rotate(-180)"/>
  <rect class="cls-2" x="79.2" y="79.2" width="3.2" height="6.4" transform="translate(161.6 164.8) rotate(-180)"/>
  <rect class="cls-2" x="69.6" y="56.8" width="3.2" height="9.6" transform="translate(142.4 123.2) rotate(-180)"/>
  <rect class="cls-2" x="66.4" y="53.6" width="3.2" height="3.2" transform="translate(136 110.4) rotate(-180)"/>
  <rect class="cls-2" x="63.2" y="50.4" width="3.2" height="3.2" transform="translate(129.6 104) rotate(-180)"/>
  <rect class="cls-2" x="72.8" y="66.4" width="3.2" height="9.6" transform="translate(148.8 142.4) rotate(-180)"/>
  <rect class="cls-1" x="40.8" y="76" width="3.2" height="3.2"/>
  <rect class="cls-1" x="37.6" y="79.2" width="3.2" height="6.4"/>
  <rect class="cls-1" x="47.2" y="56.8" width="3.2" height="9.6"/>
  <rect class="cls-1" x="50.4" y="53.6" width="3.2" height="3.2"/>
  <rect class="cls-1" x="53.6" y="50.4" width="3.2" height="3.2"/>
  <rect class="cls-1" x="44" y="66.4" width="3.2" height="9.6"/>
  <rect class="cls-2" x="56.8" y="47.2" width="6.4" height="3.2"/>
  <rect class="cls-4" x="52" y="66.4" width="3.2" height="9.6"/>
  <rect class="cls-4" x="64.8" y="66.4" width="3.2" height="9.6"/>
  <rect class="cls-4" x="55.2" y="82.4" width="9.6" height="3.2"/>
  <rect class="cls-3" x="56.8" y="95.2" width="6.4" height="3.2"/>
</svg>