<?xml version="1.0" encoding="UTF-8"?>
<svg id="Layer_42" data-name="Layer 42" xmlns="http://www.w3.org/2000/svg" viewBox="0 0 120 120">
  <defs>
    <style>
      .cls-1 {
        opacity: .24;
      }

      .cls-1, .cls-2 {
        fill: #fff;
      }

      .cls-1, .cls-2, .cls-3, .cls-4, .cls-5, .cls-6, .cls-7, .cls-8, .cls-9 {
        stroke-width: 0px;
      }

      .cls-2 {
        opacity: .54;
      }

      .cls-4 {
        fill: #231f20;
        opacity: .3;
      }

      .cls-5 {
        fill: #712d00;
      }

      .cls-6 {
        fill: #ff8270;
      }

      .cls-7 {
        fill: #edf100;
      }

      .cls-8 {
        fill: #ff0005;
      }

      .cls-9 {
        fill: #f1be9b;
      }
    </style>
  </defs>
  <polygon class="cls-9" points="56.8 37.6 63.2 37.6 63.2 40.8 66.4 40.8 66.4 44 69.6 44 69.6 47.2 79.2 47.2 79.2 56.8 76 56.8 76 66.4 79.2 66.4 79.2 69.6 82.4 69.6 82.4 76 76 76 76 79.2 69.6 79.2 69.6 82.4 50.4 82.4 50.4 79.2 44 79.2 44 76 37.6 76 37.6 69.6 40.8 69.6 40.8 66.4 44 66.4 44 56.8 40.8 56.8 40.8 47.2 50.4 47.2 50.4 44 53.6 44 53.6 40.8 56.8 40.8 56.8 37.6"/>
  <polygon class="cls-5" points="37.6 56.82 40.8 56.8 40.8 53.59 56.8 50.44 60 47.24 69.6 47.24 76 53.59 79.2 53.59 79.2 56.8 82.4 56.82 82.36 40.79 76 34.41 72.8 31.21 47.2 31.21 44 34.41 37.6 40.79 37.6 56.82"/>
  <rect class="cls-3" x="34.4" y="69.6" width="3.2" height="6.4"/>
  <rect class="cls-3" x="37.6" y="56.8" width="3.2" height="3.25"/>
  <rect class="cls-3" x="37.6" y="76" width="6.4" height="3.2"/>
  <rect class="cls-3" x="44" y="79.2" width="6.4" height="3.2"/>
  <rect class="cls-3" x="37.6" y="63.2" width="3.2" height="6.4"/>
  <rect class="cls-3" x="79.2" y="56.82" width="3.2" height="3.23" transform="translate(161.6 116.87) rotate(-180)"/>
  <rect class="cls-3" x="40.8" y="50.39" width="16" height="3.2"/>
  <rect class="cls-3" x="72.8" y="50.39" width="6.4" height="3.2"/>
  <rect class="cls-3" x="34.4" y="44" width="3.2" height="12.8"/>
  <rect class="cls-3" x="37.6" y="37.6" width="3.2" height="6.4"/>
  <rect class="cls-3" x="40.8" y="34.41" width="3.2" height="3.2"/>
  <rect class="cls-3" x="44" y="31.21" width="3.2" height="3.2"/>
  <rect class="cls-3" x="60" y="44.04" width="9.6" height="3.2"/>
  <rect class="cls-3" x="56.8" y="47.24" width="3.2" height="3.2"/>
  <rect class="cls-3" x="69.6" y="47.24" width="3.2" height="3.2"/>
  <rect class="cls-3" x="66.4" y="37.59" width="3.2" height="6.45"/>
  <rect class="cls-3" x="76" y="34.41" width="3.2" height="3.2"/>
  <rect class="cls-3" x="72.8" y="31.21" width="3.2" height="3.2"/>
  <rect class="cls-3" x="82.4" y="69.6" width="3.2" height="6.4" transform="translate(168 145.6) rotate(-180)"/>
  <rect class="cls-3" x="76" y="76" width="6.4" height="3.2" transform="translate(158.4 155.2) rotate(-180)"/>
  <rect class="cls-3" x="69.6" y="79.2" width="6.4" height="3.2" transform="translate(145.6 161.6) rotate(-180)"/>
  <rect class="cls-3" x="79.2" y="63.2" width="3.2" height="6.4" transform="translate(161.6 132.8) rotate(-180)"/>
  <rect class="cls-3" x="79.2" y="37.65" width="3.2" height="6.4" transform="translate(161.6 81.7) rotate(-180)"/>
  <rect class="cls-3" x="82.36" y="44.04" width="3.2" height="12.8" transform="translate(167.92 100.89) rotate(-180)"/>
  <rect class="cls-3" x="56.8" y="88.8" width="6.4" height="3.2"/>
  <polygon class="cls-3" points="50.4 82.4 50.4 85.6 53.6 85.6 53.6 88.8 56.8 88.8 56.8 85.6 63.2 85.6 63.2 88.8 66.4 88.8 66.4 85.6 69.6 85.6 69.6 82.4 50.4 82.4"/>
  <rect class="cls-3" x="47.2" y="28" width="25.6" height="3.2"/>
  <rect class="cls-4" x="76" y="66.4" width="3.2" height="3.2" transform="translate(155.2 136) rotate(-180)"/>
  <rect class="cls-4" x="69.6" y="50.4" width="3.2" height="3.2" transform="translate(142.4 104) rotate(-180)"/>
  <rect class="cls-4" x="79.2" y="44" width="3.2" height="12.8" transform="translate(161.6 100.8) rotate(-180)"/>
  <rect class="cls-4" x="72.8" y="34.4" width="3.2" height="3.2" transform="translate(148.8 72) rotate(-180)"/>
  <rect class="cls-4" x="44" y="44" width="6.4" height="3.2" transform="translate(94.4 91.19) rotate(-180)"/>
  <rect class="cls-4" x="60" y="40.8" width="3.2" height="3.2" transform="translate(123.2 84.8) rotate(-180)"/>
  <rect class="cls-4" x="53.6" y="47.24" width="3.2" height="3.2" transform="translate(110.4 97.69) rotate(-180)"/>
  <rect class="cls-4" x="76" y="37.6" width="3.2" height="6.4" transform="translate(155.2 81.6) rotate(-180)"/>
  <rect class="cls-4" x="56.8" y="50.4" width="3.2" height="3.2" transform="translate(116.8 104) rotate(-180)"/>
  <rect class="cls-4" x="60" y="47.24" width="9.6" height="3.2" transform="translate(129.6 97.69) rotate(-180)"/>
  <rect class="cls-4" x="47.2" y="31.2" width="25.6" height="3.2" transform="translate(120 65.6) rotate(-180)"/>
  <rect class="cls-4" x="50.4" y="37.6" width="9.6" height="3.2" transform="translate(110.4 78.4) rotate(-180)"/>
  <rect class="cls-4" x="72.8" y="53.6" width="6.4" height="3.2" transform="translate(152 110.4) rotate(-180)"/>
  <rect class="cls-4" x="79.2" y="69.6" width="3.2" height="6.4" transform="translate(161.6 145.6) rotate(-180)"/>
  <rect class="cls-4" x="66.4" y="40.79" width="3.2" height="3.2" transform="translate(136 84.78) rotate(-180)"/>
  <rect class="cls-2" x="40.8" y="66.4" width="3.2" height="3.2"/>
  <rect class="cls-2" x="40.8" y="53.6" width="3.2" height="3.2"/>
  <rect class="cls-1" x="37.6" y="44.02" width="3.2" height="12.78"/>
  <rect class="cls-1" x="40.8" y="37.64" width="3.2" height="6.37"/>
  <rect class="cls-1" x="44" y="34.42" width="3.2" height="3.2"/>
  <rect class="cls-2" x="37.6" y="69.6" width="3.2" height="6.4"/>
  <rect class="cls-3" x="53.42" y="72.8" width="13.17" height="3.2"/>
  <rect class="cls-8" x="56.8" y="85.6" width="6.4" height="3.2"/>
  <g>
    <rect class="cls-6" x="44" y="60" width="32" height="3.2"/>
    <rect class="cls-8" x="44" y="56.8" width="32" height="3.2"/>
    <rect class="cls-8" x="44" y="63.2" width="32" height="3.2"/>
    <rect class="cls-7" x="40.8" y="56.8" width="3.2" height="3.2"/>
    <rect class="cls-7" x="37.6" y="60.03" width="3.2" height="3.2"/>
    <rect class="cls-7" x="40.8" y="63.2" width="3.2" height="3.2"/>
    <rect class="cls-7" x="76" y="56.8" width="3.2" height="3.2" transform="translate(155.2 116.8) rotate(-180)"/>
    <rect class="cls-7" x="79.2" y="60" width="3.2" height="3.2" transform="translate(161.6 123.2) rotate(-180)"/>
    <rect class="cls-3" x="82.36" y="60" width="3.2" height="3.2" transform="translate(167.92 123.2) rotate(-180)"/>
    <rect class="cls-3" x="34.4" y="60" width="3.2" height="3.2" transform="translate(72 123.2) rotate(-180)"/>
    <rect class="cls-8" x="76" y="60" width="3.2" height="3.2" transform="translate(155.2 123.2) rotate(-180)"/>
    <rect class="cls-8" x="40.8" y="60" width="3.2" height="3.2" transform="translate(84.8 123.2) rotate(-180)"/>
    <rect class="cls-7" x="76" y="63.2" width="3.2" height="3.2" transform="translate(155.2 129.6) rotate(-180)"/>
  </g>
</svg>