<?xml version="1.0" encoding="UTF-8"?>
<svg id="Layer_43" data-name="Layer 43" xmlns="http://www.w3.org/2000/svg" viewBox="0 0 102.4 105.6">
  <defs>
    <style>
      .cls-1, .cls-2, .cls-3, .cls-4, .cls-5, .cls-6 {
        stroke-width: 0px;
      }

      .cls-2 {
        fill: #231f20;
      }

      .cls-2, .cls-3 {
        opacity: .3;
      }

      .cls-3 {
        fill: #fff;
      }

      .cls-4 {
        fill: #55bd05;
      }

      .cls-5 {
        fill: #ffbd05;
      }

      .cls-6 {
        fill: #ff5405;
      }
    </style>
  </defs>
  <polygon class="cls-4" points="81.6 73.6 81.6 73.6 78.4 80 72 83.2 68.8 83.2 68.8 80 65.6 80 65.6 70.4 62.4 70.4 59.2 64 59.2 60.8 62.4 60.8 68.8 64 78.4 67.2 78.4 70.4 81.6 70.4 81.6 73.6"/>
  <polygon class="cls-1" points="78.4 83.2 81.6 83.2 81.6 73.6 78.4 73.6 78.4 80 72 80 72 83.2 78.4 83.2"/>
  <polygon class="cls-4" points="20.8 73.6 20.8 73.6 24 80 30.4 83.2 33.6 83.2 33.6 80 36.8 80 36.8 70.4 40 70.4 43.2 64 43.2 60.8 40 60.8 33.6 64 24 67.2 24 70.4 20.8 70.4 20.8 73.6"/>
  <polygon class="cls-1" points="24 83.2 20.8 83.2 20.8 73.6 24 73.6 24 80 30.4 80 30.4 83.2 24 83.2"/>
  <polygon class="cls-4" points="81.6 32 81.6 32 78.4 25.6 72 22.4 68.8 22.4 68.8 25.6 65.6 25.6 65.6 35.2 62.4 35.2 59.2 41.6 59.2 44.8 62.4 44.8 68.8 41.6 78.4 38.4 78.4 35.2 81.6 35.2 81.6 32"/>
  <polygon class="cls-1" points="78.4 22.4 81.6 22.4 81.6 32 78.4 32 78.4 25.6 72 25.6 72 22.4 78.4 22.4"/>
  <polygon class="cls-4" points="20.8 32 20.8 32 24 25.6 30.4 22.4 33.6 22.4 33.6 25.6 36.8 25.6 36.8 35.2 40 35.2 43.2 41.6 43.2 44.8 40 44.8 33.6 41.6 24 38.4 24 35.2 20.8 35.2 20.8 32"/>
  <polygon class="cls-4" points="43.2 44.8 43.2 51.2 46.4 51.2 46.4 54.4 43.2 54.4 43.2 60.8 59.2 60.8 59.2 44.8 43.2 44.8"/>
  <g>
    <polygon class="cls-5" points="49.6 60.8 49.6 64 43.2 64 43.2 70.4 40 70.4 40 80 36.8 80 36.8 83.2 33.6 83.2 33.6 89.6 40 89.6 40 92.8 62.4 92.8 62.4 89.6 68.8 89.6 68.8 83.2 65.6 80 62.4 80 62.4 70.4 59.2 70.4 59.2 64 52.8 64 52.8 60.8 49.6 60.8"/>
    <rect class="cls-1" x="36.8" y="70.4" width="3.2" height="9.6"/>
    <rect class="cls-1" x="33.6" y="89.6" width="6.4" height="3.2"/>
    <rect class="cls-1" x="40" y="92.8" width="6.4" height="3.2"/>
    <rect class="cls-1" x="33.6" y="80" width="3.2" height="3.2"/>
    <rect class="cls-1" x="43.2" y="60.8" width="6.4" height="3.2"/>
    <rect class="cls-1" x="40" y="64" width="3.2" height="6.4"/>
    <rect class="cls-1" x="68.8" y="83.2" width="3.2" height="6.4" transform="translate(140.8 172.8) rotate(-180)"/>
    <rect class="cls-1" x="30.4" y="83.2" width="3.2" height="6.4" transform="translate(64 172.8) rotate(-180)"/>
    <rect class="cls-1" x="62.4" y="70.4" width="3.2" height="9.6" transform="translate(128 150.4) rotate(-180)"/>
    <rect class="cls-1" x="62.4" y="89.6" width="6.4" height="3.2" transform="translate(131.2 182.4) rotate(-180)"/>
    <rect class="cls-1" x="56" y="92.8" width="6.4" height="3.2" transform="translate(118.4 188.8) rotate(-180)"/>
    <rect class="cls-1" x="65.6" y="80" width="3.2" height="3.2" transform="translate(134.4 163.2) rotate(-180)"/>
    <rect class="cls-1" x="59.2" y="64" width="3.2" height="6.4" transform="translate(121.6 134.4) rotate(-180)"/>
    <rect class="cls-2" x="65.6" y="83.2" width="3.2" height="6.4" transform="translate(134.4 172.8) rotate(-180)"/>
    <rect class="cls-2" x="56" y="89.6" width="6.4" height="3.2" transform="translate(118.4 182.4) rotate(-180)"/>
    <rect class="cls-2" x="59.2" y="70.4" width="3.2" height="9.6" transform="translate(121.6 150.4) rotate(-180)"/>
    <rect class="cls-2" x="62.4" y="80" width="3.2" height="3.2" transform="translate(128 163.2) rotate(-180)"/>
    <rect class="cls-2" x="49.6" y="60.8" width="3.2" height="3.2" transform="translate(102.4 124.8) rotate(-180)"/>
    <rect class="cls-2" x="56" y="64" width="3.2" height="6.4" transform="translate(115.2 134.4) rotate(-180)"/>
    <rect class="cls-3" x="33.6" y="83.2" width="3.2" height="6.4"/>
    <rect class="cls-3" x="40" y="89.6" width="6.4" height="3.2"/>
    <rect class="cls-3" x="40" y="70.4" width="3.2" height="9.6"/>
    <rect class="cls-3" x="36.8" y="80" width="3.2" height="3.2"/>
    <rect class="cls-3" x="43.2" y="64" width="3.2" height="6.4"/>
    <rect class="cls-1" x="52.8" y="60.8" width="6.4" height="3.2" transform="translate(112 124.8) rotate(-180)"/>
    <rect class="cls-1" x="46.4" y="96" width="9.6" height="3.2"/>
    <rect class="cls-1" x="49.6" y="57.6" width="3.2" height="3.2"/>
    <rect class="cls-1" x="46.4" y="73.6" width="3.2" height="6.4"/>
    <rect class="cls-1" x="52.8" y="73.6" width="3.2" height="6.4"/>
    <rect class="cls-1" x="46.4" y="83.2" width="9.6" height="3.2"/>
    <rect class="cls-6" x="46.4" y="92.8" width="9.6" height="3.2"/>
  </g>
  <g>
    <polygon class="cls-5" points="59.2 54.4 62.4 54.4 62.4 60.8 68.8 60.8 68.8 64 78.4 64 78.4 67.2 81.6 67.2 81.6 70.4 88 70.4 88 64 91.2 64 91.2 41.6 88 41.6 88 35.2 81.6 35.2 78.4 38.4 78.4 41.6 68.8 41.6 68.8 44.8 62.4 44.8 62.4 51.2 59.2 51.2 59.2 54.4"/>
    <rect class="cls-1" x="72" y="60.8" width="3.2" height="9.6" transform="translate(8 139.2) rotate(-90)"/>
    <rect class="cls-1" x="86.4" y="65.6" width="6.4" height="3.2" transform="translate(22.4 156.8) rotate(-90)"/>
    <rect class="cls-1" x="89.6" y="59.2" width="6.4" height="3.2" transform="translate(32 153.6) rotate(-90)"/>
    <rect class="cls-1" x="78.4" y="67.2" width="3.2" height="3.2" transform="translate(11.2 148.8) rotate(-90)"/>
    <rect class="cls-1" x="57.6" y="56" width="6.4" height="3.2" transform="translate(3.2 118.4) rotate(-90)"/>
    <rect class="cls-1" x="64" y="59.2" width="3.2" height="6.4" transform="translate(3.2 128) rotate(-90)"/>
    <rect class="cls-1" x="83.2" y="30.4" width="3.2" height="6.4" transform="translate(118.4 -51.2) rotate(90)"/>
    <rect class="cls-1" x="83.2" y="68.8" width="3.2" height="6.4" transform="translate(156.8 -12.8) rotate(90)"/>
    <rect class="cls-1" x="72" y="35.2" width="3.2" height="9.6" transform="translate(113.6 -33.6) rotate(90)"/>
    <rect class="cls-1" x="86.4" y="36.8" width="6.4" height="3.2" transform="translate(128 -51.2) rotate(90)"/>
    <rect class="cls-1" x="89.6" y="43.2" width="6.4" height="3.2" transform="translate(137.6 -48) rotate(90)"/>
    <rect class="cls-1" x="78.4" y="35.2" width="3.2" height="3.2" transform="translate(116.8 -43.2) rotate(90)"/>
    <rect class="cls-1" x="64" y="40" width="3.2" height="6.4" transform="translate(108.8 -22.4) rotate(90)"/>
    <rect class="cls-2" x="83.2" y="33.6" width="3.2" height="6.4" transform="translate(121.6 -48) rotate(90)"/>
    <rect class="cls-2" x="86.4" y="43.2" width="6.4" height="3.2" transform="translate(134.4 -44.8) rotate(90)"/>
    <rect class="cls-2" x="72" y="38.4" width="3.2" height="9.6" transform="translate(116.8 -30.4) rotate(90)"/>
    <rect class="cls-2" x="78.4" y="38.4" width="3.2" height="3.2" transform="translate(120 -40) rotate(90)"/>
    <rect class="cls-2" x="59.2" y="51.2" width="3.2" height="3.2" transform="translate(113.6 -8) rotate(90)"/>
    <rect class="cls-2" x="64" y="43.2" width="3.2" height="6.4" transform="translate(112 -19.2) rotate(90)"/>
    <rect class="cls-3" x="83.2" y="65.6" width="3.2" height="6.4" transform="translate(16 153.6) rotate(-90)"/>
    <rect class="cls-3" x="86.4" y="59.2" width="6.4" height="3.2" transform="translate(28.8 150.4) rotate(-90)"/>
    <rect class="cls-3" x="72" y="57.6" width="3.2" height="9.6" transform="translate(11.2 136) rotate(-90)"/>
    <rect class="cls-3" x="78.4" y="64" width="3.2" height="3.2" transform="translate(14.4 145.6) rotate(-90)"/>
    <rect class="cls-3" x="64" y="56" width="3.2" height="6.4" transform="translate(6.4 124.8) rotate(-90)"/>
    <rect class="cls-1" x="57.6" y="46.4" width="6.4" height="3.2" transform="translate(108.8 -12.8) rotate(90)"/>
    <rect class="cls-1" x="91.2" y="51.2" width="9.6" height="3.2" transform="translate(43.2 148.8) rotate(-90)"/>
    <rect class="cls-1" x="56" y="51.2" width="3.2" height="3.2" transform="translate(4.8 110.4) rotate(-90)"/>
    <rect class="cls-1" x="73.6" y="52.8" width="3.2" height="6.4" transform="translate(19.2 131.2) rotate(-90)"/>
    <rect class="cls-1" x="73.6" y="46.4" width="3.2" height="6.4" transform="translate(25.6 124.8) rotate(-90)"/>
    <rect class="cls-1" x="78.4" y="51.2" width="9.6" height="3.2" transform="translate(30.4 136) rotate(-90)"/>
    <rect class="cls-6" x="88" y="51.2" width="9.6" height="3.2" transform="translate(40 145.6) rotate(-90)"/>
  </g>
  <g>
    <polygon class="cls-5" points="52.8 44.8 52.8 41.6 59.2 41.6 59.2 35.2 62.4 35.2 62.4 25.6 65.6 25.6 65.6 22.4 68.8 22.4 68.8 16 62.4 16 62.4 12.8 40 12.8 40 16 33.6 16 33.6 22.4 36.8 25.6 40 25.6 40 35.2 43.2 35.2 43.2 41.6 49.6 41.6 49.6 44.8 52.8 44.8"/>
    <rect class="cls-1" x="62.4" y="25.6" width="3.2" height="9.6" transform="translate(128 60.8) rotate(-180)"/>
    <rect class="cls-1" x="62.4" y="12.8" width="6.4" height="3.2" transform="translate(131.2 28.8) rotate(-180)"/>
    <rect class="cls-1" x="56" y="9.6" width="6.4" height="3.2" transform="translate(118.4 22.4) rotate(-180)"/>
    <rect class="cls-1" x="65.6" y="22.4" width="3.2" height="3.2" transform="translate(134.4 48) rotate(-180)"/>
    <rect class="cls-1" x="52.8" y="41.6" width="6.4" height="3.2" transform="translate(112 86.4) rotate(-180)"/>
    <rect class="cls-1" x="59.2" y="35.2" width="3.2" height="6.4" transform="translate(121.6 76.8) rotate(-180)"/>
    <rect class="cls-1" x="30.4" y="16" width="3.2" height="6.4"/>
    <rect class="cls-1" x="68.8" y="16" width="3.2" height="6.4"/>
    <rect class="cls-1" x="36.8" y="25.6" width="3.2" height="9.6"/>
    <rect class="cls-1" x="33.6" y="12.8" width="6.4" height="3.2"/>
    <rect class="cls-1" x="40" y="9.6" width="6.4" height="3.2"/>
    <rect class="cls-1" x="33.6" y="22.4" width="3.2" height="3.2"/>
    <rect class="cls-1" x="40" y="35.2" width="3.2" height="6.4"/>
    <rect class="cls-2" x="33.6" y="16" width="3.2" height="6.4"/>
    <rect class="cls-2" x="40" y="12.8" width="6.4" height="3.2"/>
    <rect class="cls-2" x="40" y="25.6" width="3.2" height="9.6"/>
    <rect class="cls-2" x="36.8" y="22.4" width="3.2" height="3.2"/>
    <rect class="cls-2" x="49.6" y="41.6" width="3.2" height="3.2"/>
    <rect class="cls-2" x="43.2" y="35.2" width="3.2" height="6.4"/>
    <rect class="cls-3" x="65.6" y="16" width="3.2" height="6.4" transform="translate(134.4 38.4) rotate(-180)"/>
    <rect class="cls-3" x="56" y="12.8" width="6.4" height="3.2" transform="translate(118.4 28.8) rotate(-180)"/>
    <rect class="cls-3" x="59.2" y="25.6" width="3.2" height="9.6" transform="translate(121.6 60.8) rotate(-180)"/>
    <rect class="cls-3" x="62.4" y="22.4" width="3.2" height="3.2" transform="translate(128 48) rotate(-180)"/>
    <rect class="cls-3" x="56" y="35.2" width="3.2" height="6.4" transform="translate(115.2 76.8) rotate(-180)"/>
    <rect class="cls-1" x="43.2" y="41.6" width="6.4" height="3.2"/>
    <rect class="cls-1" x="46.4" y="6.4" width="9.6" height="3.2" transform="translate(102.4 16) rotate(-180)"/>
    <rect class="cls-1" x="49.6" y="44.8" width="3.2" height="3.2" transform="translate(102.4 92.8) rotate(-180)"/>
    <rect class="cls-1" x="52.8" y="25.6" width="3.2" height="6.4" transform="translate(108.8 57.6) rotate(-180)"/>
    <rect class="cls-1" x="46.4" y="25.6" width="3.2" height="6.4" transform="translate(96 57.6) rotate(-180)"/>
    <rect class="cls-1" x="46.4" y="19.2" width="9.6" height="3.2" transform="translate(102.4 41.6) rotate(-180)"/>
    <rect class="cls-6" x="46.4" y="9.6" width="9.6" height="3.2" transform="translate(102.4 22.4) rotate(-180)"/>
  </g>
  <g>
    <polygon class="cls-5" points="43.2 51.2 40 51.2 40 44.8 33.6 44.8 33.6 41.6 24 41.6 24 38.4 20.8 38.4 20.8 35.2 14.4 35.2 14.4 41.6 11.2 41.6 11.2 64 14.4 64 14.4 70.4 20.8 70.4 24 67.2 24 64 33.6 64 33.6 60.8 40 60.8 40 54.4 43.2 54.4 43.2 51.2"/>
    <rect class="cls-1" x="27.2" y="35.2" width="3.2" height="9.6" transform="translate(68.8 11.2) rotate(90)"/>
    <rect class="cls-1" x="9.6" y="36.8" width="6.4" height="3.2" transform="translate(51.2 25.6) rotate(90)"/>
    <rect class="cls-1" x="6.4" y="43.2" width="6.4" height="3.2" transform="translate(54.4 35.2) rotate(90)"/>
    <rect class="cls-1" x="20.8" y="35.2" width="3.2" height="3.2" transform="translate(59.2 14.4) rotate(90)"/>
    <rect class="cls-1" x="38.4" y="46.4" width="6.4" height="3.2" transform="translate(89.6 6.4) rotate(90)"/>
    <rect class="cls-1" x="35.2" y="40" width="3.2" height="6.4" transform="translate(80 6.4) rotate(90)"/>
    <rect class="cls-1" x="16" y="68.8" width="3.2" height="6.4" transform="translate(-54.4 89.6) rotate(-90)"/>
    <rect class="cls-1" x="16" y="30.4" width="3.2" height="6.4" transform="translate(-16 51.2) rotate(-90)"/>
    <rect class="cls-1" x="27.2" y="60.8" width="3.2" height="9.6" transform="translate(-36.8 94.4) rotate(-90)"/>
    <rect class="cls-1" x="9.6" y="65.6" width="6.4" height="3.2" transform="translate(-54.4 80) rotate(-90)"/>
    <rect class="cls-1" x="6.4" y="59.2" width="6.4" height="3.2" transform="translate(-51.2 70.4) rotate(-90)"/>
    <rect class="cls-1" x="20.8" y="67.2" width="3.2" height="3.2" transform="translate(-46.4 91.2) rotate(-90)"/>
    <rect class="cls-1" x="35.2" y="59.2" width="3.2" height="6.4" transform="translate(-25.6 99.2) rotate(-90)"/>
    <rect class="cls-2" x="16" y="65.6" width="3.2" height="6.4" transform="translate(-51.2 86.4) rotate(-90)"/>
    <rect class="cls-2" x="9.6" y="59.2" width="6.4" height="3.2" transform="translate(-48 73.6) rotate(-90)"/>
    <rect class="cls-2" x="27.2" y="57.6" width="3.2" height="9.6" transform="translate(-33.6 91.2) rotate(-90)"/>
    <rect class="cls-2" x="20.8" y="64" width="3.2" height="3.2" transform="translate(-43.2 88) rotate(-90)"/>
    <rect class="cls-2" x="40" y="51.2" width="3.2" height="3.2" transform="translate(-11.2 94.4) rotate(-90)"/>
    <rect class="cls-2" x="35.2" y="56" width="3.2" height="6.4" transform="translate(-22.4 96) rotate(-90)"/>
    <rect class="cls-3" x="16" y="33.6" width="3.2" height="6.4" transform="translate(54.4 19.2) rotate(90)"/>
    <rect class="cls-3" x="9.6" y="43.2" width="6.4" height="3.2" transform="translate(57.6 32) rotate(90)"/>
    <rect class="cls-3" x="27.2" y="38.4" width="3.2" height="9.6" transform="translate(72 14.4) rotate(90)"/>
    <rect class="cls-3" x="20.8" y="38.4" width="3.2" height="3.2" transform="translate(62.4 17.6) rotate(90)"/>
    <rect class="cls-3" x="35.2" y="43.2" width="3.2" height="6.4" transform="translate(83.2 9.6) rotate(90)"/>
    <rect class="cls-1" x="38.4" y="56" width="6.4" height="3.2" transform="translate(-16 99.2) rotate(-90)"/>
    <rect class="cls-1" x="1.6" y="51.2" width="9.6" height="3.2" transform="translate(59.2 46.4) rotate(90)"/>
    <rect class="cls-1" x="43.2" y="51.2" width="3.2" height="3.2" transform="translate(97.6 8) rotate(90)"/>
    <rect class="cls-1" x="25.6" y="46.4" width="3.2" height="6.4" transform="translate(76.8 22.4) rotate(90)"/>
    <rect class="cls-1" x="25.6" y="52.8" width="3.2" height="6.4" transform="translate(83.2 28.8) rotate(90)"/>
    <rect class="cls-1" x="14.4" y="51.2" width="9.6" height="3.2" transform="translate(72 33.6) rotate(90)"/>
    <rect class="cls-6" x="4.8" y="51.2" width="9.6" height="3.2" transform="translate(62.4 43.2) rotate(90)"/>
  </g>
  <polygon class="cls-1" points="24 22.4 20.8 22.4 20.8 32 24 32 24 25.6 30.4 25.6 30.4 22.4 24 22.4"/>
  <g>
    <rect class="cls-3" x="30.4" y="22.4" width="3.2" height="3.2"/>
    <rect class="cls-2" x="20.8" y="32" width="3.2" height="3.2"/>
    <rect class="cls-2" x="24" y="25.6" width="3.2" height="3.2"/>
    <rect class="cls-2" x="33.6" y="38.4" width="3.2" height="3.2"/>
    <rect class="cls-2" x="24" y="35.2" width="9.6" height="3.2"/>
    <rect class="cls-3" x="40" y="41.6" width="3.2" height="3.2"/>
    <rect class="cls-3" x="36.8" y="35.2" width="3.2" height="6.4"/>
    <rect class="cls-3" x="33.6" y="25.6" width="3.2" height="9.6"/>
  </g>
  <g>
    <rect class="cls-3" x="20.8" y="70.4" width="3.2" height="3.2" transform="translate(-49.6 94.4) rotate(-90)"/>
    <rect class="cls-2" x="30.4" y="80" width="3.2" height="3.2" transform="translate(-49.6 113.6) rotate(-90)"/>
    <rect class="cls-2" x="24" y="76.8" width="3.2" height="3.2" transform="translate(-52.8 104) rotate(-90)"/>
    <rect class="cls-2" x="36.8" y="67.2" width="3.2" height="3.2" transform="translate(-30.4 107.2) rotate(-90)"/>
    <rect class="cls-2" x="30.4" y="73.6" width="9.6" height="3.2" transform="translate(-40 110.4) rotate(-90)"/>
    <rect class="cls-3" x="40" y="60.8" width="3.2" height="3.2" transform="translate(-20.8 104) rotate(-90)"/>
    <rect class="cls-3" x="43.2" y="54.4" width="3.2" height="3.2" transform="translate(-11.2 100.8) rotate(-90)"/>
    <rect class="cls-3" x="46.4" y="44.8" width="3.2" height="3.2" transform="translate(1.6 94.4) rotate(-90)"/>
    <rect class="cls-3" x="56" y="48" width="3.2" height="3.2" transform="translate(8 107.2) rotate(-90)"/>
    <rect class="cls-3" x="52.8" y="57.6" width="3.2" height="3.2" transform="translate(-4.8 113.6) rotate(-90)"/>
    <rect class="cls-2" x="49.6" y="54.4" width="3.2" height="3.2" transform="translate(-4.8 107.2) rotate(-90)"/>
    <rect class="cls-2" x="46.4" y="57.6" width="3.2" height="3.2" transform="translate(-11.2 107.2) rotate(-90)"/>
    <rect class="cls-2" x="46.4" y="51.2" width="3.2" height="3.2" transform="translate(-4.8 100.8) rotate(-90)"/>
    <rect class="cls-2" x="43.2" y="48" width="3.2" height="3.2" transform="translate(-4.8 94.4) rotate(-90)"/>
    <rect class="cls-2" x="49.6" y="48" width="3.2" height="3.2" transform="translate(1.6 100.8) rotate(-90)"/>
    <rect class="cls-2" x="52.8" y="51.2" width="3.2" height="3.2" transform="translate(1.6 107.2) rotate(-90)"/>
    <rect class="cls-2" x="56" y="54.4" width="3.2" height="3.2" transform="translate(1.6 113.6) rotate(-90)"/>
    <rect class="cls-2" x="52.8" y="44.8" width="3.2" height="3.2" transform="translate(8 100.8) rotate(-90)"/>
    <rect class="cls-3" x="35.2" y="62.4" width="3.2" height="6.4" transform="translate(-28.8 102.4) rotate(-90)"/>
    <rect class="cls-3" x="27.2" y="64" width="3.2" height="9.6" transform="translate(-40 97.6) rotate(-90)"/>
  </g>
  <g>
    <rect class="cls-3" x="68.8" y="80" width="3.2" height="3.2" transform="translate(140.8 163.2) rotate(-180)"/>
    <rect class="cls-2" x="78.4" y="70.4" width="3.2" height="3.2" transform="translate(160 144) rotate(-180)"/>
    <rect class="cls-2" x="75.2" y="76.8" width="3.2" height="3.2" transform="translate(153.6 156.8) rotate(-180)"/>
    <rect class="cls-2" x="65.6" y="64" width="3.2" height="3.2" transform="translate(134.4 131.2) rotate(-180)"/>
    <rect class="cls-2" x="68.8" y="67.2" width="9.6" height="3.2" transform="translate(147.2 137.6) rotate(-180)"/>
    <rect class="cls-3" x="59.2" y="60.8" width="3.2" height="3.2" transform="translate(121.6 124.8) rotate(-180)"/>
    <rect class="cls-3" x="62.4" y="64" width="3.2" height="6.4" transform="translate(128 134.4) rotate(-180)"/>
    <rect class="cls-3" x="65.6" y="70.4" width="3.2" height="9.6" transform="translate(134.4 150.4) rotate(-180)"/>
  </g>
  <g>
    <rect class="cls-3" x="78.4" y="32" width="3.2" height="3.2" transform="translate(113.6 -46.4) rotate(90)"/>
    <rect class="cls-2" x="68.8" y="22.4" width="3.2" height="3.2" transform="translate(94.4 -46.4) rotate(90)"/>
    <rect class="cls-2" x="75.2" y="25.6" width="3.2" height="3.2" transform="translate(104 -49.6) rotate(90)"/>
    <rect class="cls-2" x="62.4" y="35.2" width="3.2" height="3.2" transform="translate(100.8 -27.2) rotate(90)"/>
    <rect class="cls-2" x="62.4" y="28.8" width="9.6" height="3.2" transform="translate(97.6 -36.8) rotate(90)"/>
    <rect class="cls-3" x="59.2" y="41.6" width="3.2" height="3.2" transform="translate(104 -17.6) rotate(90)"/>
    <rect class="cls-3" x="64" y="36.8" width="3.2" height="6.4" transform="translate(105.6 -25.6) rotate(90)"/>
    <rect class="cls-3" x="72" y="32" width="3.2" height="9.6" transform="translate(110.4 -36.8) rotate(90)"/>
  </g>
</svg>