<?xml version="1.0" encoding="UTF-8"?>
<svg id="Layer_48" data-name="Layer 48" xmlns="http://www.w3.org/2000/svg" viewBox="0 0 120 120">
  <defs>
    <style>
      .cls-1 {
        fill: #fff;
        opacity: .54;
      }

      .cls-1, .cls-2, .cls-3, .cls-4, .cls-5, .cls-6 {
        stroke-width: 0px;
      }

      .cls-3 {
        fill: #231f20;
        opacity: .3;
      }

      .cls-4 {
        fill: #d60027;
      }

      .cls-5 {
        fill: #fafafa;
      }

      .cls-6 {
        fill: #f5a100;
      }
    </style>
  </defs>
  <polygon class="cls-6" points="53.6 42.4 53.6 39.2 42.4 28 40.81 29.6 37.59 36 37.59 52 40.81 52 40.81 58.4 44 58.4 44 48.8 47.2 48.8 53.6 42.4"/>
  <polygon class="cls-4" points="50.4 42.4 47.2 42.4 47.2 39.2 44 39.2 44 36 40.81 36 40.81 52 44 52 44 48.8 47.2 48.8 47.2 45.6 50.4 45.6 50.4 42.4"/>
  <polygon class="cls-5" points="66.4 42.4 66.4 39.2 77.6 28 79.19 29.6 82.41 36 82.41 52 79.19 52 79.19 58.4 76 58.4 76 48.8 72.8 48.8 66.4 42.4"/>
  <polygon class="cls-5" points="56.8 39.2 63.2 39.2 63.2 42.4 66.4 42.4 66.4 45.6 69.6 45.6 69.6 48.8 72.8 48.8 72.8 58.4 76 58.4 76 68 79.2 68 79.2 71.2 82.4 71.2 82.4 77.6 76 77.6 76 80.8 69.6 80.8 69.6 84 50.4 84 50.4 80.8 44 80.8 44 77.6 37.6 77.6 37.6 71.2 40.8 71.2 40.8 68 44 68 44 58.4 47.2 58.4 47.2 48.8 50.4 48.8 50.4 45.6 53.6 45.6 53.6 42.4 56.8 42.4 56.8 39.2"/>
  <polygon class="cls-6" points="66.4 45.6 66.4 52 63.2 52 63.2 55.2 60 55.2 60 64.8 56.8 64.8 56.8 68 53.6 68 53.6 71.2 47.2 71.2 47.2 77.6 37.6 77.6 37.6 71.2 40.8 71.2 40.8 68 44 68 44 58.4 47.2 58.4 47.2 48.8 50.4 48.8 50.4 45.6 53.6 45.6 53.6 42.4 56.8 42.4 56.8 39.2 63.2 39.2 63.2 42.4 66.4 42.4 66.4 45.6"/>
  <rect class="cls-2" x="34.4" y="71.2" width="3.2" height="6.4"/>
  <rect class="cls-2" x="40.8" y="58.4" width="3.2" height="9.6"/>
  <rect class="cls-2" x="37.6" y="77.6" width="6.4" height="3.2"/>
  <rect class="cls-2" x="44" y="80.8" width="6.4" height="3.2"/>
  <rect class="cls-2" x="37.6" y="68" width="3.2" height="3.2"/>
  <rect class="cls-2" x="47.2" y="45.6" width="3.2" height="3.2"/>
  <rect class="cls-2" x="50.4" y="42.4" width="3.2" height="3.2"/>
  <rect class="cls-2" x="53.6" y="39.2" width="3.2" height="3.2"/>
  <rect class="cls-2" x="44" y="48.8" width="3.2" height="9.6"/>
  <rect class="cls-2" x="82.4" y="71.2" width="3.2" height="6.4" transform="translate(168 148.8) rotate(-180)"/>
  <rect class="cls-2" x="76" y="58.4" width="3.2" height="9.6" transform="translate(155.2 126.4) rotate(-180)"/>
  <rect class="cls-2" x="76" y="77.6" width="6.4" height="3.2" transform="translate(158.4 158.4) rotate(-180)"/>
  <rect class="cls-2" x="69.6" y="80.8" width="6.4" height="3.2" transform="translate(145.6 164.8) rotate(-180)"/>
  <rect class="cls-3" x="69.6" y="77.6" width="6.4" height="3.2" transform="translate(145.6 158.4) rotate(-180)"/>
  <rect class="cls-2" x="79.2" y="68" width="3.2" height="3.2" transform="translate(161.6 139.2) rotate(-180)"/>
  <rect class="cls-2" x="69.6" y="45.6" width="3.2" height="3.2" transform="translate(142.4 94.4) rotate(-180)"/>
  <rect class="cls-2" x="76" y="26.4" width="3.2" height="3.2" transform="translate(155.2 56) rotate(-180)"/>
  <rect class="cls-2" x="72.8" y="29.6" width="3.2" height="3.2" transform="translate(148.8 62.4) rotate(-180)"/>
  <rect class="cls-2" x="66.4" y="42.4" width="3.2" height="3.2" transform="translate(136 88) rotate(-180)"/>
  <rect class="cls-2" x="63.2" y="39.2" width="3.2" height="3.2" transform="translate(129.6 81.6) rotate(-180)"/>
  <rect class="cls-2" x="72.8" y="48.8" width="3.2" height="9.6" transform="translate(148.8 107.2) rotate(-180)"/>
  <rect class="cls-2" x="66.4" y="36" width="3.2" height="3.2" transform="translate(136 75.2) rotate(-180)"/>
  <rect class="cls-2" x="79.19" y="29.6" width="3.2" height="6.4" transform="translate(161.59 65.6) rotate(-180)"/>
  <rect class="cls-2" x="82.41" y="36" width="3.2" height="16" transform="translate(168.01 88) rotate(-180)"/>
  <rect class="cls-2" x="79.2" y="52" width="3.2" height="6.4" transform="translate(161.6 110.4) rotate(-180)"/>
  <rect class="cls-3" x="75.99" y="29.6" width="3.2" height="6.4" transform="translate(155.19 65.6) rotate(-180)"/>
  <rect class="cls-3" x="79.21" y="36" width="3.2" height="16" transform="translate(161.61 88) rotate(-180)"/>
  <rect class="cls-3" x="76" y="52" width="3.2" height="6.4" transform="translate(155.2 110.4) rotate(-180)"/>
  <rect class="cls-1" x="40.81" y="29.6" width="3.2" height="6.4"/>
  <rect class="cls-1" x="37.59" y="36" width="3.2" height="16"/>
  <rect class="cls-1" x="40.8" y="52" width="3.2" height="6.4"/>
  <rect class="cls-2" x="69.6" y="32.8" width="3.2" height="3.2"/>
  <rect class="cls-2" x="40.8" y="26.4" width="3.2" height="3.2"/>
  <rect class="cls-2" x="44" y="29.6" width="3.2" height="3.2"/>
  <rect class="cls-2" x="50.4" y="36" width="3.2" height="3.2"/>
  <rect class="cls-2" x="37.61" y="29.6" width="3.2" height="6.4"/>
  <rect class="cls-2" x="34.39" y="36" width="3.2" height="16"/>
  <rect class="cls-2" x="37.6" y="52" width="3.2" height="6.4"/>
  <rect class="cls-2" x="47.2" y="32.8" width="3.2" height="3.2" transform="translate(97.6 68.8) rotate(-180)"/>
  <rect class="cls-2" x="56.8" y="90.4" width="6.4" height="3.2"/>
  <polygon class="cls-2" points="50.4 84 50.4 87.2 53.6 87.2 53.6 90.4 56.8 90.4 56.8 87.2 63.2 87.2 63.2 90.4 66.4 90.4 66.4 87.2 69.6 87.2 69.6 84 50.4 84"/>
  <rect class="cls-2" x="56.8" y="36" width="6.4" height="3.2"/>
  <rect class="cls-3" x="76" y="68" width="3.2" height="3.2" transform="translate(155.2 139.2) rotate(-180)"/>
  <rect class="cls-3" x="79.2" y="71.2" width="3.2" height="6.4" transform="translate(161.6 148.8) rotate(-180)"/>
  <rect class="cls-3" x="69.6" y="48.8" width="3.2" height="9.6" transform="translate(142.4 107.2) rotate(-180)"/>
  <rect class="cls-3" x="66.4" y="45.6" width="3.2" height="3.2" transform="translate(136 94.4) rotate(-180)"/>
  <rect class="cls-3" x="63.2" y="42.4" width="3.2" height="3.2" transform="translate(129.6 88) rotate(-180)"/>
  <rect class="cls-3" x="72.8" y="58.4" width="3.2" height="9.6" transform="translate(148.8 126.4) rotate(-180)"/>
  <rect class="cls-1" x="40.8" y="68" width="3.2" height="3.2"/>
  <rect class="cls-1" x="44" y="77.6" width="6.4" height="3.2"/>
  <rect class="cls-1" x="37.6" y="71.2" width="3.2" height="6.4"/>
  <rect class="cls-1" x="47.2" y="48.8" width="3.2" height="9.6"/>
  <rect class="cls-1" x="50.4" y="45.6" width="3.2" height="3.2"/>
  <rect class="cls-1" x="53.6" y="42.4" width="3.2" height="3.2"/>
  <rect class="cls-1" x="44" y="58.4" width="3.2" height="9.6"/>
  <rect class="cls-3" x="56.8" y="39.2" width="6.4" height="3.2"/>
  <rect class="cls-2" x="50.4" y="58.4" width="4.8" height="3.2"/>
  <rect class="cls-2" x="58.4" y="71.2" width="3.2" height="3.2"/>
  <rect class="cls-2" x="47.2" y="61.6" width="3.2" height="3.2"/>
  <rect class="cls-2" x="55.2" y="61.6" width="3.2" height="3.2"/>
  <rect class="cls-2" x="64.8" y="58.4" width="4.8" height="3.2"/>
  <rect class="cls-2" x="61.6" y="61.6" width="3.2" height="3.2"/>
  <rect class="cls-2" x="69.6" y="61.6" width="3.2" height="3.2"/>
  <rect class="cls-2" x="50.4" y="71.2" width="3.2" height="3.2"/>
  <rect class="cls-2" x="53.6" y="74.4" width="4.8" height="3.2"/>
  <rect class="cls-2" x="66.4" y="71.2" width="3.2" height="3.2"/>
  <rect class="cls-2" x="61.6" y="74.4" width="4.8" height="3.2"/>
  <rect class="cls-2" x="56.8" y="68" width="6.4" height="3.2"/>
  <rect class="cls-6" x="56.8" y="87.2" width="6.4" height="3.2"/>
  <polygon class="cls-4" points="69.6 42.4 72.8 42.4 72.8 39.2 76 39.2 76 36 79.19 36 79.19 52 76 52 76 48.8 72.8 48.8 72.8 45.6 69.6 45.6 69.6 42.4"/>
  <rect class="cls-3" x="69.6" y="42.4" width="3.2" height="3.2" transform="translate(142.4 88) rotate(-180)"/>
  <rect class="cls-3" x="72.8" y="45.6" width="3.2" height="3.2" transform="translate(148.79 94.4) rotate(-180)"/>
  <rect class="cls-3" x="47.2" y="42.4" width="3.2" height="3.2"/>
  <rect class="cls-3" x="44" y="45.6" width="3.2" height="3.2"/>
</svg>