<?xml version="1.0" encoding="UTF-8"?>
<svg id="Layer_50" data-name="Layer 50" xmlns="http://www.w3.org/2000/svg" viewBox="0 0 120 120">
  <defs>
    <style>
      .cls-1 {
        stroke-width: 0px;
      }
    </style>
  </defs>
  <path class="cls-1" d="m86.1,65.9h-3.2v-3.2h-3.2v-9.6h-3.2v-9.6h-3.2v-3.2h-3.2v-3.2h-3.2v-3.2h-3.2v-3.2h-7.4v3.2h-3.2v3.2h-3.2v3.2h-3.2v3.2h-3.2v9.6h-3.2v9.6h-3.2v3.2h-3.2v7.4h3.2v3.2h6.4v3.2h6.4v3.2h3.2v3.2h3.2v3.2h7.4v-3.2h3.2v-3.2h3.2v-3.2h6.4v-3.2h6.4v-3.2h3.2v-7.4Zm-4.2-2.2v2.2h-2.2v-2.2h2.2Zm-11.8,9.6h5.4v2.2h-5.4v-2.2Zm0-1v-2.2h5.4v2.2h-5.4Zm-25.6-18.2h2.2v2.2h-2.2v-2.2Zm3.2,0h2.2v2.2h-2.2v-2.2Zm0-9.6h2.2v2.2h-2.2v-2.2Zm3.2,0h2.2v2.2h-2.2v-2.2Zm11.8-6.4v2.2h-5.4v-2.2h5.4Zm-5.4-1v-2.2h5.4v2.2h-5.4Zm15,16h-2.2v-2.2h2.2v2.2Zm1,1h2.2v2.2h-2.2v-2.2Zm-1,2.2h-2.2v-2.2h2.2v2.2Zm3.2,6.4h-2.2v-2.2h2.2v2.2Zm-12.8,9.6h-5.4v-2.2h3.2v-3.2h3.2v-3.2h2.2v5.4h-3.2v3.2Zm-15-8.6h2.2v5.4h-5.4v-2.2h3.2v-3.2Zm3.2,0h2.2v5.4h-2.2v-5.4Zm0-6.4h2.2v2.2h-2.2v-2.2Zm3.2-9.6h2.2v2.2h-2.2v-2.2Zm8.6-3.2v2.2h-5.4v-2.2h5.4Zm-5.4-1v-2.2h5.4v2.2h-5.4Zm9.6,1.02h2.2v2.2h-2.2v-2.2Zm2.2,14.98h-2.2v-2.2h2.2v2.2Zm-9.6,3.2v3.2h-3.2v3.2h-2.2v-5.4h3.2v-3.2h5.4v2.2h-3.2Zm3.2,1v2.2h-2.2v-2.2h2.2Zm-3.2,3.2v2.2h-2.2v-2.2h2.2Zm-5.4-6.4h2.2v2.2h-2.2v-2.2Zm3.2-9.6h5.4v2.2h-5.4v-2.2Zm0-1v-2.2h5.4v2.2h-5.4Zm5.4,4.2v2.2h-5.4v-2.2h5.4Zm0,3.2v2.2h-5.4v-2.2h5.4Zm1,0h2.2v2.2h-2.2v-2.2Zm-7.4,2.2h-2.2v-2.2h2.2v2.2Zm7.4,1h2.2v2.2h-2.2v-2.2Zm3.2,0h2.2v2.2h-2.2v-2.2Zm0-4.2v-2.2h2.2v2.2h-2.2Zm-1,0h-2.2v-2.2h2.2v2.2Zm-2.2-3.2v-2.2h2.2v2.2h-2.2Zm0-3.2v-2.2h2.2v2.2h-2.2Zm0-3.2v-2.2h2.2v2.2h-2.2Zm-7.4,0h-2.2v-2.2h2.2v2.2Zm0,4.2v2.2h-2.2v-2.2h2.2Zm0,3.2v2.2h-2.2v-2.2h2.2Zm-3.2,2.2h-2.2v-2.2h2.2v2.2Zm0,4.2v2.2h-2.2v-2.2h2.2Zm0,9.6v2.2h-2.2v-2.2h2.2Zm1,0h2.2v2.2h-2.2v-2.2Zm12.8-6.4h2.2v5.4h-2.2v-5.4Zm3.2,0h2.2v3.2h3.2v2.2h-5.4v-5.4Zm6.4,3.2h2.2v2.2h-2.2v-2.2Zm0-1v-2.2h2.2v2.2h-2.2Zm-1,0h-2.2v-2.2h2.2v2.2Zm-3.2-3.2h-2.2v-2.2h2.2v2.2Zm-2.2-3.2v-2.2h2.2v2.2h-2.2Zm-1-6.4h-2.2v-2.2h2.2v2.2Zm-2.2-3.2v-2.18h2.2v2.18h-2.2Zm3.2-5.4h2.2v2.2h-2.2v-2.2Zm-1-.98h-2.2v-2.22h2.2v2.22Zm-3.2-.02h-2.2v-2.2h2.2v2.2Zm-2.2-3.2v-2.2h2.2v2.2h-2.2Zm-7.4,0h-2.2v-2.2h2.2v2.2Zm0,1v2.2h-2.2v-2.2h2.2Zm-3.2,2.2h-2.2v-2.2h2.2v2.2Zm0,4.2v2.2h-2.2v-2.2h2.2Zm0,3.2v2.2h-2.2v-2.2h2.2Zm-3.2,2.2h-2.2v-2.2h2.2v2.2Zm0,4.2v2.2h-2.2v-2.2h2.2Zm0,3.2v2.2h-2.2v-2.2h2.2Zm-3.2,2.2h-2.2v-2.2h2.2v2.2Zm0,1v2.2h-2.2v-2.2h2.2Zm-3.2,2.2h-2.2v-2.2h2.2v2.2Zm0,1v2.2h-2.2v-2.2h2.2Zm0,3.2v2.2h-5.4v-5.4h2.2v3.2h3.2Zm1,0h5.4v2.2h-5.4v-2.2Zm6.4,6.4h2.2v2.2h-2.2v-2.2Zm0-1v-2.2h2.2v2.2h-2.2Zm3.2-2.2h2.2v2.18h-2.2v-2.18Zm3.2,3.2h5.4v2.2h-5.4v-2.2Zm0-1v-2.2h5.4v2.2h-5.4Zm6.4-2.2h2.2v2.18h-2.2v-2.18Zm0-1v-2.2h2.2v2.2h-2.2Zm3.2-2.2h2.2v2.2h-2.2v-2.2Zm9.6,0h3.2v-3.2h2.2v5.4h-5.4v-2.2Zm2.2-16v8.6h-2.2v-3.2h-3.2v-2.2h3.2v-3.2h2.2Zm-3.2-9.6v8.6h-2.2v-3.2h-3.2v-2.2h3.2v-3.2h2.2Zm-3.2-3.2v2.2h-2.2v-2.2h2.2Zm-3.2-3.2v2.2h-2.2v-2.2h2.2Zm-3.2-3.2v2.2h-2.2v-2.2h2.2Zm-8.6-3.2h5.4v2.2h-5.4v-2.2Zm-3.2,3.2h2.2v2.2h-2.2v-2.2Zm-3.2,3.2h2.2v2.2h-2.2v-2.2Zm-3.2,3.2h2.2v2.2h-2.2v-2.2Zm-3.2,3.2h2.2v3.2h3.2v2.2h-3.2v3.2h-2.2v-8.6Zm-3.2,9.6h2.2v3.2h3.2v2.2h-3.2v3.2h-2.2v-8.6Zm-3.2,9.6h2.2v2.2h-2.2v-2.2Zm-3.2,8.6v-5.4h2.2v5.4h-2.2Zm3.2,3.2v-2.2h5.4v2.2h-5.4Zm11.8,3.2h-5.4v-2.2h5.4v2.2Zm-5.4-3.2v-2.2h5.4v2.2h-5.4Zm18.2,12.8h-5.4v-2.2h5.4v2.2Zm0-3.2h-5.4v-2.2h5.4v2.2Zm6.4-3.2h-3.2v3.2h-2.2v-3.2h-7.4v3.2h-2.2v-3.2h-3.2v-2.2h3.2v-3.22h2.2v3.22h7.4v-3.22h2.2v3.22h3.2v2.2Zm0-3.2h-2.2v-2.2h2.2v2.2Zm0-3.2h-2.2v-2.2h2.2v2.2Zm6.4,3.2h-5.4v-2.2h5.4v2.2Zm6.4-3.2h-5.4v-2.2h5.4v2.2Zm3.2-3.2h-2.2v-5.4h2.2v5.4Z"/>
</svg>