<?xml version="1.0" encoding="UTF-8"?>
<svg id="Layer_52" data-name="Layer 52" xmlns="http://www.w3.org/2000/svg" viewBox="0 0 120 120">
  <defs>
    <style>
      .cls-1 {
        fill: #fff;
        opacity: .54;
      }

      .cls-1, .cls-2, .cls-3, .cls-4, .cls-5 {
        stroke-width: 0px;
      }

      .cls-3 {
        fill: #231f20;
        opacity: .3;
      }

      .cls-4 {
        fill: #9f9e92;
      }

      .cls-5 {
        fill: #ffbd05;
      }
    </style>
  </defs>
  <g>
    <polygon class="cls-4" points="56.8 28.78 63.2 28.78 63.2 31.98 66.4 31.98 66.4 35.18 69.6 35.18 69.6 38.38 72.8 38.38 72.8 47.98 76 47.98 76 57.58 79.2 57.58 40.8 57.58 44 57.58 44 47.98 47.2 47.98 47.2 38.38 50.4 38.38 50.4 35.18 53.6 35.18 53.6 31.98 56.8 31.98 56.8 28.78"/>
    <rect class="cls-2" x="47.2" y="35.18" width="3.2" height="3.2"/>
    <rect class="cls-2" x="50.4" y="31.98" width="3.2" height="3.2"/>
    <rect class="cls-2" x="53.6" y="28.78" width="3.2" height="3.2"/>
    <rect class="cls-2" x="44" y="38.38" width="3.2" height="9.6"/>
    <rect class="cls-2" x="69.6" y="35.18" width="3.2" height="3.2" transform="translate(142.4 73.56) rotate(-180)"/>
    <rect class="cls-2" x="66.4" y="31.98" width="3.2" height="3.2" transform="translate(136 67.16) rotate(-180)"/>
    <rect class="cls-2" x="63.2" y="28.78" width="3.2" height="3.2" transform="translate(129.6 60.76) rotate(-180)"/>
    <rect class="cls-2" x="72.8" y="38.38" width="3.2" height="9.6" transform="translate(148.8 86.36) rotate(-180)"/>
    <rect class="cls-2" x="56.8" y="25.58" width="6.4" height="3.2"/>
    <line class="cls-3" x1="79.2" y1="57.58" x2="76" y2="57.58"/>
    <rect class="cls-3" x="69.6" y="38.38" width="3.2" height="9.6" transform="translate(142.4 86.36) rotate(-180)"/>
    <rect class="cls-3" x="66.4" y="35.18" width="3.2" height="3.2" transform="translate(136 73.56) rotate(-180)"/>
    <rect class="cls-3" x="63.2" y="31.98" width="3.2" height="3.2" transform="translate(129.6 67.16) rotate(-180)"/>
    <rect class="cls-3" x="72.8" y="47.98" width="3.2" height="9.6" transform="translate(148.8 105.56) rotate(-180)"/>
    <rect class="cls-1" x="47.2" y="38.38" width="3.2" height="9.6"/>
    <rect class="cls-1" x="50.4" y="35.18" width="3.2" height="3.2"/>
    <rect class="cls-1" x="53.6" y="31.98" width="3.2" height="3.2"/>
    <rect class="cls-1" x="44" y="47.98" width="3.2" height="9.6"/>
    <rect class="cls-3" x="56.8" y="28.78" width="6.4" height="3.2"/>
    <rect class="cls-2" x="53.6" y="43.22" width="3.2" height="6.32"/>
    <rect class="cls-2" x="63.2" y="43.22" width="3.2" height="6.32"/>
  </g>
  <polygon class="cls-5" points="76 65.62 76 68.82 79.2 68.82 79.2 72.02 82.4 72.02 82.4 78.42 76 78.42 76 81.62 69.6 81.62 69.6 84.82 50.4 84.82 50.4 81.62 44 81.62 44 78.42 37.6 78.42 37.6 72.02 40.8 72.02 40.8 68.82 44 68.82 44 65.62 76 65.62 76 65.62"/>
  <rect class="cls-2" x="34.4" y="72.02" width="3.2" height="6.4"/>
  <rect class="cls-2" x="40.8" y="65.62" width="3.2" height="3.2"/>
  <rect class="cls-2" x="37.6" y="78.42" width="6.4" height="3.2"/>
  <rect class="cls-2" x="44" y="81.62" width="6.4" height="3.2"/>
  <rect class="cls-2" x="37.6" y="68.82" width="3.2" height="3.2"/>
  <rect class="cls-2" x="50.4" y="62.42" width="3.2" height="3.2"/>
  <rect class="cls-2" x="44" y="62.42" width="3.2" height="3.2"/>
  <rect class="cls-2" x="53.6" y="65.62" width="3.2" height="3.2"/>
  <rect class="cls-2" x="47.2" y="65.62" width="3.2" height="3.2"/>
  <rect class="cls-2" x="66.4" y="62.42" width="3.2" height="3.2" transform="translate(136 128.04) rotate(-180)"/>
  <rect class="cls-2" x="72.8" y="62.42" width="3.2" height="3.2" transform="translate(148.8 128.04) rotate(-180)"/>
  <rect class="cls-2" x="63.2" y="65.62" width="3.2" height="3.2" transform="translate(129.6 134.44) rotate(-180)"/>
  <rect class="cls-2" x="69.6" y="65.62" width="3.2" height="3.2" transform="translate(142.4 134.44) rotate(-180)"/>
  <rect class="cls-2" x="82.4" y="72.02" width="3.2" height="6.4" transform="translate(168 150.44) rotate(-180)"/>
  <rect class="cls-2" x="76" y="65.62" width="3.2" height="3.2" transform="translate(155.2 134.44) rotate(-180)"/>
  <rect class="cls-2" x="76" y="78.42" width="6.4" height="3.2" transform="translate(158.4 160.04) rotate(-180)"/>
  <rect class="cls-2" x="69.6" y="81.62" width="6.4" height="3.2" transform="translate(145.6 166.44) rotate(-180)"/>
  <rect class="cls-3" x="69.6" y="78.42" width="6.4" height="3.2" transform="translate(145.6 160.04) rotate(-180)"/>
  <rect class="cls-2" x="79.2" y="68.82" width="3.2" height="3.2" transform="translate(161.6 140.84) rotate(-180)"/>
  <rect class="cls-2" x="56.8" y="91.22" width="6.4" height="3.2"/>
  <polygon class="cls-2" points="50.4 84.82 50.4 88.02 53.6 88.02 53.6 91.22 56.8 91.22 56.8 88.02 63.2 88.02 63.2 91.22 66.4 91.22 66.4 88.02 69.6 88.02 69.6 84.82 50.4 84.82"/>
  <rect class="cls-2" x="56.8" y="62.42" width="6.4" height="3.2"/>
  <rect class="cls-2" x="50.4" y="54.38" width="3.2" height="3.2"/>
  <polygon class="cls-2" points="44 54.38 44 47.98 40.8 47.98 40.8 60.78 44 60.78 44 57.58 47.2 57.58 47.2 54.38 44 54.38"/>
  <rect class="cls-2" x="53.6" y="57.58" width="3.2" height="3.2"/>
  <rect class="cls-2" x="47.2" y="57.58" width="3.2" height="3.2"/>
  <rect class="cls-2" x="66.4" y="54.38" width="3.2" height="3.2" transform="translate(136 111.96) rotate(-180)"/>
  <polygon class="cls-2" points="76 47.98 76 54.38 72.8 54.38 72.8 57.58 76 57.58 76 60.78 79.2 60.78 79.2 47.98 76 47.98"/>
  <rect class="cls-2" x="63.2" y="57.58" width="3.2" height="3.2" transform="translate(129.6 118.36) rotate(-180)"/>
  <rect class="cls-2" x="69.6" y="57.58" width="3.2" height="3.2" transform="translate(142.4 118.36) rotate(-180)"/>
  <rect class="cls-2" x="56.8" y="54.38" width="6.4" height="3.2"/>
  <rect class="cls-3" x="76" y="68.82" width="3.2" height="3.2" transform="translate(155.2 140.84) rotate(-180)"/>
  <rect class="cls-3" x="79.2" y="72.02" width="3.2" height="6.4" transform="translate(161.6 150.44) rotate(-180)"/>
  <rect class="cls-3" x="69.6" y="68.82" width="3.2" height="0" transform="translate(142.4 137.64) rotate(-180)"/>
  <rect class="cls-3" x="63.2" y="68.82" width="3.2" height="0" transform="translate(129.6 137.64) rotate(-180)"/>
  <rect class="cls-3" x="66.4" y="65.62" width="3.2" height="3.2" transform="translate(136 134.44) rotate(-180)"/>
  <rect class="cls-3" x="72.8" y="65.62" width="3.2" height="3.2" transform="translate(148.8 134.44) rotate(-180)"/>
  <rect class="cls-1" x="40.8" y="68.82" width="3.2" height="3.2"/>
  <rect class="cls-1" x="44" y="78.42" width="6.4" height="3.2"/>
  <rect class="cls-1" x="37.6" y="72.02" width="3.2" height="6.4"/>
  <rect class="cls-1" x="50.4" y="65.62" width="3.2" height="3.2"/>
  <rect class="cls-1" x="53.6" y="68.82" width="3.2" height="0"/>
  <rect class="cls-1" x="47.2" y="68.82" width="3.2" height="0"/>
  <rect class="cls-1" x="44" y="65.62" width="3.2" height="3.2"/>
  <rect class="cls-3" x="56.8" y="65.62" width="6.4" height="3.2"/>
  <rect class="cls-2" x="53.6" y="73.62" width="12.8" height="3.2"/>
  <rect class="cls-5" x="56.8" y="88.02" width="6.4" height="3.2"/>
</svg>