<?xml version="1.0" encoding="UTF-8"?>
<svg id="Layer_53" data-name="Layer 53" xmlns="http://www.w3.org/2000/svg" viewBox="0 0 120 120">
  <defs>
    <style>
      .cls-1 {
        opacity: .45;
      }

      .cls-1, .cls-2, .cls-3, .cls-4, .cls-5, .cls-6, .cls-7, .cls-8, .cls-9, .cls-10, .cls-11, .cls-12 {
        stroke-width: 0px;
      }

      .cls-2 {
        opacity: .54;
      }

      .cls-2, .cls-10 {
        fill: #fff;
      }

      .cls-4 {
        opacity: .3;
      }

      .cls-4, .cls-6 {
        fill: #231f20;
      }

      .cls-5 {
        fill: #4bc4e3;
      }

      .cls-7 {
        fill: #c62828;
      }

      .cls-8 {
        fill: #a97c50;
      }

      .cls-9 {
        fill: #cf9e49;
      }

      .cls-11 {
        fill: #ffbd05;
      }

      .cls-12 {
        opacity: .2;
      }
    </style>
  </defs>
  <polygon class="cls-9" points="56.8 42.4 63.2 42.4 63.2 45.6 66.4 45.6 66.4 48.8 69.6 48.8 69.6 52 72.8 52 72.8 61.6 76 61.6 76 71.2 79.2 71.2 79.2 74.4 82.4 74.4 82.4 80.8 76 80.8 76 84 69.6 84 69.6 87.2 50.4 87.2 50.4 84 44 84 44 80.8 37.6 80.8 37.6 74.4 40.8 74.4 40.8 71.2 44 71.2 44 61.6 47.2 61.6 47.2 52 50.4 52 50.4 48.8 53.6 48.8 53.6 45.6 56.8 45.6 56.8 42.4"/>
  <polygon class="cls-6" points="37.6 48.8 37.6 52 82.4 52 82.4 48.8 72.8 48.8 69.6 45.6 69.6 26.4 50.4 26.4 50.4 45.6 47.2 48.8 37.6 48.8"/>
  <rect class="cls-1" x="60" y="26.4" width="9.6" height="19.2" transform="translate(129.6 72) rotate(-180)"/>
  <rect class="cls-1" x="60" y="48.8" width="22.4" height="3.2"/>
  <rect class="cls-8" x="50.4" y="74.4" width="19.2" height="12.8"/>
  <rect class="cls-3" x="34.4" y="74.4" width="3.2" height="6.4"/>
  <rect class="cls-3" x="40.8" y="61.6" width="3.2" height="9.6"/>
  <rect class="cls-3" x="37.6" y="80.8" width="6.4" height="3.2"/>
  <rect class="cls-3" x="44" y="84" width="6.4" height="3.2"/>
  <rect class="cls-3" x="37.6" y="71.2" width="3.2" height="3.2"/>
  <rect class="cls-3" x="34.4" y="48.8" width="3.2" height="3.2"/>
  <rect class="cls-3" x="82.4" y="48.8" width="3.2" height="3.2"/>
  <rect class="cls-3" x="44" y="52" width="3.2" height="9.6"/>
  <rect class="cls-3" x="47.2" y="26.4" width="3.2" height="19.2"/>
  <rect class="cls-3" x="69.6" y="26.4" width="3.2" height="19.2"/>
  <rect class="cls-3" x="82.4" y="74.4" width="3.2" height="6.4" transform="translate(168 155.2) rotate(-180)"/>
  <rect class="cls-3" x="76" y="61.6" width="3.2" height="9.6" transform="translate(155.2 132.8) rotate(-180)"/>
  <rect class="cls-3" x="76" y="80.8" width="6.4" height="3.2" transform="translate(158.4 164.8) rotate(-180)"/>
  <rect class="cls-3" x="69.6" y="84" width="6.4" height="3.2" transform="translate(145.6 171.2) rotate(-180)"/>
  <rect class="cls-4" x="69.6" y="80.8" width="6.4" height="3.2" transform="translate(145.6 164.8) rotate(-180)"/>
  <rect class="cls-3" x="79.2" y="71.2" width="3.2" height="3.2" transform="translate(161.6 145.6) rotate(-180)"/>
  <rect class="cls-3" x="72.8" y="52" width="3.2" height="9.6" transform="translate(148.8 113.6) rotate(-180)"/>
  <rect class="cls-3" x="56.8" y="93.6" width="6.4" height="3.2"/>
  <polygon class="cls-3" points="50.4 87.2 50.4 90.4 53.6 90.4 53.6 93.6 56.8 93.6 56.8 90.4 63.2 90.4 63.2 93.6 66.4 93.6 66.4 90.4 69.6 90.4 69.6 87.2 50.4 87.2"/>
  <rect class="cls-4" x="76" y="71.2" width="3.2" height="3.2" transform="translate(155.2 145.6) rotate(-180)"/>
  <rect class="cls-4" x="79.2" y="74.4" width="3.2" height="6.4" transform="translate(161.6 155.2) rotate(-180)"/>
  <rect class="cls-4" x="72.8" y="61.6" width="3.2" height="9.6" transform="translate(148.8 132.8) rotate(-180)"/>
  <rect class="cls-2" x="40.8" y="71.2" width="3.2" height="3.2"/>
  <rect class="cls-2" x="44" y="80.8" width="6.4" height="3.2"/>
  <rect class="cls-2" x="37.6" y="74.4" width="3.2" height="6.4"/>
  <polygon class="cls-4" points="71.2 55.2 69.6 55.2 50.4 55.2 47.2 55.2 47.2 61.6 50.4 61.6 50.4 58.4 69.6 58.4 69.6 61.6 72.8 61.6 72.8 55.2 71.2 55.2"/>
  <rect class="cls-2" x="44" y="61.6" width="3.2" height="9.6"/>
  <rect class="cls-5" x="50.4" y="61.6" width="9.6" height="9.6"/>
  <rect class="cls-3" x="63.2" y="64.8" width="6.4" height="3.2"/>
  <rect class="cls-3" x="55.2" y="77.6" width="9.6" height="3.2"/>
  <rect class="cls-11" x="56.8" y="90.4" width="6.4" height="3.2"/>
  <rect class="cls-3" x="37.6" y="52" width="9.6" height="3.2"/>
  <rect class="cls-3" x="47.2" y="52" width="25.6" height="3.2"/>
  <rect class="cls-3" x="50.4" y="23.2" width="19.2" height="3.2"/>
  <rect class="cls-3" x="72.8" y="52" width="9.6" height="3.2"/>
  <rect class="cls-3" x="72.8" y="45.6" width="9.6" height="3.2"/>
  <rect class="cls-3" x="37.6" y="45.6" width="9.6" height="3.2"/>
  <rect class="cls-3" x="53.6" y="64.8" width="3.2" height="3.2"/>
  <rect class="cls-11" x="47.2" y="71.2" width="3.2" height="3.2"/>
  <rect class="cls-11" x="44" y="74.4" width="3.2" height="3.2"/>
  <rect class="cls-11" x="40.8" y="71.2" width="3.2" height="3.2"/>
  <rect class="cls-11" x="37.6" y="68" width="3.2" height="3.2"/>
  <rect class="cls-10" x="66.4" y="64.8" width="3.2" height="3.2"/>
  <rect class="cls-7" x="47.2" y="45.6" width="25.6" height="3.2"/>
  <rect class="cls-12" x="60" y="45.6" width="12.8" height="3.2"/>
</svg>