<?xml version="1.0" encoding="UTF-8"?>
<svg id="Layer_54" data-name="Layer 54" xmlns="http://www.w3.org/2000/svg" viewBox="0 0 120 120">
  <defs>
    <style>
      .cls-1 {
        opacity: .54;
      }

      .cls-1, .cls-2, .cls-3, .cls-4, .cls-5, .cls-6 {
        stroke-width: 0px;
      }

      .cls-1, .cls-5 {
        fill: #fff;
      }

      .cls-3 {
        fill: #231f20;
        opacity: .3;
      }

      .cls-4 {
        fill: #dcb96f;
      }

      .cls-6 {
        fill: #ff2818;
      }
    </style>
  </defs>
  <polygon class="cls-4" points="56.8 47.2 63.2 47.2 63.2 50.4 66.4 50.4 66.4 53.6 69.6 53.6 69.6 56.8 72.8 56.8 72.8 60 76 60 76 69.6 79.2 69.6 79.2 72.8 82.4 72.8 82.4 79.2 76 79.2 76 82.4 69.6 82.4 69.6 85.6 50.4 85.6 50.4 82.4 44 82.4 44 79.2 37.6 79.2 37.6 72.8 40.8 72.8 40.8 69.6 44 69.6 44 60 47.2 60 47.2 56.8 50.4 56.8 50.4 53.6 53.6 53.6 53.6 50.4 56.8 50.4 56.8 47.2"/>
  <polygon class="cls-6" points="85.6 40.8 76 31.2 69.6 28 60 28 50.4 28 44 31.2 34.4 40.8 31.2 47.2 31.2 50.4 37.6 53.6 44 56.8 60 56.8 76 56.8 82.4 53.6 88.8 50.4 88.8 47.2 85.6 40.8"/>
  <rect class="cls-5" x="72.8" y="53.61" width="3.2" height="3.2"/>
  <rect class="cls-2" x="34.4" y="72.8" width="3.2" height="6.4"/>
  <rect class="cls-2" x="40.8" y="60" width="3.2" height="9.6"/>
  <rect class="cls-2" x="37.6" y="79.2" width="6.4" height="3.2"/>
  <rect class="cls-2" x="44" y="82.4" width="6.4" height="3.2"/>
  <rect class="cls-2" x="37.6" y="69.6" width="3.2" height="3.2"/>
  <rect class="cls-2" x="50.4" y="24.8" width="19.2" height="3.2"/>
  <rect class="cls-2" x="31.2" y="50.4" width="6.4" height="3.2"/>
  <rect class="cls-2" x="28" y="47.2" width="3.2" height="3.2"/>
  <rect class="cls-2" x="34.4" y="37.6" width="3.2" height="3.2"/>
  <rect class="cls-2" x="37.6" y="34.4" width="3.2" height="3.2"/>
  <rect class="cls-2" x="40.8" y="31.2" width="3.2" height="3.2"/>
  <rect class="cls-2" x="44" y="28" width="6.4" height="3.2"/>
  <rect class="cls-2" x="31.2" y="40.8" width="3.2" height="6.4"/>
  <rect class="cls-2" x="47.2" y="53.6" width="6.4" height="3.2"/>
  <rect class="cls-2" x="37.6" y="53.6" width="6.4" height="3.2"/>
  <rect class="cls-2" x="82.4" y="50.4" width="6.4" height="3.2" transform="translate(171.2 104) rotate(-180)"/>
  <rect class="cls-2" x="88.8" y="47.2" width="3.2" height="3.2" transform="translate(180.8 97.6) rotate(-180)"/>
  <rect class="cls-2" x="82.4" y="37.6" width="3.2" height="3.2" transform="translate(168 78.4) rotate(-180)"/>
  <rect class="cls-2" x="79.2" y="34.4" width="3.2" height="3.2" transform="translate(161.6 72) rotate(-180)"/>
  <rect class="cls-2" x="76" y="31.2" width="3.2" height="3.2" transform="translate(155.2 65.6) rotate(-180)"/>
  <rect class="cls-2" x="69.6" y="28" width="6.4" height="3.2" transform="translate(145.6 59.2) rotate(-180)"/>
  <rect class="cls-2" x="85.6" y="40.8" width="3.2" height="6.4" transform="translate(174.4 88) rotate(-180)"/>
  <rect class="cls-3" x="85.6" y="47.2" width="3.2" height="3.2" transform="translate(174.4 97.6) rotate(-180)"/>
  <rect class="cls-3" x="72.8" y="53.6" width="3.2" height="3.2" transform="translate(148.8 110.4) rotate(-180)"/>
  <rect class="cls-3" x="76" y="50.4" width="6.4" height="3.2" transform="translate(158.4 104) rotate(-180)"/>
  <rect class="cls-3" x="66.4" y="50.4" width="6.4" height="3.2" transform="translate(139.2 104) rotate(-180)"/>
  <rect class="cls-3" x="79.2" y="37.6" width="3.2" height="3.2" transform="translate(161.6 78.4) rotate(-180)"/>
  <rect class="cls-3" x="76" y="34.4" width="3.2" height="3.2" transform="translate(155.2 72) rotate(-180)"/>
  <rect class="cls-3" x="69.6" y="31.2" width="6.4" height="3.2" transform="translate(145.6 65.6) rotate(-180)"/>
  <rect class="cls-3" x="82.4" y="40.8" width="3.2" height="6.4" transform="translate(168 88) rotate(-180)"/>
  <rect class="cls-1" x="31.2" y="47.2" width="3.2" height="3.2"/>
  <rect class="cls-1" x="44" y="53.6" width="3.2" height="3.2"/>
  <rect class="cls-1" x="37.6" y="50.4" width="6.4" height="3.2"/>
  <rect class="cls-1" x="47.2" y="50.4" width="6.4" height="3.2"/>
  <rect class="cls-1" x="37.6" y="37.6" width="3.2" height="3.2"/>
  <rect class="cls-1" x="40.8" y="34.4" width="3.2" height="3.2"/>
  <rect class="cls-5" x="47.2" y="34.4" width="3.2" height="3.2"/>
  <rect class="cls-5" x="79.2" y="47.2" width="3.2" height="3.2"/>
  <rect class="cls-5" x="72.8" y="34.4" width="3.2" height="3.2"/>
  <rect class="cls-5" x="72.8" y="43.62" width="3.2" height="3.2"/>
  <rect class="cls-5" x="63.2" y="47.2" width="3.2" height="3.2"/>
  <rect class="cls-5" x="60" y="28" width="3.2" height="3.2"/>
  <rect class="cls-5" x="53.6" y="53.6" width="3.2" height="3.2"/>
  <rect class="cls-5" x="44" y="44" width="3.2" height="3.2"/>
  <rect class="cls-5" x="53.6" y="40.8" width="3.2" height="3.2"/>
  <rect class="cls-5" x="63.2" y="37.6" width="3.2" height="3.2"/>
  <rect class="cls-5" x="34.4" y="47.2" width="3.2" height="3.2"/>
  <rect class="cls-1" x="44" y="31.2" width="6.4" height="3.2"/>
  <rect class="cls-1" x="34.4" y="40.8" width="3.2" height="6.4"/>
  <rect class="cls-2" x="76" y="53.6" width="6.4" height="3.2" transform="translate(158.4 110.4) rotate(-180)"/>
  <rect class="cls-2" x="44" y="56.8" width="3.2" height="3.2"/>
  <rect class="cls-2" x="82.4" y="72.8" width="3.2" height="6.4" transform="translate(168 152) rotate(-180)"/>
  <rect class="cls-2" x="76" y="60" width="3.2" height="9.6" transform="translate(155.2 129.6) rotate(-180)"/>
  <rect class="cls-2" x="76" y="79.2" width="6.4" height="3.2" transform="translate(158.4 161.6) rotate(-180)"/>
  <rect class="cls-2" x="69.6" y="82.4" width="6.4" height="3.2" transform="translate(145.6 168) rotate(-180)"/>
  <rect class="cls-3" x="69.6" y="79.2" width="6.4" height="3.2" transform="translate(145.6 161.6) rotate(-180)"/>
  <rect class="cls-2" x="79.2" y="69.6" width="3.2" height="3.2" transform="translate(161.6 142.4) rotate(-180)"/>
  <rect class="cls-2" x="66.4" y="53.6" width="6.4" height="3.2" transform="translate(139.2 110.4) rotate(-180)"/>
  <rect class="cls-2" x="76" y="53.6" width="6.4" height="3.2" transform="translate(158.4 110.4) rotate(-180)"/>
  <rect class="cls-2" x="72.8" y="56.8" width="3.2" height="3.2" transform="translate(148.8 116.8) rotate(-180)"/>
  <rect class="cls-2" x="56.8" y="92" width="6.4" height="3.2"/>
  <polygon class="cls-2" points="50.4 85.6 50.4 88.8 53.6 88.8 53.6 92 56.8 92 56.8 88.8 63.2 88.8 63.2 92 66.4 92 66.4 88.8 69.6 88.8 69.6 85.6 50.4 85.6"/>
  <rect class="cls-2" x="53.6" y="56.8" width="12.8" height="3.2"/>
  <rect class="cls-3" x="76" y="69.6" width="3.2" height="3.2" transform="translate(155.2 142.4) rotate(-180)"/>
  <rect class="cls-3" x="79.2" y="72.8" width="3.2" height="6.4" transform="translate(161.6 152) rotate(-180)"/>
  <rect class="cls-3" x="66.4" y="56.8" width="6.4" height="3.2" transform="translate(139.2 116.8) rotate(-180)"/>
  <rect class="cls-3" x="72.8" y="60" width="3.2" height="9.6" transform="translate(148.8 129.6) rotate(-180)"/>
  <rect class="cls-1" x="40.8" y="69.6" width="3.2" height="3.2"/>
  <rect class="cls-1" x="44" y="79.2" width="6.4" height="3.2"/>
  <rect class="cls-1" x="37.6" y="72.8" width="3.2" height="6.4"/>
  <rect class="cls-3" x="47.2" y="56.8" width="6.4" height="3.2"/>
  <rect class="cls-3" x="53.6" y="60" width="12.8" height="3.2"/>
  <rect class="cls-1" x="44" y="60" width="3.2" height="9.6"/>
  <rect class="cls-2" x="53.6" y="66.4" width="3.2" height="6.4"/>
  <rect class="cls-2" x="63.2" y="66.4" width="3.2" height="6.4"/>
  <rect class="cls-2" x="55.2" y="76" width="9.6" height="3.2"/>
  <rect class="cls-6" x="56.8" y="88.8" width="6.4" height="3.2"/>
  <rect class="cls-3" x="50.4" y="28" width="19.2" height="3.2"/>
</svg>