<?xml version="1.0" encoding="UTF-8"?>
<svg id="Layer_55" data-name="Layer 55" xmlns="http://www.w3.org/2000/svg" viewBox="0 0 120 120">
  <defs>
    <style>
      .cls-1 {
        opacity: .54;
      }

      .cls-1, .cls-2, .cls-3, .cls-4, .cls-5, .cls-6, .cls-7, .cls-8, .cls-9, .cls-10 {
        stroke-width: 0px;
      }

      .cls-1, .cls-4, .cls-10 {
        fill: #fff;
      }

      .cls-3 {
        fill: #231f20;
      }

      .cls-3, .cls-4 {
        opacity: .3;
      }

      .cls-5 {
        fill: #481800;
      }

      .cls-6 {
        fill: #192696;
      }

      .cls-7 {
        fill: #ae4c00;
      }

      .cls-8 {
        fill: #ff84b5;
      }

      .cls-9 {
        fill: #fff985;
      }
    </style>
  </defs>
  <polygon class="cls-7" points="47.2 37.6 72.8 37.6 72.8 34.4 79.2 34.4 79.2 40.8 76 40.8 82.4 47.2 82.4 60 79.2 60 79.2 63.2 82.4 63.2 82.4 72.8 76 76 69.6 79.2 50.4 79.2 44 76 44 72.8 37.6 72.8 37.6 69.6 37.6 63.2 40.8 63.2 40.8 60 37.6 60 37.6 47.2 40.8 47.2 40.8 44 44 44 44 40.8 40.8 40.8 40.8 34.4 47.2 34.4 47.2 37.6"/>
  <rect class="cls-2" x="34.4" y="66.4" width="3.2" height="6.4"/>
  <rect class="cls-2" x="40.8" y="56.8" width="3.2" height="3.2"/>
  <rect class="cls-2" x="37.6" y="72.8" width="6.4" height="3.2"/>
  <rect class="cls-2" x="44" y="76" width="6.4" height="3.2"/>
  <rect class="cls-2" x="37.6" y="53.6" width="3.2" height="3.2"/>
  <rect class="cls-2" x="82.4" y="66.4" width="3.2" height="6.4" transform="translate(168 139.2) rotate(-180)"/>
  <rect class="cls-2" x="76" y="56.8" width="3.2" height="3.2" transform="translate(155.2 116.8) rotate(-180)"/>
  <rect class="cls-2" x="76" y="72.8" width="6.4" height="3.2" transform="translate(158.4 148.8) rotate(-180)"/>
  <rect class="cls-2" x="69.6" y="76" width="6.4" height="3.2" transform="translate(145.6 155.2) rotate(-180)"/>
  <rect class="cls-3" x="69.6" y="72.8" width="6.4" height="3.2" transform="translate(145.6 148.8) rotate(-180)"/>
  <rect class="cls-2" x="79.2" y="53.6" width="3.2" height="3.2" transform="translate(161.6 110.4) rotate(-180)"/>
  <polygon class="cls-2" points="37.6 60 37.6 47.2 34.4 47.2 34.4 63.2 37.6 63.2 37.6 66.4 40.8 66.4 40.8 60 37.6 60"/>
  <polygon class="cls-2" points="82.4 47.2 82.4 60 79.2 60 79.2 66.4 82.4 66.4 82.4 63.2 85.6 63.2 85.6 47.2 82.4 47.2"/>
  <rect class="cls-2" x="76" y="40.8" width="3.2" height="3.2" transform="translate(155.2 84.8) rotate(-180)"/>
  <rect class="cls-2" x="79.2" y="44" width="3.2" height="3.2" transform="translate(161.6 91.2) rotate(-180)"/>
  <rect class="cls-2" x="37.6" y="44" width="3.2" height="3.2" transform="translate(78.4 91.2) rotate(-180)"/>
  <rect class="cls-2" x="40.8" y="40.8" width="3.2" height="3.2" transform="translate(84.8 84.8) rotate(-180)"/>
  <rect class="cls-2" x="79.2" y="34.4" width="3.2" height="6.4" transform="translate(161.6 75.2) rotate(-180)"/>
  <rect class="cls-2" x="72.8" y="31.2" width="6.4" height="3.2" transform="translate(152 65.6) rotate(-180)"/>
  <rect class="cls-2" x="37.6" y="34.4" width="3.2" height="6.4"/>
  <rect class="cls-2" x="40.8" y="31.2" width="6.4" height="3.2"/>
  <rect class="cls-2" x="47.2" y="34.4" width="25.62" height="3.2"/>
  <rect class="cls-2" x="56.8" y="85.6" width="6.4" height="3.2"/>
  <polygon class="cls-2" points="50.4 79.2 50.4 82.4 53.6 82.4 53.6 85.6 56.8 85.6 56.8 82.4 63.2 82.4 63.2 85.6 66.4 85.6 66.4 82.4 69.6 82.4 69.6 79.2 50.4 79.2"/>
  <rect class="cls-3" x="76" y="60" width="3.2" height="3.2" transform="translate(155.2 123.2) rotate(-180)"/>
  <rect class="cls-3" x="79.2" y="66.4" width="3.2" height="6.4" transform="translate(161.6 139.2) rotate(-180)"/>
  <rect class="cls-3" x="72.8" y="50.4" width="3.2" height="9.6" transform="translate(148.8 110.4) rotate(-180)"/>
  <rect class="cls-1" x="40.8" y="60" width="3.2" height="3.2"/>
  <rect class="cls-4" x="44" y="72.8" width="6.4" height="3.2"/>
  <rect class="cls-4" x="37.6" y="66.4" width="3.2" height="6.4"/>
  <rect class="cls-8" x="42.4" y="36" width="3.2" height="3.2"/>
  <rect class="cls-8" x="74.4" y="36" width="3.2" height="3.2"/>
  <rect class="cls-3" x="40.8" y="34.4" width="6.4" height="3.2"/>
  <rect class="cls-3" x="72.8" y="34.4" width="6.4" height="3.2"/>
  <rect class="cls-1" x="44" y="50.4" width="3.2" height="9.6"/>
  <rect class="cls-5" x="53.56" y="66.4" width="12.88" height="6.4"/>
  <rect class="cls-5" x="56.8" y="63.2" width="6.4" height="3.2"/>
  <rect class="cls-9" x="56.8" y="82.4" width="6.4" height="3.2"/>
  <polygon class="cls-5" points="82.4 47.2 79.2 47.2 79.2 44 76 44 69.6 44 69.6 40.8 60 40.8 50.4 40.8 50.4 44 44 44 40.8 44 40.8 47.2 37.6 47.2 37.6 50.4 37.6 60 40.8 60 40.8 63.2 40.8 66.4 44 66.4 50.4 66.4 50.4 63.2 53.56 63.2 53.56 60 60 60 66.44 60 66.44 63.2 69.6 63.2 69.6 66.4 76 66.4 79.2 66.4 79.2 63.2 79.2 60 82.4 60 82.4 50.4 82.4 47.2"/>
  <polygon class="cls-7" points="40.8 50.4 40.8 60 44 60 44 60 50.4 60 50.4 60 50.4 56.8 53.56 56.8 53.56 47.2 50.4 47.2 50.4 47.2 44 47.2 44 50.4 40.8 50.4"/>
  <polygon class="cls-10" points="53.56 50.4 44 50.4 44 56.8 40.8 56.8 40.8 56.8 44 56.8 44 60 50.4 60 50.4 56.8 53.56 56.8 53.56 50.4"/>
  <rect class="cls-6" x="44" y="50.4" width="6.4" height="6.4"/>
  <polygon class="cls-7" points="79.2 50.4 79.2 60 76 60 76 60 69.6 60 69.6 60 69.6 56.8 66.44 56.8 66.44 47.2 69.6 47.2 69.6 47.2 76 47.2 76 50.4 79.2 50.4"/>
  <polygon class="cls-10" points="66.44 50.4 76 50.4 76 56.8 79.2 56.8 79.2 56.8 76 56.8 76 60 69.6 60 69.6 56.8 66.44 56.8 66.44 50.4"/>
  <rect class="cls-6" x="69.6" y="50.4" width="6.4" height="6.4"/>
</svg>