<?xml version="1.0" encoding="UTF-8"?>
<svg id="Layer_56" data-name="Layer 56" xmlns="http://www.w3.org/2000/svg" viewBox="0 0 120 120">
  <defs>
    <style>
      .cls-1 {
        opacity: .54;
      }

      .cls-1, .cls-2, .cls-3, .cls-4, .cls-5, .cls-6, .cls-7, .cls-8, .cls-9, .cls-10 {
        stroke-width: 0px;
      }

      .cls-1, .cls-8 {
        fill: #fff;
      }

      .cls-3 {
        fill: #231f20;
        opacity: .3;
      }

      .cls-4 {
        fill: #a8a8a8;
      }

      .cls-5 {
        fill: #d20000;
      }

      .cls-6 {
        fill: #ff9100;
      }

      .cls-7 {
        fill: #ffca71;
      }

      .cls-9 {
        fill: #fff876;
      }

      .cls-10 {
        fill: #ffb739;
      }
    </style>
  </defs>
  <polygon class="cls-10" points="72.8 26.38 72.8 36.02 63.2 36.02 63.2 39.22 50.4 39.22 50.4 32.8 47.2 32.8 47.2 26.42 50.4 26.42 50.4 23.22 56.76 23.22 56.76 26.38 60 26.38 60 23.22 66.4 23.22 69.6 23.18 72.8 26.38"/>
  <rect class="cls-2" x="69.6" y="23.18" width="3.2" height="3.2" transform="translate(142.4 49.55) rotate(-180)"/>
  <rect class="cls-2" x="72.8" y="26.38" width="3.2" height="9.65" transform="translate(148.8 62.4) rotate(-180)"/>
  <rect class="cls-6" x="69.6" y="26.38" width="3.2" height="9.65"/>
  <rect class="cls-6" x="63.2" y="23.18" width="6.4" height="3.2"/>
  <rect class="cls-6" x="56.82" y="26.38" width="6.4" height="3.2"/>
  <g>
    <polyline class="cls-9" points="44 58.42 40.8 58.42 44 55.22 47.2 52.02 50.4 52.02 50.4 48.82 53.6 48.82 53.6 45.62 56.8 45.62 56.8 42.42 63.2 42.42 63.2 45.62 66.4 45.62 66.4 48.82 69.6 48.82 69.6 52.02 72.8 52.02 76 55.22 76 61.62 76 71.22 79.2 71.22 79.2 74.42 82.4 74.42 82.4 84.02 76 84.02 76 87.22 69.6 87.22 69.6 90.42 50.4 90.42 50.4 87.22 44 87.22 44 84.02 37.6 84.02 37.6 74.42 40.8 74.42 40.8 71.22 40.8 64.82 44 64.82 44 61.62 40.8 61.62"/>
    <polygon class="cls-8" points="44 87.22 44 84.02 47.2 84.02 47.2 80.82 50.4 80.82 50.4 77.62 69.68 77.62 69.68 80.82 72.8 80.82 72.8 84.02 76 84.02 76 87.22 69.6 87.22 69.6 90.42 50.4 90.42 50.4 87.22 44 87.22"/>
    <rect class="cls-2" x="34.4" y="77.62" width="3.2" height="6.4"/>
    <rect class="cls-2" x="40.8" y="64.82" width="3.2" height="9.6"/>
    <rect class="cls-2" x="37.6" y="84.02" width="6.4" height="3.2"/>
    <rect class="cls-2" x="44" y="87.22" width="6.4" height="3.2"/>
    <rect class="cls-2" x="37.6" y="74.42" width="3.2" height="3.2"/>
    <rect class="cls-2" x="44" y="52.02" width="3.2" height="3.2"/>
    <rect class="cls-2" x="47.2" y="48.82" width="3.2" height="3.2"/>
    <rect class="cls-2" x="40.8" y="55.22" width="3.2" height="3.2"/>
    <rect class="cls-2" x="50.4" y="45.62" width="3.2" height="3.2"/>
    <rect class="cls-2" x="53.6" y="42.42" width="12.8" height="3.2"/>
    <rect class="cls-2" x="82.4" y="77.62" width="3.2" height="6.4" transform="translate(168 161.65) rotate(-180)"/>
    <rect class="cls-2" x="76" y="64.82" width="3.2" height="9.6" transform="translate(155.2 139.25) rotate(-180)"/>
    <rect class="cls-2" x="76" y="84.02" width="6.4" height="3.2" transform="translate(158.4 171.25) rotate(-180)"/>
    <rect class="cls-2" x="69.6" y="87.22" width="6.4" height="3.2" transform="translate(145.6 177.65) rotate(-180)"/>
    <rect class="cls-3" x="69.6" y="84.02" width="6.4" height="3.2" transform="translate(145.6 171.25) rotate(-180)"/>
    <rect class="cls-2" x="79.2" y="74.42" width="3.2" height="3.2" transform="translate(161.6 152.05) rotate(-180)"/>
    <rect class="cls-2" x="82.4" y="87.22" width="3.2" height="3.2" transform="translate(168 177.65) rotate(-180)"/>
    <rect class="cls-2" x="92" y="74.42" width="3.2" height="16" transform="translate(187.2 164.85) rotate(-180)"/>
    <rect class="cls-2" x="85.6" y="90.42" width="6.36" height="3.2" transform="translate(177.56 184.05) rotate(-180)"/>
    <rect class="cls-2" x="72.8" y="52.02" width="3.2" height="3.2" transform="translate(148.8 107.25) rotate(-180)"/>
    <rect class="cls-2" x="76" y="55.22" width="3.2" height="6.4" transform="translate(155.2 116.85) rotate(-180)"/>
    <rect class="cls-2" x="85.6" y="61.62" width="3.2" height="6.4" transform="translate(174.4 129.65) rotate(-180)"/>
    <rect class="cls-2" x="82.4" y="58.42" width="3.2" height="3.2" transform="translate(168 120.05) rotate(-180)"/>
    <rect class="cls-2" x="88.8" y="68.02" width="3.2" height="6.4" transform="translate(180.8 142.45) rotate(-180)"/>
    <rect class="cls-2" x="79.2" y="55.22" width="3.2" height="3.2" transform="translate(161.6 113.65) rotate(-180)"/>
    <rect class="cls-2" x="34.4" y="87.22" width="3.2" height="3.2"/>
    <rect class="cls-2" x="24.8" y="74.42" width="3.2" height="16"/>
    <rect class="cls-2" x="28.04" y="90.42" width="6.36" height="3.2"/>
    <rect class="cls-2" x="31.2" y="61.62" width="3.2" height="6.4"/>
    <rect class="cls-2" x="34.4" y="58.42" width="3.2" height="3.2"/>
    <rect class="cls-2" x="40.8" y="58.42" width="3.2" height="3.2"/>
    <rect class="cls-2" x="28" y="68.02" width="3.2" height="6.4"/>
    <rect class="cls-2" x="37.6" y="55.22" width="3.2" height="3.2"/>
    <rect class="cls-2" x="58.4" y="55.22" width="3.2" height="3.2" transform="translate(120 113.65) rotate(-180)"/>
    <rect class="cls-2" x="55.2" y="58.42" width="3.2" height="3.2" transform="translate(113.6 120.05) rotate(-180)"/>
    <rect class="cls-2" x="44" y="61.62" width="11.2" height="3.2" transform="translate(99.2 126.45) rotate(-180)"/>
    <rect class="cls-2" x="64.8" y="61.62" width="11.2" height="3.2" transform="translate(140.8 126.45) rotate(-180)"/>
    <rect class="cls-2" x="61.6" y="58.42" width="3.2" height="3.2" transform="translate(126.4 120.05) rotate(-180)"/>
    <rect class="cls-2" x="69.6" y="48.82" width="3.2" height="3.2" transform="translate(142.4 100.85) rotate(-180)"/>
    <rect class="cls-2" x="66.4" y="45.62" width="3.2" height="3.2" transform="translate(136 94.45) rotate(-180)"/>
    <rect class="cls-2" x="56.8" y="96.82" width="6.4" height="3.2"/>
    <polygon class="cls-2" points="50.4 90.42 50.4 93.62 53.6 93.62 53.6 96.82 56.8 96.82 56.8 93.62 63.2 93.62 63.2 96.82 66.4 96.82 66.4 93.62 69.6 93.62 69.6 90.42 50.4 90.42"/>
    <rect class="cls-7" x="76" y="74.42" width="3.2" height="3.2" transform="translate(155.2 152.05) rotate(-180)"/>
    <rect class="cls-7" x="79.2" y="77.62" width="3.2" height="6.4" transform="translate(161.6 161.65) rotate(-180)"/>
    <rect class="cls-7" x="72.8" y="55.22" width="3.2" height="6.4" transform="translate(148.8 116.85) rotate(-180)"/>
    <rect class="cls-7" x="66.44" y="48.82" width="3.2" height="3.2" transform="translate(136.08 100.85) rotate(-180)"/>
    <rect class="cls-7" x="69.6" y="52.02" width="3.2" height="3.2" transform="translate(142.4 107.25) rotate(-180)"/>
    <rect class="cls-7" x="58.4" y="58.42" width="3.2" height="3.2" transform="translate(120 120.05) rotate(-180)"/>
    <rect class="cls-7" x="64.8" y="55.22" width="3.2" height="3.2" transform="translate(132.8 113.65) rotate(-180)"/>
    <rect class="cls-7" x="58.4" y="52.02" width="3.2" height="3.2" transform="translate(120 107.25) rotate(-180)"/>
    <rect class="cls-7" x="52" y="55.22" width="3.2" height="3.2" transform="translate(107.2 113.65) rotate(-180)"/>
    <rect class="cls-7" x="61.6" y="61.63" width="3.2" height="3.2" transform="translate(126.4 126.47) rotate(-180)"/>
    <rect class="cls-7" x="55.2" y="61.63" width="3.2" height="3.2" transform="translate(113.6 126.47) rotate(-180)"/>
    <rect class="cls-7" x="64.84" y="64.82" width="8.32" height="3.2" transform="translate(137.99 132.85) rotate(-180)"/>
    <rect class="cls-7" x="44.18" y="64.82" width="11.02" height="3.2" transform="translate(99.38 132.85) rotate(-180)"/>
    <rect class="cls-7" x="53.6" y="45.62" width="12.84" height="3.2" transform="translate(120.04 94.45) rotate(-180)"/>
    <rect class="cls-7" x="72.8" y="64.82" width="3.2" height="9.6" transform="translate(148.8 139.25) rotate(-180)"/>
    <rect class="cls-1" x="40.8" y="74.42" width="3.2" height="3.2"/>
    <rect class="cls-1" x="44" y="84.02" width="6.4" height="3.2"/>
    <rect class="cls-1" x="37.6" y="77.62" width="3.2" height="6.4"/>
    <rect class="cls-1" x="47.2" y="52.02" width="3.2" height="3.2"/>
    <rect class="cls-1" x="44" y="55.22" width="3.2" height="3.2"/>
    <rect class="cls-1" x="50.4" y="48.82" width="3.2" height="3.2"/>
    <rect class="cls-1" x="44" y="68.02" width="3.2" height="6.4"/>
    <rect class="cls-2" x="50.4" y="71.22" width="6.4" height="3.2"/>
    <rect class="cls-2" x="63.2" y="71.22" width="6.48" height="3.2"/>
    <rect class="cls-2" x="55.2" y="84.02" width="9.6" height="3.2"/>
    <rect class="cls-2" x="56.8" y="77.62" width="6.4" height="3.2"/>
    <rect class="cls-10" x="56.8" y="93.62" width="6.4" height="3.2"/>
    <polygon class="cls-10" points="40.8 58.42 40.8 61.62 44 61.62 44 64.82 40.8 64.82 40.8 74.42 37.6 74.42 37.6 77.62 34.4 77.62 34.4 84.02 37.6 84.02 37.6 87.22 34.4 87.22 34.4 90.42 28.04 90.42 28.04 74.42 31.2 74.42 31.2 68.02 34.4 68.02 34.4 61.62 37.6 61.62 37.6 58.42 40.8 58.42"/>
    <polygon class="cls-10" points="79.2 58.42 79.2 61.62 76 61.62 76 64.82 79.2 64.82 79.2 74.42 82.4 74.42 82.4 77.62 85.6 77.62 85.6 84.02 82.4 84.02 82.4 87.22 85.6 87.22 85.6 90.42 91.96 90.42 91.96 74.42 88.8 74.42 88.8 68.02 85.6 68.02 85.6 61.62 82.4 61.62 82.4 58.42 79.2 58.42"/>
    <rect class="cls-6" x="85.6" y="77.62" width="3.2" height="6.4" transform="translate(174.4 161.65) rotate(-180)"/>
    <rect class="cls-6" x="79.2" y="64.82" width="3.2" height="9.6" transform="translate(161.6 139.25) rotate(-180)"/>
    <rect class="cls-6" x="82.4" y="74.42" width="3.2" height="3.2" transform="translate(168 152.05) rotate(-180)"/>
    <rect class="cls-6" x="69.6" y="77.62" width="3.2" height="3.2" transform="translate(142.4 158.45) rotate(-180)"/>
    <rect class="cls-6" x="47.2" y="77.62" width="3.2" height="3.2" transform="translate(97.6 158.45) rotate(-180)"/>
    <rect class="cls-6" x="76" y="61.62" width="3.2" height="3.2" transform="translate(155.2 126.45) rotate(-180)"/>
    <rect class="cls-6" x="82.4" y="84.02" width="3.2" height="3.2" transform="translate(168 171.25) rotate(-180)"/>
    <rect class="cls-6" x="31.2" y="77.62" width="3.2" height="6.4"/>
    <rect class="cls-6" x="37.6" y="64.82" width="3.2" height="9.6"/>
    <rect class="cls-6" x="34.4" y="74.42" width="3.2" height="3.2"/>
    <rect class="cls-6" x="40.8" y="61.62" width="3.2" height="3.2"/>
    <rect class="cls-6" x="34.4" y="84.02" width="3.2" height="3.2"/>
  </g>
  <rect class="cls-2" x="47.2" y="42.42" width="3.2" height="3.2"/>
  <rect class="cls-2" x="50.4" y="39.22" width="3.2" height="3.2"/>
  <rect class="cls-2" x="47.2" y="23.22" width="3.2" height="3.2"/>
  <rect class="cls-2" x="56.8" y="23.18" width="6.4" height="3.2"/>
  <rect class="cls-2" x="50.4" y="20.02" width="6.4" height="3.2"/>
  <rect class="cls-2" x="47.2" y="36.02" width="3.2" height="3.2"/>
  <rect class="cls-2" x="44" y="26.38" width="3.2" height="9.65"/>
  <rect class="cls-5" x="53.6" y="42.42" width="12.8" height="3.2"/>
  <rect class="cls-4" x="50.4" y="42.42" width="3.2" height="3.2"/>
  <rect class="cls-2" x="69.6" y="42.42" width="3.2" height="3.2" transform="translate(142.4 88.05) rotate(-180)"/>
  <rect class="cls-2" x="66.4" y="39.22" width="3.2" height="3.2" transform="translate(136 81.65) rotate(-180)"/>
  <rect class="cls-2" x="69.6" y="36.02" width="3.2" height="3.2" transform="translate(142.4 75.25) rotate(-180)"/>
  <rect class="cls-4" x="66.4" y="42.42" width="3.2" height="3.2" transform="translate(136 88.05) rotate(-180)"/>
  <polygon class="cls-9" points="66.4 42.42 66.4 39.22 56.8 39.22 56.8 36.02 50.4 36.02 50.4 39.22 53.6 39.22 53.6 42.42 66.4 42.42"/>
  <rect class="cls-6" x="47.2" y="26.42" width="3.2" height="9.6" transform="translate(97.6 62.45) rotate(-180)"/>
  <rect class="cls-6" x="50.4" y="23.18" width="6.4" height="3.2" transform="translate(107.2 49.55) rotate(-180)"/>
  <rect class="cls-2" x="63.2" y="19.98" width="6.4" height="3.2" transform="translate(132.8 43.15) rotate(-180)"/>
  <rect class="cls-9" x="63.2" y="36.02" width="6.48" height="3.2"/>
</svg>