<?xml version="1.0" encoding="UTF-8"?>
<svg id="Layer_58" data-name="Layer 58" xmlns="http://www.w3.org/2000/svg" viewBox="0 0 120 120">
  <defs>
    <style>
      .cls-1 {
        fill: #fff;
        opacity: .54;
      }

      .cls-1, .cls-2, .cls-3, .cls-4, .cls-5, .cls-6, .cls-7, .cls-8, .cls-9, .cls-10, .cls-11, .cls-12 {
        stroke-width: 0px;
      }

      .cls-3 {
        fill: #231f20;
      }

      .cls-3, .cls-4, .cls-5 {
        opacity: .3;
      }

      .cls-4 {
        fill: #fffab1;
      }

      .cls-5, .cls-11 {
        fill: #00aeef;
      }

      .cls-6 {
        fill: #76e3ff;
      }

      .cls-7 {
        fill: #e47e6d;
      }

      .cls-8 {
        fill: #ffa700;
      }

      .cls-9 {
        fill: #ffbd05;
      }

      .cls-10 {
        fill: #ffc7b4;
      }

      .cls-12 {
        fill: #0066ab;
      }
    </style>
  </defs>
  <polygon class="cls-8" points="37.6 47.89 40.8 47.89 44 47.89 44 54.29 40.8 54.29 40.8 63.89 34.4 70.29 40.8 76.69 44 76.69 50.4 79.89 50.4 83.09 47.2 89.49 47.2 99.09 40.8 99.09 37.6 95.89 34.4 95.89 31.2 92.69 28 92.69 28 89.49 31.2 89.49 31.2 63.89 34.4 63.89 34.4 57.49 37.6 57.49 37.6 47.89"/>
  <polygon class="cls-8" points="82.4 47.89 79.2 47.89 76 47.89 76 54.29 79.2 54.29 79.2 63.89 85.6 70.29 79.2 76.69 76 76.69 69.6 79.89 69.6 83.09 72.8 89.49 72.8 99.09 79.2 99.09 82.4 95.89 85.6 95.89 88.8 92.69 92 92.69 92 89.49 88.8 89.49 88.8 63.89 85.6 63.89 85.6 57.49 82.4 57.49 82.4 47.89"/>
  <polygon class="cls-10" points="72.8 47.89 72.8 54.29 76 54.29 76 63.89 79.2 63.89 79.2 67.09 82.4 67.09 82.4 73.49 76 73.49 76 76.69 69.6 76.69 69.6 79.89 50.4 79.89 50.4 76.69 44 76.69 44 73.49 37.6 73.49 37.6 67.09 40.8 67.09 40.8 63.89 44 63.89 44 54.29 47.2 54.29 47.2 47.89 72.8 47.89"/>
  <rect class="cls-2" x="34.4" y="67.09" width="3.2" height="6.4"/>
  <rect class="cls-2" x="40.8" y="54.29" width="3.2" height="9.6"/>
  <rect class="cls-2" x="37.6" y="73.49" width="6.4" height="3.2"/>
  <rect class="cls-2" x="44" y="76.69" width="6.4" height="3.2"/>
  <rect class="cls-2" x="37.6" y="63.89" width="3.2" height="3.2"/>
  <rect class="cls-2" x="53.6" y="67.09" width="3.2" height="3.2"/>
  <rect class="cls-2" x="63.2" y="67.09" width="3.2" height="3.2"/>
  <rect class="cls-7" x="69.6" y="67.09" width="3.2" height="3.2"/>
  <rect class="cls-7" x="47.2" y="67.09" width="3.2" height="3.2"/>
  <rect class="cls-9" x="37.6" y="41.49" width="3.2" height="3.2"/>
  <rect class="cls-2" x="44" y="47.89" width="3.2" height="3.2"/>
  <rect class="cls-9" x="79.2" y="41.49" width="3.2" height="3.2"/>
  <rect class="cls-2" x="37.6" y="47.89" width="3.2" height="3.2"/>
  <rect class="cls-2" x="79.2" y="47.89" width="3.2" height="3.2"/>
  <rect class="cls-2" x="72.8" y="47.89" width="3.2" height="3.2"/>
  <rect class="cls-2" x="92" y="89.49" width="3.2" height="3.2"/>
  <rect class="cls-2" x="85.6" y="92.69" width="3.2" height="3.2"/>
  <rect class="cls-2" x="72.8" y="51.09" width="3.2" height="3.2"/>
  <rect class="cls-2" x="82.4" y="51.09" width="3.2" height="6.4"/>
  <rect class="cls-2" x="85.6" y="57.49" width="3.2" height="6.4"/>
  <rect class="cls-2" x="34.4" y="51.09" width="3.2" height="6.4" transform="translate(72 108.57) rotate(-180)"/>
  <rect class="cls-2" x="31.2" y="57.49" width="3.2" height="6.4" transform="translate(65.6 121.37) rotate(-180)"/>
  <rect class="cls-2" x="88.8" y="63.89" width="3.2" height="25.6"/>
  <rect class="cls-2" x="82.4" y="76.69" width="3.2" height="16"/>
  <rect class="cls-2" x="79.2" y="95.89" width="3.2" height="3.2"/>
  <rect class="cls-2" x="76" y="79.89" width="3.2" height="16"/>
  <rect class="cls-2" x="69.6" y="83.09" width="3.2" height="16"/>
  <rect class="cls-2" x="24.8" y="89.49" width="3.2" height="3.2" transform="translate(52.8 182.17) rotate(-180)"/>
  <rect class="cls-2" x="31.2" y="92.69" width="3.2" height="3.2" transform="translate(65.6 188.57) rotate(-180)"/>
  <rect class="cls-2" x="28" y="63.89" width="3.2" height="25.6" transform="translate(59.2 153.37) rotate(-180)"/>
  <rect class="cls-2" x="34.4" y="76.69" width="3.2" height="16" transform="translate(72 169.37) rotate(-180)"/>
  <rect class="cls-2" x="37.6" y="95.89" width="3.2" height="3.2" transform="translate(78.4 194.97) rotate(-180)"/>
  <rect class="cls-2" x="40.8" y="79.89" width="3.2" height="16" transform="translate(84.8 175.77) rotate(-180)"/>
  <rect class="cls-2" x="47.2" y="83.09" width="3.2" height="16" transform="translate(97.6 182.17) rotate(-180)"/>
  <rect class="cls-2" x="44" y="51.09" width="3.2" height="3.2"/>
  <rect class="cls-2" x="82.4" y="67.09" width="3.2" height="6.4" transform="translate(168 140.57) rotate(-180)"/>
  <rect class="cls-2" x="76" y="54.29" width="3.2" height="9.6" transform="translate(155.2 118.17) rotate(-180)"/>
  <rect class="cls-2" x="76" y="73.49" width="6.4" height="3.2" transform="translate(158.4 150.17) rotate(-180)"/>
  <rect class="cls-2" x="69.6" y="76.69" width="6.4" height="3.2" transform="translate(145.6 156.57) rotate(-180)"/>
  <rect class="cls-3" x="69.6" y="73.49" width="6.4" height="3.2" transform="translate(145.6 150.17) rotate(-180)"/>
  <rect class="cls-2" x="79.2" y="63.89" width="3.2" height="3.2" transform="translate(161.6 130.97) rotate(-180)"/>
  <rect class="cls-11" x="76" y="27.31" width="3.2" height="3.2" transform="translate(155.2 57.83) rotate(-180)"/>
  <rect class="cls-6" x="72.8" y="24.11" width="3.2" height="3.2" transform="translate(148.8 51.43) rotate(-180)"/>
  <rect class="cls-6" x="58.4" y="20.91" width="3.2" height="6.4" transform="translate(120 48.23) rotate(-180)"/>
  <rect class="cls-11" x="69.6" y="27.31" width="3.2" height="3.2" transform="translate(142.4 57.83) rotate(-180)"/>
  <rect class="cls-11" x="61.53" y="27.31" width="4.87" height="3.2" transform="translate(127.93 57.83) rotate(-180)"/>
  <rect class="cls-11" x="53.6" y="27.31" width="4.73" height="3.2" transform="translate(111.93 57.83) rotate(-180)"/>
  <rect class="cls-6" x="79.2" y="30.51" width="3.2" height="7.77" transform="translate(161.6 68.8) rotate(-180)"/>
  <rect class="cls-11" x="40.8" y="27.31" width="3.2" height="3.2"/>
  <rect class="cls-6" x="44" y="24.11" width="3.2" height="3.2"/>
  <rect class="cls-11" x="47.2" y="27.31" width="3.2" height="3.2"/>
  <rect class="cls-6" x="37.6" y="30.51" width="3.2" height="7.77"/>
  <rect class="cls-6" x="66.4" y="30.51" width="3.2" height="7.77" transform="translate(136 68.8) rotate(-180)"/>
  <rect class="cls-11" x="72.8" y="30.51" width="3.2" height="7.77" transform="translate(148.8 68.8) rotate(-180)"/>
  <rect class="cls-6" x="50.4" y="30.51" width="3.2" height="7.77" transform="translate(104 68.8) rotate(-180)"/>
  <rect class="cls-11" x="44" y="30.51" width="3.2" height="7.77" transform="translate(91.2 68.8) rotate(-180)"/>
  <rect class="cls-11" x="58.33" y="30.51" width="3.2" height="7.77" transform="translate(119.87 68.8) rotate(-180)"/>
  <rect class="cls-2" x="56.8" y="86.29" width="6.4" height="3.2"/>
  <polygon class="cls-2" points="50.4 79.89 50.4 83.09 53.6 83.09 53.6 86.29 56.8 86.29 56.8 83.09 63.2 83.09 63.2 86.29 66.4 86.29 66.4 83.09 69.6 83.09 69.6 79.89 50.4 79.89"/>
  <rect class="cls-3" x="76" y="63.89" width="3.2" height="3.2" transform="translate(155.2 130.97) rotate(-180)"/>
  <rect class="cls-3" x="79.2" y="67.09" width="3.2" height="6.4" transform="translate(161.6 140.57) rotate(-180)"/>
  <rect class="cls-3" x="69.6" y="47.89" width="3.2" height="6.4" transform="translate(142.4 102.17) rotate(-180)"/>
  <rect class="cls-3" x="72.8" y="54.29" width="3.2" height="9.6" transform="translate(148.8 118.17) rotate(-180)"/>
  <rect class="cls-1" x="40.8" y="63.89" width="3.2" height="3.2"/>
  <rect class="cls-1" x="44" y="73.49" width="6.4" height="3.2"/>
  <rect class="cls-1" x="37.6" y="67.09" width="3.2" height="6.4"/>
  <rect class="cls-1" x="47.2" y="47.89" width="3.2" height="6.4"/>
  <rect class="cls-1" x="50.4" y="38.29" width="3.2" height="3.2"/>
  <rect class="cls-1" x="44" y="54.29" width="3.2" height="9.6"/>
  <rect class="cls-2" x="55.2" y="57.49" width="3.2" height="3.2"/>
  <rect class="cls-2" x="68" y="57.49" width="3.2" height="3.2"/>
  <rect class="cls-2" x="52" y="54.29" width="3.2" height="3.2"/>
  <rect class="cls-2" x="48.8" y="57.49" width="3.2" height="3.2"/>
  <rect class="cls-2" x="61.6" y="57.49" width="3.2" height="3.2"/>
  <rect class="cls-2" x="64.8" y="54.29" width="3.2" height="3.2"/>
  <rect class="cls-8" x="64.8" y="51.09" width="3.2" height="3.2"/>
  <rect class="cls-8" x="61.6" y="47.89" width="3.2" height="3.2"/>
  <rect class="cls-8" x="52" y="51.09" width="3.2" height="3.2" transform="translate(107.2 105.37) rotate(-180)"/>
  <rect class="cls-8" x="55.2" y="47.89" width="3.2" height="3.2" transform="translate(113.6 98.97) rotate(-180)"/>
  <rect class="cls-2" x="56.8" y="70.29" width="6.4" height="3.2"/>
  <rect class="cls-11" x="40.8" y="38.29" width="9.6" height="3.2"/>
  <rect class="cls-8" x="40.8" y="44.69" width="38.4" height="3.2"/>
  <rect class="cls-11" x="69.6" y="38.29" width="9.6" height="3.2"/>
  <rect class="cls-11" x="53.6" y="38.29" width="12.8" height="3.2"/>
  <rect class="cls-6" x="56.8" y="83.09" width="6.4" height="3.2"/>
  <polygon class="cls-12" points="40.8 44.69 79.2 44.69 79.2 41.49 69.6 41.49 69.6 38.29 66.4 38.29 66.4 41.49 53.6 41.49 53.6 38.29 50.4 38.29 50.4 41.49 40.8 41.49 40.8 44.69"/>
  <g>
    <rect class="cls-4" x="79.2" y="41.49" width="3.2" height="3.2" transform="translate(161.6 86.17) rotate(-180)"/>
    <rect class="cls-4" x="88.8" y="89.49" width="3.2" height="3.2" transform="translate(180.8 182.17) rotate(-180)"/>
    <rect class="cls-4" x="82.4" y="92.69" width="3.2" height="3.2" transform="translate(168 188.57) rotate(-180)"/>
    <rect class="cls-4" x="76" y="95.89" width="3.2" height="3.2" transform="translate(155.2 194.97) rotate(-180)"/>
    <rect class="cls-4" x="79.2" y="51.09" width="3.2" height="6.4" transform="translate(161.6 108.57) rotate(-180)"/>
    <rect class="cls-4" x="82.4" y="57.49" width="3.2" height="6.4" transform="translate(168 121.37) rotate(-180)"/>
    <rect class="cls-4" x="85.6" y="63.89" width="3.2" height="9.6" transform="translate(174.4 137.37) rotate(-180)"/>
    <rect class="cls-4" x="37.6" y="41.49" width="3.2" height="3.2"/>
    <rect class="cls-4" x="28" y="89.49" width="3.2" height="3.2"/>
    <rect class="cls-4" x="34.4" y="92.69" width="3.2" height="3.2"/>
    <rect class="cls-4" x="40.8" y="95.89" width="3.2" height="3.2"/>
    <rect class="cls-4" x="37.6" y="51.09" width="3.2" height="6.4"/>
    <rect class="cls-4" x="34.4" y="57.49" width="3.2" height="6.4"/>
    <rect class="cls-4" x="31.2" y="63.89" width="3.2" height="9.6"/>
    <rect class="cls-6" x="76" y="38.29" width="3.2" height="3.2" transform="translate(155.2 79.77) rotate(-180)"/>
    <rect class="cls-6" x="61.6" y="38.29" width="4.8" height="3.2" transform="translate(128 79.77) rotate(-180)"/>
    <rect class="cls-6" x="47.2" y="38.29" width="3.2" height="3.2" transform="translate(97.6 79.77) rotate(-180)"/>
    <rect class="cls-5" x="76.06" y="27.31" width="3.2" height="3.2" transform="translate(155.31 57.83) rotate(-180)"/>
    <rect class="cls-5" x="58.4" y="20.91" width="3.2" height="3.2" transform="translate(120 45.03) rotate(-180)"/>
    <rect class="cls-5" x="47.2" y="27.31" width="3.2" height="3.2" transform="translate(97.6 57.83) rotate(-180)"/>
    <rect class="cls-5" x="61.53" y="27.31" width="4.87" height="3.2" transform="translate(127.93 57.83) rotate(-180)"/>
    <rect class="cls-4" x="76.06" y="44.69" width="3.2" height="3.2" transform="translate(155.31 92.57) rotate(-180)"/>
    <rect class="cls-4" x="40.8" y="44.69" width="3.2" height="3.2" transform="translate(84.8 92.57) rotate(-180)"/>
  </g>
</svg>