<?xml version="1.0" encoding="UTF-8"?>
<svg id="Layer_59" data-name="Layer 59" xmlns="http://www.w3.org/2000/svg" viewBox="0 0 120 120">
  <defs>
    <style>
      .cls-1 {
        opacity: .54;
      }

      .cls-1, .cls-2, .cls-3, .cls-4, .cls-5, .cls-6, .cls-7, .cls-8 {
        stroke-width: 0px;
      }

      .cls-1, .cls-7 {
        fill: #fff;
      }

      .cls-3 {
        fill: #231f20;
        opacity: .3;
      }

      .cls-4 {
        fill: #d1d3d4;
      }

      .cls-5 {
        fill: #be1e2d;
      }

      .cls-6 {
        fill: #8dc63f;
      }

      .cls-8 {
        fill: #e6e7e8;
      }
    </style>
  </defs>
  <rect class="cls-5" x="79.2" y="50.4" width="6.4" height="3.2"/>
  <rect class="cls-5" x="79.2" y="56.8" width="6.4" height="3.2"/>
  <rect class="cls-3" x="79.2" y="56.8" width="6.4" height="3.2"/>
  <rect class="cls-3" x="79.2" y="50.4" width="6.4" height="3.2"/>
  <polygon class="cls-6" points="56.8 34.4 63.2 34.4 63.2 37.6 66.4 37.6 66.4 40.8 69.6 40.8 69.6 44 72.8 44 72.8 53.6 76 53.6 76 63.2 79.2 63.2 79.2 66.4 82.4 66.4 82.4 72.8 76 72.8 76 76 69.6 76 69.6 79.2 50.4 79.2 50.4 76 44 76 44 72.8 37.6 72.8 37.6 66.4 40.8 66.4 40.8 63.2 44 63.2 44 53.6 47.2 53.6 47.2 44 50.4 44 50.4 40.8 53.6 40.8 53.6 37.6 56.8 37.6 56.8 34.4"/>
  <rect class="cls-2" x="34.4" y="66.4" width="3.2" height="6.4"/>
  <rect class="cls-2" x="40.8" y="53.6" width="3.2" height="9.6"/>
  <rect class="cls-2" x="37.6" y="72.8" width="6.4" height="3.2"/>
  <rect class="cls-2" x="44" y="76" width="6.4" height="3.2"/>
  <rect class="cls-2" x="37.6" y="63.2" width="3.2" height="3.2"/>
  <rect class="cls-2" x="47.2" y="40.8" width="3.2" height="3.2"/>
  <rect class="cls-2" x="50.4" y="37.6" width="3.2" height="3.2"/>
  <rect class="cls-2" x="53.6" y="34.4" width="3.2" height="3.2"/>
  <rect class="cls-2" x="44" y="44" width="3.2" height="9.6"/>
  <rect class="cls-2" x="82.4" y="66.4" width="3.2" height="6.4" transform="translate(168 139.2) rotate(-180)"/>
  <rect class="cls-2" x="88.8" y="66.4" width="3.2" height="6.4" transform="translate(180.8 139.2) rotate(-180)"/>
  <rect class="cls-2" x="76" y="53.6" width="3.2" height="9.6" transform="translate(155.2 116.8) rotate(-180)"/>
  <rect class="cls-2" x="76" y="72.8" width="6.4" height="3.2" transform="translate(158.4 148.8) rotate(-180)"/>
  <rect class="cls-2" x="69.6" y="76" width="6.4" height="3.2" transform="translate(145.6 155.2) rotate(-180)"/>
  <rect class="cls-3" x="69.6" y="72.8" width="6.4" height="3.2" transform="translate(145.6 148.8) rotate(-180)"/>
  <rect class="cls-2" x="79.2" y="63.2" width="3.2" height="3.2" transform="translate(161.6 129.6) rotate(-180)"/>
  <rect class="cls-2" x="92" y="63.2" width="3.2" height="3.2" transform="translate(187.2 129.6) rotate(-180)"/>
  <rect class="cls-2" x="82.4" y="47.2" width="3.2" height="16" transform="translate(168 110.4) rotate(-180)"/>
  <rect class="cls-2" x="88.8" y="47.2" width="3.2" height="16" transform="translate(180.8 110.4) rotate(-180)"/>
  <rect class="cls-2" x="85.6" y="72.8" width="3.2" height="3.2" transform="translate(174.4 148.8) rotate(-180)"/>
  <rect class="cls-2" x="85.6" y="44" width="3.2" height="3.2" transform="translate(174.4 91.2) rotate(-180)"/>
  <rect class="cls-2" x="28" y="66.4" width="3.2" height="6.4"/>
  <rect class="cls-2" x="24.8" y="63.2" width="3.2" height="3.2"/>
  <rect class="cls-2" x="34.4" y="47.2" width="3.2" height="16"/>
  <rect class="cls-2" x="28" y="47.2" width="3.2" height="16"/>
  <rect class="cls-2" x="31.2" y="72.8" width="3.2" height="3.2"/>
  <rect class="cls-2" x="31.2" y="44" width="3.2" height="3.2"/>
  <rect class="cls-2" x="69.6" y="40.8" width="3.2" height="3.2" transform="translate(142.4 84.8) rotate(-180)"/>
  <rect class="cls-2" x="66.4" y="37.6" width="3.2" height="3.2" transform="translate(136 78.4) rotate(-180)"/>
  <rect class="cls-2" x="63.2" y="34.4" width="3.2" height="3.2" transform="translate(129.6 72) rotate(-180)"/>
  <rect class="cls-2" x="72.8" y="44" width="3.2" height="9.6" transform="translate(148.8 97.6) rotate(-180)"/>
  <rect class="cls-2" x="56.8" y="85.6" width="6.4" height="3.2"/>
  <polygon class="cls-2" points="50.4 79.2 50.4 82.4 53.6 82.4 53.6 85.6 56.8 85.6 56.8 82.4 63.2 82.4 63.2 85.6 66.4 85.6 66.4 82.4 69.6 82.4 69.6 79.2 50.4 79.2"/>
  <rect class="cls-2" x="56.8" y="31.2" width="6.4" height="3.2"/>
  <rect class="cls-3" x="76" y="63.2" width="3.2" height="3.2" transform="translate(155.2 129.6) rotate(-180)"/>
  <rect class="cls-3" x="79.2" y="66.4" width="3.2" height="6.4" transform="translate(161.6 139.2) rotate(-180)"/>
  <rect class="cls-3" x="69.6" y="44" width="3.2" height="9.6" transform="translate(142.4 97.6) rotate(-180)"/>
  <rect class="cls-3" x="66.4" y="40.8" width="3.2" height="3.2" transform="translate(136 84.8) rotate(-180)"/>
  <rect class="cls-3" x="63.2" y="37.6" width="3.2" height="3.2" transform="translate(129.6 78.4) rotate(-180)"/>
  <rect class="cls-3" x="72.8" y="53.6" width="3.2" height="9.6" transform="translate(148.8 116.8) rotate(-180)"/>
  <rect class="cls-1" x="40.8" y="63.2" width="3.2" height="3.2"/>
  <rect class="cls-1" x="44" y="72.8" width="6.4" height="3.2"/>
  <rect class="cls-1" x="37.6" y="66.4" width="3.2" height="6.4"/>
  <rect class="cls-1" x="47.2" y="44" width="3.2" height="9.6"/>
  <rect class="cls-1" x="50.4" y="40.8" width="3.2" height="3.2"/>
  <rect class="cls-1" x="53.6" y="37.6" width="3.2" height="3.2"/>
  <rect class="cls-1" x="44" y="53.6" width="3.2" height="9.6"/>
  <rect class="cls-3" x="56.8" y="34.4" width="6.4" height="3.2"/>
  <rect class="cls-5" x="44" y="53.6" width="19.2" height="9.6"/>
  <rect class="cls-7" x="47.2" y="56.8" width="9.6" height="3.2"/>
  <rect class="cls-5" x="63.2" y="53.6" width="12.8" height="9.6"/>
  <rect class="cls-2" x="53.6" y="69.6" width="12.8" height="3.2"/>
  <rect class="cls-5" x="56.8" y="82.4" width="6.4" height="3.2"/>
  <rect class="cls-5" x="40.8" y="56.8" width="6.4" height="3.2"/>
  <rect class="cls-5" x="72.8" y="56.8" width="6.4" height="3.2"/>
  <rect class="cls-4" x="82.4" y="63.2" width="9.6" height="3.2"/>
  <rect class="cls-8" x="85.6" y="47.2" width="3.2" height="16"/>
  <rect class="cls-5" x="85.6" y="66.4" width="3.2" height="6.4"/>
  <rect class="cls-3" x="85.6" y="66.4" width="3.2" height="6.4"/>
  <rect class="cls-4" x="28" y="63.2" width="9.6" height="3.2" transform="translate(65.6 129.6) rotate(-180)"/>
  <rect class="cls-8" x="31.2" y="47.2" width="3.2" height="16" transform="translate(65.6 110.4) rotate(-180)"/>
  <rect class="cls-5" x="31.2" y="66.4" width="3.2" height="6.4" transform="translate(65.6 139.2) rotate(-180)"/>
  <rect class="cls-3" x="31.2" y="66.4" width="3.2" height="6.4" transform="translate(65.6 139.2) rotate(-180)"/>
  <rect class="cls-7" x="63.2" y="56.8" width="9.6" height="3.2"/>
  <rect class="cls-2" x="66.4" y="56.8" width="3.2" height="3.2" transform="translate(136 116.8) rotate(-180)"/>
  <rect class="cls-2" x="50.4" y="56.8" width="3.2" height="3.2" transform="translate(104 116.8) rotate(-180)"/>
</svg>