<?xml version="1.0" encoding="UTF-8"?>
<svg id="Layer_6" data-name="Layer 6" xmlns="http://www.w3.org/2000/svg" viewBox="0 0 89.6 92.8">
  <defs>
    <style>
      .cls-1, .cls-2, .cls-3, .cls-4, .cls-5, .cls-6, .cls-7, .cls-8, .cls-9 {
        stroke-width: 0px;
      }

      .cls-2 {
        fill: #231f20;
      }

      .cls-2, .cls-3 {
        opacity: .3;
      }

      .cls-3, .cls-7 {
        fill: #fff;
      }

      .cls-4 {
        fill: #e0e0e0;
      }

      .cls-5 {
        fill: #86572d;
      }

      .cls-6 {
        fill: #ff7000;
      }

      .cls-8 {
        fill: #ffae5f;
      }

      .cls-9 {
        fill: #fb0;
      }
    </style>
  </defs>
  <g>
    <rect class="cls-1" x="80" y="28.8" width="3.2" height="3.2" transform="translate(163.2 60.8) rotate(-180)"/>
    <polygon class="cls-6" points="67.2 25.6 70.4 25.6 70.4 28.8 73.6 28.8 73.6 32 76.8 32 76.8 35.2 80 35.2 80 38.4 83.2 38.4 83.2 41.6 86.4 41.6 86.4 48 89.6 48 89.6 38.4 86.4 38.4 86.4 35.2 83.2 35.2 83.2 32 80 32 80 28.8 76.8 28.8 76.8 25.6 73.6 25.6 73.6 22.4 64 22.4 64 25.6 67.2 25.6"/>
    <polygon class="cls-5" points="73.6 35.2 73.6 38.4 70.4 38.4 70.4 41.6 67.2 41.6 67.2 44.8 64 44.8 64 48 60.8 48 60.8 51.2 67.2 51.2 67.2 48 70.4 48 70.4 44.8 73.6 44.8 73.6 41.6 76.8 41.6 76.8 38.4 80 38.4 80 35.2 73.6 35.2"/>
    <rect class="cls-1" x="64" y="22.4" width="3.2" height="3.2" transform="translate(131.2 48) rotate(-180)"/>
    <rect class="cls-1" x="86.4" y="44.8" width="3.2" height="3.2" transform="translate(176 92.8) rotate(-180)"/>
  </g>
  <g>
    <rect class="cls-1" x="6.4" y="28.8" width="3.2" height="3.2"/>
    <polygon class="cls-6" points="22.4 25.6 19.2 25.6 19.2 28.8 16 28.8 16 32 12.8 32 12.8 35.2 9.6 35.2 9.6 38.4 6.4 38.4 6.4 41.6 3.2 41.6 3.2 48 0 48 0 38.4 3.2 38.4 3.2 35.2 6.4 35.2 6.4 32 9.6 32 9.6 28.8 12.8 28.8 12.8 25.6 16 25.6 16 22.4 25.6 22.4 25.6 25.6 22.4 25.6"/>
    <polygon class="cls-5" points="16 35.2 16 38.4 19.2 38.4 19.2 41.6 22.4 41.6 22.4 44.8 25.6 44.8 25.6 48 28.8 48 28.8 51.2 22.4 51.2 22.4 48 19.2 48 19.2 44.8 16 44.8 16 41.6 12.8 41.6 12.8 38.4 9.6 38.4 9.6 35.2 16 35.2"/>
    <rect class="cls-1" x="22.4" y="22.4" width="3.2" height="3.2"/>
    <rect class="cls-1" x="0" y="44.8" width="3.2" height="3.2"/>
  </g>
  <polygon class="cls-8" points="41.6 25.6 48 25.6 48 28.8 51.2 28.8 51.2 32 54.4 32 54.4 35.2 57.6 35.2 57.6 44.8 60.8 44.8 60.8 54.4 64 54.4 64 57.6 67.2 57.6 67.2 64 60.8 64 60.8 67.2 54.4 67.2 54.4 70.4 35.2 70.4 35.2 67.2 28.8 67.2 28.8 64 22.4 64 22.4 57.6 25.6 57.6 25.6 54.4 28.8 54.4 28.8 44.8 32 44.8 32 35.2 35.2 35.2 35.2 32 38.4 32 38.4 28.8 41.6 28.8 41.6 25.6"/>
  <polygon class="cls-9" points="22.4 32 22.4 35.2 28.8 35.2 28.8 38.4 32 38.4 32 35.2 57.6 35.2 57.6 38.4 60.8 38.4 60.8 35.2 67.2 35.2 67.2 32 60.8 32 60.8 28.8 57.6 28.8 57.6 19.2 54.4 19.2 54.4 16 35.2 16 35.2 19.2 32 19.2 32 28.8 28.8 28.8 28.8 32 22.4 32"/>
  <rect class="cls-1" x="19.2" y="57.6" width="3.2" height="6.4"/>
  <rect class="cls-1" x="25.6" y="44.8" width="3.2" height="9.6"/>
  <rect class="cls-1" x="22.4" y="64" width="6.4" height="3.2"/>
  <rect class="cls-1" x="28.8" y="67.2" width="6.4" height="3.2"/>
  <rect class="cls-1" x="22.4" y="54.4" width="3.2" height="3.2"/>
  <rect class="cls-1" x="32" y="35.2" width="25.6" height="3.2"/>
  <rect class="cls-1" x="19.2" y="32" width="3.2" height="3.2"/>
  <rect class="cls-1" x="22.4" y="28.8" width="6.4" height="3.2"/>
  <rect class="cls-1" x="32" y="16" width="3.2" height="3.2"/>
  <rect class="cls-1" x="35.2" y="12.8" width="19.2" height="3.2"/>
  <rect class="cls-1" x="28.8" y="38.4" width="3.2" height="6.4"/>
  <rect class="cls-1" x="28.8" y="19.2" width="3.2" height="9.6"/>
  <rect class="cls-2" x="35.2" y="16" width="3.2" height="3.2"/>
  <rect class="cls-2" x="28.8" y="28.8" width="3.2" height="3.2"/>
  <rect class="cls-2" x="22.4" y="32" width="6.4" height="3.2"/>
  <rect class="cls-2" x="60.8" y="32" width="6.4" height="3.2"/>
  <rect class="cls-2" x="57.6" y="28.8" width="3.2" height="3.2"/>
  <rect class="cls-2" x="28.8" y="35.2" width="3.2" height="3.2"/>
  <rect class="cls-2" x="57.6" y="35.2" width="3.2" height="3.2"/>
  <rect class="cls-2" x="32" y="19.2" width="3.2" height="9.6"/>
  <rect class="cls-1" x="38.4" y="22.4" width="3.2" height="6.4"/>
  <rect class="cls-1" x="48" y="22.4" width="3.2" height="6.4"/>
  <rect class="cls-1" x="67.2" y="32" width="3.2" height="3.2" transform="translate(137.6 67.2) rotate(-180)"/>
  <rect class="cls-1" x="60.8" y="28.8" width="6.4" height="3.2" transform="translate(128 60.8) rotate(-180)"/>
  <rect class="cls-1" x="54.4" y="16" width="3.2" height="3.2" transform="translate(112 35.2) rotate(-180)"/>
  <rect class="cls-1" x="57.6" y="19.2" width="3.2" height="9.6" transform="translate(118.4 48) rotate(-180)"/>
  <rect class="cls-2" x="51.2" y="16" width="3.2" height="3.2" transform="translate(105.6 35.2) rotate(-180)"/>
  <rect class="cls-2" x="54.4" y="19.2" width="3.2" height="9.6" transform="translate(112 48) rotate(-180)"/>
  <rect class="cls-1" x="67.2" y="57.6" width="3.2" height="6.4" transform="translate(137.6 121.6) rotate(-180)"/>
  <rect class="cls-1" x="60.8" y="44.8" width="3.2" height="9.6" transform="translate(124.8 99.2) rotate(-180)"/>
  <rect class="cls-1" x="60.8" y="64" width="6.4" height="3.2" transform="translate(128 131.2) rotate(-180)"/>
  <rect class="cls-1" x="54.4" y="67.2" width="6.4" height="3.2" transform="translate(115.2 137.6) rotate(-180)"/>
  <rect class="cls-1" x="64" y="54.4" width="3.2" height="3.2" transform="translate(131.2 112) rotate(-180)"/>
  <rect class="cls-1" x="57.6" y="38.4" width="3.2" height="6.4" transform="translate(118.4 83.2) rotate(-180)"/>
  <rect class="cls-1" x="41.6" y="76.8" width="6.4" height="3.2"/>
  <polygon class="cls-1" points="35.2 70.4 35.2 73.6 38.4 73.6 38.4 76.8 41.6 76.8 41.6 73.6 48 73.6 48 76.8 51.2 76.8 51.2 73.6 54.4 73.6 54.4 70.4 35.2 70.4"/>
  <rect class="cls-2" x="60.8" y="54.4" width="3.2" height="3.2" transform="translate(124.8 112) rotate(-180)"/>
  <rect class="cls-2" x="64" y="57.6" width="3.2" height="6.4" transform="translate(131.2 121.6) rotate(-180)"/>
  <rect class="cls-2" x="54.4" y="38.4" width="3.2" height="6.4" transform="translate(112 83.2) rotate(-180)"/>
  <rect class="cls-2" x="57.6" y="44.8" width="3.2" height="9.6" transform="translate(118.4 99.2) rotate(-180)"/>
  <rect class="cls-3" x="25.6" y="54.4" width="3.2" height="3.2"/>
  <rect class="cls-3" x="22.4" y="57.6" width="3.2" height="6.4"/>
  <rect class="cls-3" x="32" y="38.4" width="3.2" height="6.4"/>
  <rect class="cls-3" x="28.8" y="44.8" width="3.2" height="9.6"/>
  <rect class="cls-1" x="22.4" y="35.2" width="6.4" height="3.2"/>
  <rect class="cls-1" x="60.8" y="35.2" width="6.4" height="3.2"/>
  <rect class="cls-1" x="41.6" y="19.2" width="6.4" height="3.2"/>
  <rect class="cls-1" x="41.6" y="28.8" width="6.4" height="3.2"/>
  <rect class="cls-1" x="36.8" y="44.8" width="3.2" height="9.6"/>
  <rect class="cls-1" x="49.6" y="44.8" width="3.2" height="9.6"/>
  <rect class="cls-1" x="40" y="60.8" width="9.6" height="3.2"/>
  <rect class="cls-5" x="36.8" y="57.6" width="16" height="3.2"/>
  <rect class="cls-6" x="41.6" y="73.6" width="6.4" height="3.2"/>
  <rect class="cls-4" x="41.6" y="22.4" width="6.4" height="6.4"/>
  <rect class="cls-7" x="43.2" y="24" width="3.2" height="3.2" transform="translate(89.6 51.2) rotate(-180)"/>
</svg>