<?xml version="1.0" encoding="UTF-8"?>
<svg id="Layer_60" data-name="Layer 60" xmlns="http://www.w3.org/2000/svg" viewBox="0 0 120 120">
  <defs>
    <style>
      .cls-1 {
        opacity: .15;
      }

      .cls-1, .cls-2, .cls-3, .cls-4, .cls-5, .cls-6, .cls-7, .cls-8, .cls-9 {
        stroke-width: 0px;
      }

      .cls-1, .cls-3 {
        fill: #231f20;
      }

      .cls-3, .cls-4 {
        opacity: .3;
      }

      .cls-4, .cls-8 {
        fill: #fff;
      }

      .cls-5 {
        fill: #f4a28c;
      }

      .cls-6 {
        fill: #545454;
      }

      .cls-7 {
        fill: #d8d8d6;
      }

      .cls-9 {
        fill: #fbbb9b;
      }
    </style>
  </defs>
  <g>
    <polygon class="cls-7" points="31.2 64.79 40.8 64.8 40.8 55.2 44 55.2 44 45.6 47.2 45.6 53.6 39.2 66.4 39.2 72.8 45.6 76 45.6 76 55.2 79.2 64.8 88.8 64.79 88.8 58.4 82.4 52 79.2 42.4 69.6 32.8 50.4 32.8 40.8 42.4 37.6 48.8 37.6 52 31.2 58.4 31.2 64.79"/>
    <polygon class="cls-9" points="56.8 36 63.2 36 63.2 39.2 66.4 39.2 66.4 42.4 69.6 42.4 69.6 45.6 72.8 45.6 72.8 55.2 76 55.2 76 64.8 79.2 64.8 79.2 68 82.4 68 82.4 74.4 76 74.4 76 77.6 69.6 77.6 69.6 80.8 50.4 80.8 50.4 77.6 44 77.6 44 74.4 37.6 74.4 37.6 68 40.8 68 40.8 64.8 44 64.8 44 55.2 47.2 55.2 47.2 45.6 50.4 45.6 50.4 42.4 53.6 42.4 53.6 39.2 56.8 39.2 56.8 36"/>
    <rect class="cls-2" x="34.4" y="68" width="3.2" height="6.4"/>
    <rect class="cls-2" x="40.8" y="55.2" width="3.2" height="9.6"/>
    <rect class="cls-2" x="37.6" y="74.4" width="6.4" height="3.2"/>
    <rect class="cls-2" x="44" y="77.6" width="6.4" height="3.2"/>
    <rect class="cls-2" x="31.2" y="64.8" width="9.6" height="3.2"/>
    <rect class="cls-2" x="47.2" y="42.4" width="3.2" height="3.2"/>
    <rect class="cls-2" x="50.4" y="39.2" width="3.2" height="3.2"/>
    <rect class="cls-2" x="50.4" y="29.6" width="19.2" height="3.2"/>
    <rect class="cls-2" x="44" y="36" width="3.2" height="3.2"/>
    <rect class="cls-2" x="47.2" y="32.8" width="3.2" height="3.2"/>
    <rect class="cls-2" x="53.6" y="36" width="3.2" height="3.2"/>
    <rect class="cls-2" x="44" y="45.6" width="3.2" height="9.6"/>
    <rect class="cls-2" x="82.4" y="68" width="3.2" height="6.4" transform="translate(168 142.4) rotate(-180)"/>
    <rect class="cls-2" x="79.2" y="42.4" width="3.2" height="9.6" transform="translate(161.6 94.4) rotate(-180)"/>
    <rect class="cls-1" x="79.2" y="55.2" width="3.2" height="9.6" transform="translate(161.6 120) rotate(-180)"/>
    <polyline class="cls-1" points="37.6 64.8 40.8 64.8 40.8 55.2 37.6 55.2"/>
    <rect class="cls-2" x="28" y="58.4" width="3.2" height="6.39"/>
    <rect class="cls-2" x="37.6" y="42.4" width="3.2" height="9.6"/>
    <rect class="cls-2" x="40.8" y="39.2" width="3.2" height="3.2"/>
    <rect class="cls-2" x="76" y="39.2" width="3.2" height="3.2"/>
    <rect class="cls-2" x="72.8" y="36" width="3.2" height="3.2"/>
    <rect class="cls-2" x="69.6" y="32.8" width="3.2" height="3.2"/>
    <rect class="cls-2" x="34.4" y="52" width="3.2" height="3.2"/>
    <rect class="cls-2" x="79.2" y="64.8" width="9.6" height="3.2" transform="translate(168 132.8) rotate(-180)"/>
    <rect class="cls-2" x="88.8" y="58.4" width="3.2" height="6.39" transform="translate(180.8 123.19) rotate(-180)"/>
    <rect class="cls-2" x="82.4" y="52" width="3.2" height="3.2" transform="translate(168 107.2) rotate(-180)"/>
    <rect class="cls-2" x="76" y="55.2" width="3.2" height="9.6" transform="translate(155.2 120) rotate(-180)"/>
    <rect class="cls-2" x="76" y="74.4" width="6.4" height="3.2" transform="translate(158.4 152) rotate(-180)"/>
    <rect class="cls-2" x="69.6" y="77.6" width="6.4" height="3.2" transform="translate(145.6 158.4) rotate(-180)"/>
    <rect class="cls-5" x="69.6" y="74.4" width="6.4" height="3.2" transform="translate(145.6 152) rotate(-180)"/>
    <rect class="cls-2" x="79.2" y="64.8" width="3.2" height="3.2" transform="translate(161.6 132.8) rotate(-180)"/>
    <rect class="cls-2" x="69.6" y="42.4" width="3.2" height="3.2" transform="translate(142.4 88) rotate(-180)"/>
    <rect class="cls-2" x="66.4" y="39.2" width="3.2" height="3.2" transform="translate(136 81.6) rotate(-180)"/>
    <rect class="cls-2" x="63.2" y="36" width="3.2" height="3.2" transform="translate(129.6 75.2) rotate(-180)"/>
    <rect class="cls-2" x="72.8" y="45.6" width="3.2" height="9.6" transform="translate(148.8 100.8) rotate(-180)"/>
    <rect class="cls-2" x="56.8" y="87.2" width="6.4" height="3.2"/>
    <polygon class="cls-2" points="50.4 80.8 50.4 84 53.6 84 53.6 87.2 56.8 87.2 56.8 84 63.2 84 63.2 87.2 66.4 87.2 66.4 84 69.6 84 69.6 80.8 50.4 80.8"/>
    <rect class="cls-2" x="56.8" y="36" width="6.4" height="3.2"/>
    <rect class="cls-7" x="47.2" y="55.2" width="9.6" height="3.2"/>
    <rect class="cls-7" x="63.2" y="55.2" width="9.6" height="3.2"/>
    <rect class="cls-5" x="76" y="64.8" width="3.2" height="3.2" transform="translate(155.2 132.8) rotate(-180)"/>
    <rect class="cls-5" x="79.2" y="68" width="3.2" height="6.4" transform="translate(161.6 142.4) rotate(-180)"/>
    <rect class="cls-5" x="69.6" y="45.6" width="3.2" height="9.6" transform="translate(142.4 100.8) rotate(-180)"/>
    <rect class="cls-5" x="66.4" y="42.4" width="3.2" height="3.2" transform="translate(136 88) rotate(-180)"/>
    <rect class="cls-5" x="63.2" y="39.2" width="3.2" height="3.2" transform="translate(129.6 81.6) rotate(-180)"/>
    <rect class="cls-1" x="50.4" y="32.8" width="19.2" height="3.2" transform="translate(120 68.8) rotate(-180)"/>
    <rect class="cls-1" x="76" y="52" width="3.2" height="3.2" transform="translate(155.2 107.2) rotate(-180)"/>
    <rect class="cls-1" x="76" y="42.4" width="3.2" height="3.2" transform="translate(155.2 88) rotate(-180)"/>
    <rect class="cls-1" x="72.8" y="39.2" width="3.2" height="3.2" transform="translate(148.8 81.6) rotate(-180)"/>
    <rect class="cls-1" x="69.6" y="36" width="3.2" height="3.2" transform="translate(142.4 75.2) rotate(-180)"/>
    <rect class="cls-2" x="85.6" y="55.2" width="3.2" height="3.2" transform="translate(174.4 113.6) rotate(-180)"/>
    <rect class="cls-1" x="82.4" y="61.6" width="6.4" height="3.2" transform="translate(171.2 126.4) rotate(-180)"/>
    <rect class="cls-1" x="40.8" y="52" width="3.2" height="3.2"/>
    <rect class="cls-1" x="40.8" y="42.4" width="3.2" height="3.2"/>
    <rect class="cls-1" x="44" y="39.2" width="3.2" height="3.2"/>
    <rect class="cls-1" x="47.2" y="36" width="3.2" height="3.2"/>
    <rect class="cls-2" x="31.2" y="55.2" width="3.2" height="3.2"/>
    <rect class="cls-1" x="47.2" y="55.2" width="9.6" height="3.2"/>
    <rect class="cls-1" x="63.2" y="55.2" width="9.6" height="3.2"/>
    <rect class="cls-1" x="31.2" y="61.6" width="6.4" height="3.2"/>
    <rect class="cls-5" x="72.8" y="55.2" width="3.2" height="9.6" transform="translate(148.8 120) rotate(-180)"/>
    <rect class="cls-4" x="40.8" y="64.8" width="3.2" height="3.2"/>
    <rect class="cls-4" x="44" y="74.4" width="6.4" height="3.2"/>
    <rect class="cls-4" x="37.6" y="68" width="3.2" height="6.4"/>
    <rect class="cls-4" x="47.2" y="45.6" width="3.2" height="9.6"/>
    <rect class="cls-4" x="50.4" y="42.4" width="3.2" height="3.2"/>
    <rect class="cls-4" x="53.6" y="39.2" width="3.2" height="3.2"/>
    <rect class="cls-4" x="44" y="55.2" width="3.2" height="9.6"/>
    <rect class="cls-3" x="56.8" y="36" width="6.4" height="3.2"/>
    <rect class="cls-2" x="50.4" y="58.4" width="3.2" height="3.2"/>
    <rect class="cls-2" x="66.4" y="58.4" width="3.2" height="3.2"/>
    <rect class="cls-2" x="53.6" y="68" width="12.8" height="3.2"/>
    <rect class="cls-8" x="56.8" y="84" width="6.4" height="3.2"/>
  </g>
  <polygon class="cls-6" points="53.6 87.2 53.6 87.2 53.6 87.2 53.6 87.2 53.6 84 50.4 84 50.4 84 50.4 84 50.4 84 50.4 80.8 47.2 80.8 47.2 80.8 44 80.8 44 84 47.2 84 47.2 84 47.2 84 47.2 84 47.2 87.2 50.4 87.2 50.4 87.2 50.4 87.2 50.4 90.4 53.6 90.4 53.6 90.4 56.8 90.4 56.8 87.2 53.6 87.2"/>
  <polygon class="cls-6" points="66.4 87.2 66.4 87.2 66.4 87.2 66.4 87.2 66.4 84 69.6 84 69.6 84 69.6 84 69.6 84 69.6 80.8 72.8 80.8 72.8 80.8 76 80.8 76 84 72.8 84 72.8 84 72.8 84 72.8 84 72.8 87.2 69.6 87.2 69.6 87.2 69.6 87.2 69.6 90.4 66.4 90.4 66.4 90.4 63.2 90.4 63.2 87.2 66.4 87.2"/>
</svg>