<?xml version="1.0" encoding="UTF-8"?>
<svg id="Layer_62" data-name="Layer 62" xmlns="http://www.w3.org/2000/svg" viewBox="0 0 120 120">
  <defs>
    <style>
      .cls-1 {
        opacity: .37;
      }

      .cls-1, .cls-2, .cls-3, .cls-4, .cls-5, .cls-6, .cls-7 {
        stroke-width: 0px;
      }

      .cls-1, .cls-7 {
        fill: #fff;
      }

      .cls-2 {
        opacity: .15;
      }

      .cls-2, .cls-4 {
        fill: #231f20;
      }

      .cls-4 {
        opacity: .3;
      }

      .cls-5 {
        fill: #f3ba00;
      }

      .cls-6 {
        fill: #00a4fd;
      }
    </style>
  </defs>
  <polygon class="cls-7" points="31.2 36 31.2 61.6 34.4 61.6 34.4 64.8 37.6 64.8 40.8 58.4 44 52 44 45.6 34.4 36 31.2 36"/>
  <polygon class="cls-7" points="88.8 36 88.8 61.6 85.6 61.6 85.6 64.8 82.4 64.8 79.2 58.4 76 52 76 45.6 85.6 36 88.8 36"/>
  <polygon class="cls-6" points="56.8 32.8 63.2 32.8 63.2 36 66.4 36 66.4 39.2 69.6 39.2 69.6 42.4 72.8 42.4 72.8 52 76 52 76 61.6 79.2 61.6 79.2 64.8 82.4 64.8 82.4 71.2 76 71.2 76 74.4 69.6 74.4 69.6 77.6 50.4 77.6 50.4 74.4 44 74.4 44 71.2 37.6 71.2 37.6 64.8 40.8 64.8 40.8 61.6 44 61.6 44 52 47.2 52 47.2 42.4 50.4 42.4 50.4 39.2 53.6 39.2 53.6 36 56.8 36 56.8 32.8"/>
  <rect class="cls-3" x="34.4" y="64.8" width="3.2" height="6.4"/>
  <rect class="cls-3" x="40.8" y="52" width="3.2" height="9.6"/>
  <rect class="cls-3" x="37.6" y="71.2" width="6.4" height="3.2"/>
  <rect class="cls-3" x="44" y="74.4" width="6.4" height="3.2"/>
  <rect class="cls-3" x="37.6" y="58.4" width="3.2" height="6.4"/>
  <rect class="cls-3" x="47.2" y="39.2" width="3.2" height="3.2"/>
  <rect class="cls-3" x="50.4" y="36" width="3.2" height="3.2"/>
  <rect class="cls-3" x="44" y="42.4" width="3.2" height="9.6"/>
  <rect class="cls-3" x="53.6" y="32.8" width="3.2" height="3.2"/>
  <rect class="cls-3" x="82.4" y="64.8" width="3.2" height="6.4" transform="translate(168 136) rotate(-180)"/>
  <rect class="cls-3" x="76" y="52" width="3.2" height="9.6" transform="translate(155.2 113.6) rotate(-180)"/>
  <rect class="cls-3" x="76" y="71.2" width="6.4" height="3.2" transform="translate(158.4 145.6) rotate(-180)"/>
  <rect class="cls-3" x="69.6" y="74.4" width="6.4" height="3.2" transform="translate(145.6 152) rotate(-180)"/>
  <rect class="cls-4" x="69.6" y="71.2" width="6.4" height="3.2" transform="translate(145.6 145.6) rotate(-180)"/>
  <rect class="cls-3" x="79.2" y="58.4" width="3.2" height="6.4" transform="translate(161.6 123.2) rotate(-180)"/>
  <rect class="cls-3" x="69.6" y="39.2" width="3.2" height="3.2" transform="translate(142.4 81.6) rotate(-180)"/>
  <rect class="cls-3" x="76" y="42.4" width="3.2" height="3.2" transform="translate(155.2 88) rotate(-180)"/>
  <rect class="cls-3" x="79.2" y="39.2" width="3.2" height="3.2" transform="translate(161.6 81.6) rotate(-180)"/>
  <rect class="cls-3" x="82.4" y="36" width="3.2" height="3.2" transform="translate(168 75.2) rotate(-180)"/>
  <rect class="cls-3" x="85.6" y="32.8" width="3.2" height="3.2" transform="translate(174.4 68.8) rotate(-180)"/>
  <rect class="cls-3" x="82.4" y="45.6" width="3.2" height="3.2" transform="translate(168 94.4) rotate(-180)"/>
  <rect class="cls-3" x="79.2" y="48.8" width="3.2" height="3.2" transform="translate(161.6 100.8) rotate(-180)"/>
  <rect class="cls-3" x="85.6" y="42.4" width="3.2" height="3.2" transform="translate(174.4 88) rotate(-180)"/>
  <rect class="cls-3" x="82.4" y="55.2" width="3.2" height="3.2" transform="translate(168 113.6) rotate(-180)"/>
  <rect class="cls-3" x="85.6" y="52" width="3.2" height="3.2" transform="translate(174.4 107.2) rotate(-180)"/>
  <rect class="cls-3" x="85.6" y="61.6" width="3.2" height="3.2" transform="translate(174.4 126.4) rotate(-180)"/>
  <rect class="cls-3" x="88.8" y="36" width="3.2" height="6.4" transform="translate(180.8 78.4) rotate(-180)"/>
  <rect class="cls-3" x="88.8" y="45.6" width="3.2" height="6.4" transform="translate(180.8 97.6) rotate(-180)"/>
  <rect class="cls-3" x="88.8" y="55.2" width="3.2" height="6.4" transform="translate(180.8 116.8) rotate(-180)"/>
  <rect class="cls-2" x="82.4" y="42.4" width="3.2" height="3.2" transform="translate(168 88) rotate(-180)"/>
  <rect class="cls-2" x="76" y="45.6" width="3.2" height="3.2" transform="translate(155.2 94.4) rotate(-180)"/>
  <rect class="cls-2" x="82.4" y="52" width="3.2" height="3.2" transform="translate(168 107.2) rotate(-180)"/>
  <rect class="cls-2" x="79.2" y="55.2" width="3.2" height="3.2" transform="translate(161.6 113.6) rotate(-180)"/>
  <rect class="cls-2" x="82.4" y="61.6" width="3.2" height="3.2" transform="translate(168 126.4) rotate(-180)"/>
  <rect class="cls-2" x="85.6" y="36" width="3.2" height="6.4" transform="translate(174.4 78.4) rotate(-180)"/>
  <rect class="cls-2" x="85.6" y="45.6" width="3.2" height="6.4" transform="translate(174.4 97.6) rotate(-180)"/>
  <rect class="cls-2" x="85.6" y="55.2" width="3.2" height="6.4" transform="translate(174.4 116.8) rotate(-180)"/>
  <rect class="cls-2" x="34.4" y="42.4" width="3.2" height="3.2"/>
  <rect class="cls-2" x="40.8" y="45.6" width="3.2" height="3.2"/>
  <rect class="cls-2" x="34.4" y="52" width="3.2" height="3.2"/>
  <rect class="cls-2" x="37.6" y="55.2" width="3.2" height="3.2"/>
  <rect class="cls-2" x="34.4" y="61.6" width="3.2" height="3.2"/>
  <rect class="cls-2" x="31.2" y="36" width="3.2" height="6.4"/>
  <rect class="cls-2" x="31.2" y="45.6" width="3.2" height="6.4"/>
  <rect class="cls-2" x="31.2" y="55.2" width="3.2" height="6.4"/>
  <rect class="cls-3" x="40.8" y="42.4" width="3.2" height="3.2"/>
  <rect class="cls-3" x="37.6" y="39.2" width="3.2" height="3.2"/>
  <rect class="cls-3" x="34.4" y="36" width="3.2" height="3.2"/>
  <rect class="cls-3" x="31.2" y="32.8" width="3.2" height="3.2"/>
  <rect class="cls-3" x="34.4" y="45.6" width="3.2" height="3.2"/>
  <rect class="cls-3" x="37.6" y="48.8" width="3.2" height="3.2"/>
  <rect class="cls-3" x="31.2" y="42.4" width="3.2" height="3.2"/>
  <rect class="cls-3" x="34.4" y="55.2" width="3.2" height="3.2"/>
  <rect class="cls-3" x="31.2" y="52" width="3.2" height="3.2"/>
  <rect class="cls-3" x="31.2" y="61.6" width="3.2" height="3.2"/>
  <rect class="cls-3" x="28" y="36" width="3.2" height="6.4"/>
  <rect class="cls-3" x="28" y="45.6" width="3.2" height="6.4"/>
  <rect class="cls-3" x="28" y="55.2" width="3.2" height="6.4"/>
  <rect class="cls-3" x="66.4" y="36" width="3.2" height="3.2" transform="translate(136 75.2) rotate(-180)"/>
  <rect class="cls-3" x="72.8" y="42.4" width="3.2" height="9.6" transform="translate(148.8 94.4) rotate(-180)"/>
  <rect class="cls-3" x="63.2" y="32.8" width="3.2" height="3.2" transform="translate(129.6 68.8) rotate(-180)"/>
  <rect class="cls-3" x="56.8" y="84" width="6.4" height="3.2"/>
  <polygon class="cls-3" points="50.4 77.6 50.4 80.8 53.6 80.8 53.6 84 56.8 84 56.8 80.8 63.2 80.8 63.2 84 66.4 84 66.4 80.8 69.6 80.8 69.6 77.6 50.4 77.6"/>
  <rect class="cls-3" x="56.8" y="32.8" width="6.4" height="3.2"/>
  <rect class="cls-4" x="76" y="61.6" width="3.2" height="3.2" transform="translate(155.2 126.4) rotate(-180)"/>
  <rect class="cls-4" x="79.2" y="64.8" width="3.2" height="6.4" transform="translate(161.6 136) rotate(-180)"/>
  <rect class="cls-4" x="69.6" y="42.4" width="3.2" height="9.6" transform="translate(142.4 94.4) rotate(-180)"/>
  <rect class="cls-4" x="66.4" y="39.2" width="3.2" height="3.2" transform="translate(136 81.6) rotate(-180)"/>
  <rect class="cls-4" x="63.2" y="36" width="3.2" height="3.2" transform="translate(129.6 75.2) rotate(-180)"/>
  <rect class="cls-4" x="72.8" y="52" width="3.2" height="9.6" transform="translate(148.8 113.6) rotate(-180)"/>
  <rect class="cls-1" x="40.8" y="61.6" width="3.2" height="3.2"/>
  <rect class="cls-1" x="44" y="71.2" width="6.4" height="3.2"/>
  <rect class="cls-1" x="37.6" y="64.8" width="3.2" height="6.4"/>
  <rect class="cls-1" x="47.2" y="42.4" width="3.2" height="9.6"/>
  <rect class="cls-1" x="50.4" y="39.2" width="3.2" height="3.2"/>
  <rect class="cls-1" x="53.6" y="36" width="3.2" height="3.2"/>
  <rect class="cls-1" x="44" y="52" width="3.2" height="9.6"/>
  <rect class="cls-3" x="53.6" y="58.4" width="3.2" height="3.2"/>
  <rect class="cls-3" x="63.2" y="58.4" width="3.2" height="3.2"/>
  <rect class="cls-3" x="58.4" y="45.6" width="3.2" height="3.2"/>
  <rect class="cls-3" x="61.6" y="42.4" width="3.2" height="3.2"/>
  <rect class="cls-3" x="55.2" y="42.4" width="3.2" height="3.2"/>
  <rect class="cls-3" x="61.6" y="48.8" width="3.2" height="3.2"/>
  <rect class="cls-3" x="55.2" y="48.8" width="3.2" height="3.2"/>
  <rect class="cls-3" x="56.8" y="71.2" width="6.4" height="3.2"/>
  <rect class="cls-5" x="56.8" y="68" width="6.4" height="3.2"/>
  <rect class="cls-3" x="56.8" y="64.8" width="6.4" height="3.2"/>
  <rect class="cls-3" x="63.2" y="68" width="6.4" height="3.2"/>
  <rect class="cls-3" x="50.4" y="68" width="6.4" height="3.2"/>
  <rect class="cls-6" x="56.8" y="80.8" width="6.4" height="3.2"/>
</svg>