<?xml version="1.0" encoding="UTF-8"?>
<svg id="Layer_63" data-name="Layer 63" xmlns="http://www.w3.org/2000/svg" viewBox="0 0 120 120">
  <defs>
    <style>
      .cls-1 {
        fill: #fff;
        opacity: .54;
      }

      .cls-1, .cls-2, .cls-3, .cls-4, .cls-5, .cls-6, .cls-7 {
        stroke-width: 0px;
      }

      .cls-3 {
        fill: #50b323;
      }

      .cls-4 {
        fill: #3b8914;
      }

      .cls-5 {
        fill: #184c00;
      }

      .cls-6 {
        fill: #ff8400;
      }

      .cls-7 {
        fill: #ffad00;
      }
    </style>
  </defs>
  <polygon class="cls-7" points="56.8 48.8 63.2 48.8 63.2 52 66.4 52 66.4 55.2 69.6 55.2 69.6 58.4 72.8 58.4 72.8 68 76 68 76 77.6 79.2 77.6 79.2 80.8 82.4 80.8 82.4 87.2 76 87.2 76 90.4 69.6 90.4 69.6 93.6 50.4 93.6 50.4 90.4 44 90.4 44 87.2 37.6 87.2 37.6 80.8 40.8 80.8 40.8 77.6 44 77.6 44 68 47.2 68 47.2 58.4 50.4 58.4 50.4 55.2 53.6 55.2 53.6 52 56.8 52 56.8 48.8"/>
  <rect class="cls-2" x="34.4" y="80.8" width="3.2" height="6.4"/>
  <rect class="cls-2" x="40.8" y="68" width="3.2" height="9.6"/>
  <rect class="cls-2" x="37.6" y="87.2" width="6.4" height="3.2"/>
  <rect class="cls-2" x="44" y="90.4" width="6.4" height="3.2"/>
  <rect class="cls-2" x="37.6" y="77.6" width="3.2" height="3.2"/>
  <rect class="cls-2" x="47.2" y="55.2" width="3.2" height="3.2"/>
  <rect class="cls-2" x="50.4" y="52" width="3.2" height="3.2"/>
  <rect class="cls-2" x="53.6" y="48.8" width="3.2" height="3.2"/>
  <rect class="cls-2" x="50.4" y="45.6" width="3.2" height="3.2"/>
  <rect class="cls-2" x="47.2" y="42.4" width="3.2" height="3.2"/>
  <rect class="cls-2" x="53.6" y="26.4" width="3.2" height="9.6"/>
  <rect class="cls-2" x="44" y="39.2" width="3.2" height="3.2"/>
  <rect class="cls-2" x="44" y="26.4" width="3.2" height="3.2"/>
  <rect class="cls-2" x="37.6" y="26.4" width="3.2" height="3.2"/>
  <rect class="cls-2" x="40.8" y="23.2" width="3.2" height="3.2"/>
  <rect class="cls-2" x="44" y="16.8" width="3.2" height="3.2"/>
  <rect class="cls-2" x="47.2" y="20" width="3.2" height="3.2"/>
  <rect class="cls-2" x="40.8" y="20" width="3.2" height="3.2"/>
  <rect class="cls-2" x="47.2" y="23.2" width="3.2" height="3.2"/>
  <rect class="cls-2" x="50.4" y="26.4" width="3.2" height="3.2"/>
  <rect class="cls-2" x="50.4" y="23.2" width="3.2" height="3.2"/>
  <rect class="cls-2" x="53.6" y="20" width="3.2" height="3.2"/>
  <rect class="cls-2" x="56.8" y="23.2" width="3.2" height="3.2"/>
  <rect class="cls-2" x="60" y="20" width="3.2" height="3.2"/>
  <rect class="cls-2" x="63.2" y="16.8" width="3.2" height="3.2"/>
  <rect class="cls-2" x="69.6" y="20" width="3.2" height="3.2"/>
  <rect class="cls-2" x="76" y="23.2" width="3.2" height="3.2"/>
  <rect class="cls-2" x="79.2" y="20" width="3.2" height="3.2"/>
  <rect class="cls-2" x="72.8" y="16.8" width="6.4" height="3.2"/>
  <rect class="cls-2" x="66.4" y="20" width="3.2" height="9.6"/>
  <rect class="cls-2" x="63.2" y="23.2" width="3.2" height="12.8"/>
  <rect class="cls-2" x="47.2" y="32.8" width="3.2" height="3.2"/>
  <rect class="cls-2" x="40.8" y="36" width="3.2" height="3.2"/>
  <rect class="cls-2" x="37.6" y="39.2" width="3.2" height="3.2"/>
  <rect class="cls-2" x="34.4" y="36" width="3.2" height="3.2"/>
  <rect class="cls-2" x="37.6" y="32.8" width="3.2" height="3.2"/>
  <rect class="cls-2" x="40.8" y="29.6" width="9.6" height="3.2"/>
  <rect class="cls-2" x="44" y="58.4" width="3.2" height="9.6"/>
  <rect class="cls-2" x="82.4" y="80.8" width="3.2" height="6.4" transform="translate(168 168) rotate(-180)"/>
  <rect class="cls-2" x="76" y="68" width="3.2" height="9.6" transform="translate(155.2 145.6) rotate(-180)"/>
  <rect class="cls-2" x="76" y="87.2" width="6.4" height="3.2" transform="translate(158.4 177.6) rotate(-180)"/>
  <rect class="cls-2" x="69.6" y="90.4" width="6.4" height="3.2" transform="translate(145.6 184) rotate(-180)"/>
  <rect class="cls-6" x="69.6" y="87.2" width="6.4" height="3.2" transform="translate(145.6 177.6) rotate(-180)"/>
  <rect class="cls-2" x="79.2" y="77.6" width="3.2" height="3.2" transform="translate(161.6 158.4) rotate(-180)"/>
  <rect class="cls-2" x="69.6" y="55.2" width="3.2" height="3.2" transform="translate(142.4 113.6) rotate(-180)"/>
  <rect class="cls-2" x="66.4" y="52" width="3.2" height="3.2" transform="translate(136 107.2) rotate(-180)"/>
  <rect class="cls-2" x="66.4" y="45.6" width="3.2" height="3.2" transform="translate(136 94.4) rotate(-180)"/>
  <rect class="cls-2" x="69.6" y="42.4" width="3.2" height="3.2" transform="translate(142.4 88) rotate(-180)"/>
  <rect class="cls-2" x="72.8" y="39.2" width="3.2" height="3.2" transform="translate(148.8 81.6) rotate(-180)"/>
  <rect class="cls-2" x="76" y="36" width="3.2" height="3.2" transform="translate(155.2 75.2) rotate(-180)"/>
  <rect class="cls-2" x="79.2" y="39.2" width="3.2" height="3.2" transform="translate(161.6 81.6) rotate(-180)"/>
  <rect class="cls-2" x="82.4" y="36" width="3.2" height="3.2" transform="translate(168 75.2) rotate(-180)"/>
  <rect class="cls-2" x="79.2" y="32.8" width="3.2" height="3.2" transform="translate(161.6 68.8) rotate(-180)"/>
  <rect class="cls-2" x="72.8" y="23.2" width="3.2" height="9.6" transform="translate(148.8 56) rotate(-180)"/>
  <rect class="cls-2" x="69.6" y="32.8" width="3.2" height="3.2" transform="translate(142.4 68.8) rotate(-180)"/>
  <rect class="cls-2" x="69.6" y="29.6" width="9.6" height="3.2" transform="translate(148.8 62.4) rotate(-180)"/>
  <rect class="cls-2" x="63.2" y="48.8" width="3.2" height="3.2" transform="translate(129.6 100.8) rotate(-180)"/>
  <rect class="cls-2" x="72.8" y="58.4" width="3.2" height="9.6" transform="translate(148.8 126.4) rotate(-180)"/>
  <rect class="cls-2" x="56.8" y="100" width="6.4" height="3.2"/>
  <polygon class="cls-2" points="50.4 93.6 50.4 96.8 53.6 96.8 53.6 100 56.8 100 56.8 96.8 63.2 96.8 63.2 100 66.4 100 66.4 96.8 69.6 96.8 69.6 93.6 50.4 93.6"/>
  <rect class="cls-2" x="56.8" y="45.6" width="6.4" height="3.2"/>
  <rect class="cls-6" x="76" y="77.6" width="3.2" height="3.2" transform="translate(155.2 158.4) rotate(-180)"/>
  <rect class="cls-6" x="79.2" y="80.8" width="3.2" height="6.4" transform="translate(161.6 168) rotate(-180)"/>
  <rect class="cls-6" x="69.6" y="58.4" width="3.2" height="9.6" transform="translate(142.4 126.4) rotate(-180)"/>
  <rect class="cls-6" x="66.4" y="55.2" width="3.2" height="3.2" transform="translate(136 113.6) rotate(-180)"/>
  <rect class="cls-6" x="66.4" y="68" width="3.2" height="3.2" transform="translate(136 139.2) rotate(-180)"/>
  <rect class="cls-6" x="60" y="68" width="3.2" height="3.2" transform="translate(123.2 139.2) rotate(-180)"/>
  <rect class="cls-6" x="69.6" y="71.24" width="3.2" height="3.2" transform="translate(142.4 145.67) rotate(-180)"/>
  <rect class="cls-6" x="69.6" y="77.66" width="3.2" height="3.2" transform="translate(142.4 158.51) rotate(-180)"/>
  <rect class="cls-6" x="66.4" y="87.2" width="3.2" height="3.2" transform="translate(136 177.6) rotate(-180)"/>
  <rect class="cls-6" x="72.8" y="80.8" width="3.2" height="3.2" transform="translate(148.8 164.8) rotate(-180)"/>
  <rect class="cls-6" x="66.36" y="80.8" width="3.2" height="3.2" transform="translate(135.92 164.8) rotate(-180)"/>
  <rect class="cls-6" x="63.2" y="77.6" width="3.2" height="3.2" transform="translate(129.6 158.4) rotate(-180)"/>
  <rect class="cls-6" x="63.2" y="84.04" width="3.2" height="3.2" transform="translate(129.6 171.27) rotate(-180)"/>
  <rect class="cls-6" x="60" y="87.2" width="3.2" height="3.2" transform="translate(123.2 177.6) rotate(-180)"/>
  <rect class="cls-6" x="63.2" y="90.4" width="3.2" height="3.2" transform="translate(129.6 184) rotate(-180)"/>
  <rect class="cls-6" x="76" y="84.04" width="3.2" height="3.2" transform="translate(155.2 171.27) rotate(-180)"/>
  <rect class="cls-6" x="69.6" y="84.04" width="3.2" height="3.2" transform="translate(142.4 171.27) rotate(-180)"/>
  <rect class="cls-6" x="66.4" y="74.4" width="3.2" height="3.2" transform="translate(136 152) rotate(-180)"/>
  <rect class="cls-6" x="60" y="74.4" width="3.2" height="3.2" transform="translate(123.2 152) rotate(-180)"/>
  <rect class="cls-6" x="66.4" y="61.6" width="3.2" height="3.2" transform="translate(136 126.4) rotate(-180)"/>
  <rect class="cls-6" x="60" y="61.6" width="3.2" height="3.2" transform="translate(123.2 126.4) rotate(-180)"/>
  <rect class="cls-6" x="63.2" y="58.4" width="3.2" height="3.2" transform="translate(129.6 120) rotate(-180)"/>
  <rect class="cls-6" x="63.2" y="64.8" width="3.2" height="3.2" transform="translate(129.6 132.8) rotate(-180)"/>
  <rect class="cls-6" x="63.2" y="52" width="3.2" height="3.2" transform="translate(129.6 107.2) rotate(-180)"/>
  <rect class="cls-6" x="60" y="55.2" width="3.2" height="3.2" transform="translate(123.2 113.6) rotate(-180)"/>
  <rect class="cls-6" x="72.8" y="68" width="3.2" height="9.6" transform="translate(148.8 145.6) rotate(-180)"/>
  <rect class="cls-1" x="40.8" y="77.6" width="3.2" height="3.2"/>
  <rect class="cls-1" x="44" y="87.2" width="6.4" height="3.2"/>
  <rect class="cls-1" x="37.6" y="80.8" width="3.2" height="6.4"/>
  <rect class="cls-1" x="47.2" y="58.4" width="3.2" height="9.6"/>
  <rect class="cls-1" x="50.4" y="55.2" width="3.2" height="3.2"/>
  <rect class="cls-1" x="53.6" y="52" width="3.2" height="3.2"/>
  <rect class="cls-1" x="44" y="68" width="3.2" height="9.6"/>
  <rect class="cls-6" x="56.8" y="48.8" width="6.4" height="3.2"/>
  <rect class="cls-2" x="53.6" y="68" width="3.2" height="9.6"/>
  <rect class="cls-2" x="63.2" y="68" width="3.2" height="9.6"/>
  <rect class="cls-2" x="56.8" y="80.8" width="6.4" height="3.2"/>
  <rect class="cls-6" x="56.8" y="96.8" width="6.4" height="3.2"/>
  <rect class="cls-5" x="40.8" y="32.8" width="3.2" height="3.2"/>
  <rect class="cls-5" x="44" y="32.8" width="3.2" height="3.2"/>
  <rect class="cls-5" x="37.6" y="36" width="3.2" height="3.2"/>
  <rect class="cls-3" x="44" y="20" width="3.2" height="6.4"/>
  <rect class="cls-3" x="40.8" y="26.4" width="3.2" height="3.2"/>
  <polygon class="cls-5" points="47.2 36 56.8 36 56.8 48.8 47.2 39.2 47.2 36"/>
  <rect class="cls-3" x="47.2" y="26.4" width="3.2" height="3.2"/>
  <rect class="cls-4" x="53.6" y="23.2" width="3.2" height="3.2"/>
  <rect class="cls-3" x="63.2" y="20" width="3.2" height="3.2"/>
  <rect class="cls-3" x="50.4" y="29.6" width="3.2" height="6.4"/>
  <rect class="cls-3" x="60" y="23.2" width="3.2" height="16"/>
  <rect class="cls-3" x="53.6" y="36" width="3.2" height="3.2"/>
  <rect class="cls-3" x="56.8" y="39.2" width="3.2" height="6.4"/>
  <rect class="cls-5" x="76" y="32.8" width="3.2" height="3.2" transform="translate(155.2 68.8) rotate(-180)"/>
  <rect class="cls-5" x="72.8" y="32.8" width="3.2" height="3.2" transform="translate(148.8 68.8) rotate(-180)"/>
  <rect class="cls-5" x="79.2" y="36" width="3.2" height="3.2" transform="translate(161.6 75.2) rotate(-180)"/>
  <rect class="cls-4" x="72.8" y="20" width="6.4" height="3.2" transform="translate(152 43.2) rotate(-180)"/>
  <polygon class="cls-5" points="72.8 36 63.2 36 63.2 48.8 72.8 39.2 72.8 36"/>
  <rect class="cls-4" x="69.6" y="23.2" width="3.2" height="6.4" transform="translate(142.4 52.8) rotate(-180)"/>
  <rect class="cls-4" x="66.4" y="29.6" width="3.2" height="6.4" transform="translate(136 65.6) rotate(-180)"/>
  <rect class="cls-4" x="63.2" y="36" width="3.2" height="3.2" transform="translate(129.6 75.2) rotate(-180)"/>
  <rect class="cls-4" x="60" y="39.2" width="3.2" height="6.4" transform="translate(123.2 84.8) rotate(-180)"/>
  <rect class="cls-5" x="56.8" y="26.4" width="3.2" height="12.8"/>
  <rect class="cls-4" x="53.6" y="45.6" width="3.2" height="3.2"/>
  <rect class="cls-4" x="50.4" y="42.4" width="3.2" height="3.2"/>
  <rect class="cls-4" x="47.2" y="39.2" width="3.2" height="3.2"/>
  <rect class="cls-4" x="44" y="36" width="3.2" height="3.2"/>
  <rect class="cls-4" x="69.6" y="39.2" width="3.2" height="3.2" transform="translate(142.4 81.6) rotate(-180)"/>
  <rect class="cls-4" x="66.4" y="42.4" width="3.2" height="3.2" transform="translate(136 88) rotate(-180)"/>
  <rect class="cls-4" x="63.2" y="45.6" width="3.2" height="3.2" transform="translate(129.6 94.4) rotate(-180)"/>
  <rect class="cls-4" x="72.8" y="36" width="3.2" height="3.2" transform="translate(148.8 75.2) rotate(-180)"/>
</svg>