<?xml version="1.0" encoding="UTF-8"?>
<svg id="Layer_65" data-name="Layer 65" xmlns="http://www.w3.org/2000/svg" viewBox="0 0 120 120">
  <defs>
    <style>
      .cls-1 {
        fill: #6d6e71;
      }

      .cls-1, .cls-2, .cls-3, .cls-4, .cls-5, .cls-6, .cls-7, .cls-8, .cls-9, .cls-10 {
        stroke-width: 0px;
      }

      .cls-2 {
        fill: #808285;
      }

      .cls-3 {
        fill: #58595b;
      }

      .cls-4 {
        fill: #414042;
      }

      .cls-5 {
        fill: #231f20;
      }

      .cls-6 {
        fill: #d1d3d4;
      }

      .cls-7 {
        fill: #bcbec0;
      }

      .cls-8 {
        fill: #a7a9ac;
      }

      .cls-9 {
        fill: #939598;
      }

      .cls-10 {
        fill: #e6e7e8;
      }
    </style>
  </defs>
  <rect class="cls-2" x="50.4" y="18.4" width="20.8" height="3.2"/>
  <rect class="cls-8" x="40.8" y="21.6" width="38.4" height="3.2"/>
  <rect class="cls-6" x="37.6" y="24.8" width="44.82" height="3.2"/>
  <rect class="cls-10" x="31.19" y="28" width="57.61" height="3.2"/>
  <rect class="cls-6" x="27.99" y="31.2" width="27.21" height="3.2"/>
  <rect class="cls-9" x="27.99" y="34.4" width="24.01" height="3.2"/>
  <rect class="cls-7" x="24.8" y="37.6" width="24.01" height="3.2"/>
  <rect class="cls-2" x="21.6" y="40.8" width="24.01" height="3.2"/>
  <rect class="cls-3" x="21.6" y="44" width="20.8" height="3.2"/>
  <rect class="cls-5" x="21.6" y="47.2" width="20.8" height="3.2"/>
  <rect class="cls-4" x="50.4" y="98.4" width="20.8" height="3.2"/>
  <rect class="cls-9" x="40.8" y="95.2" width="38.4" height="3.2"/>
  <rect class="cls-1" x="37.6" y="92" width="44.82" height="3.2"/>
  <rect class="cls-9" x="31.19" y="88.8" width="57.61" height="3.2"/>
  <rect class="cls-5" x="52" y="76" width="15.99" height="3.2"/>
  <rect class="cls-7" x="55.19" y="79.2" width="9.61" height="3.2"/>
  <rect class="cls-3" x="48.81" y="72.8" width="22.38" height="3.2"/>
  <rect class="cls-7" x="42.39" y="69.6" width="35.21" height="3.2"/>
  <rect class="cls-8" x="42.39" y="63.2" width="35.21" height="3.2"/>
  <rect class="cls-10" x="45.59" y="60" width="28.81" height="3.2"/>
  <rect class="cls-1" x="45.59" y="56.8" width="6.41" height="3.2"/>
  <rect class="cls-8" x="45.59" y="53.6" width="6.41" height="3.2"/>
  <rect class="cls-2" x="67.99" y="53.6" width="6.41" height="3.2"/>
  <rect class="cls-1" x="67.99" y="56.8" width="6.41" height="3.2"/>
  <rect class="cls-3" x="55.18" y="53.6" width="9.64" height="3.2"/>
  <rect class="cls-6" x="48.81" y="50.4" width="22.39" height="3.2"/>
  <rect class="cls-3" x="48.81" y="47.2" width="22.39" height="3.2"/>
  <rect class="cls-4" x="52.01" y="44" width="15.99" height="3.2"/>
  <rect class="cls-8" x="55.21" y="40.8" width="9.59" height="3.2"/>
  <rect class="cls-3" x="55.18" y="56.8" width="9.64" height="3.2"/>
  <rect class="cls-2" x="39.19" y="66.4" width="15.96" height="3.2"/>
  <rect class="cls-2" x="64.82" y="66.4" width="15.96" height="3.2"/>
  <rect class="cls-6" x="27.99" y="85.6" width="27.21" height="3.2"/>
  <rect class="cls-1" x="27.99" y="82.4" width="24.01" height="3.2"/>
  <rect class="cls-2" x="24.8" y="79.2" width="20.8" height="3.2"/>
  <rect class="cls-10" x="21.6" y="76" width="20.8" height="3.2"/>
  <rect class="cls-3" x="21.6" y="72.8" width="14.4" height="3.2"/>
  <rect class="cls-1" x="21.6" y="69.6" width="11.2" height="3.2"/>
  <rect class="cls-1" x="18.4" y="53.6" width="20.8" height="3.2"/>
  <rect class="cls-9" x="18.4" y="56.8" width="20.8" height="3.2"/>
  <rect class="cls-1" x="18.4" y="60" width="20.8" height="3.2"/>
  <rect class="cls-10" x="18.4" y="63.2" width="17.6" height="3.2"/>
  <rect class="cls-3" x="18.4" y="66.4" width="14.4" height="3.2"/>
  <rect class="cls-2" x="18.4" y="50.4" width="24" height="3.2"/>
  <rect class="cls-6" x="64.8" y="31.2" width="27.21" height="3.2" transform="translate(156.81 65.6) rotate(-180)"/>
  <rect class="cls-1" x="68" y="34.4" width="24.01" height="3.2" transform="translate(160.01 72) rotate(-180)"/>
  <rect class="cls-3" x="71.19" y="37.6" width="24.01" height="3.2" transform="translate(166.39 78.4) rotate(-180)"/>
  <rect class="cls-2" x="74.39" y="40.8" width="24.01" height="3.2" transform="translate(172.79 84.8) rotate(-180)"/>
  <rect class="cls-10" x="77.6" y="47.2" width="20.8" height="3.2" transform="translate(176 97.6) rotate(-180)"/>
  <rect class="cls-8" x="77.6" y="44" width="20.8" height="3.2" transform="translate(176 91.2) rotate(-180)"/>
  <rect class="cls-9" x="64.8" y="85.6" width="27.21" height="3.2" transform="translate(156.81 174.4) rotate(-180)"/>
  <rect class="cls-6" x="68" y="82.4" width="24.01" height="3.2" transform="translate(160.01 168) rotate(-180)"/>
  <rect class="cls-3" x="74.44" y="79.2" width="20.76" height="3.2" transform="translate(169.64 161.6) rotate(-180)"/>
  <rect class="cls-5" x="77.6" y="76" width="20.8" height="3.2" transform="translate(176 155.2) rotate(-180)"/>
  <rect class="cls-1" x="84" y="72.8" width="14.4" height="3.2" transform="translate(182.4 148.8) rotate(-180)"/>
  <rect class="cls-6" x="87.2" y="69.6" width="11.2" height="3.2" transform="translate(185.6 142.4) rotate(-180)"/>
  <rect class="cls-7" x="80.8" y="53.6" width="20.8" height="3.2" transform="translate(182.4 110.4) rotate(-180)"/>
  <rect class="cls-4" x="80.8" y="56.8" width="20.8" height="3.2" transform="translate(182.4 116.8) rotate(-180)"/>
  <rect class="cls-3" x="80.8" y="60" width="20.8" height="3.2" transform="translate(182.4 123.2) rotate(-180)"/>
  <rect class="cls-9" x="84" y="63.2" width="17.6" height="3.2" transform="translate(185.6 129.6) rotate(-180)"/>
  <rect class="cls-8" x="87.2" y="66.4" width="14.4" height="3.2" transform="translate(188.8 136) rotate(-180)"/>
  <rect class="cls-5" x="77.6" y="50.4" width="24" height="3.2" transform="translate(179.2 104) rotate(-180)"/>
</svg>