<?xml version="1.0" encoding="UTF-8"?>
<svg id="Layer_66" data-name="Layer 66" xmlns="http://www.w3.org/2000/svg" viewBox="0 0 120 120">
  <defs>
    <style>
      .cls-1 {
        opacity: .54;
      }

      .cls-1, .cls-2, .cls-3, .cls-4, .cls-5, .cls-6, .cls-7, .cls-8, .cls-9 {
        stroke-width: 0px;
      }

      .cls-1, .cls-7 {
        fill: #fff;
      }

      .cls-3 {
        fill: #231f20;
        opacity: .3;
      }

      .cls-4 {
        fill: #838c91;
      }

      .cls-5 {
        fill: #9e7140;
      }

      .cls-6 {
        fill: #ecf2fa;
      }

      .cls-8 {
        fill: #e69022;
      }

      .cls-9 {
        fill: #ff5200;
      }
    </style>
  </defs>
  <polygon class="cls-4" points="56.8 57.12 63.2 57.12 63.2 47.2 66.4 47.2 66.4 50.4 69.6 50.4 69.6 53.6 72.8 53.6 72.8 63.2 76 63.2 76 72.8 79.2 72.8 79.2 76 82.4 76 82.4 82.4 76 82.4 76 85.6 69.6 85.6 69.6 88.8 50.4 88.8 50.4 85.6 44 85.6 44 82.4 37.6 82.4 37.6 76 40.8 76 40.8 72.8 44 72.8 44 63.2 47.2 63.2 47.2 53.6 50.4 53.6 50.4 50.4 53.6 50.4 53.6 47.2 56.8 47.2 56.8 57.12"/>
  <rect class="cls-2" x="34.4" y="76" width="3.2" height="6.4"/>
  <rect class="cls-2" x="40.8" y="63.2" width="3.2" height="9.6"/>
  <rect class="cls-2" x="37.6" y="82.4" width="6.4" height="3.2"/>
  <rect class="cls-2" x="44" y="85.6" width="6.4" height="3.2"/>
  <rect class="cls-2" x="37.6" y="72.8" width="3.2" height="3.2"/>
  <rect class="cls-2" x="47.2" y="50.4" width="3.2" height="3.2"/>
  <rect class="cls-2" x="50.4" y="47.2" width="3.2" height="3.2"/>
  <rect class="cls-2" x="44" y="53.6" width="3.2" height="9.6"/>
  <rect class="cls-2" x="82.4" y="76" width="3.2" height="6.4" transform="translate(168 158.4) rotate(-180)"/>
  <rect class="cls-2" x="76" y="63.2" width="3.2" height="9.6" transform="translate(155.2 136) rotate(-180)"/>
  <rect class="cls-2" x="76" y="82.4" width="6.4" height="3.2" transform="translate(158.4 168) rotate(-180)"/>
  <rect class="cls-2" x="69.6" y="85.6" width="6.4" height="3.2" transform="translate(145.6 174.4) rotate(-180)"/>
  <rect class="cls-3" x="69.6" y="82.4" width="6.4" height="3.2" transform="translate(145.6 168) rotate(-180)"/>
  <rect class="cls-2" x="79.2" y="72.8" width="3.2" height="3.2" transform="translate(161.6 148.8) rotate(-180)"/>
  <rect class="cls-2" x="69.6" y="50.4" width="3.2" height="3.2" transform="translate(142.4 104) rotate(-180)"/>
  <rect class="cls-2" x="66.4" y="47.2" width="3.2" height="3.2" transform="translate(136 97.6) rotate(-180)"/>
  <rect class="cls-2" x="63.2" y="44" width="3.2" height="3.2" transform="translate(129.6 91.2) rotate(-180)"/>
  <rect class="cls-2" x="53.6" y="44" width="3.2" height="3.2" transform="translate(110.4 91.2) rotate(-180)"/>
  <rect class="cls-8" x="50.4" y="37.6" width="3.2" height="3.2" transform="translate(104 78.4) rotate(-180)"/>
  <rect class="cls-8" x="66.4" y="37.6" width="3.2" height="3.2" transform="translate(136 78.4) rotate(-180)"/>
  <rect class="cls-2" x="72.8" y="53.6" width="3.2" height="9.6" transform="translate(148.8 116.8) rotate(-180)"/>
  <rect class="cls-2" x="56.8" y="95.2" width="6.4" height="3.2"/>
  <polygon class="cls-2" points="50.4 88.8 50.4 92 53.6 92 53.6 95.2 56.8 95.2 56.8 92 63.2 92 63.2 95.2 66.4 95.2 66.4 92 69.6 92 69.6 88.8 50.4 88.8"/>
  <rect class="cls-3" x="76" y="72.8" width="3.2" height="3.2" transform="translate(155.2 148.8) rotate(-180)"/>
  <rect class="cls-3" x="79.2" y="76" width="3.2" height="6.4" transform="translate(161.6 158.4) rotate(-180)"/>
  <rect class="cls-3" x="69.6" y="53.6" width="3.2" height="9.6" transform="translate(142.4 116.8) rotate(-180)"/>
  <rect class="cls-3" x="66.4" y="50.4" width="3.2" height="3.2" transform="translate(136 104) rotate(-180)"/>
  <rect class="cls-3" x="56.8" y="57.12" width="6.4" height="3.2" transform="translate(120 117.44) rotate(-180)"/>
  <rect class="cls-3" x="63.2" y="47.2" width="3.2" height="3.2" transform="translate(129.6 97.6) rotate(-180)"/>
  <rect class="cls-3" x="72.8" y="63.2" width="3.2" height="9.6" transform="translate(148.8 136) rotate(-180)"/>
  <rect class="cls-1" x="40.8" y="72.8" width="3.2" height="3.2"/>
  <rect class="cls-1" x="44" y="82.4" width="6.4" height="3.2"/>
  <rect class="cls-1" x="37.6" y="76" width="3.2" height="6.4"/>
  <rect class="cls-1" x="47.2" y="53.6" width="3.2" height="9.6"/>
  <rect class="cls-1" x="50.4" y="50.4" width="3.2" height="3.2"/>
  <rect class="cls-1" x="53.6" y="47.2" width="3.2" height="3.2"/>
  <rect class="cls-1" x="44" y="63.2" width="3.2" height="9.6"/>
  <rect class="cls-2" x="53.6" y="66.4" width="3.2" height="3.2"/>
  <rect class="cls-7" x="53.6" y="69.6" width="3.2" height="3.2"/>
  <rect class="cls-2" x="63.2" y="66.4" width="3.2" height="3.2"/>
  <rect class="cls-7" x="63.2" y="69.6" width="3.2" height="3.2"/>
  <rect class="cls-2" x="53.6" y="76" width="12.8" height="3.2"/>
  <rect class="cls-8" x="56.8" y="92" width="6.4" height="3.2"/>
  <rect class="cls-6" x="56.8" y="37.6" width="6.4" height="19.52"/>
  <rect class="cls-1" x="56.8" y="37.6" width="3.2" height="19.52"/>
  <rect class="cls-8" x="53.6" y="34.4" width="12.8" height="3.2"/>
  <rect class="cls-5" x="58.4" y="21.6" width="3.2" height="12.8"/>
  <rect class="cls-3" x="60" y="37.6" width="3.2" height="19.52" transform="translate(123.2 94.72) rotate(-180)"/>
  <rect class="cls-9" x="58.4" y="34.4" width="3.2" height="3.2" transform="translate(120 72) rotate(-180)"/>
</svg>