<?xml version="1.0" encoding="UTF-8"?>
<svg id="Layer_67" data-name="Layer 67" xmlns="http://www.w3.org/2000/svg" viewBox="0 0 120 120">
  <defs>
    <style>
      .cls-1, .cls-2, .cls-3 {
        stroke-width: 0px;
      }

      .cls-2 {
        fill: #39b54a;
      }

      .cls-3 {
        fill: #be1e2d;
      }
    </style>
  </defs>
  <rect class="cls-2" x="26.4" y="77.6" width="3.2" height="6.4"/>
  <rect class="cls-2" x="32.8" y="64.8" width="3.2" height="9.6"/>
  <rect class="cls-2" x="23.2" y="84" width="3.2" height="9.6"/>
  <rect class="cls-2" x="29.6" y="74.4" width="3.2" height="3.2"/>
  <rect class="cls-2" x="39.2" y="52" width="3.2" height="3.2"/>
  <rect class="cls-2" x="42.4" y="48.8" width="3.2" height="3.2"/>
  <rect class="cls-2" x="45.6" y="45.6" width="3.2" height="3.2"/>
  <rect class="cls-2" x="36" y="55.2" width="3.2" height="9.6"/>
  <rect class="cls-3" x="74.4" y="77.6" width="3.2" height="6.4" transform="translate(152 161.6) rotate(-180)"/>
  <rect class="cls-3" x="68" y="64.8" width="3.2" height="9.6" transform="translate(139.2 139.2) rotate(-180)"/>
  <rect class="cls-3" x="71.2" y="74.4" width="3.2" height="3.2" transform="translate(145.6 152) rotate(-180)"/>
  <rect class="cls-3" x="61.6" y="52" width="3.2" height="3.2" transform="translate(126.4 107.2) rotate(-180)"/>
  <rect class="cls-3" x="58.4" y="48.8" width="3.2" height="3.2" transform="translate(120 100.8) rotate(-180)"/>
  <rect class="cls-3" x="55.2" y="45.6" width="3.2" height="3.2" transform="translate(113.6 94.4) rotate(-180)"/>
  <rect class="cls-3" x="64.8" y="55.2" width="3.2" height="9.6" transform="translate(132.8 120) rotate(-180)"/>
  <rect class="cls-2" x="80.8" y="64.8" width="3.2" height="9.6"/>
  <rect class="cls-2" x="77.6" y="74.4" width="3.2" height="3.2"/>
  <rect class="cls-2" x="87.2" y="52" width="3.2" height="3.2"/>
  <rect class="cls-2" x="90.4" y="48.8" width="3.2" height="3.2"/>
  <rect class="cls-2" x="93.6" y="26.4" width="3.2" height="22.4"/>
  <rect class="cls-2" x="84" y="55.2" width="3.2" height="9.6"/>
  <rect class="cls-2" x="48.8" y="42.4" width="6.4" height="3.2"/>
  <rect class="cls-1" x="45.6" y="64.8" width="3.2" height="3.2"/>
  <rect class="cls-1" x="55.2" y="64.8" width="3.2" height="3.2"/>
  <rect class="cls-1" x="48.8" y="74.4" width="6.4" height="3.2"/>
</svg>