<?xml version="1.0" encoding="UTF-8"?>
<svg id="Layer_68" data-name="Layer 68" xmlns="http://www.w3.org/2000/svg" viewBox="0 0 120 120">
  <defs>
    <style>
      .cls-1 {
        fill: #fff;
        opacity: .54;
      }

      .cls-1, .cls-2, .cls-3, .cls-4, .cls-5 {
        stroke-width: 0px;
      }

      .cls-3 {
        fill: #231f20;
        opacity: .3;
      }

      .cls-4 {
        fill: #ad8105;
      }

      .cls-5 {
        fill: #ffbd05;
      }

      .cls-6 {
        fill: none;
        stroke: #f7941d;
        stroke-miterlimit: 10;
        stroke-width: .5px;
      }
    </style>
  </defs>
  <rect class="cls-2" x="56.8" y="12" width="6.4" height="3.2"/>
  <rect class="cls-2" x="53.6" y="15.2" width="3.2" height="9.61"/>
  <rect class="cls-2" x="63.2" y="15.19" width="3.2" height="9.61"/>
  <polygon class="cls-5" points="56.8 15.2 63.2 15.2 63.2 24.8 66.4 24.8 66.4 60 69.6 60 69.6 63.2 72.8 63.2 72.8 72.8 76 72.8 76 82.4 79.2 82.4 79.2 85.6 82.4 85.6 82.4 92 76 92 76 95.2 69.6 95.2 69.6 98.4 50.4 98.4 50.4 95.2 44 95.2 44 92 37.6 92 37.6 85.6 40.8 85.6 40.8 82.4 44 82.4 44 72.8 47.2 72.8 47.2 63.2 50.4 63.2 50.4 60 53.6 60 53.6 24.8 56.8 24.8 56.8 15.2"/>
  <rect class="cls-2" x="34.4" y="85.6" width="3.2" height="6.4"/>
  <rect class="cls-2" x="40.8" y="72.8" width="3.2" height="9.6"/>
  <rect class="cls-2" x="37.6" y="92" width="6.4" height="3.2"/>
  <rect class="cls-2" x="44" y="95.2" width="6.4" height="3.2"/>
  <rect class="cls-2" x="37.6" y="82.4" width="3.2" height="3.2"/>
  <rect class="cls-2" x="47.2" y="60" width="3.2" height="3.2"/>
  <rect class="cls-2" x="50.4" y="24.81" width="3.2" height="35.19"/>
  <rect class="cls-2" x="44" y="63.2" width="3.2" height="9.6"/>
  <rect class="cls-2" x="82.4" y="85.6" width="3.2" height="6.4" transform="translate(168 177.6) rotate(-180)"/>
  <rect class="cls-2" x="76" y="72.8" width="3.2" height="9.6" transform="translate(155.2 155.2) rotate(-180)"/>
  <rect class="cls-2" x="76" y="92" width="6.4" height="3.2" transform="translate(158.4 187.2) rotate(-180)"/>
  <rect class="cls-2" x="69.6" y="95.2" width="6.4" height="3.2" transform="translate(145.6 193.6) rotate(-180)"/>
  <rect class="cls-3" x="69.6" y="92" width="6.4" height="3.2" transform="translate(145.6 187.2) rotate(-180)"/>
  <rect class="cls-2" x="79.2" y="82.4" width="3.2" height="3.2" transform="translate(161.6 168) rotate(-180)"/>
  <rect class="cls-2" x="69.6" y="60" width="3.2" height="3.2" transform="translate(142.4 123.2) rotate(-180)"/>
  <rect class="cls-2" x="66.4" y="24.81" width="3.2" height="35.19" transform="translate(136 84.81) rotate(-180)"/>
  <rect class="cls-2" x="72.8" y="63.2" width="3.2" height="9.6" transform="translate(148.8 136) rotate(-180)"/>
  <rect class="cls-2" x="56.8" y="104.8" width="6.4" height="3.2"/>
  <polygon class="cls-2" points="50.4 98.4 50.4 101.6 53.6 101.6 53.6 104.8 56.8 104.8 56.8 101.6 63.2 101.6 63.2 104.8 66.4 104.8 66.4 101.6 69.6 101.6 69.6 98.4 50.4 98.4"/>
  <rect class="cls-4" x="53.61" y="53.6" width="12.78" height="3.2"/>
  <rect class="cls-4" x="53.61" y="43.99" width="12.78" height="3.2"/>
  <rect class="cls-4" x="53.61" y="34.38" width="12.78" height="3.2"/>
  <rect class="cls-4" x="53.61" y="24.77" width="12.78" height="3.2"/>
  <rect class="cls-3" x="76" y="82.4" width="3.2" height="3.2" transform="translate(155.2 168) rotate(-180)"/>
  <rect class="cls-3" x="79.2" y="85.6" width="3.2" height="6.4" transform="translate(161.6 177.6) rotate(-180)"/>
  <rect class="cls-3" x="69.6" y="63.2" width="3.2" height="9.6" transform="translate(142.4 136) rotate(-180)"/>
  <rect class="cls-3" x="66.4" y="60" width="3.2" height="3.2" transform="translate(136 123.2) rotate(-180)"/>
  <rect class="cls-3" x="72.8" y="72.8" width="3.2" height="9.6" transform="translate(148.8 155.2) rotate(-180)"/>
  <rect class="cls-1" x="40.8" y="82.4" width="3.2" height="3.2"/>
  <rect class="cls-1" x="44" y="92" width="6.4" height="3.2"/>
  <rect class="cls-1" x="37.6" y="85.6" width="3.2" height="6.4"/>
  <rect class="cls-1" x="47.2" y="63.2" width="3.2" height="9.6"/>
  <rect class="cls-1" x="50.4" y="60" width="3.2" height="3.2"/>
  <rect class="cls-1" x="44" y="72.8" width="3.2" height="9.6"/>
  <rect class="cls-2" x="50.41" y="88.8" width="19.18" height="3.2"/>
  <rect class="cls-5" x="56.8" y="101.6" width="6.4" height="3.2"/>
  <rect class="cls-2" x="53.6" y="69.61" width="12.79" height="15.99"/>
  <rect class="cls-2" x="50.4" y="72.8" width="6.4" height="9.6"/>
  <rect class="cls-2" x="63.19" y="72.8" width="6.4" height="9.6"/>
  <line class="cls-6" x1="60" y1="90.4" x2="60" y2="15.21"/>
  <line class="cls-6" x1="56.8" y1="90.4" x2="56.8" y2="15.21"/>
  <line class="cls-6" x1="53.6" y1="90.4" x2="53.6" y2="24.81"/>
  <line class="cls-6" x1="66.4" y1="90.4" x2="66.4" y2="24.81"/>
  <line class="cls-6" x1="63.2" y1="90.4" x2="63.2" y2="15.21"/>
</svg>