<?xml version="1.0" encoding="UTF-8"?>
<svg id="Layer_69" data-name="Layer 69" xmlns="http://www.w3.org/2000/svg" viewBox="0 0 120 120">
  <defs>
    <style>
      .cls-1 {
        opacity: .15;
      }

      .cls-1, .cls-2 {
        fill: #231f20;
      }

      .cls-1, .cls-2, .cls-3, .cls-4, .cls-5, .cls-6, .cls-7, .cls-8 {
        stroke-width: 0px;
      }

      .cls-2 {
        opacity: .25;
      }

      .cls-3 {
        opacity: .54;
      }

      .cls-3, .cls-7 {
        fill: #fff;
      }

      .cls-5 {
        fill: #39b54a;
      }

      .cls-6 {
        fill: #be1e2d;
      }

      .cls-8 {
        fill: #005fad;
      }
    </style>
  </defs>
  <polygon class="cls-5" points="88.8 56.8 88.8 60 85.6 60 85.6 53.6 82.4 53.6 82.4 47.2 79.2 47.2 79.2 40.8 76 40.8 76 37.6 72.8 34.4 69.6 31.2 60 31.2 50.4 31.2 47.2 34.4 44 37.6 44 40.8 40.8 40.8 40.8 47.2 37.6 47.2 37.6 53.6 34.4 53.6 34.4 60 31.2 60 31.2 56.8 28 56.8 28 63.2 31.2 66.4 31.2 69.6 34.4 69.6 37.6 69.6 40.8 66.4 44 66.4 44 56.8 47.2 56.8 47.2 47.2 50.4 47.2 50.4 44 53.6 40.8 60 40.8 66.4 40.8 69.6 44 69.6 47.2 72.8 47.2 72.8 56.8 76 56.8 76 66.4 79.2 66.4 82.4 69.6 85.6 69.6 88.8 69.6 88.8 66.4 92 63.2 92 56.8 88.8 56.8"/>
  <rect class="cls-4" x="85.6" y="66.4" width="3.2" height="3.2" transform="translate(174.4 136) rotate(-180)"/>
  <rect class="cls-4" x="92" y="56.8" width="3.2" height="6.4" transform="translate(187.2 120) rotate(-180)"/>
  <rect class="cls-2" x="88.8" y="56.8" width="3.2" height="6.4" transform="translate(180.8 120) rotate(-180)"/>
  <rect class="cls-2" x="82.4" y="56.8" width="3.2" height="3.2" transform="translate(168 116.8) rotate(-180)"/>
  <rect class="cls-2" x="72.8" y="37.6" width="3.2" height="3.2" transform="translate(148.8 78.4) rotate(-180)"/>
  <rect class="cls-2" x="69.6" y="34.4" width="3.2" height="3.2" transform="translate(142.4 72) rotate(-180)"/>
  <rect class="cls-2" x="50.4" y="31.2" width="19.2" height="3.2" transform="translate(120 65.6) rotate(-180)"/>
  <rect class="cls-2" x="85.6" y="63.2" width="3.2" height="3.2" transform="translate(174.4 129.6) rotate(-180)"/>
  <rect class="cls-2" x="82.4" y="66.4" width="3.2" height="3.2" transform="translate(168 136) rotate(-180)"/>
  <rect class="cls-2" x="79.2" y="50.4" width="3.2" height="6.4" transform="translate(161.6 107.2) rotate(-180)"/>
  <rect class="cls-2" x="76" y="40.8" width="3.2" height="9.6" transform="translate(155.2 91.2) rotate(-180)"/>
  <rect class="cls-2" x="28" y="56.8" width="3.2" height="6.4"/>
  <rect class="cls-2" x="34.4" y="56.8" width="3.2" height="3.2"/>
  <rect class="cls-2" x="44" y="37.6" width="3.2" height="3.2"/>
  <rect class="cls-2" x="47.2" y="34.4" width="3.2" height="3.2"/>
  <rect class="cls-2" x="31.2" y="63.2" width="3.2" height="3.2"/>
  <rect class="cls-2" x="34.4" y="66.4" width="3.2" height="3.2"/>
  <rect class="cls-2" x="37.6" y="50.4" width="3.2" height="6.4"/>
  <rect class="cls-2" x="40.8" y="40.8" width="3.2" height="9.6"/>
  <rect class="cls-4" x="88.8" y="53.6" width="3.2" height="3.2" transform="translate(180.8 110.4) rotate(-180)"/>
  <rect class="cls-4" x="31.2" y="47.2" width="3.2" height="3.2" transform="translate(65.6 97.6) rotate(-180)"/>
  <rect class="cls-4" x="37.6" y="34.4" width="3.2" height="3.2" transform="translate(78.4 72) rotate(-180)"/>
  <rect class="cls-4" x="79.2" y="34.4" width="3.2" height="3.2" transform="translate(161.6 72) rotate(-180)"/>
  <rect class="cls-4" x="85.6" y="47.2" width="3.2" height="3.2" transform="translate(174.4 97.6) rotate(-180)"/>
  <rect class="cls-4" x="72.8" y="34.4" width="3.2" height="3.2" transform="translate(148.8 72) rotate(-180)"/>
  <rect class="cls-4" x="69.6" y="31.2" width="3.2" height="3.2" transform="translate(142.4 65.6) rotate(-180)"/>
  <rect class="cls-4" x="85.6" y="56.8" width="3.2" height="3.2" transform="translate(174.4 116.8) rotate(-180)"/>
  <rect class="cls-4" x="79.2" y="40.8" width="3.2" height="9.6" transform="translate(161.6 91.2) rotate(-180)"/>
  <rect class="cls-4" x="82.4" y="50.4" width="3.2" height="6.4" transform="translate(168 107.2) rotate(-180)"/>
  <rect class="cls-4" x="76" y="37.6" width="3.2" height="3.2" transform="translate(155.2 78.4) rotate(-180)"/>
  <rect class="cls-4" x="88.8" y="63.2" width="3.2" height="3.2" transform="translate(180.8 129.6) rotate(-180)"/>
  <polygon class="cls-7" points="56.8 42.4 63.2 42.4 63.2 40.8 66.4 40.8 66.4 44 69.6 44 69.6 47.2 72.8 47.2 72.8 56.8 76 56.8 76 66.4 79.2 66.4 79.2 69.6 82.4 69.6 82.4 76 76 76 76 79.2 69.6 79.2 69.6 82.4 50.4 82.4 50.4 79.2 44 79.2 44 76 37.6 76 37.6 69.6 40.8 69.6 40.8 66.4 44 66.4 44 56.8 47.2 56.8 47.2 47.2 50.4 47.2 50.4 44 53.6 44 53.6 40.8 56.8 40.8 56.8 42.4"/>
  <rect class="cls-4" x="34.4" y="69.6" width="3.2" height="6.4"/>
  <rect class="cls-4" x="40.8" y="56.8" width="3.2" height="9.6"/>
  <rect class="cls-4" x="37.6" y="76" width="6.4" height="3.2"/>
  <rect class="cls-4" x="44" y="79.2" width="6.4" height="3.2"/>
  <rect class="cls-4" x="37.6" y="66.4" width="3.2" height="3.2"/>
  <rect class="cls-4" x="47.2" y="44" width="3.2" height="3.2"/>
  <rect class="cls-4" x="50.4" y="40.8" width="3.2" height="3.2"/>
  <rect class="cls-4" x="44" y="47.2" width="3.2" height="9.6"/>
  <rect class="cls-4" x="82.4" y="69.6" width="3.2" height="6.4" transform="translate(168 145.6) rotate(-180)"/>
  <rect class="cls-4" x="76" y="56.8" width="3.2" height="9.6" transform="translate(155.2 123.2) rotate(-180)"/>
  <rect class="cls-4" x="76" y="76" width="6.4" height="3.2" transform="translate(158.4 155.2) rotate(-180)"/>
  <rect class="cls-4" x="69.6" y="79.2" width="6.4" height="3.2" transform="translate(145.6 161.6) rotate(-180)"/>
  <rect class="cls-4" x="79.2" y="66.4" width="3.2" height="3.2" transform="translate(161.6 136) rotate(-180)"/>
  <rect class="cls-4" x="69.6" y="44" width="3.2" height="3.2" transform="translate(142.4 91.2) rotate(-180)"/>
  <rect class="cls-4" x="53.6" y="40.8" width="16" height="3.2" transform="translate(123.2 84.8) rotate(-180)"/>
  <rect class="cls-4" x="72.8" y="47.2" width="3.2" height="9.6" transform="translate(148.8 104) rotate(-180)"/>
  <rect class="cls-4" x="56.8" y="88.8" width="6.4" height="3.2"/>
  <polygon class="cls-4" points="50.4 82.4 50.4 85.6 53.6 85.6 53.6 88.8 56.8 88.8 56.8 85.6 63.2 85.6 63.2 88.8 66.4 88.8 66.4 85.6 69.6 85.6 69.6 82.4 50.4 82.4"/>
  <g>
    <rect class="cls-1" x="69.6" y="76" width="6.4" height="3.2" transform="translate(145.6 155.2) rotate(-180)"/>
    <rect class="cls-1" x="76" y="66.4" width="3.2" height="3.2" transform="translate(155.2 136) rotate(-180)"/>
    <rect class="cls-1" x="79.2" y="69.6" width="3.2" height="6.4" transform="translate(161.6 145.6) rotate(-180)"/>
    <rect class="cls-1" x="69.6" y="47.2" width="3.2" height="9.6" transform="translate(142.4 104) rotate(-180)"/>
    <rect class="cls-1" x="66.4" y="44" width="3.2" height="3.2" transform="translate(136 91.2) rotate(-180)"/>
    <rect class="cls-1" x="72.8" y="56.8" width="3.2" height="9.6" transform="translate(148.8 123.2) rotate(-180)"/>
  </g>
  <g>
    <rect class="cls-1" x="44" y="76" width="6.4" height="3.2"/>
    <rect class="cls-1" x="40.8" y="66.4" width="3.2" height="3.2"/>
    <rect class="cls-1" x="37.6" y="69.6" width="3.2" height="6.4"/>
    <rect class="cls-1" x="47.2" y="47.2" width="3.2" height="9.6"/>
    <rect class="cls-1" x="50.4" y="44" width="3.2" height="3.2"/>
    <rect class="cls-1" x="44" y="56.8" width="3.2" height="9.6"/>
  </g>
  <rect class="cls-3" x="40.8" y="66.4" width="3.2" height="3.2"/>
  <rect class="cls-3" x="44" y="76" width="6.4" height="3.2"/>
  <rect class="cls-3" x="37.6" y="69.6" width="3.2" height="6.4"/>
  <rect class="cls-3" x="47.2" y="47.2" width="3.2" height="9.6"/>
  <rect class="cls-3" x="50.4" y="44" width="3.2" height="3.2"/>
  <rect class="cls-3" x="44" y="56.8" width="3.2" height="9.6"/>
  <rect class="cls-4" x="50.4" y="53.6" width="6.4" height="6.4"/>
  <rect class="cls-4" x="63.2" y="53.6" width="6.4" height="6.4"/>
  <g>
    <rect class="cls-4" x="47.2" y="69.6" width="24" height="3.2"/>
    <rect class="cls-6" x="69.6" y="69.6" width="3.2" height="3.2"/>
    <rect class="cls-6" x="72.8" y="66.4" width="3.2" height="3.2"/>
    <rect class="cls-6" x="47.2" y="69.6" width="3.2" height="3.2"/>
    <rect class="cls-6" x="44" y="66.4" width="3.2" height="3.2"/>
    <rect class="cls-6" x="53.6" y="72.8" width="12.8" height="3.2"/>
    <rect class="cls-6" x="50.4" y="66.4" width="19.2" height="3.2"/>
    <rect class="cls-6" x="66.4" y="72.8" width="3.2" height="3.2"/>
    <rect class="cls-6" x="50.4" y="72.8" width="3.2" height="3.2"/>
  </g>
  <rect class="cls-5" x="56.8" y="85.6" width="6.4" height="3.2"/>
  <rect class="cls-8" x="50.4" y="50.4" width="6.4" height="3.2"/>
  <rect class="cls-8" x="63.2" y="50.4" width="6.4" height="3.2"/>
  <rect class="cls-8" x="50.4" y="60" width="6.4" height="3.2"/>
  <rect class="cls-8" x="63.2" y="60" width="6.4" height="3.2"/>
  <rect class="cls-4" x="31.2" y="66.4" width="3.2" height="3.2"/>
  <rect class="cls-4" x="24.8" y="56.8" width="3.2" height="6.4"/>
  <rect class="cls-4" x="28" y="53.6" width="3.2" height="3.2"/>
  <rect class="cls-4" x="44" y="34.4" width="3.2" height="3.2"/>
  <rect class="cls-4" x="47.2" y="31.2" width="3.2" height="3.2"/>
  <rect class="cls-4" x="50.4" y="28" width="19.2" height="3.2"/>
  <rect class="cls-4" x="31.2" y="56.8" width="3.2" height="3.2"/>
  <rect class="cls-4" x="37.6" y="40.8" width="3.2" height="9.6"/>
  <rect class="cls-4" x="34.4" y="50.4" width="3.2" height="6.4"/>
  <rect class="cls-4" x="40.8" y="37.6" width="3.2" height="3.2"/>
  <rect class="cls-4" x="28" y="63.2" width="3.2" height="3.2"/>
</svg>