<?xml version="1.0" encoding="UTF-8"?>
<svg id="Layer_7" data-name="Layer 7" xmlns="http://www.w3.org/2000/svg" viewBox="0 0 89.6 92.8">
  <defs>
    <style>
      .cls-1, .cls-2, .cls-3, .cls-4, .cls-5, .cls-6 {
        stroke-width: 0px;
      }

      .cls-2 {
        fill: #231f20;
        opacity: .3;
      }

      .cls-3 {
        fill: #fcdfbb;
      }

      .cls-4 {
        fill: #fff;
      }

      .cls-5 {
        fill: #ea8903;
      }

      .cls-6 {
        fill: #ffbd05;
      }
    </style>
  </defs>
  <polygon class="cls-6" points="46.4 27.2 62.4 27.2 62.4 24 62.4 24 65.6 24 65.6 33.6 68.8 33.6 68.8 43.2 72 43.2 72 49.6 72 49.6 72 56 68.8 56 68.8 59.2 62.4 59.2 62.4 62.4 43.2 62.4 43.2 59.2 36.8 59.2 36.8 56 30.4 56 30.4 49.6 33.6 49.6 33.6 43.2 36.8 43.2 36.8 33.6 40 33.6 40 24 46.4 24 46.4 27.2"/>
  <rect class="cls-3" x="62.4" y="24" width="3.2" height="3.2"/>
  <polygon class="cls-3" points="68.8 46.4 72 46.4 72 56 68.8 56 68.8 59.2 62.4 59.2 62.4 62.4 46.4 62.4 46.4 56 36.8 56 36.8 52.8 36.8 46.4 46.4 46.4 46.4 49.6 52.8 49.6 52.8 46.4 68.8 46.4"/>
  <rect class="cls-1" x="27.2" y="49.6" width="3.2" height="6.4"/>
  <rect class="cls-1" x="33.6" y="33.6" width="3.2" height="9.6"/>
  <rect class="cls-1" x="14.4" y="46.4" width="3.2" height="9.6"/>
  <rect class="cls-1" x="30.4" y="56" width="6.4" height="3.2"/>
  <rect class="cls-1" x="20.8" y="59.2" width="9.6" height="3.2"/>
  <rect class="cls-1" x="36.8" y="59.2" width="6.4" height="3.2"/>
  <rect class="cls-1" x="30.4" y="43.2" width="3.2" height="6.4"/>
  <rect class="cls-5" x="30.4" y="52.8" width="6.4" height="3.2"/>
  <rect class="cls-2" x="36.8" y="52.8" width="9.58" height="3.2"/>
  <rect class="cls-1" x="17.6" y="43.2" width="3.2" height="3.2"/>
  <rect class="cls-1" x="20.8" y="46.4" width="6.4" height="3.2"/>
  <rect class="cls-1" x="17.6" y="56" width="3.2" height="3.2"/>
  <rect class="cls-1" x="40" y="20.8" width="6.4" height="3.2"/>
  <rect class="cls-1" x="46.4" y="24" width="16" height="3.2"/>
  <rect class="cls-1" x="36.8" y="24" width="3.2" height="9.6"/>
  <polygon class="cls-3" points="46.4 24 43.2 24 40 24 40 27.2 40 33.6 43.2 33.6 43.2 27.2 46.4 27.2 46.4 24"/>
  <rect class="cls-1" x="68.8" y="33.6" width="3.2" height="9.6" transform="translate(140.8 76.8) rotate(-180)"/>
  <rect class="cls-1" x="68.8" y="56" width="3.2" height="3.2" transform="translate(140.8 115.2) rotate(-180)"/>
  <rect class="cls-1" x="62.4" y="59.2" width="6.4" height="3.2" transform="translate(131.2 121.6) rotate(-180)"/>
  <rect class="cls-1" x="72" y="43.2" width="3.2" height="12.8" transform="translate(147.2 99.2) rotate(-180)"/>
  <rect class="cls-1" x="62.4" y="20.8" width="3.2" height="3.2" transform="translate(128 44.8) rotate(-180)"/>
  <rect class="cls-1" x="65.6" y="24" width="3.2" height="9.6" transform="translate(134.4 57.6) rotate(-180)"/>
  <rect class="cls-1" x="49.6" y="68.8" width="6.4" height="3.2"/>
  <polygon class="cls-1" points="43.2 62.4 43.2 65.6 46.4 65.6 46.4 68.8 49.6 68.8 49.6 65.6 56 65.6 56 68.8 59.2 68.8 59.2 65.6 62.4 65.6 62.4 62.4 43.2 62.4"/>
  <rect class="cls-2" x="68.8" y="43.2" width="3.2" height="12.8" transform="translate(140.8 99.2) rotate(-180)"/>
  <rect class="cls-2" x="46.4" y="56" width="3.2" height="3.2" transform="translate(96 115.2) rotate(-180)"/>
  <rect class="cls-2" x="62.4" y="27.2" width="3.2" height="6.4" transform="translate(128 60.8) rotate(-180)"/>
  <rect class="cls-2" x="65.6" y="33.6" width="3.2" height="9.6" transform="translate(134.4 76.8) rotate(-180)"/>
  <polygon class="cls-5" points="49.6 62.4 49.6 59.2 46.4 59.2 46.4 56 36.8 56 36.8 59.2 43.2 59.2 43.2 62.4 49.6 62.4"/>
  <rect class="cls-1" x="62.4" y="40" width="3.2" height="9.6" transform="translate(19.2 108.8) rotate(-90)"/>
  <rect class="cls-2" x="64" y="54.4" width="3.2" height="6.4" transform="translate(8 123.2) rotate(-90)"/>
  <rect class="cls-2" x="54.4" y="54.4" width="3.2" height="12.8" transform="translate(-4.8 116.8) rotate(-90)"/>
  <rect class="cls-1" x="52.8" y="52.8" width="9.6" height="3.2"/>
  <rect class="cls-1" x="65.6" y="46.4" width="3.2" height="3.2" transform="translate(19.2 115.2) rotate(-90)"/>
  <rect class="cls-6" x="49.6" y="65.6" width="6.4" height="3.2"/>
  <rect class="cls-1" x="49.6" y="49.6" width="3.2" height="3.2"/>
  <rect class="cls-1" x="62.4" y="49.6" width="3.2" height="3.2"/>
  <rect class="cls-1" x="48.73" y="37.6" width="5.87" height="4"/>
  <rect class="cls-1" x="61.27" y="33.6" width="5.87" height="4"/>
  <rect class="cls-4" x="52.8" y="37.6" width="3.2" height="4"/>
  <rect class="cls-4" x="65.6" y="33.6" width="3.2" height="4"/>
  <polygon class="cls-3" points="17.6 46.4 20.8 46.4 20.8 49.6 27.2 49.6 27.2 56 24 56 24 52.8 17.6 52.8 17.6 46.4"/>
  <polygon class="cls-6" points="17.6 52.8 24 52.8 24 56 30.4 56 30.4 59.2 20.8 59.2 20.8 56 17.6 56 17.6 52.8"/>
</svg>