<?xml version="1.0" encoding="UTF-8"?>
<svg id="Layer_8" data-name="Layer 8" xmlns="http://www.w3.org/2000/svg" viewBox="0 0 89.6 92.8">
  <defs>
    <style>
      .cls-1 {
        opacity: .4;
      }

      .cls-1, .cls-2 {
        fill: #231f20;
      }

      .cls-1, .cls-2, .cls-3, .cls-4, .cls-5, .cls-6 {
        stroke-width: 0px;
      }

      .cls-2, .cls-3 {
        opacity: .3;
      }

      .cls-3, .cls-6 {
        fill: #ffff52;
      }

      .cls-4 {
        fill: #fa0505;
      }

      .cls-5 {
        fill: #5a0505;
      }
    </style>
  </defs>
  <polygon class="cls-4" points="59.2 54.4 59.2 51.2 56 51.2 56 41.6 52.8 41.6 52.8 32 56 32 56 28.8 59.2 28.8 59.2 22.4 56 22.4 56 25.6 52.8 25.6 52.8 28.8 46.4 28.8 46.4 25.6 43.2 25.6 43.2 22.4 36.8 22.4 36.8 25.6 33.6 25.6 33.6 28.8 27.2 28.8 27.2 25.6 24 25.6 24 22.4 20.8 22.4 20.8 28.8 24 28.8 24 32 27.2 32 27.2 41.6 24 41.6 24 51.2 20.8 51.2 20.8 54.4 17.6 54.4 17.6 60.8 24 60.8 24 64 30.4 64 30.4 67.2 49.6 67.2 49.6 64 56 64 56 60.8 62.4 60.8 62.4 54.4 59.2 54.4"/>
  <g>
    <g>
      <rect class="cls-5" x="14.4" y="54.4" width="3.2" height="6.4"/>
      <rect class="cls-5" x="20.8" y="41.6" width="3.2" height="9.6"/>
      <rect class="cls-5" x="17.6" y="60.8" width="6.4" height="3.2"/>
      <rect class="cls-5" x="24" y="64" width="6.4" height="3.2"/>
      <rect class="cls-5" x="17.6" y="51.2" width="3.2" height="3.2"/>
      <rect class="cls-5" x="33.6" y="22.4" width="3.2" height="3.2"/>
      <rect class="cls-5" x="62.4" y="54.4" width="3.2" height="6.4" transform="translate(128 115.2) rotate(-180)"/>
      <rect class="cls-5" x="56" y="41.6" width="3.2" height="9.6" transform="translate(115.2 92.8) rotate(-180)"/>
      <rect class="cls-5" x="56" y="60.8" width="6.4" height="3.2" transform="translate(118.4 124.8) rotate(-180)"/>
      <rect class="cls-5" x="49.6" y="64" width="6.4" height="3.2" transform="translate(105.6 131.2) rotate(-180)"/>
      <rect class="cls-5" x="59.2" y="51.2" width="3.2" height="3.2" transform="translate(121.6 105.6) rotate(-180)"/>
      <rect class="cls-5" x="65.6" y="51.2" width="3.2" height="3.2" transform="translate(134.4 105.6) rotate(-180)"/>
      <rect class="cls-5" x="68.8" y="48" width="3.2" height="3.2" transform="translate(140.8 99.2) rotate(-180)"/>
      <rect class="cls-5" x="68.8" y="38.4" width="3.2" height="3.2" transform="translate(140.8 80) rotate(-180)"/>
      <rect class="cls-5" x="65.6" y="35.2" width="3.2" height="3.2" transform="translate(134.4 73.6) rotate(-180)"/>
      <rect class="cls-5" x="72" y="35.2" width="3.2" height="3.2" transform="translate(147.2 73.6) rotate(-180)"/>
      <rect class="cls-5" x="65.6" y="41.6" width="3.2" height="3.2" transform="translate(134.4 86.4) rotate(-180)"/>
      <rect class="cls-5" x="72" y="41.6" width="3.2" height="6.4" transform="translate(147.2 89.6) rotate(-180)"/>
      <rect class="cls-5" x="52.8" y="22.4" width="3.2" height="3.2" transform="translate(108.8 48) rotate(-180)"/>
      <rect class="cls-5" x="43.2" y="28.8" width="3.2" height="3.2" transform="translate(89.6 60.8) rotate(-180)"/>
      <rect class="cls-5" x="56" y="16" width="3.2" height="6.4" transform="translate(115.2 38.4) rotate(-180)"/>
      <rect class="cls-5" x="52.8" y="32" width="3.2" height="3.2" transform="translate(108.8 67.2) rotate(-180)"/>
      <rect class="cls-5" x="56" y="28.8" width="3.2" height="3.2" transform="translate(115.2 60.8) rotate(-180)"/>
      <rect class="cls-5" x="59.2" y="22.4" width="3.2" height="6.4" transform="translate(121.6 51.2) rotate(-180)"/>
      <rect class="cls-5" x="46.4" y="35.2" width="6.4" height="3.2" transform="translate(99.2 73.6) rotate(-180)"/>
      <rect class="cls-5" x="46.4" y="25.6" width="6.4" height="3.2" transform="translate(99.2 54.4) rotate(-180)"/>
      <rect class="cls-5" x="43.2" y="22.4" width="3.2" height="3.2" transform="translate(89.6 48) rotate(-180)"/>
      <rect class="cls-5" x="52.8" y="38.4" width="3.2" height="3.2" transform="translate(108.8 80) rotate(-180)"/>
      <rect class="cls-5" x="24" y="22.4" width="3.2" height="3.2"/>
      <rect class="cls-5" x="33.6" y="28.8" width="3.2" height="3.2"/>
      <rect class="cls-5" x="20.8" y="16" width="3.2" height="6.4"/>
      <rect class="cls-5" x="24" y="32" width="3.2" height="3.2"/>
      <rect class="cls-5" x="20.8" y="28.8" width="3.2" height="3.2"/>
      <rect class="cls-5" x="17.6" y="22.4" width="3.2" height="6.4"/>
      <rect class="cls-5" x="27.2" y="35.2" width="6.4" height="3.2"/>
      <rect class="cls-5" x="27.2" y="25.6" width="6.4" height="3.2"/>
      <rect class="cls-5" x="24" y="38.4" width="3.2" height="3.2"/>
      <rect class="cls-5" x="36.8" y="73.6" width="6.4" height="3.2"/>
      <polygon class="cls-5" points="30.4 67.2 30.4 70.4 33.6 70.4 33.6 73.6 36.8 73.6 36.8 70.4 43.2 70.4 43.2 73.6 46.4 73.6 46.4 70.4 49.6 70.4 49.6 67.2 30.4 67.2"/>
      <rect class="cls-5" x="36.8" y="19.2" width="6.4" height="3.2"/>
    </g>
    <rect class="cls-1" x="56" y="51.2" width="3.2" height="3.2" transform="translate(115.2 105.6) rotate(-180)"/>
    <rect class="cls-1" x="49.6" y="60.8" width="6.4" height="3.2" transform="translate(105.6 124.8) rotate(-180)"/>
    <rect class="cls-1" x="30.4" y="64" width="19.2" height="3.2" transform="translate(80 131.2) rotate(-180)"/>
    <rect class="cls-1" x="59.2" y="54.4" width="3.2" height="6.4" transform="translate(121.6 115.2) rotate(-180)"/>
    <rect class="cls-1" x="49.6" y="32" width="3.2" height="3.2" transform="translate(102.4 67.2) rotate(-180)"/>
    <rect class="cls-1" x="52.8" y="28.8" width="3.2" height="3.2" transform="translate(108.8 60.8) rotate(-180)"/>
    <rect class="cls-1" x="56" y="22.4" width="3.2" height="6.4" transform="translate(115.2 51.2) rotate(-180)"/>
    <rect class="cls-1" x="43.2" y="25.6" width="3.2" height="3.2" transform="translate(89.6 54.4) rotate(-180)"/>
    <rect class="cls-1" x="52.8" y="41.6" width="3.2" height="9.6" transform="translate(108.8 92.8) rotate(-180)"/>
    <rect class="cls-1" x="36.8" y="22.4" width="6.4" height="3.2"/>
  </g>
  <rect class="cls-6" x="35.2" y="54.4" width="9.6" height="3.2"/>
  <rect class="cls-6" x="36.8" y="70.4" width="6.4" height="3.2"/>
  <polygon class="cls-6" points="44.8 44.8 44.8 48 41.6 48 41.6 51.2 48 51.2 48 48 48 44.8 44.8 44.8"/>
  <rect class="cls-1" x="41.6" y="44.8" width="3.2" height="3.2" transform="translate(86.4 92.8) rotate(-180)"/>
  <rect class="cls-1" x="38.4" y="48" width="3.2" height="3.2" transform="translate(80 99.2) rotate(-180)"/>
  <rect class="cls-1" x="44.8" y="41.6" width="3.2" height="3.2" transform="translate(92.8 86.4) rotate(-180)"/>
  <rect class="cls-2" x="48" y="38.4" width="4.8" height="3.2" transform="translate(100.8 80) rotate(-180)"/>
  <polygon class="cls-6" points="35.2 44.8 35.2 48 38.4 48 38.4 51.2 32 51.2 32 48 32 44.8 35.2 44.8"/>
  <rect class="cls-1" x="35.2" y="44.8" width="3.2" height="3.2"/>
  <rect class="cls-6" x="32" y="57.6" width="3.2" height="3.2"/>
  <rect class="cls-6" x="44.8" y="57.6" width="3.2" height="3.2"/>
  <rect class="cls-1" x="32" y="41.6" width="3.2" height="3.2"/>
  <rect class="cls-3" x="27.2" y="38.4" width="4.8" height="3.2"/>
</svg>