<?xml version="1.0" encoding="UTF-8"?>
<svg id="Layer_9" data-name="Layer 9" xmlns="http://www.w3.org/2000/svg" viewBox="0 0 120 120">
  <defs>
    <style>
      .cls-1 {
        opacity: .24;
      }

      .cls-1, .cls-2, .cls-3, .cls-4, .cls-5, .cls-6, .cls-7, .cls-8 {
        stroke-width: 0px;
      }

      .cls-3 {
        fill: #231f20;
      }

      .cls-3, .cls-4 {
        opacity: .3;
      }

      .cls-4, .cls-7 {
        fill: #fff;
      }

      .cls-5 {
        fill: #af2f38;
      }

      .cls-6 {
        fill: #ff5b38;
      }

      .cls-8 {
        fill: #00bf51;
      }
    </style>
  </defs>
  <polygon class="cls-1" points="34.4 87.2 34.4 90.4 37.6 90.4 37.6 93.6 82.4 93.6 82.4 90.4 85.6 90.4 85.6 87.2 34.4 87.2"/>
  <g>
    <polygon class="cls-8" points="56.8 32.8 63.2 32.8 66.4 32.8 66.4 29.6 69.6 29.6 69.6 32.8 72.8 32.8 72.8 42.4 76 42.4 76 48.8 79.2 48.8 79.2 55.2 82.4 55.2 82.4 61.6 76 61.6 76 64.8 69.6 64.8 69.6 68 50.4 68 50.4 64.8 44 64.8 44 61.6 37.6 61.6 37.6 55.2 40.8 55.2 40.8 48.8 44 48.8 44 42.4 47.2 42.4 47.2 32.8 50.4 32.8 50.4 29.6 53.6 29.6 53.6 32.8 56.8 32.8"/>
    <g>
      <polygon class="cls-8" points="82.4 74.4 82.4 71.2 76 71.2 76 68 69.6 68 69.6 71.2 66.4 71.2 66.4 74.4 63.2 74.4 63.2 77.6 60 77.6 56.8 77.6 56.8 74.4 53.6 74.4 53.6 71.2 50.4 71.2 50.4 68 44 68 44 71.2 37.6 71.2 37.6 74.4 34.4 74.4 34.4 77.6 37.6 77.6 37.6 80.8 40.8 80.8 40.8 84 37.6 84 37.6 87.2 44 87.2 44 84 47.2 84 47.2 87.2 60 87.2 72.8 87.2 72.8 84 76 84 76 87.2 82.4 87.2 82.4 84 79.2 84 79.2 80.8 82.4 80.8 82.4 77.6 82.4 74.4"/>
      <rect class="cls-2" x="34.4" y="55.2" width="3.2" height="6.4"/>
      <rect class="cls-2" x="40.8" y="42.4" width="3.2" height="6.4"/>
      <rect class="cls-2" x="37.6" y="61.6" width="6.4" height="3.2"/>
      <rect class="cls-2" x="44" y="64.8" width="6.4" height="3.2"/>
      <rect class="cls-2" x="50.4" y="68" width="19.2" height="3.2"/>
      <rect class="cls-2" x="53.6" y="71.2" width="3.2" height="3.2"/>
      <rect class="cls-2" x="37.6" y="71.2" width="3.2" height="3.2"/>
      <rect class="cls-2" x="34.4" y="74.4" width="3.2" height="6.4"/>
      <rect class="cls-2" x="37.6" y="87.2" width="6.4" height="3.2"/>
      <rect class="cls-2" x="40.8" y="68" width="3.2" height="3.2"/>
      <rect class="cls-2" x="34.4" y="84" width="3.2" height="3.2"/>
      <rect class="cls-2" x="37.6" y="80.8" width="3.2" height="3.2"/>
      <rect class="cls-2" x="44" y="84" width="3.2" height="3.2"/>
      <rect class="cls-2" x="47.2" y="71.2" width="3.2" height="12.8"/>
      <rect class="cls-2" x="47.2" y="87.2" width="6.4" height="3.2"/>
      <rect class="cls-2" x="79.2" y="71.2" width="3.2" height="3.2" transform="translate(161.6 145.6) rotate(-180)"/>
      <rect class="cls-2" x="82.4" y="74.4" width="3.2" height="6.4" transform="translate(168 155.2) rotate(-180)"/>
      <rect class="cls-2" x="76" y="87.2" width="6.4" height="3.2" transform="translate(158.4 177.6) rotate(-180)"/>
      <rect class="cls-2" x="76" y="68" width="3.2" height="3.2" transform="translate(155.2 139.2) rotate(-180)"/>
      <rect class="cls-2" x="82.4" y="84" width="3.2" height="3.2" transform="translate(168 171.2) rotate(-180)"/>
      <rect class="cls-2" x="79.2" y="80.8" width="3.2" height="3.2" transform="translate(161.6 164.8) rotate(-180)"/>
      <rect class="cls-2" x="72.8" y="84" width="3.2" height="3.2" transform="translate(148.8 171.2) rotate(-180)"/>
      <rect class="cls-2" x="69.6" y="71.2" width="3.2" height="12.8" transform="translate(142.4 155.2) rotate(-180)"/>
      <rect class="cls-2" x="66.4" y="87.2" width="6.4" height="3.2" transform="translate(139.2 177.6) rotate(-180)"/>
      <rect class="cls-4" x="56.8" y="80.8" width="6.4" height="3.2" transform="translate(120 164.8) rotate(-180)"/>
      <rect class="cls-4" x="53.6" y="74.4" width="3.2" height="3.2" transform="translate(110.4 152) rotate(-180)"/>
      <rect class="cls-4" x="50.4" y="71.2" width="3.2" height="3.2" transform="translate(104 145.6) rotate(-180)"/>
      <rect class="cls-4" x="63.2" y="74.4" width="3.2" height="3.2" transform="translate(129.6 152) rotate(-180)"/>
      <rect class="cls-4" x="66.4" y="71.2" width="3.2" height="3.2" transform="translate(136 145.6) rotate(-180)"/>
      <polygon class="cls-2" points="63.2 80.8 63.2 84 56.8 84 56.8 80.8 53.6 80.8 53.6 87.2 56.8 87.2 63.2 87.2 66.4 87.2 66.4 80.8 63.2 80.8"/>
      <rect class="cls-2" x="37.6" y="48.8" width="3.2" height="6.4"/>
      <rect class="cls-2" x="47.2" y="29.6" width="3.2" height="3.2"/>
      <rect class="cls-2" x="50.4" y="26.4" width="3.2" height="3.2"/>
      <rect class="cls-2" x="53.6" y="29.6" width="3.2" height="3.2"/>
      <rect class="cls-2" x="44" y="32.8" width="3.2" height="9.6"/>
      <rect class="cls-2" x="82.4" y="55.2" width="3.2" height="6.4" transform="translate(168 116.8) rotate(-180)"/>
      <rect class="cls-2" x="76" y="42.4" width="3.2" height="6.4" transform="translate(155.2 91.2) rotate(-180)"/>
      <rect class="cls-2" x="76" y="61.6" width="6.4" height="3.2" transform="translate(158.4 126.4) rotate(-180)"/>
      <rect class="cls-2" x="69.6" y="64.8" width="6.4" height="3.2" transform="translate(145.6 132.8) rotate(-180)"/>
      <rect class="cls-2" x="79.2" y="48.8" width="3.2" height="6.4" transform="translate(161.6 104) rotate(-180)"/>
      <rect class="cls-2" x="69.6" y="29.6" width="3.2" height="3.2" transform="translate(142.4 62.4) rotate(-180)"/>
      <rect class="cls-2" x="66.4" y="26.4" width="3.2" height="3.2" transform="translate(136 56) rotate(-180)"/>
      <rect class="cls-2" x="63.2" y="29.6" width="3.2" height="3.2" transform="translate(129.6 62.4) rotate(-180)"/>
      <rect class="cls-2" x="72.8" y="32.8" width="3.2" height="9.6" transform="translate(148.8 75.2) rotate(-180)"/>
      <rect class="cls-2" x="56.8" y="74.4" width="6.4" height="3.2"/>
      <rect class="cls-2" x="63.2" y="71.2" width="3.2" height="3.2"/>
      <rect class="cls-2" x="56.8" y="32.8" width="6.4" height="3.2"/>
      <rect class="cls-3" x="76" y="48.8" width="3.2" height="6.4" transform="translate(155.2 104) rotate(-180)"/>
      <rect class="cls-3" x="79.2" y="55.2" width="3.2" height="6.4" transform="translate(161.6 116.8) rotate(-180)"/>
      <rect class="cls-3" x="69.6" y="68" width="6.4" height="3.2" transform="translate(145.6 139.2) rotate(-180)"/>
      <rect class="cls-3" x="76" y="71.2" width="3.2" height="3.2" transform="translate(155.2 145.6) rotate(-180)"/>
      <polygon class="cls-3" points="79.2 84 79.2 80.8 76.48 80.8 76 80.8 72.8 80.8 72.8 84 76 84 76 87.2 82.4 87.2 82.4 84 79.2 84"/>
      <rect class="cls-3" x="79.2" y="74.4" width="3.2" height="6.4" transform="translate(161.6 155.2) rotate(-180)"/>
      <rect class="cls-3" x="44" y="68" width="6.4" height="3.2"/>
      <rect class="cls-3" x="40.8" y="71.2" width="3.2" height="3.2"/>
      <polygon class="cls-3" points="40.8 84 40.8 80.8 43.52 80.8 44 80.8 47.2 80.8 47.2 84 44 84 44 87.2 37.6 87.2 37.6 84 40.8 84"/>
      <rect class="cls-3" x="37.6" y="74.4" width="3.2" height="6.4"/>
      <rect class="cls-3" x="69.6" y="32.8" width="3.2" height="9.6" transform="translate(142.4 75.2) rotate(-180)"/>
      <rect class="cls-3" x="66.4" y="29.6" width="3.2" height="3.2" transform="translate(136 62.4) rotate(-180)"/>
      <rect class="cls-3" x="63.2" y="32.8" width="3.2" height="3.2" transform="translate(129.6 68.8) rotate(-180)"/>
      <rect class="cls-3" x="72.8" y="42.4" width="3.2" height="6.4" transform="translate(148.8 91.2) rotate(-180)"/>
      <rect class="cls-4" x="40.8" y="48.8" width="3.2" height="6.4"/>
      <rect class="cls-4" x="37.6" y="55.2" width="3.2" height="6.4"/>
      <rect class="cls-4" x="47.2" y="32.8" width="3.2" height="9.6"/>
      <rect class="cls-4" x="44" y="42.4" width="3.2" height="6.4"/>
      <rect class="cls-4" x="50.4" y="29.6" width="3.2" height="3.2"/>
      <rect class="cls-4" x="53.6" y="32.8" width="3.2" height="3.2"/>
    </g>
    <rect class="cls-7" x="47.2" y="39.2" width="9.6" height="9.6"/>
    <rect class="cls-2" x="50.4" y="39.2" width="3.2" height="9.6"/>
    <rect class="cls-7" x="63.2" y="39.2" width="9.6" height="9.6"/>
    <rect class="cls-2" x="66.4" y="39.2" width="3.2" height="9.6"/>
    <rect class="cls-6" x="47.2" y="56.8" width="25.6" height="3.2"/>
    <rect class="cls-5" x="47.2" y="53.6" width="25.6" height="3.2"/>
    <rect class="cls-6" x="56.8" y="71.2" width="6.4" height="3.2"/>
    <rect class="cls-3" x="56.8" y="36" width="6.4" height="3.2"/>
  </g>
</svg>